<svg xmlns="http://www.w3.org/2000/svg" width="21" height="21" viewBox="0 0 21 21">
    <defs>
        <clipPath id="mabonpr2ca">
            <path style="fill:rgba(60,60,67,.3)" d="M0 0h21v21H0z"/>
        </clipPath>
    </defs>
    <g data-name="Mask Group 11" style="clip-path:url(#mabonpr2ca)">
        <g data-name="Layer 2">
            <g data-name="Layer 1">
                <path data-name="Path 4882" d="M10.521.012c1.626 0 3.254-.008 4.88 0a5.529 5.529 0 0 1 .575 11.035c-.3.023-.6.035-.894.035H5.7A5.368 5.368 0 0 1 1.156 8.86a5.234 5.234 0 0 1-.562-5.7A5.27 5.27 0 0 1 5.438.026c1.7-.052 3.39-.01 5.085-.01zm0 9.833v-.008c1.724 0 3.448.039 5.171-.009a4.3 4.3 0 0 0-.317-8.589q-4.868-.005-9.735 0a5.506 5.506 0 0 0-.747.055 4.3 4.3 0 0 0 .747 8.55c1.63.008 3.258 0 4.885 0z" style="fill:#3c3c43" transform="translate(0 4.959)"/>
                <path data-name="Path 4883" d="M16.646 5.547c.227.137.427.251.616.375a.616.616 0 1 1-.647 1.044c-.173-.1-.342-.2-.555-.325v.674a.621.621 0 1 1-1.237 0c-.006-.207 0-.415 0-.673-.215.128-.385.231-.557.329a.629.629 0 0 1-.888-.182.62.62 0 0 1 .245-.868c.192-.124.391-.237.616-.372-.231-.14-.425-.255-.616-.378a.619.619 0 0 1-.244-.867.626.626 0 0 1 .885-.178c.166.093.327.195.559.334 0-.285-.007-.517 0-.748a.609.609 0 0 1 .369-.572.512.512 0 0 1 .616.084 1.133 1.133 0 0 1 .242.525 3.9 3.9 0 0 1 .009.7c.2-.121.358-.217.516-.308a.623.623 0 1 1 .655 1.047c-.174.112-.357.219-.584.359z" style="fill:#3c3c43" transform="translate(0 4.959)"/>
                <path data-name="Path 4884" d="M11.121 6.626c0 .3.008.528 0 .757A.6.6 0 0 1 10.5 8a.6.6 0 0 1-.6-.609c-.01-.231 0-.462 0-.743-.2.115-.365.213-.534.308A.618.618 0 1 1 8.742 5.9c.177-.111.356-.219.568-.348-.231-.14-.424-.256-.616-.379a.615.615 0 1 1 .644-1.043c.173.1.342.2.562.337v-.724a.622.622 0 0 1 .616-.655.606.606 0 0 1 .6.637c.008.22 0 .44 0 .724l.519-.3a.625.625 0 1 1 .652 1.051c-.177.112-.359.218-.568.344.22.135.418.25.611.374a.614.614 0 0 1 .245.866.621.621 0 0 1-.884.184c-.173-.1-.341-.206-.57-.342z" style="fill:#3c3c43" transform="translate(0 4.959)"/>
                <path data-name="Path 4885" d="M4.971 6.631c-.225.135-.385.231-.555.331a.627.627 0 0 1-.906-.182.608.608 0 0 1 .259-.862c.186-.118.376-.231.6-.366-.22-.136-.412-.251-.6-.371a.612.612 0 0 1-.265-.859.629.629 0 0 1 .9-.19c.172.1.341.2.559.334 0-.287-.006-.515 0-.742a.612.612 0 0 1 .6-.639.627.627 0 0 1 .621.654c.006.22 0 .441 0 .712.212-.126.385-.235.568-.336a.611.611 0 0 1 .881.186.6.6 0 0 1-.221.848c-.19.129-.392.242-.631.385l.568.352a.621.621 0 1 1-.636 1.055c-.163-.094-.325-.192-.529-.308 0 .276.005.5 0 .73a.606.606 0 0 1-.609.632.6.6 0 0 1-.616-.616c.005-.231.012-.459.012-.748z" style="fill:#3c3c43" transform="translate(0 4.959)"/>
            </g>
        </g>
    </g>
</svg>
