<svg xmlns="http://www.w3.org/2000/svg" width="37.943" height="29.999" viewBox="0 0 37.943 29.999">
  <g id="mathquiz" transform="translate(-715.868 -1409.699)">
    <path id="Path_4787" data-name="Path 4787" d="M753.811,1610.481a1.469,1.469,0,0,1-1.551.924q-17.454-.02-34.907-.01c-.822,0-1.264-.275-1.439-.891a1.193,1.193,0,0,1,1.013-1.511,4.818,4.818,0,0,1,.518-.017h14.512c.119-.36.044-.535-.311-.664a32.473,32.473,0,0,0-11.745-2.054c-.395.007-.789.052-1.184.063a1.218,1.218,0,1,1-.11-2.432,30.718,30.718,0,0,1,7.378.4,35.236,35.236,0,0,1,6.076,1.587c.076.028.158.042.307.081a13.39,13.39,0,0,0-2.838-2.177,17.32,17.32,0,0,0-8.276-2.358c-.321-.013-.642-.02-.962-.047a1.2,1.2,0,0,1,.072-2.4,20.805,20.805,0,0,1,6.736,1.052,17.977,17.977,0,0,1,7.165,4.384.933.933,0,0,0,1.157-.012,18.407,18.407,0,0,1,10.622-5.179c1.035-.15,2.088-.186,3.135-.24a1.206,1.206,0,1,1,.111,2.4,22.617,22.617,0,0,0-4.333.493,16.18,16.18,0,0,0-7.382,3.808.419.419,0,0,0-.138.559,3.182,3.182,0,0,1,.214,1.074,1.165,1.165,0,0,1-1.122,1.156,1.211,1.211,0,0,1-1.254-.982c-.078-.4-.277-.571-.581-.449-.105.042-.241.176-.245.273-.024.539-.011,1.079-.011,1.66h.517c5.756,0,11.512.009,17.268-.011a1.5,1.5,0,0,1,1.59.923Z" transform="translate(0 -171.707)" fill="#4e5366"/>
    <path id="Path_4788" data-name="Path 4788" d="M867.208,1421.326h.4c1.42,0,2.841-.006,4.261,0a1.2,1.2,0,0,1,1.308,1.126,1.157,1.157,0,0,1-1.144,1.278q-3.26.027-6.521,0a1.176,1.176,0,0,1-1.162-1.274,4.588,4.588,0,0,1,1.929-3.745c.861-.657,1.8-1.2,2.7-1.817a7.039,7.039,0,0,0,1.016-.8,2.432,2.432,0,0,0,.611-2.657,1.926,1.926,0,0,0-2.094-1.291,2.041,2.041,0,0,0-1.715,1.828c-.015.147-.013.3-.039.443a1.192,1.192,0,0,1-1.33,1.013,1.206,1.206,0,0,1-1.08-1.207,4.422,4.422,0,1,1,8.838.083,5.288,5.288,0,0,1-2.656,4.479c-.785.534-1.608,1.014-2.391,1.552a11,11,0,0,0-.994.865Z" transform="translate(-134.693)" fill="#4e5366"/>
    <path id="Path_4789" data-name="Path 4789" d="M981.511,1432.417c-1.082,0-2.155,0-3.229,0a1.211,1.211,0,0,1-1.019-1.881,1.181,1.181,0,0,1,1.039-.544c1.766-.008,3.532-.025,5.3,0a1.21,1.21,0,0,1,1.075,1.9c-.538.971-1.1,1.928-1.657,2.9.325.231.662.432.955.685,2.316,2,2.328,6.356-.666,8a4.637,4.637,0,0,1-6.1-1.415,4.311,4.311,0,0,1-.439-.972,1.184,1.184,0,0,1,.785-1.5,1.154,1.154,0,0,1,1.49.742,1.961,1.961,0,0,0,2.354,1.255,2.039,2.039,0,0,0,1.781-1.85,3.06,3.06,0,0,0-.265-1.731,1.924,1.924,0,0,0-1.722-1.147,1.213,1.213,0,0,1-1.053-1.916c.453-.82.922-1.632,1.384-2.447C981.524,1432.495,981.518,1432.48,981.511,1432.417Z" transform="translate(-236.625 -18.397)" fill="#4e5366"/>
    <path id="Path_4790" data-name="Path 4790" d="M764.979,1434.62c-.836.769-1.675,1.536-2.508,2.309a1.211,1.211,0,0,1-2.046-.5,1.114,1.114,0,0,1,.262-1.136q2.286-2.376,4.589-4.733a1.211,1.211,0,0,1,2.084.879q0,5.8,0,11.593a1.2,1.2,0,0,1-2.4.078c-.024-.27-.016-.543-.017-.814q0-3.685,0-7.371v-.424Z" transform="translate(-40.371 -18.579)" fill="#4e5366"/>
    <path id="Path_4791" data-name="Path 4791" d="M965,1650.782c.727.034,1.455.063,2.182.1a1.208,1.208,0,0,1,1.225,1.294,1.23,1.23,0,0,1-1.341,1.14c-1.32-.01-2.644-.075-3.959,0a26.292,26.292,0,0,0-7.156,1.455,1.273,1.273,0,0,1-1.575-.339,1.194,1.194,0,0,1,.644-1.9c1.306-.4,2.62-.793,3.952-1.094A28.124,28.124,0,0,1,965,1650.782Z" transform="translate(-216.13 -218.703)" fill="#4e5366"/>
  </g>
</svg>
