<svg id="store_icon" xmlns="http://www.w3.org/2000/svg" width="27.1" height="26" viewBox="0 0 27.1 26">
    <defs>
        <style>
            .cls-2{fill:#1b61b1}
        </style>
    </defs>
    <g id="Button_language" data-name="Button language" transform="translate(0 1)">
        <rect id="back" width="27.1" height="26" rx="5" transform="translate(0 -1)" style="fill:#fff"/>
        <g id="Group_6569" data-name="Group 6569" transform="translate(5.09 4.017)">
            <path id="Path_4811" data-name="Path 4811" class="cls-2" d="M-699.924 398.918a1.946 1.946 0 0 0 1.648-.757.971.971 0 0 1 .084.076 1.856 1.856 0 0 0 1.474.677 6.049 6.049 0 0 0 .847-.03 1.834 1.834 0 0 0 1.218-.762 2.3 2.3 0 0 0 1.873.8 2.287 2.287 0 0 0 1.882-.8l.118.133a1.831 1.831 0 0 0 1.366.652 6.053 6.053 0 0 0 .927-.024 1.84 1.84 0 0 0 1.211-.735 1.955 1.955 0 0 0 1.66.767c0 .083.011.153.011.222v7.632c0 .432-.134.566-.567.566h-7.428c0-.092-.01-.168-.01-.244v-5.9c0-.467-.13-.6-.6-.6h-3.083c-.394 0-.539.143-.539.532v6.186c-.058.006-.108.016-.158.016h-1.443c-.345 0-.5-.154-.5-.489v-7.77c-.004-.033.003-.078.009-.148zm12.213 3.8v-1.616a.433.433 0 0 0-.494-.5h-2.8a.432.432 0 0 0-.495.5v3.213a.437.437 0 0 0 .494.5h2.8a.438.438 0 0 0 .5-.5c-.005-.534-.006-1.067-.006-1.599z" transform="translate(701.247 -391.339)"/>
            <path id="Path_4812" data-name="Path 4812" class="cls-2" d="M-590.668 269.388h.731c.109 0 .148.039.16.145q.236 2.173.479 4.346l.094.842a1.261 1.261 0 0 1-1.22 1.4 3.625 3.625 0 0 1-.727-.029 1.245 1.245 0 0 1-1.011-1.385q.286-2.574.568-5.149c.015-.137.065-.177.2-.172.238.008.482.002.726.002z" transform="translate(599.159 -269.385)"/>
            <path id="Path_4813" data-name="Path 4813" class="cls-2" d="M-530.943 269.441c.563 0 1.108 0 1.653.007.044 0 .107.1.125.161q.421 1.486.832 2.974.3 1.09.605 2.18a1.054 1.054 0 0 1-1.08 1.413h-.415a1.046 1.046 0 0 1-1.078-.946c-.154-1.33-.3-2.661-.445-3.992q-.088-.793-.178-1.585c-.007-.063-.011-.127-.019-.212z" transform="translate(541.157 -269.438)"/>
            <path id="Path_4814" data-name="Path 4814" class="cls-2" d="M-655.779 269.584c-.059.542-.115 1.063-.173 1.584-.153 1.37-.312 2.739-.459 4.11a1.069 1.069 0 0 1-1.119 1.034h-.415a1.052 1.052 0 0 1-1.06-1.384c.313-1.138.633-2.274.949-3.411l.492-1.762c.016-.056.035-.112.053-.17z" transform="translate(662.517 -269.573)"/>
            <path id="Path_4815" data-name="Path 4815" class="cls-2" d="M-720.667 269.429c-.207.747-.4 1.461-.6 2.174l-1.018 3.659a1.082 1.082 0 0 1-1.185.9 2.636 2.636 0 0 1-.394-.013 1.048 1.048 0 0 1-.814-1.526c.5-1.128 1-2.254 1.506-3.38.187-.419.377-.838.56-1.259a.864.864 0 0 1 .851-.557l1.094.002z" transform="translate(724.792 -269.426)"/>
            <path id="Path_4816" data-name="Path 4816" class="cls-2" d="M-481.02 269.517c.412 0 .813-.015 1.213 0a.771.771 0 0 1 .688.489c.71 1.587 1.424 3.173 2.118 4.767a1.04 1.04 0 0 1-.938 1.462c-.144.008-.29.005-.434 0a1.029 1.029 0 0 1-1-.732c-.557-1.976-1.1-3.956-1.652-5.934a.323.323 0 0 1 .005-.052z" transform="translate(493.865 -269.505)"/>
        </g>
    </g>
</svg>
