<svg data-name="Audience poll" xmlns="http://www.w3.org/2000/svg" width="56.692" height="45" viewBox="0 0 56.692 45">
    <defs>
        <linearGradient id="lqwg4vh2ca" x1=".045" y1=".03" x2="1" y2="1" gradientUnits="objectBoundingBox">
            <stop offset="0" stop-color="#1f68b7"/>
            <stop offset="1" stop-color="#45aef7"/>
        </linearGradient>
    </defs>
    <path data-name="Path 3280" d="M-14.285 3.127a.484.484 0 0 1-.445-.214.516.516 0 0 1 .009-.516l2.351-5.209a.85.85 0 0 1 .28-.37.66.66 0 0 1 .378-.111.646.646 0 0 1 .37.111.85.85 0 0 1 .28.37L-8.7 2.4a.543.543 0 0 1 .018.521.457.457 0 0 1-.427.209.571.571 0 0 1-.387-.12 1.012 1.012 0 0 1-.245-.37l-.447-1.04h-3.063l-.436 1.033a1.158 1.158 0 0 1-.24.374.5.5 0 0 1-.356.116zm2.556-5.111L-12.86.7h2.28l-1.131-2.68zm5.476 5.129q-1.6 0-1.6-1.8V-.808a.492.492 0 0 1 .136-.419.492.492 0 0 1 .417-.142.5.5 0 0 1 .421.14.5.5 0 0 1 .14.421v2.172a1.051 1.051 0 0 0 .187.686.737.737 0 0 0 .6.223.952.952 0 0 0 .73-.307 1.15 1.15 0 0 0 .285-.815V-.808a.492.492 0 0 1 .136-.419.492.492 0 0 1 .416-.142.5.5 0 0 1 .421.14.5.5 0 0 1 .14.421v3.366q0 .57-.543.57t-.543-.57v-.152a1.446 1.446 0 0 1-1.343.739zm5.254 0a1.819 1.819 0 0 1-1-.276 1.832 1.832 0 0 1-.672-.793A2.814 2.814 0 0 1-2.913.87a2.777 2.777 0 0 1 .24-1.207A1.841 1.841 0 0 1-2-1.116a1.819 1.819 0 0 1 1-.276 1.713 1.713 0 0 1 .837.2A1.376 1.376 0 0 1 .4-.644v-2.088a.492.492 0 0 1 .135-.418.492.492 0 0 1 .416-.142.5.5 0 0 1 .421.14.5.5 0 0 1 .14.421v5.289a.5.5 0 0 1-.552.57.5.5 0 0 1-.552-.57v-.187a1.372 1.372 0 0 1-.561.565A1.7 1.7 0 0 1-1 3.145zm.312-.845a1 1 0 0 0 .8-.361A1.619 1.619 0 0 0 .417.875a1.6 1.6 0 0 0-.3-1.069 1 1 0 0 0-.8-.352 1 1 0 0 0-.8.352 1.6 1.6 0 0 0-.3 1.069 1.619 1.619 0 0 0 .3 1.064 1 1 0 0 0 .8.361zm3.909-4.489a.7.7 0 0 1-.485-.156.55.55 0 0 1-.178-.432.548.548 0 0 1 .178-.436.712.712 0 0 1 .485-.151q.659 0 .659.588t-.659.588zm0 5.307a.519.519 0 0 1-.41-.16.647.647 0 0 1-.142-.445V-.755q0-.606.552-.606t.561.606v3.268a.647.647 0 0 1-.142.445.534.534 0 0 1-.419.16zm3.865.027a2.742 2.742 0 0 1-1.273-.276 1.959 1.959 0 0 1-.824-.784A2.387 2.387 0 0 1 4.7.883 2.41 2.41 0 0 1 4.981-.3a2.061 2.061 0 0 1 .775-.8 2.187 2.187 0 0 1 1.126-.289A1.889 1.889 0 0 1 8.347-.8 2.281 2.281 0 0 1 8.881.8q0 .329-.427.329H5.769A1.186 1.186 0 0 0 7.1 2.3a2.683 2.683 0 0 0 .521-.058 1.9 1.9 0 0 0 .548-.2.5.5 0 0 1 .392-.085.351.351 0 0 1 .227.191.445.445 0 0 1 .018.316.525.525 0 0 1-.254.3 2.315 2.315 0 0 1-.712.289 3.36 3.36 0 0 1-.753.092zM6.926-.63a1.069 1.069 0 0 0-.793.3 1.346 1.346 0 0 0-.365.819h2.191a1.336 1.336 0 0 0-.3-.833.942.942 0 0 0-.733-.286zm3.393 3.758a.5.5 0 0 1-.552-.57V-.808a.488.488 0 0 1 .133-.417.488.488 0 0 1 .412-.145.488.488 0 0 1 .412.145.488.488 0 0 1 .131.416v.187a1.48 1.48 0 0 1 .6-.57 1.822 1.822 0 0 1 .85-.2q1.541 0 1.54 1.79v2.16a.559.559 0 1 1-1.113 0V.456a1.158 1.158 0 0 0-.187-.739.725.725 0 0 0-.592-.232 1.02 1.02 0 0 0-.779.307 1.14 1.14 0 0 0-.289.815v1.95a.5.5 0 0 1-.565.57zm6.67.018a2.428 2.428 0 0 1-1.193-.28 1.931 1.931 0 0 1-.784-.8 2.532 2.532 0 0 1-.276-1.214 2.454 2.454 0 0 1 .276-1.2 1.9 1.9 0 0 1 .788-.772 2.493 2.493 0 0 1 1.193-.267 2.809 2.809 0 0 1 .637.08 2.154 2.154 0 0 1 .646.267.406.406 0 0 1 .209.276.466.466 0 0 1-.045.312.44.44 0 0 1-.223.2.367.367 0 0 1-.334-.045 1.609 1.609 0 0 0-.793-.232 1.126 1.126 0 0 0-.895.356 1.514 1.514 0 0 0-.32 1.039A1.569 1.569 0 0 0 16.2 1.9a1.1 1.1 0 0 0 .89.383 1.658 1.658 0 0 0 .793-.223.356.356 0 0 1 .329-.045.383.383 0 0 1 .2.209.506.506 0 0 1 .027.312.426.426 0 0 1-.2.272 2.2 2.2 0 0 1-.623.258 2.641 2.641 0 0 1-.623.08zm4.248 0a2.742 2.742 0 0 1-1.273-.276 1.959 1.959 0 0 1-.824-.784 2.387 2.387 0 0 1-.289-1.2A2.41 2.41 0 0 1 19.134-.3a2.061 2.061 0 0 1 .775-.8 2.187 2.187 0 0 1 1.122-.289A1.889 1.889 0 0 1 22.5-.8a2.281 2.281 0 0 1 .53 1.6q0 .329-.427.329h-2.685A1.186 1.186 0 0 0 21.254 2.3a2.683 2.683 0 0 0 .521-.058 1.9 1.9 0 0 0 .548-.2.5.5 0 0 1 .392-.085.351.351 0 0 1 .227.191.445.445 0 0 1 .018.316.525.525 0 0 1-.254.3 2.315 2.315 0 0 1-.712.289 3.36 3.36 0 0 1-.757.093zM21.076-.63a1.069 1.069 0 0 0-.793.3 1.346 1.346 0 0 0-.365.819h2.191a1.336 1.336 0 0 0-.3-.833.942.942 0 0 0-.735-.289zm5.805 5.36a.492.492 0 0 1-.552-.561V-.808a.488.488 0 0 1 .131-.416.488.488 0 0 1 .412-.145.492.492 0 0 1 .416.142.492.492 0 0 1 .136.419v.187a1.387 1.387 0 0 1 .561-.557 1.72 1.72 0 0 1 .855-.209 1.819 1.819 0 0 1 1 .276 1.841 1.841 0 0 1 .672.779 2.777 2.777 0 0 1 .24 1.207 2.814 2.814 0 0 1-.24 1.2 1.842 1.842 0 0 1-.668.788 1.814 1.814 0 0 1-1.006.28 1.719 1.719 0 0 1-.833-.2 1.415 1.415 0 0 1-.565-.539v1.765a.5.5 0 0 1-.561.561zm1.648-2.43a1 1 0 0 0 .8-.361 1.619 1.619 0 0 0 .3-1.064 1.6 1.6 0 0 0-.3-1.069 1.089 1.089 0 0 0-1.6 0 1.6 1.6 0 0 0-.3 1.069 1.619 1.619 0 0 0 .3 1.064 1 1 0 0 0 .8.361zm5.129.846a2.389 2.389 0 0 1-1.175-.276 1.924 1.924 0 0 1-.775-.788 2.506 2.506 0 0 1-.276-1.207 2.48 2.48 0 0 1 .276-1.2 1.931 1.931 0 0 1 .775-.784 2.641 2.641 0 0 1 2.351 0 1.931 1.931 0 0 1 .775.784 2.48 2.48 0 0 1 .276 1.2 2.506 2.506 0 0 1-.276 1.2 1.924 1.924 0 0 1-.775.788 2.389 2.389 0 0 1-1.175.28zm0-.846a1 1 0 0 0 .8-.361 1.619 1.619 0 0 0 .3-1.064 1.6 1.6 0 0 0-.3-1.069 1.089 1.089 0 0 0-1.6 0 1.6 1.6 0 0 0-.3 1.069 1.619 1.619 0 0 0 .3 1.064 1 1 0 0 0 .8.361zm4.63.846Q36.8 3.145 36.8 1.48v-4.212a.492.492 0 0 1 .136-.419.492.492 0 0 1 .416-.142.5.5 0 0 1 .421.14.5.5 0 0 1 .14.421v4.159q0 .8.668.8h.134q.063 0 .125-.013a.147.147 0 0 1 .169.067.856.856 0 0 1 .045.343.59.59 0 0 1-.089.347.405.405 0 0 1-.294.151 2.7 2.7 0 0 1-.383.023zm2.841 0q-1.487 0-1.487-1.665v-4.213a.492.492 0 0 1 .136-.419.492.492 0 0 1 .416-.142.5.5 0 0 1 .421.14.5.5 0 0 1 .14.421v4.159q0 .8.668.8h.134q.063 0 .125-.013a.147.147 0 0 1 .169.067.856.856 0 0 1 .045.343.589.589 0 0 1-.089.347.405.405 0 0 1-.294.151 2.7 2.7 0 0 1-.384.023z" transform="translate(14.795 40.265)" style="fill:url(#lqwg4vh2ca)"/>
    <path data-name="Path 2756" d="M132.371 3106.338h-3.146v-5.381a6 6 0 0 0-5.988-5.988h-.183a5.9 5.9 0 0 0-3.66 1.425l-.356.3-.21-.417a7.52 7.52 0 0 0-6.742-4.139h-.181a7.562 7.562 0 0 0-6.521 4.142l-.212.41-.351-.3a5.964 5.964 0 0 0-3.88-1.425h-.187a6.1 6.1 0 0 0-5.809 6.106v5.262h-3.368a1.281 1.281 0 0 0 0 2.561h40.783a1.281 1.281 0 0 0 0-2.561zm-28-.069h-6.855v-5.22a3.505 3.505 0 0 1 3.295-3.517h.139a3.433 3.433 0 0 1 3.427 3.431zm12.716 0h-10v-6.455a5.092 5.092 0 0 1 4.843-5.109h.154a5 5 0 0 1 5 5zm9.577 0h-6.857v-5.22a3.505 3.505 0 0 1 3.295-3.517h.139a3.433 3.433 0 0 1 3.427 3.431z" transform="translate(-84.07 -3080.771)" style="fill:url(#lqwg4vh2ca)"/>
    <path data-name="Path 2758" d="M168.442 3076.454a3.792 3.792 0 1 0 3.792 3.792 3.792 3.792 0 0 0-3.792-3.792zm0 5.024a1.231 1.231 0 1 1 1.231-1.233 1.23 1.23 0 0 1-1.231 1.233z" transform="translate(-129.277 -3071.229)" style="fill:url(#lqwg4vh2ca)"/>
    <path data-name="Path 2760" d="M111.565 3076.454a3.792 3.792 0 1 0 3.792 3.792 3.792 3.792 0 0 0-3.792-3.792zm0 5.024a1.231 1.231 0 1 1 1.231-1.233 1.23 1.23 0 0 1-1.231 1.233z" transform="translate(-94.691 -3071.229)" style="fill:url(#lqwg4vh2ca)"/>
    <path data-name="Path 2762" d="M137.138 3062.033a4.936 4.936 0 1 0 4.937 4.937 4.937 4.937 0 0 0-4.937-4.937zm0 7.514a2.582 2.582 0 1 1 2.582-2.582 2.582 2.582 0 0 1-2.582 2.582z" transform="translate(-109.119 -3062.033)" style="fill:url(#lqwg4vh2ca)"/>
</svg>
