<svg xmlns="http://www.w3.org/2000/svg" width="21" height="21" viewBox="0 0 21 21">
    <defs>
        <clipPath id="47u7a079ua">
            <path style="fill:rgba(60,60,67,.3)" d="M0 0h21v21H0z"/>
        </clipPath>
    </defs>
    <g data-name="Mask Group 12" style="clip-path:url(#47u7a079ua)">
        <g data-name="Layer 2">
            <g data-name="Layer 1">
                <path data-name="Path 4886" d="M20.999 5.406a2.014 2.014 0 0 0-2.222-2.2H2.229a2.014 2.014 0 0 0-2.23 2.2v10.205a2.018 2.018 0 0 0 2.2 2.185h16.554a2.013 2.013 0 0 0 2.246-2.218V5.406zm-2.344-.9-8.156 7.231-8.15-7.225zM1.314 15.797V5.316l6.295 5.575zm1.208.689 6.063-4.724.519.458.831.733a.916.916 0 0 0 .567.289.908.908 0 0 0 .564-.288l.849-.748.5-.442 6.067 4.725zm17.155-.7-6.285-4.9 6.285-5.566z"/>
            </g>
        </g>
    </g>
</svg>
