<svg id="rank_c" data-name="rank c" xmlns="http://www.w3.org/2000/svg" xmlns:xlink="http://www.w3.org/1999/xlink" width="18" height="21.56" viewBox="0 0 18 21.56">
  <defs>
    <linearGradient id="linear-gradient" x2="1" y2="1" gradientUnits="objectBoundingBox">
      <stop offset="0" stop-color="#00b3d5"/>
      <stop offset="1" stop-color="#00e1d3"/>
    </linearGradient>
  </defs>
  <path id="Path_2540" data-name="Path 2540" d="M670.789,78.688l-.275-.074-.074-.275a.152.152,0,0,0-.294,0l-.074.275-.275.074a.152.152,0,0,0,0,.294l.275.074.074.275a.152.152,0,0,0,.294,0l.074-.275.275-.074a.152.152,0,0,0,0-.294Z" transform="translate(-656.611 -78.054)" fill="#212121"/>
  <path id="Path_2541" data-name="Path 2541" d="M707.576,190.264l-.482-.13-.13-.482a.152.152,0,0,0-.293,0l-.13.482-.482.13a.152.152,0,0,0,0,.294l.482.13.13.482a.152.152,0,0,0,.293,0l.13-.482.482-.13a.152.152,0,0,0,0-.294Z" transform="translate(-689.688 -179.595)" fill="#212121"/>
  <g id="Group_1072" data-name="Group 1072" transform="translate(7.648 11.238)">
    <path id="Path_2542" data-name="Path 2542" d="M614.145,212.978l-1.653-.626a.507.507,0,0,0-.572.153l-1.118,1.369a.507.507,0,0,1-.882-.189l-2.078-7.755a.506.506,0,0,1,.358-.62l3.915-1.049a.506.506,0,0,1,.62.358l2.078,7.755A.507.507,0,0,1,614.145,212.978Z" transform="translate(-607.825 -204.243)" stroke="rgba(0,0,0,0)" stroke-width="1" fill="url(#linear-gradient)"/>
  </g>
  <g id="Group_1073" data-name="Group 1073" transform="translate(1.867 11.238)">
    <path id="Path_2543" data-name="Path 2543" d="M542.7,212.978l1.653-.626a.507.507,0,0,1,.572.153l1.118,1.369a.507.507,0,0,0,.882-.189L549,205.929a.507.507,0,0,0-.358-.62l-3.915-1.049a.507.507,0,0,0-.62.358l-2.078,7.755A.507.507,0,0,0,542.7,212.978Z" transform="translate(-542.009 -204.243)" stroke="rgba(0,0,0,0)" stroke-width="1" fill="url(#linear-gradient)"/>
  </g>
  <g id="Group_1075" data-name="Group 1075" transform="translate(1.867 11.238)">
    <g id="Group_1074" data-name="Group 1074">
      <path id="Path_2544" data-name="Path 2544" d="M543.445,212.373l2.078-7.755a.5.5,0,0,1,.057-.129l-.855-.229a.507.507,0,0,0-.62.358l-2.078,7.755a.507.507,0,0,0,.669.6l.767-.291A.5.5,0,0,1,543.445,212.373Z" transform="translate(-542.009 -204.243)" fill="#fff"/>
    </g>
  </g>
  <g id="Group_1077" data-name="Group 1077" transform="translate(7.646 11.238)">
    <g id="Group_1076" data-name="Group 1076">
      <path id="Path_2545" data-name="Path 2545" d="M609.362,205.93a.507.507,0,0,1,.358-.62l2.973-.8a.506.506,0,0,0-.578-.252L608.2,205.31a.506.506,0,0,0-.358.62l2.078,7.755a.507.507,0,0,0,.882.189l.519-.635Z" transform="translate(-607.825 -204.244)" fill="#fff"/>
    </g>
  </g>
  <g id="Group_1078" data-name="Group 1078" transform="translate(3.163 11.236)" style="mix-blend-mode: multiply;isolation: isolate">
    <path id="Path_2546" data-name="Path 2546" d="M566.138,204.618a.507.507,0,0,0-.62-.358l-3.675.985-3.675-.985a.506.506,0,0,0-.62.358l-.8,3a3.269,3.269,0,0,1,.92.4c.638.464.988,1.545,1.754,1.794.624.2,1.372-.234,2.082-.377l.341-1.274.336,1.255c.742.116,1.534.609,2.188.4.767-.249,1.116-1.33,1.754-1.794a2.985,2.985,0,0,1,.827-.375Z" transform="translate(-556.745 -204.243)" fill="#bdbdbd"/>
  </g>
  <g id="Group_1079" data-name="Group 1079" transform="translate(7.344 10.934)">
    <path id="Path_2547" data-name="Path 2547" d="M607.249,211.205a.812.812,0,0,1-.785-.6l-2.078-7.755a.811.811,0,0,1,.573-.993l3.915-1.049a.812.812,0,0,1,.993.573l2.078,7.755a.811.811,0,0,1-1.07.968l-1.653-.626a.2.2,0,0,0-.229.061l-1.118,1.369A.806.806,0,0,1,607.249,211.205Zm1.835-9.817a.2.2,0,0,0-.052.007l-3.915,1.049a.2.2,0,0,0-.143.248l2.078,7.755a.2.2,0,0,0,.353.076l1.118-1.369a.809.809,0,0,1,.915-.245l1.653.626a.2.2,0,0,0,.268-.242l-2.078-7.755A.2.2,0,0,0,609.084,201.388Z" transform="translate(-604.358 -200.78)" fill="#212121"/>
  </g>
  <g id="Group_1080" data-name="Group 1080" transform="translate(1.563 10.934)">
    <path id="Path_2548" data-name="Path 2548" d="M543.273,211.205a.806.806,0,0,1-.626-.3l-1.118-1.369a.2.2,0,0,0-.229-.061l-1.653.626h0a.811.811,0,0,1-1.07-.968l2.078-7.755a.812.812,0,0,1,.993-.573l3.915,1.049a.81.81,0,0,1,.573.993l-2.078,7.755a.812.812,0,0,1-.785.6Zm-1.9-2.349a.809.809,0,0,1,.627.3l1.118,1.369a.2.2,0,0,0,.353-.076l2.078-7.755a.2.2,0,0,0-.143-.248l-3.915-1.049a.2.2,0,0,0-.248.143l-2.078,7.755a.2.2,0,0,0,.268.242h0l1.653-.626A.81.81,0,0,1,541.372,208.856Z" transform="translate(-538.548 -200.78)" fill="#212121"/>
  </g>
  <g id="Group_1083" data-name="Group 1083">
    <g id="Group_1081" data-name="Group 1081" transform="translate(0.304 0.304)">
      <path id="Path_2549" data-name="Path 2549" d="M540.212,87.39c0,.82-.921,1.485-1.161,2.225-.249.767.1,1.844-.368,2.483s-1.6.646-2.248,1.116-.988,1.546-1.755,1.795c-.74.24-1.655-.421-2.475-.421s-1.735.661-2.475.421c-.767-.249-1.117-1.33-1.755-1.795s-1.779-.471-2.248-1.116-.119-1.716-.368-2.483c-.24-.74-1.161-1.4-1.161-2.225s.921-1.485,1.161-2.225c.249-.767-.1-1.844.368-2.483s1.6-.647,2.248-1.116.988-1.546,1.755-1.795c.74-.24,1.655.421,2.475.421s1.735-.661,2.475-.421c.767.249,1.117,1.33,1.755,1.795s1.779.471,2.248,1.116.119,1.716.368,2.483C539.292,85.9,540.212,86.569,540.212,87.39Z" transform="translate(-524.198 -79.719)" fill="#fff"/>
    </g>
    <g id="Group_1082" data-name="Group 1082">
      <path id="Path_2550" data-name="Path 2550" d="M531.167,92.2a3.744,3.744,0,0,1-1.135-.249,2.278,2.278,0,0,0-1.975,0,2.567,2.567,0,0,1-1.581.181,2.6,2.6,0,0,1-1.206-1.105,3.239,3.239,0,0,0-.634-.733,3.275,3.275,0,0,0-.9-.384A1.952,1.952,0,0,1,522,87.534a3.326,3.326,0,0,0-.088-.989,3.184,3.184,0,0,0-.492-.813,2,2,0,0,1,0-3.011,3.183,3.183,0,0,0,.493-.813,3.326,3.326,0,0,0,.088-.989,1.952,1.952,0,0,1,1.734-2.377,3.278,3.278,0,0,0,.9-.384,3.235,3.235,0,0,0,.634-.733,2.6,2.6,0,0,1,1.206-1.1,2.567,2.567,0,0,1,1.581.181,2.278,2.278,0,0,0,1.975,0,2.565,2.565,0,0,1,1.581-.181,2.6,2.6,0,0,1,1.206,1.105,3.24,3.24,0,0,0,.634.733,3.276,3.276,0,0,0,.9.384,1.952,1.952,0,0,1,1.734,2.377,3.327,3.327,0,0,0,.088.989,3.181,3.181,0,0,0,.493.813,2,2,0,0,1,0,3.011,3.18,3.18,0,0,0-.493.813,3.327,3.327,0,0,0-.088.989,1.952,1.952,0,0,1-1.734,2.377,3.278,3.278,0,0,0-.9.384,3.24,3.24,0,0,0-.634.733,2.6,2.6,0,0,1-1.206,1.105A1.437,1.437,0,0,1,531.167,92.2Zm-2.122-1.082a3.854,3.854,0,0,1,1.177.256,2.137,2.137,0,0,0,1.2.18,2.158,2.158,0,0,0,.9-.881,3.711,3.711,0,0,1,.771-.871,3.754,3.754,0,0,1,1.077-.471,1.4,1.4,0,0,0,1.311-1.8,3.8,3.8,0,0,1,.118-1.179,3.644,3.644,0,0,1,.582-.987,1.442,1.442,0,0,0,0-2.288,3.641,3.641,0,0,1-.582-.987,3.8,3.8,0,0,1-.118-1.179,1.4,1.4,0,0,0-1.311-1.8,3.754,3.754,0,0,1-1.077-.471,3.711,3.711,0,0,1-.77-.871,2.159,2.159,0,0,0-.9-.881,2.134,2.134,0,0,0-1.2.18,2.84,2.84,0,0,1-2.355,0,2.136,2.136,0,0,0-1.2-.18,2.158,2.158,0,0,0-.9.881,3.714,3.714,0,0,1-.771.871,3.753,3.753,0,0,1-1.077.471,1.4,1.4,0,0,0-1.311,1.8,3.8,3.8,0,0,1-.118,1.179,3.648,3.648,0,0,1-.582.987,1.441,1.441,0,0,0,0,2.288,3.647,3.647,0,0,1,.582.987,3.8,3.8,0,0,1,.118,1.179,1.4,1.4,0,0,0,1.311,1.8,2.716,2.716,0,0,1,1.847,1.342,2.159,2.159,0,0,0,.9.881,2.136,2.136,0,0,0,1.2-.18A3.855,3.855,0,0,1,529.045,91.119Z" transform="translate(-520.734 -76.252)" fill="#212121"/>
    </g>
  </g>
  <g id="Group_1084" data-name="Group 1084" transform="translate(1.531 1.48)">
    <path id="Path_2551" data-name="Path 2551" d="M551.745,99.608c0,.694-.78,1.257-.983,1.883-.211.649.082,1.561-.311,2.1s-1.358.547-1.9.944-.837,1.308-1.486,1.519c-.627.2-1.4-.356-2.1-.356s-1.469.56-2.1.356c-.649-.211-.945-1.126-1.486-1.519s-1.507-.4-1.9-.944-.1-1.452-.311-2.1c-.2-.626-.983-1.189-.983-1.883s.78-1.257.983-1.883c.211-.649-.082-1.561.311-2.1s1.358-.547,1.9-.944.837-1.308,1.486-1.519c.626-.2,1.4.356,2.1.356s1.469-.56,2.1-.356c.649.211.945,1.126,1.486,1.519s1.506.4,1.9.944.1,1.452.311,2.1C550.965,98.352,551.745,98.914,551.745,99.608Z" transform="translate(-538.185 -93.117)" fill="url(#linear-gradient)"/>
  </g>
  <g id="Group_1088" data-name="Group 1088" transform="translate(1.569 1.232)">
    <g id="Group_1085" data-name="Group 1085" transform="translate(0)">
      <ellipse id="Ellipse_275" data-name="Ellipse 275" cx="5.067" cy="5.069" rx="5.067" ry="5.069" transform="matrix(0.425, -0.905, 0.905, 0.425, 0, 9.17)" fill="#fff"/>
    </g>
    <g id="Group_1086" data-name="Group 1086" transform="translate(2.609 8.533)">
      <path id="Path_2552" data-name="Path 2552" d="M572.419,191.109c-.155,0-.31-.007-.467-.02a5.34,5.34,0,0,1-3.594-1.841.3.3,0,0,1,.46-.4,4.759,4.759,0,0,0,7.937-1.14.3.3,0,0,1,.553.252A5.385,5.385,0,0,1,572.419,191.109Z" transform="translate(-568.284 -187.532)" fill="#212121"/>
    </g>
    <g id="Group_1087" data-name="Group 1087" transform="translate(2.502 1.37)">
      <path id="Path_2553" data-name="Path 2553" d="M567.391,108.386a.3.3,0,0,1-.236-.5,5.364,5.364,0,0,1,8.087-.3.3.3,0,1,1-.443.416,4.756,4.756,0,0,0-7.171.264A.3.3,0,0,1,567.391,108.386Z" transform="translate(-567.087 -105.898)" fill="#212121"/>
    </g>
  </g>
  <g id="Group_1091" data-name="Group 1091" transform="translate(6.052 4.497)">
    <g id="Group_1090" data-name="Group 1090">
      <g id="Group_1089" data-name="Group 1089">
        <path id="Path_2554" data-name="Path 2554" d="M593.018,130.428a1.983,1.983,0,0,1,.775.662,1.66,1.66,0,0,1,.253.922,1.853,1.853,0,0,1-.629,1.427,2.255,2.255,0,0,1-1.58.573,2.229,2.229,0,0,1-.733-.121,2.331,2.331,0,0,1-.66-.359,2.3,2.3,0,0,1-.567-.607,1.192,1.192,0,0,1-.206-.624.672.672,0,0,1,.178-.484.652.652,0,0,1,.775-.1,1.2,1.2,0,0,1,.308.308l.059.085a1.151,1.151,0,0,0,.862.595.705.705,0,0,0,.531-.227.789.789,0,0,0,.217-.567.605.605,0,0,0-.187-.484,1.514,1.514,0,0,0-.709-.246.777.777,0,0,1-.459-.193.615.615,0,0,1-.132-.431.572.572,0,0,1,.13-.406.913.913,0,0,1,.461-.214,1.02,1.02,0,0,0,.486-.231.535.535,0,0,0,.159-.4.541.541,0,0,0-.136-.386.484.484,0,0,0-.369-.144,1.008,1.008,0,0,0-.629.327l-.017.013-.089.085a1.024,1.024,0,0,1-.658.348.559.559,0,0,1-.41-.172.569.569,0,0,1-.172-.418,1.3,1.3,0,0,1,.612-1.013,2.234,2.234,0,0,1,1.389-.465,1.88,1.88,0,0,1,1.323.486,1.566,1.566,0,0,1,.529,1.2,1.421,1.421,0,0,1-.17.7A1.783,1.783,0,0,1,593.018,130.428Z" transform="translate(-589.672 -127.472)"/>
      </g>
    </g>
  </g>
  <g id="Group_1092" data-name="Group 1092" transform="translate(3.446 5.44)">
    <path id="Path_2555" data-name="Path 2555" d="M560.6,138.532a.3.3,0,1,1-.3-.3A.3.3,0,0,1,560.6,138.532Z" transform="translate(-559.993 -138.228)" fill="#212121"/>
  </g>
</svg>
