<svg xmlns="http://www.w3.org/2000/svg" width="20" height="13" viewBox="0 0 20 13">
  <path id="eye" d="M19.88,70.006a11.128,11.128,0,0,0-19.758,0,1.071,1.071,0,0,0,0,.988,11.128,11.128,0,0,0,19.758,0,1.071,1.071,0,0,0,0-.988ZM10,75.375a4.877,4.877,0,1,1,0-9.75,4.877,4.877,0,1,1,0,9.75Zm0-8.125a3.388,3.388,0,0,0-.879.128,1.59,1.59,0,0,1-.163,2.106,1.693,1.693,0,0,1-2.16.159,3.2,3.2,0,0,0,1.357,3.542,3.4,3.4,0,0,0,3.876-.119,3.2,3.2,0,0,0,1.125-3.619A3.321,3.321,0,0,0,10,67.25Z" transform="translate(-0.001 -64)" fill="#00b3d5"/>
</svg>
