<svg xmlns="http://www.w3.org/2000/svg" xmlns:xlink="http://www.w3.org/1999/xlink" width="49" height="49" viewBox="0 0 49 49">
  <defs>
    <filter id="Rectangle_129" x="0" y="0" width="49" height="49" filterUnits="userSpaceOnUse">
      <feOffset dx="2" dy="2" input="SourceAlpha"/>
      <feGaussianBlur stdDeviation="2" result="blur"/>
      <feFlood flood-color="#2a2a2a" flood-opacity="0.349"/>
      <feComposite operator="in" in2="blur"/>
      <feComposite in="SourceGraphic"/>
    </filter>
    <linearGradient id="linear-gradient" y1="1" x2="1" gradientUnits="objectBoundingBox">
      <stop offset="0" stop-color="#00b3d5"/>
      <stop offset="1" stop-color="#00e1d3"/>
    </linearGradient>
  </defs>
  <g id="logout" transform="translate(3.328 3.808)">
    <g transform="matrix(1, 0, 0, 1, -3.33, -3.81)" filter="url(#Rectangle_129)">
      <rect id="Rectangle_129-2" data-name="Rectangle 129" width="37" height="37" transform="translate(4 4)" fill="none"/>
    </g>
    <g id="Group_525" data-name="Group 525" transform="translate(3.672 2.192)">
      <path id="Path_988" data-name="Path 988" d="M166.308,18.695a1.325,1.325,0,0,1-1.325-1.325V1.325a1.325,1.325,0,1,1,2.65,0V17.37A1.325,1.325,0,0,1,166.308,18.695Z" transform="translate(-151.305)" fill="url(#linear-gradient)"/>
      <path id="Path_989" data-name="Path 989" d="M33.2,71.254a14.894,14.894,0,0,1-15-14.748,14.454,14.454,0,0,1,3.053-8.918,15.123,15.123,0,0,1,7.724-5.236,1.18,1.18,0,0,1,1.461.785,1.155,1.155,0,0,1-.8,1.436,12.65,12.65,0,1,0,7.128,0,1.154,1.154,0,0,1-.8-1.436,1.18,1.18,0,0,1,1.461-.785,15.123,15.123,0,0,1,7.724,5.236A14.454,14.454,0,0,1,48.2,56.506,14.894,14.894,0,0,1,33.2,71.254Z" transform="translate(-18.197 -37.82)" fill="url(#linear-gradient)"/>
    </g>
  </g>
</svg>
