<svg xmlns="http://www.w3.org/2000/svg" xmlns:xlink="http://www.w3.org/1999/xlink" width="53.203" height="35" viewBox="0 0 53.203 35">
  <defs>
    <linearGradient id="linear-gradient" y1="1" x2="1" gradientUnits="objectBoundingBox">
      <stop offset="0" stop-color="#00b3d5"/>
      <stop offset="1" stop-color="#00e1d3"/>
    </linearGradient>
  </defs>
  <g id="truefalse" transform="translate(0.5 0.5)">
    <g id="Group_1357" data-name="Group 1357" transform="translate(35.532 17.112)">
      <g id="Group_1356" data-name="Group 1356">
        <path id="Path_2820" data-name="Path 2820" d="M875.807,7837.879a.941.941,0,0,1-1.607.666l-2.515-2.515-2.533,2.532a.941.941,0,1,1-1.331-1.332l2.533-2.532-2.484-2.484a.941.941,0,1,1,1.331-1.331l2.484,2.484,2.483-2.484a.943.943,0,0,1,1.331,0,.941.941,0,0,1,0,1.331l-2.483,2.484,2.515,2.515A.933.933,0,0,1,875.807,7837.879Z" transform="translate(-867.545 -7830.608)" stroke="rgba(0,0,0,0)" stroke-width="1" fill="url(#linear-gradient)"/>
      </g>
    </g>
    <g id="Group_1359" data-name="Group 1359" transform="translate(26.789 10.456)">
      <g id="Group_1358" data-name="Group 1358">
        <path id="Path_2821" data-name="Path 2821" d="M814.019,7781.31a10.255,10.255,0,0,1-4.9,8.518c-.117.079-.237.154-.357.226l-.01.006,0,0-.035.022s-.019.012-.039.022a.939.939,0,0,1-1.326-.487l-.012-.036a.966.966,0,0,1,.368-1.082l.041-.029c.178-.109.358-.225.536-.349a8.368,8.368,0,0,0,3.859-6.815c0-4.917-4.855-8.916-10.824-8.916s-10.825,4-10.825,8.916a8.176,8.176,0,0,0,3.792,6.77.667.667,0,0,1,.246.769l-.312.868-.83,2.415a10.511,10.511,0,0,0,3.154-.815,13.873,13.873,0,0,1-1.353-.548.94.94,0,0,1,.792-1.706,12.891,12.891,0,0,0,9.057.617.941.941,0,0,1,.545,1.8,14.653,14.653,0,0,1-4.266.627,14.97,14.97,0,0,1-2.12-.151,12.018,12.018,0,0,1-6.354,2.1h-.055a1.464,1.464,0,0,1-1.381-1.952l1.052-3.056a10,10,0,0,1-3.85-7.737c0-5.954,5.7-10.8,12.708-10.8S814.019,7775.355,814.019,7781.31Z" transform="translate(-788.605 -7770.511)" stroke="rgba(0,0,0,0)" stroke-width="1" fill="url(#linear-gradient)"/>
      </g>
    </g>
    <g id="Group_1361" data-name="Group 1361" transform="translate(7.116 6.681)">
      <g id="Group_1360" data-name="Group 1360" transform="translate(0 0)">
        <path id="Path_2822" data-name="Path 2822" d="M621.861,7738.032h0l-5.906,5.905a.938.938,0,0,1-1.332,0l-3.374-3.372a.941.941,0,0,1,1.331-1.331l2.709,2.708,5.241-5.241a.942.942,0,0,1,1.332,1.332Z" transform="translate(-610.973 -7736.426)" stroke="rgba(0,0,0,0)" stroke-width="1" fill="url(#linear-gradient)"/>
      </g>
    </g>
    <g id="Group_1363" data-name="Group 1363" transform="translate(0 0)">
      <g id="Group_1362" data-name="Group 1362">
        <path id="Path_2823" data-name="Path 2823" d="M569.54,7697.649a1.464,1.464,0,0,1-1.381,1.955h-.045a11.344,11.344,0,0,1-6.285-2.075,15.127,15.127,0,0,1-2.258.168c-7.083,0-12.845-4.844-12.845-10.8a9.548,9.548,0,0,1,2.068-5.87.919.919,0,0,1,.624-.352.951.951,0,0,1,.7.2.939.939,0,0,1,.352.734.928.928,0,0,1-.195.569,7.691,7.691,0,0,0-1.668,4.719c0,4.916,4.917,8.915,10.962,8.915a11.335,11.335,0,0,0,4.437-.717.941.941,0,1,1,.682,1.753c-.064.024-.123.047-.178.065a9.94,9.94,0,0,0,3.043.768l-.691-1.946a.971.971,0,0,1-.491,0,.917.917,0,0,1-.577-.445.933.933,0,0,1-.117-.455.953.953,0,0,1,.455-.808,8.42,8.42,0,0,0,4.4-7.128c0-4.916-4.917-8.915-10.961-8.915a12.519,12.519,0,0,0-6.628,1.822l-.12.075-.125.08a.936.936,0,0,1-.374.078.947.947,0,0,1-.57-1.7l0,0,.115-.074a.006.006,0,0,0,0,0,14.357,14.357,0,0,1,7.694-2.153c7.083,0,12.844,4.843,12.844,10.8a10.069,10.069,0,0,1-3.933,7.77Z" transform="translate(-546.725 -7676.101)" stroke="rgba(0,0,0,0)" stroke-width="1" fill="url(#linear-gradient)"/>
      </g>
    </g>
  </g>
</svg>
