<svg id="clicked" xmlns="http://www.w3.org/2000/svg" width="27" height="27" viewBox="0 0 27 27">
  <path id="Path_4" data-name="Path 4" d="M0,0H27V27H0Z" fill="none"/>
  <path id="Path_4895" data-name="Path 4895" d="M15.882,18.508v.073a2.452,2.452,0,0,1-2.037,2.378,1.088,1.088,0,0,0-.132.041H13.1a3.308,3.308,0,0,1-1.9-1.21c-1.023-1.081-2.071-2.14-3.107-3.207-.047-.048-.1-.1-.157-.148-.061.067-.109.123-.161.176L4.3,20.184a2.527,2.527,0,0,1-1.285.756c-.078.017-.156.04-.233.06H2.167a.206.206,0,0,0-.053-.029A2.424,2.424,0,0,1,0,18.38V3.164A3.2,3.2,0,0,1,1.844.342,6.9,6.9,0,0,1,2.9,0H12.975a6.877,6.877,0,0,1,1.06.342,3.205,3.205,0,0,1,1.847,2.819c0,.075,0,.15,0,.225V18.508" transform="translate(5.563 3)"/>
</svg>
