<svg xmlns="http://www.w3.org/2000/svg" xmlns:xlink="http://www.w3.org/1999/xlink" width="223.001" height="171.706" viewBox="0 0 223.001 171.706">
  <defs>
    <linearGradient id="linear-gradient" x1="4.634" y1="0.5" x2="5.634" y2="0.5" gradientUnits="objectBoundingBox">
      <stop offset="0" stop-color="#5e6398"/>
      <stop offset="0.999" stop-color="#292e6f"/>
    </linearGradient>
    <linearGradient id="linear-gradient-2" y1="0.5" x2="1" y2="0.5" gradientUnits="objectBoundingBox">
      <stop offset="0" stop-color="#c7e9f9"/>
      <stop offset="0.999" stop-color="#f1f9fe"/>
    </linearGradient>
    <clipPath id="clip-path">
      <path id="Path_2914" data-name="Path 2914" d="M686.546,377.028V503.346a3.324,3.324,0,0,0,3.324,3.324h66.482a3.324,3.324,0,0,0,3.324-3.324V377.028a3.137,3.137,0,0,0-3.137-3.137H689.683A3.137,3.137,0,0,0,686.546,377.028Z" transform="translate(-686.546 -373.891)" fill="none"/>
    </clipPath>
    <linearGradient id="linear-gradient-3" x1="-103.993" y1="1.355" x2="-104.062" y2="-0.396" gradientUnits="objectBoundingBox">
      <stop offset="0" stop-color="#393c63"/>
      <stop offset="1" stop-color="#3f447b"/>
    </linearGradient>
    <linearGradient id="linear-gradient-4" x1="-62.807" y1="1.801" x2="-62.824" y2="-0.139" xlink:href="#linear-gradient-3"/>
    <linearGradient id="linear-gradient-5" x1="-13.886" y1="0.5" x2="-12.886" y2="0.5" gradientUnits="objectBoundingBox">
      <stop offset="0" stop-color="#3393eb"/>
      <stop offset="0.998" stop-color="#37bedf"/>
    </linearGradient>
    <linearGradient id="linear-gradient-6" x1="-508.807" y1="18.399" x2="-507.294" y2="18.399" xlink:href="#linear-gradient-2"/>
    <linearGradient id="linear-gradient-7" x1="-475.426" y1="18.699" x2="-474.012" y2="18.699" xlink:href="#linear-gradient-2"/>
    <linearGradient id="linear-gradient-8" x1="-475.274" y1="18.699" x2="-473.86" y2="18.699" xlink:href="#linear-gradient-2"/>
    <linearGradient id="linear-gradient-9" x1="15.665" y1="0.5" x2="16.665" y2="0.5" gradientUnits="objectBoundingBox">
      <stop offset="0" stop-color="#6466d7"/>
      <stop offset="0.999" stop-color="#ac81f9"/>
    </linearGradient>
    <linearGradient id="linear-gradient-10" x1="20.152" x2="21.152" xlink:href="#linear-gradient"/>
    <linearGradient id="linear-gradient-11" x1="-5.161" y1="0.5" x2="-4.161" y2="0.5" gradientUnits="objectBoundingBox">
      <stop offset="0" stop-color="#a2ed94"/>
      <stop offset="1" stop-color="#69c7b3"/>
    </linearGradient>
    <linearGradient id="linear-gradient-12" x1="30.58" y1="0.077" x2="31.219" y2="0.678" xlink:href="#linear-gradient-5"/>
    <linearGradient id="linear-gradient-13" x1="-4.788" y1="0.5" x2="-3.788" y2="0.5" gradientUnits="objectBoundingBox">
      <stop offset="0" stop-color="#ae77f0"/>
      <stop offset="0.998" stop-color="#ec8cdd"/>
    </linearGradient>
    <linearGradient id="linear-gradient-14" x1="10.017" y1="0.5" x2="11.017" y2="0.5" gradientUnits="objectBoundingBox">
      <stop offset="0" stop-color="#ffb682"/>
      <stop offset="1" stop-color="#ee5379"/>
    </linearGradient>
    <linearGradient id="linear-gradient-15" x1="15.693" y1="0.5" x2="16.693" y2="0.5" xlink:href="#linear-gradient-2"/>
    <linearGradient id="linear-gradient-16" x1="2202959.5" y1="0.489" x2="2202960.5" y2="0.489" gradientUnits="objectBoundingBox">
      <stop offset="0" stop-color="#fb7db7"/>
      <stop offset="1" stop-color="#fdacaf"/>
    </linearGradient>
    <linearGradient id="linear-gradient-17" x1="910806.375" y1="0.503" x2="910807.438" y2="0.503" xlink:href="#linear-gradient-16"/>
    <linearGradient id="linear-gradient-18" x1="9.181" y1="0.5" x2="10.181" y2="0.5" xlink:href="#linear-gradient-14"/>
    <linearGradient id="linear-gradient-19" x1="25.659" y1="0.5" x2="26.659" y2="0.5" gradientUnits="objectBoundingBox">
      <stop offset="0.001" stop-color="#febf00"/>
      <stop offset="0.984" stop-color="#ffdf00"/>
    </linearGradient>
  </defs>
  <g id="refer_image" data-name="refer image" transform="translate(0 0)">
    <g id="refer" transform="translate(0 0)">
      <ellipse id="Ellipse_294" data-name="Ellipse 294" cx="109.595" cy="2.83" rx="109.595" ry="2.83" transform="translate(3.811 166.046)" opacity="0.2" style="mix-blend-mode: multiply;isolation: isolate"/>
      <rect id="Rectangle_289" data-name="Rectangle 289" width="78.64" height="143.202" rx="8" transform="translate(82.074 25.511)" fill="url(#linear-gradient)"/>
      <circle id="Ellipse_295" data-name="Ellipse 295" cx="1.182" cy="1.182" r="1.182" transform="translate(120.212 25.964)" fill="#fff"/>
      <g id="Group_1510" data-name="Group 1510" transform="translate(84.829 28.823)">
        <path id="Path_2903" data-name="Path 2903" d="M756.539,373.854H689.683a3.137,3.137,0,0,0-3.137,3.137V503.309a3.324,3.324,0,0,0,3.324,3.324h66.482a3.324,3.324,0,0,0,3.324-3.324V376.991A3.137,3.137,0,0,0,756.539,373.854Z" transform="translate(-686.546 -373.854)" fill="url(#linear-gradient-2)"/>
        <g id="Group_1509" data-name="Group 1509" opacity="0.5" style="mix-blend-mode: multiply;isolation: isolate">
          <path id="Path_2904" data-name="Path 2904" d="M716.3,373.854l-29.755,35.208v17.17l44.266-52.378Z" transform="translate(-686.546 -373.854)" fill="#cfe5f6"/>
          <path id="Path_2905" data-name="Path 2905" d="M700.493,373.854l-13.948,16.5v6.191l19.18-22.694Z" transform="translate(-686.546 -373.854)" fill="#cfe5f6"/>
          <path id="Path_2906" data-name="Path 2906" d="M732.162,373.854l-45.616,53.975v2.258l47.525-56.233Z" transform="translate(-686.546 -373.854)" fill="#cfe5f6"/>
        </g>
      </g>
      <g id="Group_1514" data-name="Group 1514" transform="translate(84.83 28.827)">
        <g id="Group_1513" data-name="Group 1513" clip-path="url(#clip-path)">
          <g id="Group_1512" data-name="Group 1512" transform="translate(19.062 88.499)">
            <path id="Path_2907" data-name="Path 2907" d="M1104.4,1712.2l-.162-2.067h5.3l-.214,2.067Z" transform="translate(-1065.73 -1614.462)" fill="#ffae9b"/>
            <path id="Path_2908" data-name="Path 2908" d="M849.168,1712.458l-.158-2.314h5.179l-.209,2.314Z" transform="translate(-845.68 -1614.468)" fill="#ffae9b"/>
            <path id="Path_2909" data-name="Path 2909" d="M836.965,1730.546c-.086-.431-.517-.826-1.192-1.15h0l-1.608-3.675H827.93l-1.106,3.49h0c-.923.352-1.523.818-1.627,1.335h-.018v1.956a.344.344,0,0,0,.319.365h11.166a.344.344,0,0,0,.319-.365v-1.956Z" transform="translate(-825.134 -1627.898)" fill="url(#linear-gradient-3)"/>
            <path id="Path_2910" data-name="Path 2910" d="M1107.476,1725.721a7.4,7.4,0,0,0,1.543,2.093c.755.54,9.554,1.688,10.243,2.869a1.217,1.217,0,0,1-.558,1.822c-.1,0-18.484.169-18.648,0s.066-6.784.066-6.784Z" transform="translate(-1062.074 -1627.898)" fill="url(#linear-gradient-4)"/>
            <path id="Path_2911" data-name="Path 2911" d="M865.134,1020.3a30,30,0,0,0-1.444-2.689c-7.386-1.806-27.559-2.02-30.452-1.089a2.943,2.943,0,0,0-.6.268c-.34.608-.676,1.247-1.007,1.923-.176.359-.346.73-.513,1.106-4.154,9.323-5.791,23.662-6.177,38.261-.218,8.261-.035,16.605.318,24.168.775,16.576,2.371,29.4,2.371,29.4h6.2c.16-1.583,8.89-75.271,16.4-75.624,1.76-.082,3.556,6.291,5.218,15.368,4.048,22.107,7.3,60.255,7.3,60.255h6.518s2.7-33.715,2.874-51.29C872.36,1038.527,867.772,1025.793,865.134,1020.3Z" transform="translate(-824.851 -1015.981)" fill="#363868"/>
            <g id="Group_1511" data-name="Group 1511" transform="translate(0 2.439)">
              <path id="Path_2912" data-name="Path 2912" d="M1012.856,1145.038c-1.871.249-3.839,2.257-3.839,2.257,1.76-.082,3.556,6.291,5.218,15.368C1014.3,1156.692,1014.256,1144.852,1012.856,1145.038Z" transform="translate(-983.633 -1129.688)" fill="#231f20" opacity="0.2" style="mix-blend-mode: multiply;isolation: isolate"/>
              <path id="Path_2913" data-name="Path 2913" d="M826.591,1096.217c1.847-3.2,1.478-17.24,4.68-31.278s11.083-27.707,11.083-27.707c-2.161-4.409-6.87-4.2-11.232-2.157-4.154,9.323-5.791,23.662-6.177,38.261-.218,8.261-.035,16.605.318,24.169A3.244,3.244,0,0,0,826.591,1096.217Z" transform="translate(-824.851 -1033.677)" fill="#231f20" opacity="0.2" style="mix-blend-mode: multiply;isolation: isolate"/>
            </g>
          </g>
        </g>
      </g>
      <path id="Path_2915" data-name="Path 2915" d="M924.642,509.06A10.8,10.8,0,0,0,926.7,512.3a9.219,9.219,0,0,1,.879,1.084c.391.564.79,2.739,1.476,2.725.464-.01.134-1.726.368-2.126a3.471,3.471,0,0,0,.376-1.329c.289-2.283.1-4.774,1.385-6.682a5.049,5.049,0,0,1,3.1-2.059c1.341-.291,2.669.476,3.945.16a8.439,8.439,0,0,0,5.44-5.469,6.3,6.3,0,0,0-.874-5.322,5.36,5.36,0,0,0-4.844-2.2,2.368,2.368,0,0,0-1.191.426,3.63,3.63,0,0,0-.665.787,10.969,10.969,0,0,1-3.529,3.162,48.894,48.894,0,0,1-5.5,2.2,5.215,5.215,0,0,0-2.692,2c-.714,1.254-.8,3.831-.618,5.573A10.471,10.471,0,0,0,924.642,509.06Z" transform="translate(-806.167 -446.073)" fill="#43457b"/>
      <path id="Path_2916" data-name="Path 2916" d="M1325.717,644.056l.017-3.87-2.3,3.263,1.636,1.361Z" transform="translate(-1150.82 -574.656)" fill="#ffa397"/>
      <path id="Path_2917" data-name="Path 2917" d="M967.174,638.862l-1.328,5.933-7.328-.31-1.064-9.686,8.391.558Z" transform="translate(-835.287 -570.01)" fill="#ffa397"/>
      <path id="Path_2918" data-name="Path 2918" d="M780.084,648.98c-.066-.338-7.785,19.427-17.351,12.638s-11.973-8.79-12.5-9.1a9.917,9.917,0,0,0-9.129.394,8.707,8.707,0,0,0-1.51,1.15c-.054.051-.108.1-.161.153a3.983,3.983,0,0,1-5.381.7,14.3,14.3,0,0,1-2.16-1.554,1.346,1.346,0,0,0-.287-.012c-1.015.068-3.073.217-5.3.45a51.952,51.952,0,0,0-6.691,1.036,9.634,9.634,0,0,0-1.008.31c-3.24,1.234-23.042,19.656-23.042,29.312,0,9.319,16.69,21.178,16.69,21.178l3.572-2.809s-9.708-12.244-6.761-18.131c1.757-3.51,6.764-6.974,8.461-8.209.513-.373.807-.649.984-.6a.192.192,0,0,1,.1.093c.268.438.131,2.509.5,8.289a69.833,69.833,0,0,1-.823,11.27c-.166,1.406-.321,2.787-.426,4.087-.449,5.532-.007,9.61,4.248,8.011,22.176-8.334,40.348,5.629,33.3-6.124-2.261-3.768-4.2-18.157-4.3-24.477,0-.018,0-.037,0-.054a10.624,10.624,0,0,1,.009-1.15,6.493,6.493,0,0,1,.166-1.443c.01-.037.02-.081.031-.112.926-2.469,8.332,5.092,17.744,1.7a15.167,15.167,0,0,0,2.273-1.062,26.444,26.444,0,0,0,7.58-5.982c6.085-7.416,5.474-17.29,5.474-17.29S780.483,651.018,780.084,648.98Z" transform="translate(-609.49 -582.234)" fill="url(#linear-gradient-5)"/>
      <path id="Path_2919" data-name="Path 2919" d="M966.158,644.89s1.794,4.676,3.66,5.133,4.506-.88,4.506-.88l.354-1.581a6,6,0,0,1-2.869,1c-1.246-.073-1.105-.048-1.246-.073l-.14-.026S968.191,648.277,966.158,644.89Z" transform="translate(-842.79 -578.711)" fill="#ffae9b" opacity="0.5" style="mix-blend-mode: multiply;isolation: isolate"/>
      <path id="Path_2920" data-name="Path 2920" d="M817.862,1037.942s1.963,2.475,3.795,2.783a31.659,31.659,0,0,0,5.43.7c1.217-.094,1.592-2.575.983-3.511s-4.856-1.5-4.856-1.5l-.042-1.863a14.853,14.853,0,0,1-1.9.7Z" transform="translate(-714.934 -914.668)" fill="#ffae9b"/>
      <path id="Path_2921" data-name="Path 2921" d="M946.72,555.021c.187-1.805-.734-2.147-1.939-2.053-1.122.087-2.489.55-3.439.563a23.343,23.343,0,0,0-2.957.287c-1.7.239-2.087,1.859-2.137,2.9,0,.018,0,.036,0,.055a28.653,28.653,0,0,1-.03,4.124c-.237.826-1.648-2.595-3.13-2.639a1.938,1.938,0,0,0-.964.16,1.788,1.788,0,0,0-1,1.681,3.564,3.564,0,0,0,1.385,2.391c.716.619,1.549,1.1,2.242,1.742,1.387,1.288,2.163,3.187,3.726,4.254a5.421,5.421,0,0,0,5.993-.19,7.269,7.269,0,0,0,2.905-5.44C947.569,560.186,946.445,557.674,946.72,555.021Z" transform="translate(-812.584 -499.446)" fill="#ffa397"/>
      <path id="Path_2922" data-name="Path 2922" d="M972.576,554.881a14.59,14.59,0,0,0,4.25-1.826c-1.122.087-2.489.55-3.439.563a23.334,23.334,0,0,0-2.957.287c-1.7.239-2.086,1.859-2.137,2.9,0,.017,0,.036,0,.055C968.817,555.964,970.4,555.441,972.576,554.881Z" transform="translate(-844.629 -499.533)" fill="#ffae9b" opacity="0.5" style="mix-blend-mode: multiply;isolation: isolate"/>
      <g id="Group_1515" data-name="Group 1515" transform="translate(108.801 70.676)" opacity="0.1" style="mix-blend-mode: multiply;isolation: isolate">
        <path id="Path_2923" data-name="Path 2923" d="M889.872,678.815a3.983,3.983,0,0,1-5.381.7,14.283,14.283,0,0,1-2.16-1.554,1.346,1.346,0,0,0-.287-.012c-1.015.068-3.073.217-5.3.45a51.93,51.93,0,0,0-6.691,1.036c-.063,1.023,3.409.13,5.952-.011,2.7-.15,5.051,3.051,9.7,2.951,4.417-.095,5.719-4.422,5.839-4.858a8.712,8.712,0,0,0-1.51,1.15C889.98,678.713,889.926,678.762,889.872,678.815Z" transform="translate(-868.729 -677.512)" fill="#231f20"/>
        <path id="Path_2924" data-name="Path 2924" d="M861.286,824.658a69.833,69.833,0,0,1-.823,11.27,4.257,4.257,0,0,0,1.973-1.109c.9-1.1,1.85-7.1,1.9-9.452s.35-13.553.35-13.553l-3.9,4.554C861.05,816.807,860.913,818.877,861.286,824.658Z" transform="translate(-860.463 -793.303)" fill="#231f20"/>
        <path id="Path_2925" data-name="Path 2925" d="M1113.179,793.83c-5.9-.6-12.5-7.052-12.5-7.052l-.837,6.414c.011-.036.02-.081.031-.112.926-2.469,8.332,5.092,17.744,1.7a15.15,15.15,0,0,0,2.274-1.062,26.5,26.5,0,0,0,7.58-5.982C1125.986,788.866,1118.477,794.368,1113.179,793.83Z" transform="translate(-1066.847 -771.718)" fill="#231f20"/>
      </g>
      <g id="Group_1518" data-name="Group 1518" transform="translate(165.101 16.851)">
        <g id="Group_1517" data-name="Group 1517">
          <g id="Group_1516" data-name="Group 1516">
            <path id="Path_2926" data-name="Path 2926" d="M1312.643,302.725c-3.334-10.418-10.873-17.317-16.837-15.408-4.406,1.41-6.717,7.233-6.282,14.378a33.929,33.929,0,0,1-3.412,7.229c-1.957,2.7-12.94,9.542-12.94,9.542-3.115,2-4.759,4.161-4.075,6.493s4.319,4.372,4.319,4.372l.74,5.825-1.652,3.637.538.857a5.4,5.4,0,0,0,.9.224l2.958-3.8V326.8s10.8-7.785,13.049-8.772a9.522,9.522,0,0,1,4.823-.541s1.239,1.8,1.654,2.293c3.517,4.269,7.786,6.437,11.458,5.261C1313.845,323.137,1315.977,313.144,1312.643,302.725Z" transform="translate(-1268.943 -287)" fill="#2c325e"/>
            <path id="Path_2927" data-name="Path 2927" d="M1321.188,508.139c-2.248.987-13.049,8.772-13.049,8.772v9.266l-2.958,3.8a3,3,0,0,0,1.9-.207c1.09-.614,2.891-3.241,2.891-3.241l.441-8.688s6.076-3.842,9.972-6.379c2.049-1.335,4.972-1.611,7.283-1.574-.415-.49-1.654-2.293-1.654-2.293A9.522,9.522,0,0,0,1321.188,508.139Z" transform="translate(-1300.187 -477.106)" fill="#222544"/>
            <path id="Path_2928" data-name="Path 2928" d="M1436.016,322.319c-2.623-8.2-1.649-16.018,2.055-18.781a5.131,5.131,0,0,0-.857.192c-4.939,1.581-6.547,10.348-3.592,19.582s9.355,15.439,14.294,13.858a5.232,5.232,0,0,0,1.537-.8C1444.654,337.039,1438.8,331.028,1436.016,322.319Z" transform="translate(-1409.649 -301.259)" fill="#363868"/>
            <path id="Path_2929" data-name="Path 2929" d="M1466.484,317.269c-2.787-8.709-8.638-14.72-13.438-14.05-3.7,2.763-4.678,10.586-2.055,18.781,2.787,8.709,8.638,14.72,13.438,14.05C1468.133,333.287,1469.107,325.464,1466.484,317.269Z" transform="translate(-1424.624 -300.94)" fill="#43457b"/>
            <path id="Path_2930" data-name="Path 2930" d="M1439.824,424.133c3.132-.174,3.578-.868,5.421-2l2.289,7.051a11.33,11.33,0,0,0-4.342,2.876S1440.43,427.765,1439.824,424.133Z" transform="translate(-1416.271 -403.51)" fill="#808285"/>
            <path id="Path_2931" data-name="Path 2931" d="M1473.851,426.1c-.579-1.81-.466-3.488.227-3.94a.721.721,0,0,0-.2.031c-.846.271-1.026,2.073-.4,4.025s1.817,3.315,2.663,3.045a.727.727,0,0,0,.174-.085C1475.49,429.2,1474.429,427.9,1473.851,426.1Z" transform="translate(-1444.966 -403.532)" fill="url(#linear-gradient-6)"/>
            <path id="Path_2932" data-name="Path 2932" d="M1473.851,426.1c-.579-1.81-.466-3.488.227-3.94a.721.721,0,0,0-.2.031c-.846.271-1.026,2.073-.4,4.025s1.817,3.315,2.663,3.045a.727.727,0,0,0,.174-.085C1475.49,429.2,1474.429,427.9,1473.851,426.1Z" transform="translate(-1444.966 -403.532)" opacity="0.2" style="mix-blend-mode: multiply;isolation: isolate"/>
            <path id="Path_2933" data-name="Path 2933" d="M1478.877,425.234c-.577-1.8-1.639-3.1-2.464-3.076-.693.452-.807,2.13-.227,3.94s1.639,3.1,2.464,3.076C1479.344,428.722,1479.456,427.044,1478.877,425.234Z" transform="translate(-1447.301 -403.529)" fill="url(#linear-gradient-7)"/>
            <path id="Path_2934" data-name="Path 2934" d="M1478.877,425.234c-.577-1.8-1.639-3.1-2.464-3.076-.693.452-.807,2.13-.227,3.94s1.639,3.1,2.464,3.076C1479.344,428.722,1479.456,427.044,1478.877,425.234Z" transform="translate(-1447.301 -403.529)" fill="url(#linear-gradient-8)"/>
          </g>
          <path id="Path_2935" data-name="Path 2935" d="M1336.219,605.937s.619-.091.775.691a10.232,10.232,0,0,1-.325,3.919c-.339.6-1.354.872-1.367-.247-.011-.931.077-2.476.108-2.968a.264.264,0,0,1,.152-.224l.574-.271Z" transform="translate(-1326.155 -561.975)" fill="#ffa397"/>
        </g>
        <path id="Path_2936" data-name="Path 2936" d="M1297.811,618.57l-.319-2.509s-.713-.685-1.012-.11.168,1.018.216,1.5.2,3.148.2,3.148Z" transform="translate(-1292.598 -570.414)" fill="#ffa397"/>
      </g>
      <path id="Path_2937" data-name="Path 2937" d="M873.646,175.83v.977a1.178,1.178,0,0,0,1.178,1.178H876.6a1.184,1.184,0,0,1,1.119.821,7.883,7.883,0,0,0,.442,1.061,1.17,1.17,0,0,1-.205,1.36l-1.346,1.346a1.066,1.066,0,0,0,0,1.508l.77.77a1.178,1.178,0,0,0,1.666,0l1.268-1.267a1.169,1.169,0,0,1,1.359-.205,7.859,7.859,0,0,0,1.061.442,1.185,1.185,0,0,1,.822,1.119v1.779a1.178,1.178,0,0,0,1.178,1.178h.977a1.178,1.178,0,0,0,1.178-1.178v-1.779a1.184,1.184,0,0,1,.822-1.119,7.84,7.84,0,0,0,1.061-.442,1.17,1.17,0,0,1,1.36.205l1.267,1.267a1.178,1.178,0,0,0,1.666,0l.77-.77a1.066,1.066,0,0,0,0-1.508l-1.346-1.346a1.17,1.17,0,0,1-.206-1.36,7.858,7.858,0,0,0,.442-1.06,1.185,1.185,0,0,1,1.119-.822h1.779a1.178,1.178,0,0,0,1.178-1.178v-.977a1.178,1.178,0,0,0-1.178-1.178h-1.779a1.184,1.184,0,0,1-1.119-.822,7.85,7.85,0,0,0-.442-1.06,1.17,1.17,0,0,1,.206-1.36l1.346-1.346a1.066,1.066,0,0,0,0-1.508l-.77-.77a1.178,1.178,0,0,0-1.666,0l-1.267,1.267a1.17,1.17,0,0,1-1.36.205,7.859,7.859,0,0,0-1.061-.442,1.184,1.184,0,0,1-.822-1.119v-1.779a1.178,1.178,0,0,0-1.178-1.178h-.977a1.178,1.178,0,0,0-1.178,1.178V167.7a1.184,1.184,0,0,1-.822,1.119,7.83,7.83,0,0,0-1.061.442,1.17,1.17,0,0,1-1.359-.205l-1.267-1.267a1.178,1.178,0,0,0-1.666,0l-.77.77a1.066,1.066,0,0,0,0,1.508l1.346,1.346a1.17,1.17,0,0,1,.205,1.36,7.883,7.883,0,0,0-.442,1.061,1.184,1.184,0,0,1-1.119.821h-1.779A1.178,1.178,0,0,0,873.646,175.83Zm11.914-3.6a4.1,4.1,0,1,1-4.418,4.415A4.111,4.111,0,0,1,885.56,172.235Z" transform="translate(-763.028 -164.739)" fill="url(#linear-gradient-9)"/>
      <g id="Group_1522" data-name="Group 1522" transform="translate(0 88.285)">
        <path id="Path_2938" data-name="Path 2938" d="M74.552,1122.33c-1.1,2.028-3.471.608-3.471.608s.136-.668,1.2-1.227a3.241,3.241,0,0,1,2.338.074l1.308-.034h.02c.291.015.58.038.868.065-3.73-1.317-1.972-5.723-1.972-5.723a3.621,3.621,0,0,1,2.412,1.7c1,1.326.6,3.578.488,4.131a21.757,21.757,0,0,1,4.3,1.086,7.348,7.348,0,0,1-.543-.585c-1.422-1.7-.795-4.932-.795-4.932,5.092.654,4.079,5.443,3.776,6.543a31.9,31.9,0,0,1,4.6,2.739,6.684,6.684,0,0,1-1-2.216c-.643-2.4,1.513-5.382,1.513-5.382,4.992,3.141,1.4,7.68.7,8.49.9.691,1.719,1.388,2.458,2.058.812.735,1.56,1.468,2.24,2.173a6.684,6.684,0,0,1-.257-3.237c.358-2.69,3.789-4.8,3.789-4.8,3.636,5.149-1.567,8.2-2.786,8.824a42.807,42.807,0,0,1,3.667,4.5l-.451.3a38.373,38.373,0,0,0-2.444-3.121c-1.928,6.1-8.561,3-8.561,3s.165-1.665,2.624-3.3c1.585-1.053,3.947-.779,5.219-.522a46.937,46.937,0,0,0-3.413-3.435c-.432-.391-.895-.792-1.382-1.2-1.708,5.76-7.87,2.879-7.87,2.879s.151-1.523,2.4-3.016c1.414-.939,3.505-.724,4.686-.495a33.878,33.878,0,0,0-4.825-3.187c-1.054,5.446-6.851,3.25-6.851,3.25s.032-1.367,1.935-2.849c1.245-.969,3.226-.875,4.266-.741A23.416,23.416,0,0,0,78.5,1122.6c.092,4.94-5.257,3.984-5.257,3.984a3.622,3.622,0,0,1,1.18-2.706c1.066-1.205,3.247-1.308,3.893-1.311a18.955,18.955,0,0,0-2.38-.273Z" transform="translate(-71.081 -1073.254)" fill="url(#linear-gradient-10)"/>
        <g id="Group_1521" data-name="Group 1521" transform="translate(17.403)">
          <g id="Group_1520" data-name="Group 1520" transform="translate(4.915)">
            <path id="Path_2939" data-name="Path 2939" d="M257.365,883.719s11.1-25.062,3.069-48.349S233,805.279,233,805.279s11.514,13.332,4.83,34.127c-6.321,19.667,5.733,44.313,5.733,44.313Z" transform="translate(-233.003 -805.279)" fill="url(#linear-gradient-11)"/>
            <path id="Path_2940" data-name="Path 2940" d="M323.8,971.578s2.844-50.984-9.185-64.394c10.942,16.9,6.385,64.394,6.385,64.394Z" transform="translate(-303.368 -893.139)" fill="#fff" opacity="0.3"/>
          </g>
          <path id="Path_2941" data-name="Path 2941" d="M203.622,1259.121H215.5c-.473-2.092-2.182-8.413-6.443-13.181a15.123,15.123,0,0,0-11.71-5.231,19.3,19.3,0,0,1,4.1,10.9A21.313,21.313,0,0,0,203.622,1259.121Z" transform="translate(-197.343 -1180.681)" fill="url(#linear-gradient-12)"/>
          <path id="Path_2942" data-name="Path 2942" d="M374.629,1098.713c-8.645,11.27-10.584,25.966-10.789,27.72h16.807c4.252-3.926,9.466-10.275,9.506-17.913.073-13.638,6.4-21.726,6.4-21.726A29.55,29.55,0,0,0,374.629,1098.713Z" transform="translate(-340.892 -1047.993)" fill="url(#linear-gradient-13)"/>
          <path id="Path_2943" data-name="Path 2943" d="M243.878,1281.887h.89c-1.691-3.871-6-12.943-10.041-14.787C238.676,1269.748,242.31,1277.955,243.878,1281.887Z" transform="translate(-229.574 -1203.448)" fill="#fff" opacity="0.3"/>
          <path id="Path_2944" data-name="Path 2944" d="M402.371,1175.251h1.745c2.046-6.767,8.3-25.612,16.2-31.834C412.159,1147.937,404.543,1168.853,402.371,1175.251Z" transform="translate(-374.112 -1096.812)" fill="#fff" opacity="0.3"/>
        </g>
      </g>
      <rect id="Rectangle_290" data-name="Rectangle 290" width="50.106" height="1.988" rx="0.994" transform="translate(16.766 166.725)" fill="#43457b"/>
      <path id="Path_2945" data-name="Path 2945" d="M485.107,503.04l21.263-4.93L490.4,514.977l-1.814-5.646-4.049-1.087,15.634-7.61-13.954,5.125-1.248-.824-2.1-1.388Z" transform="translate(-426.114 -452.162)" fill="#fff"/>
      <g id="Group_1524" data-name="Group 1524" transform="translate(36.831 56.269)">
        <path id="Path_2946" data-name="Path 2946" d="M449.985,589.54l.4.715q.594-.335,1.2-.655l-.387-.722Q450.586,589.2,449.985,589.54Z" transform="translate(-434.591 -586.688)" fill="#fff" fill-rule="evenodd"/>
        <path id="Path_2947" data-name="Path 2947" d="M467.01,580.651l-1.229.624.376.727,1.216-.618Z" transform="translate(-448.21 -579.594)" fill="#fff" fill-rule="evenodd"/>
        <path id="Path_2948" data-name="Path 2948" d="M483.038,572.985l-1.253.582.353.739,1.236-.574Z" transform="translate(-462.008 -572.985)" fill="#fff" fill-rule="evenodd"/>
        <path id="Path_2949" data-name="Path 2949" d="M406.009,617.422l-.464-.675-1.129.8.482.662Z" transform="translate(-395.303 -610.715)" fill="#fff" fill-rule="evenodd"/>
        <path id="Path_2950" data-name="Path 2950" d="M420.379,606.9c-.387.25-.781.488-1.161.747l.451.684c.375-.256.764-.491,1.146-.737Z" transform="translate(-408.065 -602.226)" fill="#fff" fill-rule="evenodd"/>
        <path id="Path_2951" data-name="Path 2951" d="M434.361,598.371l.424.7c.387-.238.779-.468,1.173-.694l-.41-.709C435.15,597.9,434.753,598.129,434.361,598.371Z" transform="translate(-421.121 -594.266)" fill="#fff" fill-rule="evenodd"/>
        <path id="Path_2952" data-name="Path 2952" d="M364.81,651.153c-.316.343-.646.671-.951,1.026l.617.539c.293-.342.614-.661.919-.992Z" transform="translate(-360.336 -640.379)" fill="#fff" fill-rule="evenodd"/>
        <path id="Path_2953" data-name="Path 2953" d="M376.505,639.706l.563.595c.32-.319.665-.612,1.005-.911l-.537-.618C377.188,639.078,376.835,639.378,376.505,639.706Z" transform="translate(-371.239 -629.705)" fill="#fff" fill-rule="evenodd"/>
        <path id="Path_2954" data-name="Path 2954" d="M391.636,628.06l-.5-.65c-.373.272-.726.571-1.087.861l.519.634C390.924,628.621,391.269,628.328,391.636,628.06Z" transform="translate(-382.918 -619.909)" fill="#fff" fill-rule="evenodd"/>
        <path id="Path_2955" data-name="Path 2955" d="M339.91,697.479l-.785-.232c-.127.464-.224.942-.3,1.419l.812.106C339.707,698.339,339.794,697.9,339.91,697.479Z" transform="translate(-338.748 -680.12)" fill="#fff" fill-rule="evenodd"/>
        <path id="Path_2956" data-name="Path 2956" d="M345.14,680.532l-.715-.4c-.236.411-.422.854-.634,1.28l.756.316C344.747,681.331,344.917,680.919,345.14,680.532Z" transform="translate(-343.034 -665.364)" fill="#fff" fill-rule="evenodd"/>
        <path id="Path_2957" data-name="Path 2957" d="M354.058,665.408l-.645-.505-.829,1.142.682.453Z" transform="translate(-350.616 -652.234)" fill="#fff" fill-rule="evenodd"/>
        <path id="Path_2958" data-name="Path 2958" d="M350.237,748.506c.285.382.588.749.883,1.123l.618-.537c-.274-.351-.559-.695-.826-1.05Z" transform="translate(-348.591 -723.914)" fill="#fff" fill-rule="evenodd"/>
        <path id="Path_2959" data-name="Path 2959" d="M342.434,732.732l-.773.27.28.671a3.854,3.854,0,0,0,.312.653l.721-.388a3.336,3.336,0,0,1-.285-.6Z" transform="translate(-341.197 -710.714)" fill="#fff" fill-rule="evenodd"/>
        <path id="Path_2960" data-name="Path 2960" d="M339.174,716.651l-.057-.656-.819.011.061.73a3.438,3.438,0,0,0,.1.723l.8-.16A2.9,2.9,0,0,1,339.174,716.651Z" transform="translate(-338.298 -696.285)" fill="#fff" fill-rule="evenodd"/>
        <path id="Path_2961" data-name="Path 2961" d="M391.441,783.058c.4.233.8.485,1.217.682l.381-.725c-.41-.192-.79-.437-1.181-.662Z" transform="translate(-384.116 -753.496)" fill="#fff" fill-rule="evenodd"/>
        <path id="Path_2962" data-name="Path 2962" d="M376.2,773.382l1.153.8.447-.686-1.111-.769Z" transform="translate(-370.979 -745.195)" fill="#fff" fill-rule="evenodd"/>
        <path id="Path_2963" data-name="Path 2963" d="M362.956,761.317l-.577.582.5.5.543.449.527-.627-.52-.429Z" transform="translate(-359.06 -735.359)" fill="#fff" fill-rule="evenodd"/>
        <path id="Path_2964" data-name="Path 2964" d="M440.95,804.678l1.314.433.242-.782-1.293-.427Z" transform="translate(-426.802 -772.075)" fill="#fff" fill-rule="evenodd"/>
        <path id="Path_2965" data-name="Path 2965" d="M424.028,798.578l1.3.493.281-.77-1.271-.484Z" transform="translate(-412.212 -766.829)" fill="#fff" fill-rule="evenodd"/>
        <path id="Path_2966" data-name="Path 2966" d="M407.54,791.471c.412.216.845.38,1.266.572l.326-.751c-.411-.188-.837-.348-1.237-.559Z" transform="translate(-397.996 -760.721)" fill="#fff" fill-rule="evenodd"/>
        <path id="Path_2967" data-name="Path 2967" d="M493.176,817.821l-.171.8,1.351.272.158-.8Z" transform="translate(-471.682 -784.076)" fill="#fff" fill-rule="evenodd"/>
        <path id="Path_2968" data-name="Path 2968" d="M475.527,814.612c.444.12.894.216,1.342.318l.182-.8c-.443-.1-.888-.2-1.327-.314Z" transform="translate(-456.613 -780.623)" fill="#fff" fill-rule="evenodd"/>
        <path id="Path_2969" data-name="Path 2969" d="M458.238,810.017c.442.129.883.262,1.33.371l.21-.792c-.442-.107-.877-.238-1.313-.366Z" transform="translate(-441.707 -776.668)" fill="#fff" fill-rule="evenodd"/>
        <path id="Path_2970" data-name="Path 2970" d="M546.141,826.8l-.109.812,1.364.179.1-.813Z" transform="translate(-517.4 -791.82)" fill="#fff" fill-rule="evenodd"/>
        <path id="Path_2971" data-name="Path 2971" d="M528.444,824.247l-.128.809,1.36.207.117-.811Z" transform="translate(-502.126 -789.616)" fill="#fff" fill-rule="evenodd"/>
        <path id="Path_2972" data-name="Path 2972" d="M510.861,821.293l-.148.806,1.356.236.136-.808Z" transform="translate(-486.949 -787.069)" fill="#fff" fill-rule="evenodd"/>
        <path id="Path_2973" data-name="Path 2973" d="M599.526,832.388l-.063.817,1.37.1.056-.817Z" transform="translate(-563.466 -796.634)" fill="#fff" fill-rule="evenodd"/>
        <path id="Path_2974" data-name="Path 2974" d="M581.725,830.847l-.077.815,1.369.122.069-.816Z" transform="translate(-548.107 -795.306)" fill="#fff" fill-rule="evenodd"/>
        <path id="Path_2975" data-name="Path 2975" d="M564.008,829l-.093.814,1.367.149.084-.815Z" transform="translate(-532.819 -793.717)" fill="#fff" fill-rule="evenodd"/>
        <path id="Path_2976" data-name="Path 2976" d="M653.1,835.254l-.026.819,1.373.036.019-.819Z" transform="translate(-609.687 -799.106)" fill="#fff" fill-rule="evenodd"/>
        <path id="Path_2977" data-name="Path 2977" d="M635.252,834.555l-.037.818,1.372.058.031-.818Z" transform="translate(-594.29 -798.503)" fill="#fff" fill-rule="evenodd"/>
        <path id="Path_2978" data-name="Path 2978" d="M617.474,833.613l-.05.818,1.371.079.043-.818Z" transform="translate(-578.952 -797.691)" fill="#fff" fill-rule="evenodd"/>
        <path id="Path_2979" data-name="Path 2979" d="M708.033,835.5l-1.365.029.013.819,1.376-.029Z" transform="translate(-655.896 -799.319)" fill="#fff" fill-rule="evenodd"/>
        <path id="Path_2980" data-name="Path 2980" d="M688.881,835.806v.819l1.374,0-.006-.819Z" transform="translate(-640.56 -799.578)" fill="#fff" fill-rule="evenodd"/>
        <path id="Path_2981" data-name="Path 2981" d="M671.08,835.668l-.013.819,1.373.017.007-.819Z" transform="translate(-625.201 -799.463)" fill="#fff" fill-rule="evenodd"/>
      </g>
      <path id="Path_2982" data-name="Path 2982" d="M1392.934,783.514l11.159,7.062-11.159,7.518-11.159-7.518Z" transform="translate(-1201.121 -698.228)" fill="url(#linear-gradient-14)"/>
      <rect id="Rectangle_291" data-name="Rectangle 291" width="14.212" height="13.934" transform="translate(199.188 101.641) rotate(180)" fill="url(#linear-gradient-15)"/>
      <path id="Path_2983" data-name="Path 2983" d="M1332.554,846.887h0Z" transform="translate(-1158.686 -752.866)" fill="url(#linear-gradient-16)"/>
      <path id="Path_2984" data-name="Path 2984" d="M1551.074,846.886h0Z" transform="translate(-1347.086 -752.866)" fill="url(#linear-gradient-17)"/>
      <path id="Path_2985" data-name="Path 2985" d="M1386.574,847.922l12.176-8.2v14.023a1.714,1.714,0,0,1-1.731,1.7h-20.89a1.714,1.714,0,0,1-1.731-1.7V839.72Z" transform="translate(-1194.762 -746.687)" fill="url(#linear-gradient-18)"/>
      <g id="Group_1538" data-name="Group 1538" transform="translate(129.184 120.692)">
        <g id="Group_1530" data-name="Group 1530" transform="translate(0 33.893)">
          <path id="Path_2986" data-name="Path 2986" d="M1008.355,1324.509c0,.61.449,1.193,1.26,1.73a7.791,7.791,0,0,0,.942.528q.226.108.473.214a19.2,19.2,0,0,0,2.522.841,36.238,36.238,0,0,0,3.718.767c.308.048.623.093.942.137l.473.063q1.214.154,2.522.262c1.192.1,2.435.166,3.718.2q.468.012.942.018l.473,0,.42,0q1.067,0,2.1-.031c1.285-.037,2.528-.109,3.718-.211q.477-.041.942-.088c.158-.016.317-.032.473-.049q1.318-.145,2.522-.34a34.9,34.9,0,0,0,3.718-.792q.492-.136.942-.283c.162-.052.32-.106.473-.16a9.614,9.614,0,0,0,2.522-1.251,2.053,2.053,0,0,0,1-1.542l0,4.122h0a2.071,2.071,0,0,1-.992,1.515,9.593,9.593,0,0,1-2.522,1.252q-.23.082-.473.161c-.3.1-.613.192-.942.283a34.835,34.835,0,0,1-3.718.792q-1.2.194-2.522.341c-.156.017-.315.033-.473.049q-.465.048-.942.088c-1.19.1-2.433.173-3.718.21q-1.036.03-2.1.031l-.418,0c-.158,0-.316,0-.473,0q-.474-.006-.942-.018c-1.283-.034-2.526-.1-3.718-.2q-1.306-.107-2.522-.262l-.473-.062c-.319-.044-.634-.089-.942-.137a36.257,36.257,0,0,1-3.718-.767,19.179,19.179,0,0,1-2.522-.842c-.165-.07-.322-.141-.473-.214a7.851,7.851,0,0,1-.942-.528,2.3,2.3,0,0,1-1.259-1.706h0Z" transform="translate(-1008.353 -1319.243)" fill="#febf00"/>
          <path id="Path_2987" data-name="Path 2987" d="M1008.355,1324.509c0,.61.449,1.193,1.26,1.73a7.791,7.791,0,0,0,.942.528q.226.108.473.214a19.2,19.2,0,0,0,2.522.841,36.238,36.238,0,0,0,3.718.767c.308.048.623.093.942.137l.473.063q1.214.154,2.522.262c1.192.1,2.435.166,3.718.2q.468.012.942.018l.473,0,.42,0q1.067,0,2.1-.031c1.285-.037,2.528-.109,3.718-.211q.477-.041.942-.088c.158-.016.317-.032.473-.049q1.318-.145,2.522-.34a34.9,34.9,0,0,0,3.718-.792q.492-.136.942-.283c.162-.052.32-.106.473-.16a9.614,9.614,0,0,0,2.522-1.251,2.053,2.053,0,0,0,1-1.542l0,4.122h0a2.071,2.071,0,0,1-.992,1.515,9.593,9.593,0,0,1-2.522,1.252q-.23.082-.473.161c-.3.1-.613.192-.942.283a34.835,34.835,0,0,1-3.718.792q-1.2.194-2.522.341c-.156.017-.315.033-.473.049q-.465.048-.942.088c-1.19.1-2.433.173-3.718.21q-1.036.03-2.1.031l-.418,0c-.158,0-.316,0-.473,0q-.474-.006-.942-.018c-1.283-.034-2.526-.1-3.718-.2q-1.306-.107-2.522-.262l-.473-.062c-.319-.044-.634-.089-.942-.137a36.257,36.257,0,0,1-3.718-.767,19.179,19.179,0,0,1-2.522-.842c-.165-.07-.322-.141-.473-.214a7.851,7.851,0,0,1-.942-.528,2.3,2.3,0,0,1-1.259-1.706h0Z" transform="translate(-1008.353 -1319.243)" opacity="0.3" style="mix-blend-mode: multiply;isolation: isolate"/>
          <ellipse id="Ellipse_296" data-name="Ellipse 296" cx="18.405" cy="4.756" rx="18.405" ry="4.756" transform="translate(0.001)" fill="#febf00"/>
          <path id="Path_2988" data-name="Path 2988" d="M1039.716,1296c-8.577,0-15.606,1.4-16.279,3.2a.8.8,0,0,1-.058-.282c0-1.926,7.315-3.484,16.337-3.48s16.334,1.57,16.333,3.5a.8.8,0,0,1-.058.281C1055.318,1297.417,1048.292,1296,1039.716,1296Z" transform="translate(-1021.308 -1294.175)" fill="#febf00"/>
          <path id="Path_2989" data-name="Path 2989" d="M1039.716,1296c-8.577,0-15.606,1.4-16.279,3.2a.8.8,0,0,1-.058-.282c0-1.926,7.315-3.484,16.337-3.48s16.334,1.57,16.333,3.5a.8.8,0,0,1-.058.281C1055.318,1297.417,1048.292,1296,1039.716,1296Z" transform="translate(-1021.308 -1294.175)" opacity="0.1" style="mix-blend-mode: multiply;isolation: isolate"/>
          <path id="Path_2990" data-name="Path 2990" d="M1040.073,1305.938c-8.576,0-15.6-1.419-16.276-3.214.673-1.794,7.7-3.2,16.279-3.2s15.6,1.419,16.275,3.214C1055.68,1304.534,1048.651,1305.942,1040.073,1305.938Z" transform="translate(-1021.669 -1297.703)" fill="#fcd721"/>
          <g id="Group_1529" data-name="Group 1529" transform="translate(0 4.756)">
            <g id="Group_1527" data-name="Group 1527">
              <path id="Path_2991" data-name="Path 2991" d="M1269.2,1320.944l0,4.122h0a2.07,2.07,0,0,1-.992,1.515v-4.094A2.051,2.051,0,0,0,1269.2,1320.944Z" transform="translate(-1232.391 -1320.925)" fill="#febf00"/>
              <path id="Path_2992" data-name="Path 2992" d="M1135.882,1359.438l-.473,0v-4.1l.473,0Z" transform="translate(-1117.897 -1350.578)" fill="#febf00"/>
              <path id="Path_2993" data-name="Path 2993" d="M1191.417,1356.735c-.156.017-.315.033-.473.049v-4.1c.158-.016.317-.032.473-.049Z" transform="translate(-1165.778 -1348.251)" fill="#febf00"/>
              <path id="Path_2994" data-name="Path 2994" d="M1246.952,1345.3q-.23.081-.473.16v-4.1c.161-.052.32-.106.473-.16Z" transform="translate(-1213.658 -1338.397)" fill="#febf00"/>
              <path id="Path_2995" data-name="Path 2995" d="M1008.355,1320.809c0,.61.449,1.193,1.26,1.73v4.1a2.3,2.3,0,0,1-1.259-1.706h0Z" transform="translate(-1008.353 -1320.809)" fill="#febf00"/>
              <path id="Path_2996" data-name="Path 2996" d="M1024.813,1341.506c-.165-.07-.322-.141-.473-.214v-4.1q.226.109.473.214Z" transform="translate(-1022.137 -1334.937)" fill="#febf00"/>
              <path id="Path_2997" data-name="Path 2997" d="M1050.727,1345.752l.473.063c.809.1,1.651.191,2.522.262,1.192.1,2.435.166,3.718.2v4.1c-1.283-.033-2.526-.1-3.718-.2-.87-.072-1.713-.159-2.522-.262l-.473-.063c-.319-.044-.634-.089-.942-.137a36.293,36.293,0,0,1-3.718-.767v-4.1a36.268,36.268,0,0,0,3.718.767C1050.093,1345.663,1050.407,1345.708,1050.727,1345.752Z" transform="translate(-1040.869 -1341.535)" fill="#febf00"/>
            </g>
            <g id="Group_1528" data-name="Group 1528" transform="translate(1.262 1.561)">
              <path id="Path_2998" data-name="Path 2998" d="M1200.615,1342.653q.492-.137.942-.283v4.1c-.3.1-.613.192-.942.283a34.8,34.8,0,0,1-3.718.792q-1.2.194-2.522.341v-4.1q1.318-.145,2.522-.341A34.8,34.8,0,0,0,1200.615,1342.653Z" transform="translate(-1169.997 -1340.959)" fill="#ffdf00"/>
              <path id="Path_2999" data-name="Path 2999" d="M1252.432,1336.229a9.591,9.591,0,0,1-2.522,1.252v-4.1a9.61,9.61,0,0,0,2.522-1.251Z" transform="translate(-1217.878 -1332.135)" fill="#ffdf00"/>
              <path id="Path_3000" data-name="Path 3000" d="M1141.362,1353.292c1.285-.037,2.528-.109,3.718-.211q.477-.041.942-.088v4.1q-.465.048-.942.088c-1.19.1-2.433.173-3.718.211q-1.036.03-2.1.031l-.418,0v-4.1l.42,0Q1140.327,1353.323,1141.362,1353.292Z" transform="translate(-1122.117 -1350.118)" fill="#ffdf00"/>
              <path id="Path_3001" data-name="Path 3001" d="M1129.518,1359.32q-.474-.006-.942-.018v-4.1q.468.012.942.018Z" transform="translate(-1113.267 -1352.024)" fill="#ffdf00"/>
              <path id="Path_3002" data-name="Path 3002" d="M1030.292,1343.682a19.143,19.143,0,0,1-2.522-.842v-4.1a19.222,19.222,0,0,0,2.522.842Z" transform="translate(-1026.355 -1337.832)" fill="#ffdf00"/>
              <path id="Path_3003" data-name="Path 3003" d="M1018.448,1333.889v4.1a7.835,7.835,0,0,1-.942-.528v-4.1A7.791,7.791,0,0,0,1018.448,1333.889Z" transform="translate(-1017.506 -1333.191)" fill="#ffdf00"/>
            </g>
          </g>
        </g>
        <g id="Group_1534" data-name="Group 1534" transform="translate(0 26.696)">
          <path id="Path_3004" data-name="Path 3004" d="M1008.355,1272.291c0,.61.449,1.194,1.26,1.73a7.824,7.824,0,0,0,.942.529q.226.108.473.213a19.2,19.2,0,0,0,2.522.841,36.207,36.207,0,0,0,3.718.767c.308.048.623.093.942.137l.473.063q1.214.154,2.522.262c1.192.1,2.435.166,3.718.2q.468.012.942.018l.473,0,.42,0q1.067,0,2.1-.031c1.285-.037,2.528-.109,3.718-.21q.477-.041.942-.088c.158-.016.317-.032.473-.049q1.318-.145,2.522-.34a34.865,34.865,0,0,0,3.718-.792q.492-.136.942-.283c.162-.053.32-.106.473-.16a9.614,9.614,0,0,0,2.522-1.251,2.052,2.052,0,0,0,1-1.542l0,4.122h0a2.071,2.071,0,0,1-.992,1.515,9.589,9.589,0,0,1-2.522,1.252q-.23.082-.473.161c-.3.1-.613.192-.942.283a34.807,34.807,0,0,1-3.718.792q-1.2.194-2.522.341l-.473.049q-.465.047-.942.088c-1.19.1-2.433.173-3.718.21q-1.036.03-2.1.031c-.14,0-.278,0-.418,0l-.473,0q-.474-.006-.942-.018c-1.283-.034-2.526-.1-3.718-.2q-1.306-.107-2.522-.262l-.473-.062c-.319-.044-.634-.089-.942-.137a36.226,36.226,0,0,1-3.718-.767,19.2,19.2,0,0,1-2.522-.842c-.165-.07-.322-.141-.473-.214a7.851,7.851,0,0,1-.942-.528,2.3,2.3,0,0,1-1.259-1.706h0Z" transform="translate(-1008.353 -1267.025)" fill="#febf00"/>
          <path id="Path_3005" data-name="Path 3005" d="M1008.355,1272.291c0,.61.449,1.194,1.26,1.73a7.824,7.824,0,0,0,.942.529q.226.108.473.213a19.2,19.2,0,0,0,2.522.841,36.207,36.207,0,0,0,3.718.767c.308.048.623.093.942.137l.473.063q1.214.154,2.522.262c1.192.1,2.435.166,3.718.2q.468.012.942.018l.473,0,.42,0q1.067,0,2.1-.031c1.285-.037,2.528-.109,3.718-.21q.477-.041.942-.088c.158-.016.317-.032.473-.049q1.318-.145,2.522-.34a34.865,34.865,0,0,0,3.718-.792q.492-.136.942-.283c.162-.053.32-.106.473-.16a9.614,9.614,0,0,0,2.522-1.251,2.052,2.052,0,0,0,1-1.542l0,4.122h0a2.071,2.071,0,0,1-.992,1.515,9.589,9.589,0,0,1-2.522,1.252q-.23.082-.473.161c-.3.1-.613.192-.942.283a34.807,34.807,0,0,1-3.718.792q-1.2.194-2.522.341l-.473.049q-.465.047-.942.088c-1.19.1-2.433.173-3.718.21q-1.036.03-2.1.031c-.14,0-.278,0-.418,0l-.473,0q-.474-.006-.942-.018c-1.283-.034-2.526-.1-3.718-.2q-1.306-.107-2.522-.262l-.473-.062c-.319-.044-.634-.089-.942-.137a36.226,36.226,0,0,1-3.718-.767,19.2,19.2,0,0,1-2.522-.842c-.165-.07-.322-.141-.473-.214a7.851,7.851,0,0,1-.942-.528,2.3,2.3,0,0,1-1.259-1.706h0Z" transform="translate(-1008.353 -1267.025)" opacity="0.3" style="mix-blend-mode: multiply;isolation: isolate"/>
          <ellipse id="Ellipse_297" data-name="Ellipse 297" cx="18.405" cy="4.756" rx="18.405" ry="4.756" transform="translate(0.001)" fill="#febf00"/>
          <path id="Path_3006" data-name="Path 3006" d="M1039.716,1243.781c-8.577,0-15.606,1.4-16.279,3.2a.8.8,0,0,1-.058-.282c0-1.926,7.315-3.484,16.337-3.48s16.334,1.57,16.333,3.5a.8.8,0,0,1-.058.282C1055.318,1245.2,1048.292,1243.785,1039.716,1243.781Z" transform="translate(-1021.308 -1241.958)" fill="#febf00"/>
          <path id="Path_3007" data-name="Path 3007" d="M1039.716,1243.781c-8.577,0-15.606,1.4-16.279,3.2a.8.8,0,0,1-.058-.282c0-1.926,7.315-3.484,16.337-3.48s16.334,1.57,16.333,3.5a.8.8,0,0,1-.058.282C1055.318,1245.2,1048.292,1243.785,1039.716,1243.781Z" transform="translate(-1021.308 -1241.958)" opacity="0.1" style="mix-blend-mode: multiply;isolation: isolate"/>
          <path id="Path_3008" data-name="Path 3008" d="M1040.073,1253.721c-8.576,0-15.6-1.419-16.276-3.214.673-1.794,7.7-3.2,16.279-3.2s15.6,1.419,16.275,3.214C1055.68,1252.317,1048.651,1253.725,1040.073,1253.721Z" transform="translate(-1021.669 -1245.486)" fill="#fcd721"/>
          <g id="Group_1533" data-name="Group 1533" transform="translate(0 4.756)">
            <g id="Group_1531" data-name="Group 1531">
              <path id="Path_3009" data-name="Path 3009" d="M1269.2,1268.727l0,4.122h0a2.07,2.07,0,0,1-.992,1.515v-4.094A2.051,2.051,0,0,0,1269.2,1268.727Z" transform="translate(-1232.391 -1268.708)" fill="#febf00"/>
              <path id="Path_3010" data-name="Path 3010" d="M1135.882,1307.221l-.473,0v-4.1l.473,0Z" transform="translate(-1117.897 -1298.361)" fill="#febf00"/>
              <path id="Path_3011" data-name="Path 3011" d="M1191.417,1304.518c-.156.017-.315.033-.473.049v-4.1c.158-.016.317-.032.473-.049Z" transform="translate(-1165.778 -1296.034)" fill="#febf00"/>
              <path id="Path_3012" data-name="Path 3012" d="M1246.952,1293.088q-.23.082-.473.161v-4.1c.161-.052.32-.106.473-.16Z" transform="translate(-1213.658 -1286.18)" fill="#febf00"/>
              <path id="Path_3013" data-name="Path 3013" d="M1008.355,1268.591c0,.61.449,1.194,1.26,1.73v4.1a2.3,2.3,0,0,1-1.259-1.706h0Z" transform="translate(-1008.353 -1268.591)" fill="#febf00"/>
              <path id="Path_3014" data-name="Path 3014" d="M1024.813,1289.289c-.165-.07-.322-.141-.473-.214v-4.1q.226.108.473.213Z" transform="translate(-1022.137 -1282.719)" fill="#febf00"/>
              <path id="Path_3015" data-name="Path 3015" d="M1050.727,1293.534l.473.063c.809.1,1.651.191,2.522.262,1.192.1,2.435.165,3.718.2v4.1c-1.283-.033-2.526-.1-3.718-.2-.87-.071-1.713-.16-2.522-.262l-.473-.062c-.319-.044-.634-.089-.942-.137a36.164,36.164,0,0,1-3.718-.767v-4.1a36.268,36.268,0,0,0,3.718.767C1050.093,1293.446,1050.407,1293.491,1050.727,1293.534Z" transform="translate(-1040.869 -1289.318)" fill="#febf00"/>
            </g>
            <g id="Group_1532" data-name="Group 1532" transform="translate(1.262 1.561)">
              <path id="Path_3016" data-name="Path 3016" d="M1200.615,1290.436q.492-.136.942-.283v4.1c-.3.1-.613.192-.942.283a34.8,34.8,0,0,1-3.718.792q-1.2.194-2.522.341v-4.1q1.318-.145,2.522-.34A34.893,34.893,0,0,0,1200.615,1290.436Z" transform="translate(-1169.997 -1288.742)" fill="#ffdf00"/>
              <path id="Path_3017" data-name="Path 3017" d="M1252.432,1284.011a9.594,9.594,0,0,1-2.522,1.252v-4.1a9.61,9.61,0,0,0,2.522-1.251Z" transform="translate(-1217.878 -1279.917)" fill="#ffdf00"/>
              <path id="Path_3018" data-name="Path 3018" d="M1141.362,1301.075c1.285-.037,2.528-.109,3.718-.21q.477-.041.942-.088v4.1q-.465.047-.942.088c-1.19.1-2.433.173-3.718.21q-1.036.03-2.1.031l-.418,0v-4.1l.42,0Q1140.327,1301.106,1141.362,1301.075Z" transform="translate(-1122.117 -1297.901)" fill="#ffdf00"/>
              <path id="Path_3019" data-name="Path 3019" d="M1129.518,1307.1q-.474-.006-.942-.018v-4.1q.468.012.942.018Z" transform="translate(-1113.267 -1299.807)" fill="#ffdf00"/>
              <path id="Path_3020" data-name="Path 3020" d="M1030.292,1291.465a19.161,19.161,0,0,1-2.522-.842v-4.1a19.223,19.223,0,0,0,2.522.841Z" transform="translate(-1026.355 -1285.615)" fill="#ffdf00"/>
              <path id="Path_3021" data-name="Path 3021" d="M1018.448,1281.672v4.1a7.852,7.852,0,0,1-.942-.528v-4.1A7.841,7.841,0,0,0,1018.448,1281.672Z" transform="translate(-1017.506 -1280.974)" fill="#ffdf00"/>
            </g>
          </g>
        </g>
        <g id="Group_1537" data-name="Group 1537" transform="translate(2.44)">
          <ellipse id="Ellipse_298" data-name="Ellipse 298" cx="16.486" cy="16.321" rx="16.486" ry="16.321" fill="#febf00"/>
          <ellipse id="Ellipse_299" data-name="Ellipse 299" cx="13.846" cy="13.708" rx="13.846" ry="13.708" transform="translate(2.64 2.613)" fill="#febf00"/>
          <ellipse id="Ellipse_300" data-name="Ellipse 300" cx="13.846" cy="13.708" rx="13.846" ry="13.708" transform="translate(2.64 2.613)" opacity="0.1" style="mix-blend-mode: multiply;isolation: isolate"/>
          <ellipse id="Ellipse_301" data-name="Ellipse 301" cx="13.068" cy="12.937" rx="13.068" ry="12.937" transform="translate(3.418 3.384)" fill="#fcd721"/>
          <g id="Group_1536" data-name="Group 1536" transform="translate(10.741 1.802)">
            <g id="Group_1535" data-name="Group 1535" transform="translate(0 0)">
              <text id="_" data-name="$" transform="translate(1.518 19.739) rotate(-4.583)" fill="#fea600" font-size="20" font-family="Calibri-Bold, Calibri" font-weight="700"><tspan x="0" y="0">$</tspan></text>
            </g>
          </g>
        </g>
      </g>
      <g id="Group_1572" data-name="Group 1572" transform="translate(166.597 111.402)">
        <g id="Group_1542" data-name="Group 1542" transform="translate(4.346 43.182)">
          <path id="Path_3022" data-name="Path 3022" d="M1311.33,1324.509c0,.61.449,1.193,1.259,1.73a7.788,7.788,0,0,0,.942.528q.226.108.473.214a19.2,19.2,0,0,0,2.522.841,36.245,36.245,0,0,0,3.718.767c.308.048.623.093.942.137l.473.063c.809.1,1.651.191,2.522.262,1.192.1,2.435.166,3.718.2q.467.012.942.018l.473,0,.42,0q1.067,0,2.1-.031c1.284-.037,2.528-.109,3.718-.211q.477-.041.942-.088c.158-.016.317-.032.473-.049q1.318-.145,2.522-.34a34.884,34.884,0,0,0,3.718-.792q.492-.136.942-.283c.161-.052.32-.106.473-.16a9.615,9.615,0,0,0,2.522-1.251,2.052,2.052,0,0,0,1-1.542l0,4.122h0a2.069,2.069,0,0,1-.992,1.515,9.592,9.592,0,0,1-2.522,1.252q-.23.082-.473.161c-.3.1-.614.192-.942.283a34.83,34.83,0,0,1-3.718.792q-1.2.194-2.522.341l-.473.049q-.465.048-.942.088c-1.19.1-2.433.173-3.718.21q-1.037.03-2.1.031l-.418,0c-.158,0-.316,0-.473,0q-.474-.006-.942-.018c-1.283-.034-2.526-.1-3.718-.2-.87-.072-1.713-.16-2.522-.262l-.473-.062c-.319-.044-.634-.089-.942-.137a36.257,36.257,0,0,1-3.718-.767,19.185,19.185,0,0,1-2.522-.842c-.165-.07-.322-.141-.473-.214a7.868,7.868,0,0,1-.942-.528,2.3,2.3,0,0,1-1.259-1.706h0Z" transform="translate(-1311.328 -1319.243)" fill="#febf00"/>
          <path id="Path_3023" data-name="Path 3023" d="M1311.33,1324.509c0,.61.449,1.193,1.259,1.73a7.788,7.788,0,0,0,.942.528q.226.108.473.214a19.2,19.2,0,0,0,2.522.841,36.245,36.245,0,0,0,3.718.767c.308.048.623.093.942.137l.473.063c.809.1,1.651.191,2.522.262,1.192.1,2.435.166,3.718.2q.467.012.942.018l.473,0,.42,0q1.067,0,2.1-.031c1.284-.037,2.528-.109,3.718-.211q.477-.041.942-.088c.158-.016.317-.032.473-.049q1.318-.145,2.522-.34a34.884,34.884,0,0,0,3.718-.792q.492-.136.942-.283c.161-.052.32-.106.473-.16a9.615,9.615,0,0,0,2.522-1.251,2.052,2.052,0,0,0,1-1.542l0,4.122h0a2.069,2.069,0,0,1-.992,1.515,9.592,9.592,0,0,1-2.522,1.252q-.23.082-.473.161c-.3.1-.614.192-.942.283a34.83,34.83,0,0,1-3.718.792q-1.2.194-2.522.341l-.473.049q-.465.048-.942.088c-1.19.1-2.433.173-3.718.21q-1.037.03-2.1.031l-.418,0c-.158,0-.316,0-.473,0q-.474-.006-.942-.018c-1.283-.034-2.526-.1-3.718-.2-.87-.072-1.713-.16-2.522-.262l-.473-.062c-.319-.044-.634-.089-.942-.137a36.257,36.257,0,0,1-3.718-.767,19.185,19.185,0,0,1-2.522-.842c-.165-.07-.322-.141-.473-.214a7.868,7.868,0,0,1-.942-.528,2.3,2.3,0,0,1-1.259-1.706h0Z" transform="translate(-1311.328 -1319.243)" opacity="0.3" style="mix-blend-mode: multiply;isolation: isolate"/>
          <ellipse id="Ellipse_302" data-name="Ellipse 302" cx="18.405" cy="4.756" rx="18.405" ry="4.756" transform="translate(0.001)" fill="#febf00"/>
          <path id="Path_3024" data-name="Path 3024" d="M1342.691,1296c-8.577,0-15.606,1.4-16.279,3.2a.809.809,0,0,1-.058-.282c0-1.926,7.315-3.484,16.337-3.48s16.334,1.57,16.333,3.5a.8.8,0,0,1-.058.281C1358.293,1297.417,1351.267,1296,1342.691,1296Z" transform="translate(-1324.283 -1294.175)" fill="#febf00"/>
          <path id="Path_3025" data-name="Path 3025" d="M1342.691,1296c-8.577,0-15.606,1.4-16.279,3.2a.809.809,0,0,1-.058-.282c0-1.926,7.315-3.484,16.337-3.48s16.334,1.57,16.333,3.5a.8.8,0,0,1-.058.281C1358.293,1297.417,1351.267,1296,1342.691,1296Z" transform="translate(-1324.283 -1294.175)" opacity="0.1" style="mix-blend-mode: multiply;isolation: isolate"/>
          <path id="Path_3026" data-name="Path 3026" d="M1343.048,1305.938c-8.576,0-15.6-1.419-16.276-3.214.673-1.794,7.7-3.2,16.279-3.2s15.6,1.419,16.276,3.214C1358.654,1304.534,1351.626,1305.942,1343.048,1305.938Z" transform="translate(-1324.644 -1297.703)" fill="#fcd721"/>
          <g id="Group_1541" data-name="Group 1541" transform="translate(0 4.756)">
            <g id="Group_1539" data-name="Group 1539">
              <path id="Path_3027" data-name="Path 3027" d="M1572.178,1320.944l0,4.122h0a2.07,2.07,0,0,1-.992,1.515v-4.094A2.052,2.052,0,0,0,1572.178,1320.944Z" transform="translate(-1535.366 -1320.925)" fill="#febf00"/>
              <path id="Path_3028" data-name="Path 3028" d="M1438.858,1359.438l-.473,0v-4.1l.473,0Z" transform="translate(-1420.873 -1350.578)" fill="#febf00"/>
              <path id="Path_3029" data-name="Path 3029" d="M1494.392,1356.735l-.473.049v-4.1c.158-.016.317-.032.473-.049Z" transform="translate(-1468.753 -1348.251)" fill="#febf00"/>
              <path id="Path_3030" data-name="Path 3030" d="M1549.927,1345.3q-.23.081-.473.16v-4.1c.162-.052.32-.106.473-.16Z" transform="translate(-1516.633 -1338.397)" fill="#febf00"/>
              <path id="Path_3031" data-name="Path 3031" d="M1311.33,1320.809c0,.61.449,1.193,1.259,1.73v4.1a2.3,2.3,0,0,1-1.259-1.706h0Z" transform="translate(-1311.328 -1320.809)" fill="#febf00"/>
              <path id="Path_3032" data-name="Path 3032" d="M1327.788,1341.506c-.165-.07-.322-.141-.473-.214v-4.1q.226.109.473.214Z" transform="translate(-1325.111 -1334.937)" fill="#febf00"/>
              <path id="Path_3033" data-name="Path 3033" d="M1353.7,1345.752l.473.063q1.214.154,2.522.262c1.192.1,2.435.166,3.718.2v4.1c-1.283-.033-2.526-.1-3.718-.2q-1.306-.107-2.522-.262l-.473-.063c-.319-.044-.634-.089-.942-.137a36.3,36.3,0,0,1-3.718-.767v-4.1a36.282,36.282,0,0,0,3.718.767C1353.068,1345.663,1353.383,1345.708,1353.7,1345.752Z" transform="translate(-1343.844 -1341.535)" fill="#febf00"/>
            </g>
            <g id="Group_1540" data-name="Group 1540" transform="translate(1.262 1.561)">
              <path id="Path_3034" data-name="Path 3034" d="M1503.59,1342.653q.492-.137.942-.283v4.1c-.3.1-.613.192-.942.283a34.8,34.8,0,0,1-3.718.792q-1.2.194-2.522.341v-4.1q1.318-.145,2.522-.341A34.8,34.8,0,0,0,1503.59,1342.653Z" transform="translate(-1472.972 -1340.959)" fill="#ffdf00"/>
              <path id="Path_3035" data-name="Path 3035" d="M1555.407,1336.229a9.588,9.588,0,0,1-2.522,1.252v-4.1a9.613,9.613,0,0,0,2.522-1.251Z" transform="translate(-1520.853 -1332.135)" fill="#ffdf00"/>
              <path id="Path_3036" data-name="Path 3036" d="M1444.337,1353.292c1.284-.037,2.527-.109,3.718-.211q.477-.041.942-.088v4.1q-.465.048-.942.088c-1.19.1-2.434.173-3.718.211q-1.037.03-2.1.031l-.418,0v-4.1l.42,0Q1443.3,1353.323,1444.337,1353.292Z" transform="translate(-1425.092 -1350.118)" fill="#ffdf00"/>
              <path id="Path_3037" data-name="Path 3037" d="M1432.493,1359.32q-.474-.006-.942-.018v-4.1q.468.012.942.018Z" transform="translate(-1416.242 -1352.024)" fill="#ffdf00"/>
              <path id="Path_3038" data-name="Path 3038" d="M1333.268,1343.682a19.135,19.135,0,0,1-2.522-.842v-4.1a19.208,19.208,0,0,0,2.522.842Z" transform="translate(-1329.331 -1337.832)" fill="#ffdf00"/>
              <path id="Path_3039" data-name="Path 3039" d="M1321.423,1333.889v4.1a7.855,7.855,0,0,1-.942-.528v-4.1A7.783,7.783,0,0,0,1321.423,1333.889Z" transform="translate(-1320.481 -1333.191)" fill="#ffdf00"/>
            </g>
          </g>
        </g>
        <g id="Group_1546" data-name="Group 1546" transform="translate(10.697 35.985)">
          <path id="Path_3040" data-name="Path 3040" d="M1357.413,1272.291c0,.61.449,1.194,1.259,1.73a7.833,7.833,0,0,0,.942.529c.151.072.308.143.473.213a19.2,19.2,0,0,0,2.522.841,36.22,36.22,0,0,0,3.718.767c.308.048.623.093.942.137l.473.063c.809.1,1.651.19,2.522.262,1.192.1,2.435.166,3.718.2q.467.012.942.018l.473,0,.42,0q1.067,0,2.1-.031c1.284-.037,2.528-.109,3.718-.21q.477-.041.942-.088c.158-.016.317-.032.473-.049q1.318-.145,2.522-.34a34.864,34.864,0,0,0,3.718-.792q.493-.136.942-.283c.161-.053.319-.106.473-.16a9.616,9.616,0,0,0,2.522-1.251,2.051,2.051,0,0,0,1-1.542l0,4.122h0a2.07,2.07,0,0,1-.992,1.515,9.587,9.587,0,0,1-2.522,1.252q-.23.082-.473.161c-.3.1-.613.192-.942.283a34.793,34.793,0,0,1-3.718.792q-1.2.194-2.522.341l-.473.049q-.465.047-.942.088c-1.19.1-2.433.173-3.718.21q-1.037.03-2.1.031c-.14,0-.278,0-.418,0l-.473,0q-.474-.006-.942-.018c-1.283-.034-2.526-.1-3.718-.2q-1.306-.107-2.522-.262l-.473-.062c-.319-.044-.634-.089-.942-.137a36.233,36.233,0,0,1-3.718-.767,19.2,19.2,0,0,1-2.522-.842c-.165-.07-.322-.141-.473-.214a7.88,7.88,0,0,1-.942-.528,2.3,2.3,0,0,1-1.259-1.706h0Z" transform="translate(-1357.411 -1267.025)" fill="#febf00"/>
          <path id="Path_3041" data-name="Path 3041" d="M1357.413,1272.291c0,.61.449,1.194,1.259,1.73a7.833,7.833,0,0,0,.942.529c.151.072.308.143.473.213a19.2,19.2,0,0,0,2.522.841,36.22,36.22,0,0,0,3.718.767c.308.048.623.093.942.137l.473.063c.809.1,1.651.19,2.522.262,1.192.1,2.435.166,3.718.2q.467.012.942.018l.473,0,.42,0q1.067,0,2.1-.031c1.284-.037,2.528-.109,3.718-.21q.477-.041.942-.088c.158-.016.317-.032.473-.049q1.318-.145,2.522-.34a34.864,34.864,0,0,0,3.718-.792q.493-.136.942-.283c.161-.053.319-.106.473-.16a9.616,9.616,0,0,0,2.522-1.251,2.051,2.051,0,0,0,1-1.542l0,4.122h0a2.07,2.07,0,0,1-.992,1.515,9.587,9.587,0,0,1-2.522,1.252q-.23.082-.473.161c-.3.1-.613.192-.942.283a34.793,34.793,0,0,1-3.718.792q-1.2.194-2.522.341l-.473.049q-.465.047-.942.088c-1.19.1-2.433.173-3.718.21q-1.037.03-2.1.031c-.14,0-.278,0-.418,0l-.473,0q-.474-.006-.942-.018c-1.283-.034-2.526-.1-3.718-.2q-1.306-.107-2.522-.262l-.473-.062c-.319-.044-.634-.089-.942-.137a36.233,36.233,0,0,1-3.718-.767,19.2,19.2,0,0,1-2.522-.842c-.165-.07-.322-.141-.473-.214a7.88,7.88,0,0,1-.942-.528,2.3,2.3,0,0,1-1.259-1.706h0Z" transform="translate(-1357.411 -1267.025)" opacity="0.3" style="mix-blend-mode: multiply;isolation: isolate"/>
          <ellipse id="Ellipse_303" data-name="Ellipse 303" cx="18.405" cy="4.756" rx="18.405" ry="4.756" transform="translate(0.001)" fill="#febf00"/>
          <path id="Path_3042" data-name="Path 3042" d="M1388.774,1243.781c-8.577,0-15.606,1.4-16.279,3.2a.8.8,0,0,1-.058-.282c0-1.926,7.315-3.484,16.337-3.48s16.334,1.57,16.333,3.5a.8.8,0,0,1-.058.282C1404.376,1245.2,1397.35,1243.785,1388.774,1243.781Z" transform="translate(-1370.366 -1241.958)" fill="#febf00"/>
          <path id="Path_3043" data-name="Path 3043" d="M1388.774,1243.781c-8.577,0-15.606,1.4-16.279,3.2a.8.8,0,0,1-.058-.282c0-1.926,7.315-3.484,16.337-3.48s16.334,1.57,16.333,3.5a.8.8,0,0,1-.058.282C1404.376,1245.2,1397.35,1243.785,1388.774,1243.781Z" transform="translate(-1370.366 -1241.958)" opacity="0.1" style="mix-blend-mode: multiply;isolation: isolate"/>
          <path id="Path_3044" data-name="Path 3044" d="M1389.131,1253.721c-8.576,0-15.6-1.419-16.276-3.214.673-1.794,7.7-3.2,16.279-3.2s15.6,1.419,16.275,3.214C1404.738,1252.317,1397.709,1253.725,1389.131,1253.721Z" transform="translate(-1370.727 -1245.486)" fill="#fcd721"/>
          <g id="Group_1545" data-name="Group 1545" transform="translate(0 4.756)">
            <g id="Group_1543" data-name="Group 1543">
              <path id="Path_3045" data-name="Path 3045" d="M1618.261,1268.727l0,4.122h0a2.07,2.07,0,0,1-.992,1.515v-4.094A2.051,2.051,0,0,0,1618.261,1268.727Z" transform="translate(-1581.449 -1268.708)" fill="#febf00"/>
              <path id="Path_3046" data-name="Path 3046" d="M1484.94,1307.221l-.473,0v-4.1l.473,0Z" transform="translate(-1466.955 -1298.361)" fill="#febf00"/>
              <path id="Path_3047" data-name="Path 3047" d="M1540.475,1304.518c-.156.017-.315.033-.473.049v-4.1c.158-.016.317-.032.473-.049Z" transform="translate(-1514.836 -1296.034)" fill="#febf00"/>
              <path id="Path_3048" data-name="Path 3048" d="M1596.01,1293.088q-.23.082-.473.161v-4.1q.242-.079.473-.16Z" transform="translate(-1562.716 -1286.18)" fill="#febf00"/>
              <path id="Path_3049" data-name="Path 3049" d="M1357.413,1268.591c0,.61.449,1.194,1.259,1.73v4.1a2.3,2.3,0,0,1-1.259-1.706h0Z" transform="translate(-1357.411 -1268.591)" fill="#febf00"/>
              <path id="Path_3050" data-name="Path 3050" d="M1373.87,1289.289c-.165-.07-.322-.141-.473-.214v-4.1q.226.108.473.213Z" transform="translate(-1371.194 -1282.719)" fill="#febf00"/>
              <path id="Path_3051" data-name="Path 3051" d="M1399.785,1293.534c.157.021.313.043.473.063.809.1,1.651.191,2.522.262,1.192.1,2.435.165,3.718.2v4.1c-1.283-.033-2.526-.1-3.718-.2q-1.306-.107-2.522-.262l-.473-.062c-.319-.044-.634-.089-.942-.137a36.161,36.161,0,0,1-3.718-.767v-4.1a36.272,36.272,0,0,0,3.718.767C1399.151,1293.446,1399.466,1293.491,1399.785,1293.534Z" transform="translate(-1389.927 -1289.318)" fill="#febf00"/>
            </g>
            <g id="Group_1544" data-name="Group 1544" transform="translate(1.262 1.561)">
              <path id="Path_3052" data-name="Path 3052" d="M1549.673,1290.436q.492-.136.942-.283v4.1c-.3.1-.614.192-.942.283a34.8,34.8,0,0,1-3.718.792q-1.2.194-2.521.341v-4.1q1.317-.145,2.521-.34A34.889,34.889,0,0,0,1549.673,1290.436Z" transform="translate(-1519.055 -1288.742)" fill="#ffdf00"/>
              <path id="Path_3053" data-name="Path 3053" d="M1601.49,1284.011a9.6,9.6,0,0,1-2.522,1.252v-4.1a9.614,9.614,0,0,0,2.522-1.251Z" transform="translate(-1566.936 -1279.917)" fill="#ffdf00"/>
              <path id="Path_3054" data-name="Path 3054" d="M1490.42,1301.075c1.284-.037,2.528-.109,3.718-.21q.477-.041.942-.088v4.1q-.465.047-.942.088c-1.19.1-2.434.173-3.718.21q-1.036.03-2.1.031l-.418,0v-4.1l.42,0Q1489.385,1301.106,1490.42,1301.075Z" transform="translate(-1471.175 -1297.901)" fill="#ffdf00"/>
              <path id="Path_3055" data-name="Path 3055" d="M1478.576,1307.1q-.474-.006-.942-.018v-4.1q.468.012.942.018Z" transform="translate(-1462.325 -1299.807)" fill="#ffdf00"/>
              <path id="Path_3056" data-name="Path 3056" d="M1379.35,1291.465a19.161,19.161,0,0,1-2.522-.842v-4.1a19.223,19.223,0,0,0,2.522.841Z" transform="translate(-1375.413 -1285.615)" fill="#ffdf00"/>
              <path id="Path_3057" data-name="Path 3057" d="M1367.506,1281.672v4.1a7.858,7.858,0,0,1-.942-.528v-4.1A7.838,7.838,0,0,0,1367.506,1281.672Z" transform="translate(-1366.564 -1280.974)" fill="#ffdf00"/>
            </g>
          </g>
        </g>
        <g id="Group_1550" data-name="Group 1550" transform="translate(4.346 28.788)">
          <path id="Path_3058" data-name="Path 3058" d="M1311.33,1220.074c0,.61.449,1.193,1.259,1.73a7.822,7.822,0,0,0,.942.528q.226.109.473.214a19.187,19.187,0,0,0,2.522.841,36.246,36.246,0,0,0,3.718.767c.308.048.623.093.942.137.157.021.313.043.473.063.809.1,1.651.191,2.522.262,1.192.1,2.435.165,3.718.2q.467.012.942.018l.473,0,.42,0q1.067,0,2.1-.031c1.284-.037,2.528-.109,3.718-.21q.477-.041.942-.088l.473-.049q1.318-.145,2.522-.34a34.825,34.825,0,0,0,3.718-.792q.492-.137.942-.283c.161-.052.32-.106.473-.16a9.623,9.623,0,0,0,2.522-1.251,2.052,2.052,0,0,0,1-1.542l0,4.122h0a2.069,2.069,0,0,1-.992,1.515,9.592,9.592,0,0,1-2.522,1.252q-.23.082-.473.16c-.3.1-.614.192-.942.283a34.83,34.83,0,0,1-3.718.792q-1.2.194-2.522.34c-.156.017-.315.033-.473.049q-.465.047-.942.088c-1.19.1-2.433.173-3.718.211q-1.037.03-2.1.031c-.14,0-.278,0-.418,0l-.473,0q-.474-.006-.942-.018c-1.283-.033-2.526-.1-3.718-.2-.87-.071-1.713-.159-2.522-.262l-.473-.062c-.319-.044-.634-.089-.942-.137a36.259,36.259,0,0,1-3.718-.767,19.223,19.223,0,0,1-2.522-.841c-.165-.07-.322-.141-.473-.214a7.868,7.868,0,0,1-.942-.528,2.3,2.3,0,0,1-1.259-1.706h0Z" transform="translate(-1311.328 -1214.808)" fill="#febf00"/>
          <path id="Path_3059" data-name="Path 3059" d="M1311.33,1220.074c0,.61.449,1.193,1.259,1.73a7.822,7.822,0,0,0,.942.528q.226.109.473.214a19.187,19.187,0,0,0,2.522.841,36.246,36.246,0,0,0,3.718.767c.308.048.623.093.942.137.157.021.313.043.473.063.809.1,1.651.191,2.522.262,1.192.1,2.435.165,3.718.2q.467.012.942.018l.473,0,.42,0q1.067,0,2.1-.031c1.284-.037,2.528-.109,3.718-.21q.477-.041.942-.088l.473-.049q1.318-.145,2.522-.34a34.825,34.825,0,0,0,3.718-.792q.492-.137.942-.283c.161-.052.32-.106.473-.16a9.623,9.623,0,0,0,2.522-1.251,2.052,2.052,0,0,0,1-1.542l0,4.122h0a2.069,2.069,0,0,1-.992,1.515,9.592,9.592,0,0,1-2.522,1.252q-.23.082-.473.16c-.3.1-.614.192-.942.283a34.83,34.83,0,0,1-3.718.792q-1.2.194-2.522.34c-.156.017-.315.033-.473.049q-.465.047-.942.088c-1.19.1-2.433.173-3.718.211q-1.037.03-2.1.031c-.14,0-.278,0-.418,0l-.473,0q-.474-.006-.942-.018c-1.283-.033-2.526-.1-3.718-.2-.87-.071-1.713-.159-2.522-.262l-.473-.062c-.319-.044-.634-.089-.942-.137a36.259,36.259,0,0,1-3.718-.767,19.223,19.223,0,0,1-2.522-.841c-.165-.07-.322-.141-.473-.214a7.868,7.868,0,0,1-.942-.528,2.3,2.3,0,0,1-1.259-1.706h0Z" transform="translate(-1311.328 -1214.808)" opacity="0.3" style="mix-blend-mode: multiply;isolation: isolate"/>
          <ellipse id="Ellipse_304" data-name="Ellipse 304" cx="18.405" cy="4.756" rx="18.405" ry="4.756" transform="translate(0.001)" fill="#febf00"/>
          <path id="Path_3060" data-name="Path 3060" d="M1342.691,1191.564c-8.577,0-15.606,1.4-16.279,3.2a.81.81,0,0,1-.058-.282c0-1.926,7.315-3.484,16.337-3.48s16.334,1.57,16.333,3.5a.8.8,0,0,1-.058.282C1358.293,1192.983,1351.267,1191.568,1342.691,1191.564Z" transform="translate(-1324.283 -1189.741)" fill="#febf00"/>
          <path id="Path_3061" data-name="Path 3061" d="M1342.691,1191.564c-8.577,0-15.606,1.4-16.279,3.2a.81.81,0,0,1-.058-.282c0-1.926,7.315-3.484,16.337-3.48s16.334,1.57,16.333,3.5a.8.8,0,0,1-.058.282C1358.293,1192.983,1351.267,1191.568,1342.691,1191.564Z" transform="translate(-1324.283 -1189.741)" opacity="0.1" style="mix-blend-mode: multiply;isolation: isolate"/>
          <path id="Path_3062" data-name="Path 3062" d="M1343.048,1201.5c-8.576,0-15.6-1.419-16.276-3.214.673-1.794,7.7-3.2,16.279-3.2s15.6,1.419,16.276,3.214C1358.654,1200.1,1351.626,1201.508,1343.048,1201.5Z" transform="translate(-1324.644 -1193.269)" fill="#fcd721"/>
          <g id="Group_1549" data-name="Group 1549" transform="translate(0 4.756)">
            <g id="Group_1547" data-name="Group 1547">
              <path id="Path_3063" data-name="Path 3063" d="M1572.178,1216.51l0,4.122h0a2.07,2.07,0,0,1-.992,1.515v-4.094A2.051,2.051,0,0,0,1572.178,1216.51Z" transform="translate(-1535.366 -1216.491)" fill="#febf00"/>
              <path id="Path_3064" data-name="Path 3064" d="M1438.858,1255c-.158,0-.316,0-.473,0v-4.1l.473,0Z" transform="translate(-1420.873 -1246.144)" fill="#febf00"/>
              <path id="Path_3065" data-name="Path 3065" d="M1494.392,1252.3l-.473.049v-4.1c.158-.016.317-.032.473-.049Z" transform="translate(-1468.753 -1243.816)" fill="#febf00"/>
              <path id="Path_3066" data-name="Path 3066" d="M1549.927,1240.871q-.23.082-.473.16v-4.1c.162-.052.32-.106.473-.16Z" transform="translate(-1516.633 -1233.963)" fill="#febf00"/>
              <path id="Path_3067" data-name="Path 3067" d="M1311.33,1216.374c0,.61.449,1.193,1.259,1.73v4.1a2.3,2.3,0,0,1-1.259-1.706h0Z" transform="translate(-1311.328 -1216.374)" fill="#febf00"/>
              <path id="Path_3068" data-name="Path 3068" d="M1327.788,1237.072c-.165-.07-.322-.141-.473-.214v-4.1q.226.108.473.213Z" transform="translate(-1325.111 -1230.502)" fill="#febf00"/>
              <path id="Path_3069" data-name="Path 3069" d="M1353.7,1241.317c.157.021.314.043.473.063q1.214.154,2.522.262c1.192.1,2.435.166,3.718.2v4.1c-1.283-.033-2.526-.1-3.718-.2q-1.306-.107-2.522-.262l-.473-.063c-.319-.044-.634-.089-.942-.137a36.236,36.236,0,0,1-3.718-.767v-4.1a36.25,36.25,0,0,0,3.718.766C1353.068,1241.229,1353.383,1241.274,1353.7,1241.317Z" transform="translate(-1343.844 -1237.1)" fill="#febf00"/>
            </g>
            <g id="Group_1548" data-name="Group 1548" transform="translate(1.262 1.561)">
              <path id="Path_3070" data-name="Path 3070" d="M1503.59,1238.219q.492-.136.942-.283v4.1c-.3.1-.613.192-.942.283a34.8,34.8,0,0,1-3.718.792q-1.2.194-2.522.341v-4.1q1.318-.145,2.522-.34A34.8,34.8,0,0,0,1503.59,1238.219Z" transform="translate(-1472.972 -1236.525)" fill="#ffdf00"/>
              <path id="Path_3071" data-name="Path 3071" d="M1555.407,1231.794a9.588,9.588,0,0,1-2.522,1.252v-4.1a9.613,9.613,0,0,0,2.522-1.251Z" transform="translate(-1520.853 -1227.7)" fill="#ffdf00"/>
              <path id="Path_3072" data-name="Path 3072" d="M1444.337,1248.857c1.284-.037,2.527-.109,3.718-.21q.477-.041.942-.088v4.1q-.465.047-.942.088c-1.19.1-2.434.173-3.718.211q-1.037.03-2.1.031l-.418,0v-4.1l.42,0Q1443.3,1248.888,1444.337,1248.857Z" transform="translate(-1425.092 -1245.683)" fill="#ffdf00"/>
              <path id="Path_3073" data-name="Path 3073" d="M1432.493,1254.886q-.474-.006-.942-.018v-4.1q.468.012.942.018Z" transform="translate(-1416.242 -1247.59)" fill="#ffdf00"/>
              <path id="Path_3074" data-name="Path 3074" d="M1333.268,1239.247a19.171,19.171,0,0,1-2.522-.842v-4.1a19.19,19.19,0,0,0,2.522.841Z" transform="translate(-1329.331 -1233.397)" fill="#ffdf00"/>
              <path id="Path_3075" data-name="Path 3075" d="M1321.423,1229.454v4.1a7.872,7.872,0,0,1-.942-.528v-4.1A7.816,7.816,0,0,0,1321.423,1229.454Z" transform="translate(-1320.481 -1228.756)" fill="#ffdf00"/>
            </g>
          </g>
        </g>
        <g id="Group_1554" data-name="Group 1554" transform="translate(4.346 21.591)">
          <path id="Path_3076" data-name="Path 3076" d="M1311.33,1167.857c0,.61.449,1.193,1.259,1.73a7.788,7.788,0,0,0,.942.529q.226.109.473.213a19.186,19.186,0,0,0,2.522.842,36.279,36.279,0,0,0,3.718.767c.308.048.623.093.942.137l.473.063c.809.1,1.651.191,2.522.262,1.192.1,2.435.166,3.718.2q.467.012.942.018c.157,0,.315,0,.473,0l.42,0q1.067,0,2.1-.031c1.284-.037,2.528-.109,3.718-.21q.477-.041.942-.088c.158-.016.317-.032.473-.049q1.318-.145,2.522-.34a34.824,34.824,0,0,0,3.718-.792q.492-.136.942-.283c.161-.052.32-.106.473-.16a9.622,9.622,0,0,0,2.522-1.251,2.052,2.052,0,0,0,1-1.542l0,4.122h0a2.069,2.069,0,0,1-.992,1.515,9.584,9.584,0,0,1-2.522,1.253q-.23.081-.473.16c-.3.1-.614.192-.942.283a34.772,34.772,0,0,1-3.718.792q-1.2.194-2.522.341c-.156.017-.315.033-.473.049q-.465.047-.942.088c-1.19.1-2.433.173-3.718.211q-1.037.03-2.1.031l-.418,0c-.158,0-.316,0-.473,0q-.474-.006-.942-.018c-1.283-.034-2.526-.1-3.718-.2-.87-.072-1.713-.16-2.522-.262l-.473-.062c-.319-.044-.634-.089-.942-.137a36.161,36.161,0,0,1-3.718-.767,19.168,19.168,0,0,1-2.522-.842c-.165-.07-.322-.141-.473-.214a7.851,7.851,0,0,1-.942-.528,2.3,2.3,0,0,1-1.259-1.706h0Z" transform="translate(-1311.328 -1162.591)" fill="#febf00"/>
          <path id="Path_3077" data-name="Path 3077" d="M1311.33,1167.857c0,.61.449,1.193,1.259,1.73a7.788,7.788,0,0,0,.942.529q.226.109.473.213a19.186,19.186,0,0,0,2.522.842,36.279,36.279,0,0,0,3.718.767c.308.048.623.093.942.137l.473.063c.809.1,1.651.191,2.522.262,1.192.1,2.435.166,3.718.2q.467.012.942.018c.157,0,.315,0,.473,0l.42,0q1.067,0,2.1-.031c1.284-.037,2.528-.109,3.718-.21q.477-.041.942-.088c.158-.016.317-.032.473-.049q1.318-.145,2.522-.34a34.824,34.824,0,0,0,3.718-.792q.492-.136.942-.283c.161-.052.32-.106.473-.16a9.622,9.622,0,0,0,2.522-1.251,2.052,2.052,0,0,0,1-1.542l0,4.122h0a2.069,2.069,0,0,1-.992,1.515,9.584,9.584,0,0,1-2.522,1.253q-.23.081-.473.16c-.3.1-.614.192-.942.283a34.772,34.772,0,0,1-3.718.792q-1.2.194-2.522.341c-.156.017-.315.033-.473.049q-.465.047-.942.088c-1.19.1-2.433.173-3.718.211q-1.037.03-2.1.031l-.418,0c-.158,0-.316,0-.473,0q-.474-.006-.942-.018c-1.283-.034-2.526-.1-3.718-.2-.87-.072-1.713-.16-2.522-.262l-.473-.062c-.319-.044-.634-.089-.942-.137a36.161,36.161,0,0,1-3.718-.767,19.168,19.168,0,0,1-2.522-.842c-.165-.07-.322-.141-.473-.214a7.851,7.851,0,0,1-.942-.528,2.3,2.3,0,0,1-1.259-1.706h0Z" transform="translate(-1311.328 -1162.591)" opacity="0.3" style="mix-blend-mode: multiply;isolation: isolate"/>
          <ellipse id="Ellipse_305" data-name="Ellipse 305" cx="18.405" cy="4.756" rx="18.405" ry="4.756" transform="translate(0.001)" fill="#febf00"/>
          <path id="Path_3078" data-name="Path 3078" d="M1342.691,1139.347c-8.577,0-15.606,1.4-16.279,3.2a.81.81,0,0,1-.058-.282c0-1.927,7.315-3.484,16.337-3.48s16.334,1.57,16.333,3.5a.8.8,0,0,1-.058.282C1358.293,1140.766,1351.267,1139.351,1342.691,1139.347Z" transform="translate(-1324.283 -1137.524)" fill="#febf00"/>
          <path id="Path_3079" data-name="Path 3079" d="M1342.691,1139.347c-8.577,0-15.606,1.4-16.279,3.2a.81.81,0,0,1-.058-.282c0-1.927,7.315-3.484,16.337-3.48s16.334,1.57,16.333,3.5a.8.8,0,0,1-.058.282C1358.293,1140.766,1351.267,1139.351,1342.691,1139.347Z" transform="translate(-1324.283 -1137.524)" opacity="0.1" style="mix-blend-mode: multiply;isolation: isolate"/>
          <path id="Path_3080" data-name="Path 3080" d="M1343.048,1149.287c-8.576,0-15.6-1.419-16.276-3.214.673-1.794,7.7-3.2,16.279-3.2s15.6,1.419,16.276,3.214C1358.654,1147.883,1351.626,1149.291,1343.048,1149.287Z" transform="translate(-1324.644 -1141.052)" fill="#fcd721"/>
          <g id="Group_1553" data-name="Group 1553" transform="translate(0 4.756)">
            <g id="Group_1551" data-name="Group 1551">
              <path id="Path_3081" data-name="Path 3081" d="M1572.178,1164.292l0,4.122h0a2.07,2.07,0,0,1-.992,1.515v-4.094A2.052,2.052,0,0,0,1572.178,1164.292Z" transform="translate(-1535.366 -1164.273)" fill="#febf00"/>
              <path id="Path_3082" data-name="Path 3082" d="M1438.858,1202.786l-.473,0v-4.1l.473,0Z" transform="translate(-1420.873 -1193.926)" fill="#febf00"/>
              <path id="Path_3083" data-name="Path 3083" d="M1494.392,1200.083l-.473.049v-4.1c.158-.016.317-.032.473-.049Z" transform="translate(-1468.753 -1191.599)" fill="#febf00"/>
              <path id="Path_3084" data-name="Path 3084" d="M1549.927,1188.654q-.23.081-.473.16v-4.1c.162-.052.32-.106.473-.16Z" transform="translate(-1516.633 -1181.746)" fill="#febf00"/>
              <path id="Path_3085" data-name="Path 3085" d="M1311.33,1164.157c0,.61.449,1.193,1.259,1.73v4.1a2.3,2.3,0,0,1-1.259-1.706h0Z" transform="translate(-1311.328 -1164.157)" fill="#febf00"/>
              <path id="Path_3086" data-name="Path 3086" d="M1327.788,1184.854c-.165-.07-.322-.141-.473-.214v-4.1q.226.109.473.213Z" transform="translate(-1325.111 -1178.285)" fill="#febf00"/>
              <path id="Path_3087" data-name="Path 3087" d="M1353.7,1189.1l.473.063q1.214.154,2.522.262c1.192.1,2.435.166,3.718.2v4.1c-1.283-.034-2.526-.1-3.718-.2q-1.306-.107-2.522-.262l-.473-.062c-.319-.044-.634-.089-.942-.137a36.3,36.3,0,0,1-3.718-.767v-4.1a36.184,36.184,0,0,0,3.718.767C1353.068,1189.012,1353.383,1189.057,1353.7,1189.1Z" transform="translate(-1343.844 -1184.884)" fill="#febf00"/>
            </g>
            <g id="Group_1552" data-name="Group 1552" transform="translate(1.262 1.561)">
              <path id="Path_3088" data-name="Path 3088" d="M1503.59,1186q.492-.136.942-.283v4.1c-.3.1-.613.192-.942.283a34.8,34.8,0,0,1-3.718.792q-1.2.194-2.522.341v-4.1q1.318-.145,2.522-.34A34.826,34.826,0,0,0,1503.59,1186Z" transform="translate(-1472.972 -1184.308)" fill="#ffdf00"/>
              <path id="Path_3089" data-name="Path 3089" d="M1555.407,1179.577a9.6,9.6,0,0,1-2.522,1.252v-4.1a9.617,9.617,0,0,0,2.522-1.251Z" transform="translate(-1520.853 -1175.483)" fill="#ffdf00"/>
              <path id="Path_3090" data-name="Path 3090" d="M1444.337,1196.64c1.284-.037,2.527-.109,3.718-.21q.477-.041.942-.088v4.1q-.465.047-.942.088c-1.19.1-2.434.173-3.718.211q-1.037.03-2.1.031c-.14,0-.278,0-.418,0v-4.1l.42,0Q1443.3,1196.671,1444.337,1196.64Z" transform="translate(-1425.092 -1193.466)" fill="#ffdf00"/>
              <path id="Path_3091" data-name="Path 3091" d="M1432.493,1202.668q-.474-.006-.942-.018v-4.1q.468.012.942.018Z" transform="translate(-1416.242 -1195.372)" fill="#ffdf00"/>
              <path id="Path_3092" data-name="Path 3092" d="M1333.268,1187.03a19.172,19.172,0,0,1-2.522-.841v-4.1a19.189,19.189,0,0,0,2.522.842Z" transform="translate(-1329.331 -1181.18)" fill="#ffdf00"/>
              <path id="Path_3093" data-name="Path 3093" d="M1321.423,1177.237v4.1a7.872,7.872,0,0,1-.942-.528v-4.1A7.8,7.8,0,0,0,1321.423,1177.237Z" transform="translate(-1320.481 -1176.539)" fill="#ffdf00"/>
            </g>
          </g>
        </g>
        <g id="Group_1558" data-name="Group 1558" transform="translate(0 14.394)">
          <path id="Path_3094" data-name="Path 3094" d="M1279.8,1115.64c0,.61.449,1.193,1.26,1.73a7.8,7.8,0,0,0,.942.529q.227.108.473.213a19.186,19.186,0,0,0,2.522.842,36.24,36.24,0,0,0,3.718.767c.307.048.623.093.942.137.157.021.314.043.473.063q1.214.154,2.522.262c1.191.1,2.435.165,3.718.2q.468.012.942.018l.473,0,.42,0q1.067,0,2.1-.031c1.284-.037,2.528-.109,3.718-.21q.477-.041.942-.088c.158-.016.317-.032.473-.049q1.318-.145,2.522-.34a34.906,34.906,0,0,0,3.718-.792q.492-.137.942-.283c.162-.052.32-.105.473-.16a9.618,9.618,0,0,0,2.522-1.251,2.052,2.052,0,0,0,1-1.542l0,4.122h0a2.071,2.071,0,0,1-.992,1.515,9.6,9.6,0,0,1-2.522,1.252q-.23.082-.473.161-.45.146-.942.283a34.831,34.831,0,0,1-3.718.792q-1.2.194-2.522.341l-.473.049q-.465.047-.942.088c-1.19.1-2.433.173-3.718.211q-1.036.03-2.1.031l-.418,0-.473,0q-.474-.006-.942-.018c-1.283-.033-2.526-.1-3.718-.2q-1.306-.107-2.522-.262l-.473-.063c-.319-.043-.634-.089-.942-.137a36.188,36.188,0,0,1-3.718-.767,19.217,19.217,0,0,1-2.522-.841c-.165-.07-.322-.142-.473-.214a7.883,7.883,0,0,1-.942-.528,2.3,2.3,0,0,1-1.259-1.706h0Z" transform="translate(-1279.798 -1110.374)" fill="#febf00"/>
          <path id="Path_3095" data-name="Path 3095" d="M1279.8,1115.64c0,.61.449,1.193,1.26,1.73a7.8,7.8,0,0,0,.942.529q.227.108.473.213a19.186,19.186,0,0,0,2.522.842,36.24,36.24,0,0,0,3.718.767c.307.048.623.093.942.137.157.021.314.043.473.063q1.214.154,2.522.262c1.191.1,2.435.165,3.718.2q.468.012.942.018l.473,0,.42,0q1.067,0,2.1-.031c1.284-.037,2.528-.109,3.718-.21q.477-.041.942-.088c.158-.016.317-.032.473-.049q1.318-.145,2.522-.34a34.906,34.906,0,0,0,3.718-.792q.492-.137.942-.283c.162-.052.32-.105.473-.16a9.618,9.618,0,0,0,2.522-1.251,2.052,2.052,0,0,0,1-1.542l0,4.122h0a2.071,2.071,0,0,1-.992,1.515,9.6,9.6,0,0,1-2.522,1.252q-.23.082-.473.161-.45.146-.942.283a34.831,34.831,0,0,1-3.718.792q-1.2.194-2.522.341l-.473.049q-.465.047-.942.088c-1.19.1-2.433.173-3.718.211q-1.036.03-2.1.031l-.418,0-.473,0q-.474-.006-.942-.018c-1.283-.033-2.526-.1-3.718-.2q-1.306-.107-2.522-.262l-.473-.063c-.319-.043-.634-.089-.942-.137a36.188,36.188,0,0,1-3.718-.767,19.217,19.217,0,0,1-2.522-.841c-.165-.07-.322-.142-.473-.214a7.883,7.883,0,0,1-.942-.528,2.3,2.3,0,0,1-1.259-1.706h0Z" transform="translate(-1279.798 -1110.374)" opacity="0.3" style="mix-blend-mode: multiply;isolation: isolate"/>
          <ellipse id="Ellipse_306" data-name="Ellipse 306" cx="18.405" cy="4.756" rx="18.405" ry="4.756" transform="translate(0.001)" fill="#febf00"/>
          <path id="Path_3096" data-name="Path 3096" d="M1311.161,1087.129c-8.577,0-15.606,1.4-16.279,3.2a.806.806,0,0,1-.058-.282c0-1.926,7.315-3.484,16.337-3.48s16.334,1.57,16.333,3.5a.8.8,0,0,1-.058.281C1326.763,1088.548,1319.737,1087.133,1311.161,1087.129Z" transform="translate(-1292.753 -1085.306)" fill="#febf00"/>
          <path id="Path_3097" data-name="Path 3097" d="M1311.161,1087.129c-8.577,0-15.606,1.4-16.279,3.2a.806.806,0,0,1-.058-.282c0-1.926,7.315-3.484,16.337-3.48s16.334,1.57,16.333,3.5a.8.8,0,0,1-.058.281C1326.763,1088.548,1319.737,1087.133,1311.161,1087.129Z" transform="translate(-1292.753 -1085.306)" opacity="0.1" style="mix-blend-mode: multiply;isolation: isolate"/>
          <path id="Path_3098" data-name="Path 3098" d="M1311.519,1097.069c-8.576,0-15.6-1.419-16.275-3.214.673-1.794,7.7-3.2,16.279-3.2s15.6,1.419,16.275,3.214C1327.125,1095.665,1320.1,1097.073,1311.519,1097.069Z" transform="translate(-1293.114 -1088.834)" fill="#fcd721"/>
          <g id="Group_1557" data-name="Group 1557" transform="translate(0 4.756)">
            <g id="Group_1555" data-name="Group 1555">
              <path id="Path_3099" data-name="Path 3099" d="M1540.648,1112.075l0,4.122h0a2.07,2.07,0,0,1-.992,1.515v-4.094A2.052,2.052,0,0,0,1540.648,1112.075Z" transform="translate(-1503.836 -1112.056)" fill="#febf00"/>
              <path id="Path_3100" data-name="Path 3100" d="M1407.327,1150.569l-.473,0v-4.1l.473,0Z" transform="translate(-1389.342 -1141.709)" fill="#febf00"/>
              <path id="Path_3101" data-name="Path 3101" d="M1462.862,1147.866l-.473.049v-4.1c.158-.016.317-.032.473-.049Z" transform="translate(-1437.223 -1139.382)" fill="#febf00"/>
              <path id="Path_3102" data-name="Path 3102" d="M1518.4,1136.437q-.23.082-.473.16v-4.1q.243-.079.473-.16Z" transform="translate(-1485.103 -1129.529)" fill="#febf00"/>
              <path id="Path_3103" data-name="Path 3103" d="M1279.8,1111.94c0,.61.449,1.193,1.26,1.73v4.1a2.3,2.3,0,0,1-1.259-1.706h0Z" transform="translate(-1279.798 -1111.94)" fill="#febf00"/>
              <path id="Path_3104" data-name="Path 3104" d="M1296.257,1132.637c-.165-.07-.322-.142-.473-.214v-4.1q.227.108.473.213Z" transform="translate(-1293.581 -1126.068)" fill="#febf00"/>
              <path id="Path_3105" data-name="Path 3105" d="M1322.172,1136.883c.157.021.314.043.473.063q1.214.154,2.522.262c1.192.1,2.435.166,3.718.2v4.1c-1.283-.033-2.526-.1-3.718-.2q-1.306-.107-2.522-.262l-.473-.063c-.319-.043-.634-.089-.942-.136a36.266,36.266,0,0,1-3.718-.767v-4.1a36.2,36.2,0,0,0,3.718.767C1321.537,1136.794,1321.853,1136.839,1322.172,1136.883Z" transform="translate(-1312.314 -1132.666)" fill="#febf00"/>
            </g>
            <g id="Group_1556" data-name="Group 1556" transform="translate(1.262 1.561)">
              <path id="Path_3106" data-name="Path 3106" d="M1472.06,1133.784q.492-.136.942-.283v4.1c-.3.1-.613.192-.942.283a34.768,34.768,0,0,1-3.718.792q-1.2.194-2.522.341v-4.1q1.318-.145,2.522-.34A34.838,34.838,0,0,0,1472.06,1133.784Z" transform="translate(-1441.442 -1132.09)" fill="#ffdf00"/>
              <path id="Path_3107" data-name="Path 3107" d="M1523.877,1127.36a9.591,9.591,0,0,1-2.522,1.252v-4.1a9.616,9.616,0,0,0,2.522-1.251Z" transform="translate(-1489.323 -1123.266)" fill="#ffdf00"/>
              <path id="Path_3108" data-name="Path 3108" d="M1412.807,1144.423c1.285-.037,2.528-.109,3.718-.21q.477-.041.942-.088v4.1q-.465.047-.942.088c-1.19.1-2.433.173-3.718.21q-1.036.03-2.1.031l-.418,0v-4.1l.42,0Q1411.771,1144.454,1412.807,1144.423Z" transform="translate(-1393.562 -1141.249)" fill="#ffdf00"/>
              <path id="Path_3109" data-name="Path 3109" d="M1400.963,1150.451q-.474-.006-.942-.018v-4.1q.467.012.942.018Z" transform="translate(-1384.713 -1143.155)" fill="#ffdf00"/>
              <path id="Path_3110" data-name="Path 3110" d="M1301.737,1134.813a19.174,19.174,0,0,1-2.522-.841v-4.1a19.181,19.181,0,0,0,2.522.841Z" transform="translate(-1297.8 -1128.963)" fill="#ffdf00"/>
              <path id="Path_3111" data-name="Path 3111" d="M1289.893,1125.02v4.1a7.851,7.851,0,0,1-.942-.528v-4.1A7.84,7.84,0,0,0,1289.893,1125.02Z" transform="translate(-1288.951 -1124.322)" fill="#ffdf00"/>
            </g>
          </g>
        </g>
        <g id="Group_1562" data-name="Group 1562" transform="translate(4.346 7.197)">
          <path id="Path_3112" data-name="Path 3112" d="M1311.33,1063.423c0,.61.449,1.193,1.259,1.73a7.788,7.788,0,0,0,.942.528q.226.108.473.214a19.2,19.2,0,0,0,2.522.841,36.213,36.213,0,0,0,3.718.767c.308.048.623.093.942.137l.473.063c.809.1,1.651.191,2.522.262,1.192.1,2.435.165,3.718.2q.467.012.942.018l.473,0,.42,0q1.067,0,2.1-.031c1.284-.037,2.528-.109,3.718-.21q.477-.041.942-.088c.158-.016.317-.032.473-.049q1.318-.145,2.522-.34a34.854,34.854,0,0,0,3.718-.792q.492-.136.942-.283c.161-.052.32-.106.473-.16a9.619,9.619,0,0,0,2.522-1.25,2.052,2.052,0,0,0,1-1.542l0,4.122h0a2.069,2.069,0,0,1-.992,1.515,9.592,9.592,0,0,1-2.522,1.252q-.23.081-.473.161c-.3.1-.614.192-.942.283a34.83,34.83,0,0,1-3.718.792q-1.2.194-2.522.341l-.473.049q-.465.048-.942.088c-1.19.1-2.433.173-3.718.21q-1.037.03-2.1.031c-.14,0-.278,0-.418,0-.158,0-.316,0-.473,0q-.474-.006-.942-.018c-1.283-.033-2.526-.1-3.718-.2-.87-.072-1.713-.159-2.522-.262l-.473-.062c-.319-.044-.634-.089-.942-.137a36.194,36.194,0,0,1-3.718-.767,19.187,19.187,0,0,1-2.522-.841c-.165-.07-.322-.141-.473-.214a7.868,7.868,0,0,1-.942-.528,2.3,2.3,0,0,1-1.259-1.706h0Z" transform="translate(-1311.328 -1058.157)" fill="#febf00"/>
          <path id="Path_3113" data-name="Path 3113" d="M1311.33,1063.423c0,.61.449,1.193,1.259,1.73a7.788,7.788,0,0,0,.942.528q.226.108.473.214a19.2,19.2,0,0,0,2.522.841,36.213,36.213,0,0,0,3.718.767c.308.048.623.093.942.137l.473.063c.809.1,1.651.191,2.522.262,1.192.1,2.435.165,3.718.2q.467.012.942.018l.473,0,.42,0q1.067,0,2.1-.031c1.284-.037,2.528-.109,3.718-.21q.477-.041.942-.088c.158-.016.317-.032.473-.049q1.318-.145,2.522-.34a34.854,34.854,0,0,0,3.718-.792q.492-.136.942-.283c.161-.052.32-.106.473-.16a9.619,9.619,0,0,0,2.522-1.25,2.052,2.052,0,0,0,1-1.542l0,4.122h0a2.069,2.069,0,0,1-.992,1.515,9.592,9.592,0,0,1-2.522,1.252q-.23.081-.473.161c-.3.1-.614.192-.942.283a34.83,34.83,0,0,1-3.718.792q-1.2.194-2.522.341l-.473.049q-.465.048-.942.088c-1.19.1-2.433.173-3.718.21q-1.037.03-2.1.031c-.14,0-.278,0-.418,0-.158,0-.316,0-.473,0q-.474-.006-.942-.018c-1.283-.033-2.526-.1-3.718-.2-.87-.072-1.713-.159-2.522-.262l-.473-.062c-.319-.044-.634-.089-.942-.137a36.194,36.194,0,0,1-3.718-.767,19.187,19.187,0,0,1-2.522-.841c-.165-.07-.322-.141-.473-.214a7.868,7.868,0,0,1-.942-.528,2.3,2.3,0,0,1-1.259-1.706h0Z" transform="translate(-1311.328 -1058.157)" opacity="0.3" style="mix-blend-mode: multiply;isolation: isolate"/>
          <ellipse id="Ellipse_307" data-name="Ellipse 307" cx="18.405" cy="4.756" rx="18.405" ry="4.756" transform="translate(0.001)" fill="#febf00"/>
          <path id="Path_3114" data-name="Path 3114" d="M1342.691,1034.912c-8.577,0-15.606,1.4-16.279,3.2a.81.81,0,0,1-.058-.282c0-1.926,7.315-3.484,16.337-3.48s16.334,1.57,16.333,3.5a.8.8,0,0,1-.058.281C1358.293,1036.331,1351.267,1034.916,1342.691,1034.912Z" transform="translate(-1324.283 -1033.089)" fill="#febf00"/>
          <path id="Path_3115" data-name="Path 3115" d="M1342.691,1034.912c-8.577,0-15.606,1.4-16.279,3.2a.81.81,0,0,1-.058-.282c0-1.926,7.315-3.484,16.337-3.48s16.334,1.57,16.333,3.5a.8.8,0,0,1-.058.281C1358.293,1036.331,1351.267,1034.916,1342.691,1034.912Z" transform="translate(-1324.283 -1033.089)" opacity="0.1" style="mix-blend-mode: multiply;isolation: isolate"/>
          <path id="Path_3116" data-name="Path 3116" d="M1343.048,1044.852c-8.576,0-15.6-1.419-16.276-3.214.673-1.794,7.7-3.2,16.279-3.2s15.6,1.419,16.276,3.214C1358.654,1043.448,1351.626,1044.856,1343.048,1044.852Z" transform="translate(-1324.644 -1036.617)" fill="#fcd721"/>
          <g id="Group_1561" data-name="Group 1561" transform="translate(0 4.756)">
            <g id="Group_1559" data-name="Group 1559">
              <path id="Path_3117" data-name="Path 3117" d="M1572.178,1059.858l0,4.122h0a2.07,2.07,0,0,1-.992,1.515V1061.4A2.052,2.052,0,0,0,1572.178,1059.858Z" transform="translate(-1535.366 -1059.839)" fill="#febf00"/>
              <path id="Path_3118" data-name="Path 3118" d="M1438.858,1098.352l-.473,0v-4.1l.473,0Z" transform="translate(-1420.873 -1089.492)" fill="#febf00"/>
              <path id="Path_3119" data-name="Path 3119" d="M1494.392,1095.649l-.473.049v-4.1c.158-.016.317-.032.473-.049Z" transform="translate(-1468.753 -1087.165)" fill="#febf00"/>
              <path id="Path_3120" data-name="Path 3120" d="M1549.927,1084.219q-.23.081-.473.16v-4.1c.162-.052.32-.106.473-.16Z" transform="translate(-1516.633 -1077.311)" fill="#febf00"/>
              <path id="Path_3121" data-name="Path 3121" d="M1311.33,1059.723c0,.61.449,1.193,1.259,1.73v4.1a2.3,2.3,0,0,1-1.259-1.706h0Z" transform="translate(-1311.328 -1059.723)" fill="#febf00"/>
              <path id="Path_3122" data-name="Path 3122" d="M1327.788,1080.42c-.165-.07-.322-.141-.473-.214v-4.1q.226.108.473.213Z" transform="translate(-1325.111 -1073.851)" fill="#febf00"/>
              <path id="Path_3123" data-name="Path 3123" d="M1353.7,1084.665l.473.063q1.214.154,2.522.262c1.192.1,2.435.165,3.718.2v4.1c-1.283-.033-2.526-.1-3.718-.2q-1.306-.107-2.522-.262l-.473-.062c-.319-.044-.634-.089-.942-.137a36.2,36.2,0,0,1-3.718-.767v-4.1a36.215,36.215,0,0,0,3.718.767C1353.068,1084.577,1353.383,1084.622,1353.7,1084.665Z" transform="translate(-1343.844 -1080.449)" fill="#febf00"/>
            </g>
            <g id="Group_1560" data-name="Group 1560" transform="translate(1.262 1.561)">
              <path id="Path_3124" data-name="Path 3124" d="M1503.59,1081.567q.492-.136.942-.283v4.1c-.3.1-.613.192-.942.283a34.826,34.826,0,0,1-3.718.792q-1.2.194-2.522.34v-4.1q1.318-.145,2.522-.34A34.8,34.8,0,0,0,1503.59,1081.567Z" transform="translate(-1472.972 -1079.873)" fill="#ffdf00"/>
              <path id="Path_3125" data-name="Path 3125" d="M1555.407,1075.143a9.592,9.592,0,0,1-2.522,1.252v-4.1a9.609,9.609,0,0,0,2.522-1.251Z" transform="translate(-1520.853 -1071.049)" fill="#ffdf00"/>
              <path id="Path_3126" data-name="Path 3126" d="M1444.337,1092.206c1.284-.037,2.527-.109,3.718-.211q.477-.041.942-.088v4.1q-.465.047-.942.088c-1.19.1-2.434.173-3.718.21q-1.037.03-2.1.031l-.418,0v-4.1l.42,0Q1443.3,1092.237,1444.337,1092.206Z" transform="translate(-1425.092 -1089.032)" fill="#ffdf00"/>
              <path id="Path_3127" data-name="Path 3127" d="M1432.493,1098.234q-.474-.006-.942-.018v-4.1q.468.012.942.018Z" transform="translate(-1416.242 -1090.938)" fill="#ffdf00"/>
              <path id="Path_3128" data-name="Path 3128" d="M1333.268,1082.6a19.153,19.153,0,0,1-2.522-.842v-4.1a19.172,19.172,0,0,0,2.522.841Z" transform="translate(-1329.331 -1076.746)" fill="#ffdf00"/>
              <path id="Path_3129" data-name="Path 3129" d="M1321.423,1072.8v4.1a7.889,7.889,0,0,1-.942-.528v-4.1A7.8,7.8,0,0,0,1321.423,1072.8Z" transform="translate(-1320.481 -1072.105)" fill="#ffdf00"/>
            </g>
          </g>
        </g>
        <g id="Group_1571" data-name="Group 1571" transform="translate(4.346)">
          <g id="Group_1566" data-name="Group 1566">
            <path id="Path_3130" data-name="Path 3130" d="M1311.33,1011.205c0,.61.449,1.193,1.259,1.73a7.822,7.822,0,0,0,.942.529q.226.108.473.213a19.187,19.187,0,0,0,2.522.841,36.213,36.213,0,0,0,3.718.767c.308.048.623.093.942.137.157.021.313.043.473.063.809.1,1.651.191,2.522.262,1.192.1,2.435.166,3.718.2q.467.012.942.018l.473,0,.42,0q1.067,0,2.1-.031c1.284-.037,2.528-.109,3.718-.21q.477-.041.942-.088l.473-.049q1.318-.145,2.522-.34a34.824,34.824,0,0,0,3.718-.792q.492-.137.942-.283c.161-.053.32-.106.473-.16a9.613,9.613,0,0,0,2.522-1.251,2.052,2.052,0,0,0,1-1.542l0,4.122h0a2.069,2.069,0,0,1-.992,1.515,9.594,9.594,0,0,1-2.522,1.252q-.23.081-.473.16c-.3.1-.614.192-.942.283a34.8,34.8,0,0,1-3.718.792q-1.2.194-2.522.341l-.473.049q-.465.047-.942.088c-1.19.1-2.433.174-3.718.211q-1.037.03-2.1.031c-.14,0-.278,0-.418,0l-.473,0q-.474-.006-.942-.018c-1.283-.033-2.526-.1-3.718-.2-.87-.071-1.713-.16-2.522-.262l-.473-.063c-.319-.044-.634-.089-.942-.137a36.194,36.194,0,0,1-3.718-.767,19.186,19.186,0,0,1-2.522-.842c-.165-.07-.322-.141-.473-.214a7.885,7.885,0,0,1-.942-.528,2.3,2.3,0,0,1-1.259-1.706h0Z" transform="translate(-1311.328 -1005.939)" fill="#febf00"/>
            <path id="Path_3131" data-name="Path 3131" d="M1311.33,1011.205c0,.61.449,1.193,1.259,1.73a7.822,7.822,0,0,0,.942.529q.226.108.473.213a19.187,19.187,0,0,0,2.522.841,36.213,36.213,0,0,0,3.718.767c.308.048.623.093.942.137.157.021.313.043.473.063.809.1,1.651.191,2.522.262,1.192.1,2.435.166,3.718.2q.467.012.942.018l.473,0,.42,0q1.067,0,2.1-.031c1.284-.037,2.528-.109,3.718-.21q.477-.041.942-.088l.473-.049q1.318-.145,2.522-.34a34.824,34.824,0,0,0,3.718-.792q.492-.137.942-.283c.161-.053.32-.106.473-.16a9.613,9.613,0,0,0,2.522-1.251,2.052,2.052,0,0,0,1-1.542l0,4.122h0a2.069,2.069,0,0,1-.992,1.515,9.594,9.594,0,0,1-2.522,1.252q-.23.081-.473.16c-.3.1-.614.192-.942.283a34.8,34.8,0,0,1-3.718.792q-1.2.194-2.522.341l-.473.049q-.465.047-.942.088c-1.19.1-2.433.174-3.718.211q-1.037.03-2.1.031c-.14,0-.278,0-.418,0l-.473,0q-.474-.006-.942-.018c-1.283-.033-2.526-.1-3.718-.2-.87-.071-1.713-.16-2.522-.262l-.473-.063c-.319-.044-.634-.089-.942-.137a36.194,36.194,0,0,1-3.718-.767,19.186,19.186,0,0,1-2.522-.842c-.165-.07-.322-.141-.473-.214a7.885,7.885,0,0,1-.942-.528,2.3,2.3,0,0,1-1.259-1.706h0Z" transform="translate(-1311.328 -1005.939)" opacity="0.3" style="mix-blend-mode: multiply;isolation: isolate"/>
            <ellipse id="Ellipse_308" data-name="Ellipse 308" cx="18.405" cy="4.756" rx="18.405" ry="4.756" transform="translate(0.001)" fill="#febf00"/>
            <path id="Path_3132" data-name="Path 3132" d="M1342.691,982.695c-8.577,0-15.606,1.4-16.279,3.2a.809.809,0,0,1-.058-.282c0-1.926,7.315-3.484,16.337-3.48s16.334,1.57,16.333,3.5a.8.8,0,0,1-.058.282C1358.293,984.114,1351.267,982.7,1342.691,982.695Z" transform="translate(-1324.283 -980.872)" fill="#febf00"/>
            <path id="Path_3133" data-name="Path 3133" d="M1342.691,982.695c-8.577,0-15.606,1.4-16.279,3.2a.809.809,0,0,1-.058-.282c0-1.926,7.315-3.484,16.337-3.48s16.334,1.57,16.333,3.5a.8.8,0,0,1-.058.282C1358.293,984.114,1351.267,982.7,1342.691,982.695Z" transform="translate(-1324.283 -980.872)" opacity="0.1" style="mix-blend-mode: multiply;isolation: isolate"/>
            <path id="Path_3134" data-name="Path 3134" d="M1343.048,992.635c-8.576,0-15.6-1.419-16.276-3.214.673-1.794,7.7-3.2,16.279-3.2s15.6,1.419,16.276,3.214C1358.654,991.231,1351.626,992.639,1343.048,992.635Z" transform="translate(-1324.644 -984.4)" fill="#fcd721"/>
            <g id="Group_1565" data-name="Group 1565" transform="translate(0 4.756)">
              <g id="Group_1563" data-name="Group 1563">
                <path id="Path_3135" data-name="Path 3135" d="M1572.178,1007.641l0,4.122h0a2.07,2.07,0,0,1-.992,1.515v-4.094A2.052,2.052,0,0,0,1572.178,1007.641Z" transform="translate(-1535.366 -1007.622)" fill="#febf00"/>
                <path id="Path_3136" data-name="Path 3136" d="M1438.858,1046.135l-.473,0v-4.1l.473,0Z" transform="translate(-1420.873 -1037.275)" fill="#febf00"/>
                <path id="Path_3137" data-name="Path 3137" d="M1494.392,1043.432l-.473.049v-4.1c.158-.016.317-.032.473-.049Z" transform="translate(-1468.753 -1034.948)" fill="#febf00"/>
                <path id="Path_3138" data-name="Path 3138" d="M1549.927,1032q-.23.081-.473.16v-4.1c.162-.052.32-.106.473-.16Z" transform="translate(-1516.633 -1025.094)" fill="#febf00"/>
                <path id="Path_3139" data-name="Path 3139" d="M1311.33,1007.505c0,.61.449,1.193,1.259,1.73v4.1a2.3,2.3,0,0,1-1.259-1.706h0Z" transform="translate(-1311.328 -1007.505)" fill="#febf00"/>
                <path id="Path_3140" data-name="Path 3140" d="M1327.788,1028.2c-.165-.07-.322-.141-.473-.214v-4.1q.226.108.473.213Z" transform="translate(-1325.111 -1021.633)" fill="#febf00"/>
                <path id="Path_3141" data-name="Path 3141" d="M1353.7,1032.449l.473.063q1.214.154,2.522.262c1.192.1,2.435.165,3.718.2v4.1c-1.283-.033-2.526-.1-3.718-.2q-1.306-.107-2.522-.262l-.473-.063c-.319-.044-.634-.089-.942-.137a36.17,36.17,0,0,1-3.718-.767v-4.1a36.28,36.28,0,0,0,3.718.767C1353.068,1032.36,1353.383,1032.405,1353.7,1032.449Z" transform="translate(-1343.844 -1028.232)" fill="#febf00"/>
              </g>
              <g id="Group_1564" data-name="Group 1564" transform="translate(1.262 1.561)">
                <path id="Path_3142" data-name="Path 3142" d="M1503.59,1029.35q.492-.136.942-.283v4.1c-.3.1-.613.192-.942.283a34.8,34.8,0,0,1-3.718.792q-1.2.194-2.522.341v-4.1q1.318-.145,2.522-.34A34.826,34.826,0,0,0,1503.59,1029.35Z" transform="translate(-1472.972 -1027.656)" fill="#ffdf00"/>
                <path id="Path_3143" data-name="Path 3143" d="M1555.407,1022.925a9.592,9.592,0,0,1-2.522,1.252v-4.1a9.613,9.613,0,0,0,2.522-1.251Z" transform="translate(-1520.853 -1018.831)" fill="#ffdf00"/>
                <path id="Path_3144" data-name="Path 3144" d="M1444.337,1039.989c1.284-.037,2.527-.109,3.718-.21q.477-.041.942-.088v4.1q-.465.047-.942.088c-1.19.1-2.434.173-3.718.21q-1.037.03-2.1.031l-.418,0v-4.1l.42,0Q1443.3,1040.02,1444.337,1039.989Z" transform="translate(-1425.092 -1036.815)" fill="#ffdf00"/>
                <path id="Path_3145" data-name="Path 3145" d="M1432.493,1046.017q-.474-.006-.942-.018v-4.1q.468.012.942.018Z" transform="translate(-1416.242 -1038.721)" fill="#ffdf00"/>
                <path id="Path_3146" data-name="Path 3146" d="M1333.268,1030.379a19.155,19.155,0,0,1-2.522-.841v-4.1a19.172,19.172,0,0,0,2.522.841Z" transform="translate(-1329.331 -1024.529)" fill="#ffdf00"/>
                <path id="Path_3147" data-name="Path 3147" d="M1321.423,1020.586v4.1a7.889,7.889,0,0,1-.942-.528v-4.1A7.808,7.808,0,0,0,1321.423,1020.586Z" transform="translate(-1320.481 -1019.888)" fill="#ffdf00"/>
              </g>
            </g>
          </g>
          <g id="Group_1570" data-name="Group 1570" transform="translate(12.975 1.248)">
            <g id="Group_1569" data-name="Group 1569">
              <g id="Group_1568" data-name="Group 1568">
                <g id="Group_1567" data-name="Group 1567">
                  <text id="_2" data-name="$" transform="translate(0 2)" fill="#fea600" font-size="2" font-family="Calibri-Bold, Calibri" font-weight="700"><tspan x="0" y="0">$</tspan></text>
                </g>
              </g>
            </g>
          </g>
        </g>
      </g>
      <path id="Path_3148" data-name="Path 3148" d="M645.463,960.372c.9-.305,1.65-.359,2.177.352,1.458,1.968-4.739,8.967-4.739,8.967s-5.47.73-10.042.93c3.81-.43,6.8-.895,6.8-.895A61.071,61.071,0,0,0,645.463,960.372Z" transform="translate(-555.429 -850.526)" fill="#363868"/>
      <path id="Path_3149" data-name="Path 3149" d="M568.585,960.61c-.156-2.023-4.582-7.873-2.76-10.279s5.364,2.679,8.176.109,4.27.82,7.551,1.914c2.1.7,4.148-.632,5.738-1.172a61.077,61.077,0,0,1-5.8,9.354s-2.991.465-6.8.895C571.442,961.574,568.65,961.45,568.585,960.61Z" transform="translate(-497.256 -841.336)" fill="#43457b"/>
      <path id="Path_3150" data-name="Path 3150" d="M481.965,1097.412c1-8.951,7.825-28.029,13.013-34.2l.059.162h17.173s7.212,21.032,8.507,27.588c1.272,6.44-.4,14.122-5.247,15.792-3.455,1.189-16.473.581-23.674,1.213a12.738,12.738,0,0,1-2.5-.6C486.085,1106.236,481.287,1103.511,481.965,1097.412Z" transform="translate(-425.277 -939.375)" fill="#43457b"/>
      <path id="Path_3151" data-name="Path 3151" d="M582.617,1080.06c-1-5.047-5.5-18.673-7.521-24.678a4.273,4.273,0,0,0-4.051-2.91H556.937l-.059-.162c.069-.082.137-.162.2-.239,1.423-1.612,8.1-1.523,9.374-1.491.071,0,.138,0,.209,0,.381-.01,1.253-.024,2.323,0,2.489.065,6.057.359,7.053,1.488,5.212,5.9,12.209,25.371,13.218,34.44.679,6.1-4.119,8.823-7.334,9.954a12.828,12.828,0,0,1-4.261.723h-22.2a13.008,13.008,0,0,1-1.765-.122c7.2-.632,20.219-.024,23.674-1.213C582.219,1094.182,583.889,1086.5,582.617,1080.06Z" transform="translate(-487.176 -928.474)" fill="#363868"/>
      <path id="Path_3152" data-name="Path 3152" d="M584.627,1027.787h15.52a1.109,1.109,0,0,1,.978,1.2v1.642a1.109,1.109,0,0,1-.978,1.2h-15.52a1.109,1.109,0,0,1-.978-1.2v-1.642A1.109,1.109,0,0,1,584.627,1027.787Z" transform="translate(-513.002 -908.833)" fill="url(#linear-gradient-19)"/>
      <path id="Path_3153" data-name="Path 3153" d="M584.627,1027.787h15.52a1.109,1.109,0,0,1,.978,1.2v1.642a1.109,1.109,0,0,1-.978,1.2h-15.52a1.109,1.109,0,0,1-.978-1.2v-1.642A1.109,1.109,0,0,1,584.627,1027.787Z" transform="translate(-513.002 -908.833)" opacity="0.3" style="mix-blend-mode: multiply;isolation: isolate"/>
      <path id="Path_3154" data-name="Path 3154" d="M584.627,1027.787h15.52a.989.989,0,0,1,.978,1v1.363a.989.989,0,0,1-.978,1h-15.52a.989.989,0,0,1-.978-1v-1.363A.989.989,0,0,1,584.627,1027.787Z" transform="translate(-513.002 -908.833)" fill="url(#linear-gradient-19)"/>
      <g id="Group_1577" data-name="Group 1577" transform="translate(69.912 125.411)">
        <g id="Group_1576" data-name="Group 1576" transform="translate(0 0)">
          <g id="Group_1575" data-name="Group 1575">
            <g id="Group_1574" data-name="Group 1574">
              <text id="_3" data-name="$" transform="translate(1.072 27.557) rotate(-2.275)" fill="#fea600" font-size="28" font-family="Calibri-Bold, Calibri" font-weight="700"><tspan x="0" y="0">$</tspan></text>
            </g>
          </g>
        </g>
      </g>
      <path id="Path_3155" data-name="Path 3155" d="M565.374,367.168l2.882,1.576-2.882,1.576L563.8,373.2l-1.576-2.882-2.882-1.576,2.882-1.576,1.576-2.882Z" transform="translate(-492.043 -336.782)" fill="#7ad0ff"/>
      <path id="Path_3156" data-name="Path 3156" d="M631.941,411.918l1.669.913-1.669.913-.913,1.669-.913-1.669-1.669-.913,1.669-.913.913-1.669Z" transform="translate(-551.626 -376.411)" fill="#7ad0ff"/>
      <path id="Path_3157" data-name="Path 3157" d="M1283.84,271.9l-2.882,1.576,2.882,1.576,1.576,2.882,1.576-2.882,2.882-1.576-2.882-1.576-1.576-2.882Z" transform="translate(-1114.201 -254.648)" fill="#7ad0ff"/>
      <path id="Path_3158" data-name="Path 3158" d="M1240.754,316.654l-1.669.913,1.669.913.913,1.669.913-1.669,1.669-.913-1.669-.913-.913-1.669Z" transform="translate(-1078.1 -294.276)" fill="#7ad0ff"/>
      <path id="Path_3159" data-name="Path 3159" d="M1055.427,1067.552l1.741.952-1.741.952-.952,1.741-.952-1.741-1.74-.952,1.74-.952.952-1.741Z" transform="translate(-916.613 -941.616)" fill="#fff"/>
      <path id="Path_3160" data-name="Path 3160" d="M1043.674,1114.7l1.1.6-1.1.6-.6,1.1-.6-1.1-1.1-.6,1.1-.6.6-1.1Z" transform="translate(-907.644 -982.826)" fill="#fff"/>
      <path id="Path_3161" data-name="Path 3161" d="M1082.17,1100.966l1.669.913-1.669.913-.913,1.669-.913-1.669-1.669-.913,1.669-.913.913-1.669Z" transform="translate(-939.8 -970.487)" fill="#fff"/>
    </g>
  </g>
</svg>
