<svg xmlns="http://www.w3.org/2000/svg" width="40" height="40" viewBox="0 0 40 40">
  <g id="youtube" transform="translate(0.471 0.265)">
    <circle id="Oval_Copy" data-name="Oval Copy" cx="20" cy="20" r="20" transform="translate(-0.471 -0.265)" fill="#fff"/>
    <path id="Path_125" data-name="Path 125" d="M17,1.911A2.182,2.182,0,0,0,15.469.365,51.562,51.562,0,0,0,8.684,0,51.563,51.563,0,0,0,1.9.365,2.182,2.182,0,0,0,.363,1.911,22.9,22.9,0,0,0,0,6.118a22.9,22.9,0,0,0,.363,4.207A2.182,2.182,0,0,0,1.9,11.871a51.583,51.583,0,0,0,6.785.365,51.583,51.583,0,0,0,6.785-.365A2.182,2.182,0,0,0,17,10.325a22.891,22.891,0,0,0,.363-4.207A22.89,22.89,0,0,0,17,1.911" transform="translate(11.052 13.617)" fill="red"/>
    <path id="Path_126" data-name="Path 126" d="M93.333,52.932l4.533-2.579-4.533-2.579Z" transform="translate(-75.371 -30.618)" fill="#fff"/>
  </g>
</svg>
