<svg xmlns="http://www.w3.org/2000/svg" width="142.989" height="91.5" viewBox="0 0 142.989 91.5">
  <g id="gbattle" transform="translate(0 -92.184)" opacity="0.15">
    <g id="Group_6213" data-name="Group 6213" transform="translate(40.297 92.184)">
      <g id="Group_6212" data-name="Group 6212">
        <path id="Path_3291" data-name="Path 3291" d="M200.125,143.73l-12.171-5.41a2.385,2.385,0,0,1-1.415-2.178V132.8a17.738,17.738,0,0,0,6.717-13.9v-4.7a4.341,4.341,0,0,0,2.239-3.793v-.457a17.786,17.786,0,0,0-17.766-17.766h-4.477a17.786,17.786,0,0,0-17.766,17.766v4.143a4.393,4.393,0,0,0,1.671,3.519,4.087,4.087,0,0,0,.567.367v.925a17.737,17.737,0,0,0,6.716,13.9v3.343a2.385,2.385,0,0,1-1.415,2.178l-12.171,5.41a11.059,11.059,0,0,0-6.562,10.1v27.761a2.095,2.095,0,1,0,4.189,0V153.827a6.846,6.846,0,0,1,.042-.721l5.608,5.608a4.592,4.592,0,0,1,1.354,3.268v19.605a2.095,2.095,0,0,0,4.189,0V161.983a8.753,8.753,0,0,0-2.581-6.23l-6.686-6.686a6.842,6.842,0,0,1,2.147-1.509l11.966-5.318,8.874,8.874v30.474a2.095,2.095,0,1,0,4.189,0V151.114l8.874-8.874,11.966,5.318a6.838,6.838,0,0,1,2.147,1.509l-6.686,6.686a8.753,8.753,0,0,0-2.581,6.23v19.605a2.095,2.095,0,1,0,4.189,0V161.983a4.591,4.591,0,0,1,1.354-3.268l5.608-5.608a6.84,6.84,0,0,1,.042.72v27.761a2.095,2.095,0,0,0,4.189,0V153.827A11.061,11.061,0,0,0,200.125,143.73Zm-24.636,3.554L167.7,139.5a6.561,6.561,0,0,0,.926-3.354v-.852a17.751,17.751,0,0,0,13.72,0v.852a6.559,6.559,0,0,0,.927,3.355Zm0-14.8A13.592,13.592,0,0,1,161.913,118.9v-.942a12.383,12.383,0,0,0,3.8-2.469,2.095,2.095,0,0,0-2.841-3.078,7.523,7.523,0,0,1-3.11,1.857.338.338,0,0,1-.056.01.426.426,0,0,1-.035-.189V109.95a13.592,13.592,0,0,1,13.576-13.576h4.477A13.592,13.592,0,0,1,191.3,109.95v.457a.135.135,0,0,1-.094.137c-12.543,2.477-18.834-2.191-20.956-4.314a2.094,2.094,0,0,0-2.962,2.962c6.5,6.5,16,6.622,21.774,5.927V118.9A13.592,13.592,0,0,1,175.49,132.481Z" transform="translate(-144.292 -92.184)" fill="#eeeff3"/>
      </g>
    </g>
    <g id="Group_6215" data-name="Group 6215" transform="translate(0 103.378)">
      <g id="Group_6214" data-name="Group 6214">
        <path id="Path_3292" data-name="Path 3292" d="M37.77,161.225v-4.478A15.524,15.524,0,0,0,30.651,143.7a8.81,8.81,0,1,0-16.817,0,15.523,15.523,0,0,0-7.118,13.042v4.477A15.518,15.518,0,0,0,13.432,174v4.606a2.37,2.37,0,0,1-1.317,2.131L4.87,184.359A8.763,8.763,0,0,0,0,192.24v18.236a2.095,2.095,0,1,0,4.189,0v-17.33L7.6,196.558a4.592,4.592,0,0,1,1.354,3.268v10.65a2.095,2.095,0,1,0,4.189,0v-10.65a8.754,8.754,0,0,0-2.581-6.23l-4.749-4.749c-.023-.023-.047-.043-.071-.064a4.671,4.671,0,0,1,1-.676l7.245-3.622a6.672,6.672,0,0,0,1.039-.648l5.121,5.121v21.52a2.095,2.095,0,0,0,4.189,0v-21.52l5.121-5.121a6.643,6.643,0,0,0,1.039.648l2,1a2.094,2.094,0,1,0,1.874-3.746l-2-1a2.37,2.37,0,0,1-1.317-2.131V174A15.519,15.519,0,0,0,37.77,161.225ZM22.243,136.454a4.627,4.627,0,0,1,4.621,4.621,4.694,4.694,0,0,1-.073.825,15.526,15.526,0,0,0-9.09,0,4.593,4.593,0,0,1,4.542-5.445Zm0,8.955a11.351,11.351,0,0,1,11.338,11.338v.759a13.149,13.149,0,0,1-14.139-4.254,2.094,2.094,0,0,0-3.157-.224,13.7,13.7,0,0,1-5.372,3.429A11.349,11.349,0,0,1,22.243,145.409Zm0,39.717-4.84-4.84a6.632,6.632,0,0,0,.219-1.681v-2.557a15.555,15.555,0,0,0,9.243,0v2.557a6.631,6.631,0,0,0,.219,1.681Zm0-12.565a11.351,11.351,0,0,1-11.338-11.338v-.434a16.794,16.794,0,0,0,6.731-3.353,18.9,18.9,0,0,0,3.884,2.828,16.66,16.66,0,0,0,8,2.066,17.55,17.55,0,0,0,4.038-.483A11.352,11.352,0,0,1,22.243,172.562Z" transform="translate(0 -132.265)" fill="#eeeff3"/>
      </g>
    </g>
    <g id="Group_6217" data-name="Group 6217" transform="translate(100.742 107.855)">
      <g id="Group_6216" data-name="Group 6216" transform="translate(0 0)">
        <path id="Path_3293" data-name="Path 3293" d="M398.1,191.437l-11.722-5.861a2.37,2.37,0,0,1-1.317-2.131v-2.968a13.257,13.257,0,0,0,4.477-9.935v-2.384h.144a2.1,2.1,0,0,0,2.095-2.095v-4.477A13.3,13.3,0,0,0,378.492,148.3h-4.477a13.3,13.3,0,0,0-13.288,13.288v4.477a2.1,2.1,0,0,0,2.095,2.095c.017,0,.068,0,.144,0v2.386a13.257,13.257,0,0,0,4.478,9.936v2.968a2.369,2.369,0,0,1-1.317,2.131A2.095,2.095,0,1,0,368,189.323a6.671,6.671,0,0,0,1.039-.648l5.121,5.121v28.236a2.095,2.095,0,1,0,4.189,0V193.8l5.121-5.121a6.643,6.643,0,0,0,1.039.648l11.343,5.672-3.44,3.44a8.754,8.754,0,0,0-2.581,6.23v17.367a2.095,2.095,0,1,0,4.189,0V204.665a4.591,4.591,0,0,1,1.354-3.268l3.259-3.259a4.668,4.668,0,0,1,.153,1.18v22.714a2.095,2.095,0,1,0,4.189,0V199.317A8.762,8.762,0,0,0,398.1,191.437Zm-33.188-27.9v-1.952h0a9.109,9.109,0,0,1,9.1-9.1h4.477a9.109,9.109,0,0,1,9.1,9.1v2.327c-9.105-.491-14.6-4.034-14.653-4.069a2.094,2.094,0,0,0-2.643.262A13.719,13.719,0,0,1,364.915,163.538Zm11.338,26.428-4.84-4.84a6.632,6.632,0,0,0,.219-1.681V183a13.277,13.277,0,0,0,9.243,0v.446a6.62,6.62,0,0,0,.219,1.681Zm0-10.326a9.109,9.109,0,0,1-9.1-9.1v-3.377h0a17.724,17.724,0,0,0,4.916-3,37.212,37.212,0,0,0,13.283,3.776v2.6A9.109,9.109,0,0,1,376.253,179.64Z" transform="translate(-360.726 -148.298)" fill="#eeeff3"/>
      </g>
    </g>
  </g>
</svg>
