<svg xmlns="http://www.w3.org/2000/svg" xmlns:xlink="http://www.w3.org/1999/xlink" width="172.618" height="153.109" viewBox="0 0 172.618 153.109">
  <defs>
    <clipPath id="clip-path">
      <path id="SVGID" d="M1374.214,1457.5h-64.889a4.4,4.4,0,1,0,0,8.808h64.889a4.4,4.4,0,1,0,0-8.808Z" transform="translate(-1304.922 -1457.5)" fill="none" stroke="rgba(0,0,0,0)" stroke-miterlimit="10" stroke-width="1"/>
    </clipPath>
  </defs>
  <g id="Group_1226" data-name="Group 1226" transform="translate(-523.054 -552.219)">
    <g id="Group_1178" data-name="Group 1178" transform="translate(563.975 596.017)">
      <g id="Group_1123" data-name="Group 1123" transform="translate(75.097 16.267)">
        <g id="Group_1116" data-name="Group 1116">
          <path id="Path_2614" data-name="Path 2614" d="M2425.7,1733.359h4a14.83,14.83,0,0,1,7.36,1.9c3.421,1.953,7.246,5.829,7.246,13.4v9s.391,19.361-19.361,19.361h-5.875l4.628-9.3s7.7,1.719,11.138-5.688a9.694,9.694,0,0,0,.865-4.083v-8.771a9.658,9.658,0,0,0-.978-4.325,6.2,6.2,0,0,0-4.5-3.618H2425.7Z" transform="translate(-2418.09 -1732.389)" fill="#ffca28" stroke="rgba(0,0,0,0)" stroke-miterlimit="10" stroke-width="1"/>
          <path id="Path_2615" data-name="Path 2615" d="M2408.4,1761.456h-5.875a.971.971,0,0,1-.869-1.4l4.628-9.3a.971.971,0,0,1,1.08-.515c.283.062,6.993,1.437,10.046-5.149a8.667,8.667,0,0,0,.775-3.674v-8.771a8.74,8.74,0,0,0-.875-3.892,5.191,5.191,0,0,0-3.714-3.081h-4.437a.971.971,0,0,1-.97-.97v-7.867a.971.971,0,0,1,.97-.97h4a15.822,15.822,0,0,1,7.841,2.029c3.529,2.015,7.735,6.121,7.735,14.24v9c.007.344.112,8.948-5.727,14.906C2419.48,1759.63,2414.567,1761.456,2408.4,1761.456Zm-4.309-1.941h4.309c5.622,0,10.069-1.629,13.218-4.843,5.275-5.382,5.174-13.448,5.173-13.529v-9.015c0-7.188-3.674-10.794-6.757-12.554a13.877,13.877,0,0,0-6.879-1.774h-3.025v5.927h3.55a1,1,0,0,1,.159.013,7.1,7.1,0,0,1,5.207,4.141,10.69,10.69,0,0,1,1.08,4.759v8.771a10.6,10.6,0,0,1-.955,4.49,10.907,10.907,0,0,1-11.462,6.34Z" transform="translate(-2401.558 -1715.859)" fill="#670301" stroke="rgba(0,0,0,0)" stroke-miterlimit="10" stroke-width="1"/>
        </g>
        <g id="Group_1119" data-name="Group 1119" transform="translate(5.716 1.941)">
          <g id="Group_1117" data-name="Group 1117" transform="translate(0 32.791)" opacity="0.6">
            <path id="Path_2616" data-name="Path 2616" d="M2504.641,2344.761l.439-.883a11.871,11.871,0,0,0,7.514-1.651A11.292,11.292,0,0,1,2504.641,2344.761Z" transform="translate(-2504.641 -2342.228)" fill="#fff" stroke="rgba(0,0,0,0)" stroke-miterlimit="10" stroke-width="1"/>
          </g>
          <g id="Group_1118" data-name="Group 1118" transform="translate(2.86)" opacity="0.6">
            <path id="Path_2617" data-name="Path 2617" d="M2566.586,1788.575c5.269-5.365,5.186-13.46,5.184-13.56v-9c0-7.188-3.675-10.794-6.757-12.554a13.876,13.876,0,0,0-6.879-1.774h-1.916v-.832h3.025a13.878,13.878,0,0,1,6.879,1.774c3.083,1.76,6.757,5.367,6.757,12.554v9c0,.1.085,8.2-5.184,13.56a14.713,14.713,0,0,1-2.221,1.849A14.786,14.786,0,0,0,2566.586,1788.575Z" transform="translate(-2556.218 -1750.859)" fill="#fff" stroke="rgba(0,0,0,0)" stroke-miterlimit="10" stroke-width="1"/>
          </g>
        </g>
        <g id="Group_1120" data-name="Group 1120" transform="translate(9.222 8.837)" opacity="0.2">
          <path id="Path_2618" data-name="Path 2618" d="M2574.768,1896.035a10.44,10.44,0,0,0,.794-4.083v-8.771a10.379,10.379,0,0,0-.9-4.325,5.828,5.828,0,0,0-4.131-3.618h3.068a5.829,5.829,0,0,1,4.131,3.618,10.379,10.379,0,0,1,.9,4.325v8.771a10.431,10.431,0,0,1-.795,4.083,8.926,8.926,0,0,1-9.969,5.739A8.833,8.833,0,0,0,2574.768,1896.035Z" transform="translate(-2567.866 -1875.238)" fill="#670301" stroke="rgba(0,0,0,0)" stroke-miterlimit="10" stroke-width="1"/>
        </g>
        <g id="Group_1121" data-name="Group 1121" transform="translate(7.986 0.97)" opacity="0.2">
          <path id="Path_2619" data-name="Path 2619" d="M2545.575,1741.226v-7.867H2550l-.891,7.867Z" transform="translate(-2545.575 -1733.359)" fill="#670301" stroke="rgba(0,0,0,0)" stroke-miterlimit="10" stroke-width="1"/>
        </g>
        <g id="Group_1122" data-name="Group 1122" transform="translate(0.97 22.319)" opacity="0.2">
          <path id="Path_2620" data-name="Path 2620" d="M2444.3,2121.312v-2.946c-.017,1.785-.617,17.158-16.18,19a1.542,1.542,0,0,1-1.576-2.208l1.824-3.7a10.614,10.614,0,0,1-3.478-.094l-3.873,6.185h-.4l-1.551,3.118h5.875C2444.687,2140.673,2444.3,2121.312,2444.3,2121.312Z" transform="translate(-2419.06 -2118.366)" fill="#670301" stroke="rgba(0,0,0,0)" stroke-miterlimit="10" stroke-width="1"/>
        </g>
      </g>
      <g id="Group_1131" data-name="Group 1131" transform="translate(0 16.267)">
        <g id="Group_1124" data-name="Group 1124">
          <path id="Path_2621" data-name="Path 2621" d="M1083.328,1733.359h-4a14.829,14.829,0,0,0-7.36,1.9c-3.421,1.953-7.246,5.829-7.246,13.4v9s-.391,19.361,19.361,19.361h5.875l-4.628-9.3s-7.7,1.719-11.138-5.688a9.7,9.7,0,0,1-.865-4.083v-8.771a9.661,9.661,0,0,1,.978-4.325,6.2,6.2,0,0,1,4.5-3.618h4.521Z" transform="translate(-1063.755 -1732.389)" fill="#ffca28" stroke="rgba(0,0,0,0)" stroke-miterlimit="10" stroke-width="1"/>
          <path id="Path_2622" data-name="Path 2622" d="M1073.43,1761.456h-5.875c-6.163,0-11.077-1.825-14.6-5.425-5.839-5.958-5.734-14.563-5.727-14.926v-8.976c0-8.119,4.206-12.225,7.735-14.24a15.824,15.824,0,0,1,7.841-2.029h4a.97.97,0,0,1,.97.97v7.867a.971.971,0,0,1-.97.97h-4.437a5.191,5.191,0,0,0-3.714,3.081,8.737,8.737,0,0,0-.876,3.892v8.771a8.665,8.665,0,0,0,.776,3.674c3.053,6.586,9.765,5.211,10.049,5.149a.973.973,0,0,1,1.078.515l4.628,9.3a.97.97,0,0,1-.869,1.4ZM1062.8,1717.8a13.879,13.879,0,0,0-6.879,1.774c-3.082,1.76-6.757,5.366-6.757,12.554v9c0,.1-.085,8.2,5.184,13.56,3.148,3.206,7.592,4.831,13.207,4.831h4.308l-3.618-7.273a10.9,10.9,0,0,1-11.462-6.34,10.592,10.592,0,0,1-.956-4.49v-8.771a10.688,10.688,0,0,1,1.08-4.759,7.1,7.1,0,0,1,5.207-4.141,1,1,0,0,1,.159-.013h3.55V1717.8Z" transform="translate(-1047.223 -1715.859)" fill="#670301" stroke="rgba(0,0,0,0)" stroke-miterlimit="10" stroke-width="1"/>
        </g>
        <g id="Group_1127" data-name="Group 1127" transform="translate(1.941 1.941)">
          <g id="Group_1125" data-name="Group 1125" transform="translate(11.568 32.791)" opacity="0.6">
            <path id="Path_2623" data-name="Path 2623" d="M1298.8,2344.761l-.439-.883a11.871,11.871,0,0,1-7.514-1.651A11.291,11.291,0,0,0,1298.8,2344.761Z" transform="translate(-1290.851 -2342.228)" fill="#fff" stroke="rgba(0,0,0,0)" stroke-miterlimit="10" stroke-width="1"/>
          </g>
          <g id="Group_1126" data-name="Group 1126" opacity="0.6">
            <path id="Path_2624" data-name="Path 2624" d="M1088.525,1788.575c-5.269-5.365-5.185-13.46-5.184-13.56v-9c0-7.188,3.674-10.794,6.757-12.554a13.878,13.878,0,0,1,6.879-1.774h1.916v-.832h-3.025a13.878,13.878,0,0,0-6.879,1.774c-3.082,1.76-6.757,5.367-6.757,12.554v9c0,.1-.085,8.2,5.184,13.56a14.7,14.7,0,0,0,2.221,1.849A14.763,14.763,0,0,1,1088.525,1788.575Z" transform="translate(-1082.232 -1750.859)" fill="#fff" stroke="rgba(0,0,0,0)" stroke-miterlimit="10" stroke-width="1"/>
          </g>
        </g>
        <g id="Group_1128" data-name="Group 1128" transform="translate(7.192 8.837)" opacity="0.2">
          <path id="Path_2625" data-name="Path 2625" d="M1180.781,1896.035a10.434,10.434,0,0,1-.795-4.083v-8.771a10.381,10.381,0,0,1,.9-4.325,5.829,5.829,0,0,1,4.131-3.618h-3.068a5.829,5.829,0,0,0-4.131,3.618,10.379,10.379,0,0,0-.9,4.325v8.771a10.436,10.436,0,0,0,.795,4.083,8.926,8.926,0,0,0,9.97,5.739A8.832,8.832,0,0,1,1180.781,1896.035Z" transform="translate(-1176.918 -1875.238)" fill="#670301" stroke="rgba(0,0,0,0)" stroke-miterlimit="10" stroke-width="1"/>
        </g>
        <g id="Group_1129" data-name="Group 1129" transform="translate(14.764 0.97)" opacity="0.2">
          <path id="Path_2626" data-name="Path 2626" d="M1317.914,1741.226v-7.867h-4.428l.891,7.867Z" transform="translate(-1313.486 -1733.359)" fill="#670301" stroke="rgba(0,0,0,0)" stroke-miterlimit="10" stroke-width="1"/>
        </g>
        <g id="Group_1130" data-name="Group 1130" transform="translate(0.971 22.319)" opacity="0.2">
          <path id="Path_2627" data-name="Path 2627" d="M1064.726,2121.312v-2.946c.017,1.785.618,17.158,16.181,19a1.542,1.542,0,0,0,1.576-2.208l-1.824-3.7a10.615,10.615,0,0,0,3.478-.094l3.873,6.185h.4l1.551,3.118h-5.875C1064.335,2140.673,1064.726,2121.312,1064.726,2121.312Z" transform="translate(-1064.726 -2118.366)" fill="#670301" stroke="rgba(0,0,0,0)" stroke-miterlimit="10" stroke-width="1"/>
        </g>
      </g>
      <g id="Group_1132" data-name="Group 1132" transform="translate(41.702 68.066)">
        <path id="Path_2628" data-name="Path 2628" d="M1833.726,2680.657H1816.8l3.455-13.129h10.02Z" transform="translate(-1815.826 -2666.557)" fill="#ffca28" stroke="rgba(0,0,0,0)" stroke-miterlimit="10" stroke-width="1"/>
        <path id="Path_2629" data-name="Path 2629" d="M1817.2,2665.1h-16.93a.97.97,0,0,1-.938-1.217l3.455-13.129a.97.97,0,0,1,.938-.723h10.02a.97.97,0,0,1,.938.723l3.455,13.129a.97.97,0,0,1-.938,1.217Zm-15.671-1.941h14.413l-2.944-11.188h-8.524Z" transform="translate(-1799.297 -2650.029)" fill="#670301" stroke="rgba(0,0,0,0)" stroke-miterlimit="10" stroke-width="1"/>
      </g>
      <g id="Group_1133" data-name="Group 1133" transform="translate(43.931 70.007)" opacity="0.6">
        <path id="Path_2630" data-name="Path 2630" d="M1842.442,2685.029l-2.944,11.189h1.386l2.944-11.189Z" transform="translate(-1839.497 -2685.029)" fill="#fff" stroke="rgba(0,0,0,0)" stroke-miterlimit="10" stroke-width="1"/>
      </g>
      <g id="Group_1134" data-name="Group 1134" transform="translate(35.894 81.195)">
        <path id="Rectangle_224" data-name="Rectangle 224" d="M6.219,0H22.327a6.219,6.219,0,0,1,6.219,6.219v0a0,0,0,0,1,0,0H0a0,0,0,0,1,0,0v0A6.219,6.219,0,0,1,6.219,0Z" transform="translate(0.97 0.97)" fill="#ffca28" stroke="rgba(0,0,0,0)" stroke-miterlimit="10" stroke-width="1"/>
        <path id="Path_2631" data-name="Path 2631" d="M1724.073,2894.968h-28.546a.97.97,0,0,1-.97-.97v-1.885a5.311,5.311,0,0,1,5.305-5.305h19.876a5.311,5.311,0,0,1,5.305,5.305V2894A.97.97,0,0,1,1724.073,2894.968Zm-27.575-1.941h26.6v-.914a3.368,3.368,0,0,0-3.365-3.365h-19.876a3.368,3.368,0,0,0-3.364,3.365Z" transform="translate(-1694.557 -2886.808)" fill="#670301" stroke="rgba(0,0,0,0)" stroke-miterlimit="10" stroke-width="1"/>
      </g>
      <g id="Group_1135" data-name="Group 1135" transform="translate(37.835 83.136)" opacity="0.6">
        <path id="Path_2632" data-name="Path 2632" d="M1730.942,2925.731a3.368,3.368,0,0,1,3.364-3.364h19.876a3.4,3.4,0,0,1,.526.045,3.342,3.342,0,0,0-1.913-.6H1732.92a3.368,3.368,0,0,0-3.364,3.364v.914h1.386Z" transform="translate(-1729.556 -2921.812)" fill="#fff" stroke="rgba(0,0,0,0)" stroke-miterlimit="10" stroke-width="1"/>
      </g>
      <g id="Group_1136" data-name="Group 1136" transform="translate(22.613 87.415)">
        <path id="Rectangle_225" data-name="Rectangle 225" d="M15.2,0h24.7a15.2,15.2,0,0,1,15.2,15.2v0a0,0,0,0,1,0,0H0a0,0,0,0,1,0,0v0A15.2,15.2,0,0,1,15.2,0Z" transform="translate(0.97 0.97)" fill="#dc7633" stroke="rgba(0,0,0,0)" stroke-miterlimit="10" stroke-width="1"/>
        <path id="Path_2633" data-name="Path 2633" d="M1511.106,3016.112H1456a.97.97,0,0,1-.97-.97v-5.614a10.571,10.571,0,0,1,10.559-10.559h35.932a10.571,10.571,0,0,1,10.559,10.559v5.614A.97.97,0,0,1,1511.106,3016.112Zm-54.139-1.941h53.168v-4.644a8.628,8.628,0,0,0-8.618-8.618h-35.932a8.628,8.628,0,0,0-8.618,8.618Z" transform="translate(-1455.026 -2998.969)" fill="#670301" stroke="rgba(0,0,0,0)" stroke-miterlimit="10" stroke-width="1"/>
      </g>
      <g id="Group_1137" data-name="Group 1137" transform="translate(24.553 89.355)" opacity="0.6">
        <path id="Path_2634" data-name="Path 2634" d="M1491.69,3043.42a8.628,8.628,0,0,1,8.618-8.618h35.932a8.575,8.575,0,0,1,2.979.531,8.564,8.564,0,0,0-4.642-1.363h-35.932a8.628,8.628,0,0,0-8.618,8.618v4.644h1.663Z" transform="translate(-1490.027 -3033.97)" fill="#fff" stroke="rgba(0,0,0,0)" stroke-miterlimit="10" stroke-width="1"/>
      </g>
      <g id="Group_1138" data-name="Group 1138" transform="translate(18.144 0.398)">
        <path id="Path_2635" data-name="Path 2635" d="M1424.135,1447.179h-.353l-31.847.047v37.612a39.484,39.484,0,0,0,4.886,19.254c4.33,7.761,12.344,15.8,26.961,15.931v.006c.06,0,.117,0,.176,0s.117,0,.176,0v-.006c14.617-.129,22.631-8.17,26.961-15.931a39.487,39.487,0,0,0,4.886-19.254v-37.612Z" transform="translate(-1390.965 -1446.209)" fill="#ffca28" stroke="rgba(0,0,0,0)" stroke-miterlimit="10" stroke-width="1"/>
        <path id="Path_2636" data-name="Path 2636" d="M1407.605,1504.47l-.117,0h-.119a1.613,1.613,0,0,1-.234-.005c-15.405-.177-23.561-9.026-27.69-16.428a40.538,40.538,0,0,1-5.009-19.726V1430.7a.97.97,0,0,1,.969-.97l32.2-.048h0l31.847.047a.97.97,0,0,1,.969.97v37.612a40.538,40.538,0,0,1-5.009,19.726c-4.13,7.4-12.284,16.252-27.691,16.428A1,1,0,0,1,1407.605,1504.47Zm-.181-1.944h.089q.041,0,.083,0c11.677-.1,20.465-5.3,26.122-15.434a38.59,38.59,0,0,0,4.763-18.781v-36.643l-30.878-.046h-.353l-30.875.046v36.643a38.593,38.593,0,0,0,4.763,18.781c5.656,10.138,14.445,15.331,26.122,15.434.028,0,.056,0,.084,0Z" transform="translate(-1374.435 -1429.679)" fill="#670301" stroke="rgba(0,0,0,0)" stroke-miterlimit="10" stroke-width="1"/>
      </g>
      <g id="Group_1139" data-name="Group 1139" transform="translate(20.085 2.339)" opacity="0.6">
        <path id="Path_2637" data-name="Path 2637" d="M1415.863,1520.427a38.591,38.591,0,0,1-4.763-18.781V1465l30.875-.046,29.567.044v-.275l-31.231-.046-30.875.046v36.643a38.593,38.593,0,0,0,4.763,18.781c4.86,8.71,12.033,13.766,21.362,15.084C1427.039,1533.572,1420.43,1528.612,1415.863,1520.427Z" transform="translate(-1409.436 -1464.68)" fill="#fff" stroke="rgba(0,0,0,0)" stroke-miterlimit="10" stroke-width="1"/>
      </g>
      <g id="Group_1140" data-name="Group 1140" transform="translate(24.888 17.794)" opacity="0.2">
        <ellipse id="Ellipse_276" data-name="Ellipse 276" cx="6.503" cy="4.131" rx="6.503" ry="4.131" transform="translate(0 12.961) rotate(-85.229)" fill="#fff" stroke="rgba(0,0,0,0)" stroke-miterlimit="10" stroke-width="1"/>
      </g>
      <g id="Group_1141" data-name="Group 1141" transform="translate(20.085 2.339)" opacity="0.2">
        <path id="Path_2638" data-name="Path 2638" d="M1433.557,1534.886c.13-.016.257-.036.387-.053a35.586,35.586,0,0,0,5.546.473c.029,0,.057,0,.085,0h.078l.088,0c.028,0,.056,0,.084,0,11.677-.1,20.465-5.3,26.122-15.434a38.592,38.592,0,0,0,4.764-18.781v-36.367l-30.4-.045-30.875.046v12.141l.21.157,43.823,1.739a13.542,13.542,0,0,1,12.984,14.443C1465.384,1508.763,1458.724,1531.813,1433.557,1534.886Z" transform="translate(-1409.436 -1464.68)" fill="#670301" stroke="rgba(0,0,0,0)" stroke-miterlimit="10" stroke-width="1"/>
      </g>
      <g id="Group_1142" data-name="Group 1142" transform="translate(12.349 0)">
        <rect id="Rectangle_226" data-name="Rectangle 226" width="75.637" height="10.748" rx="5.374" transform="translate(0.97 0.97)" fill="#ffca28" stroke="rgba(0,0,0,0)" stroke-miterlimit="10" stroke-width="1"/>
        <path id="Path_2639" data-name="Path 2639" d="M1341.156,1435.188h-64.889a6.345,6.345,0,0,1,0-12.689h64.889a6.345,6.345,0,0,1,0,12.689Zm-64.889-10.749a4.4,4.4,0,0,0,0,8.808h64.889a4.4,4.4,0,0,0,0-8.808Z" transform="translate(-1269.923 -1422.499)" fill="#670301" stroke="rgba(0,0,0,0)" stroke-miterlimit="10" stroke-width="1"/>
      </g>
      <g id="Group_1143" data-name="Group 1143" transform="translate(14.289 1.941)" opacity="0.6">
        <path id="Path_2640" data-name="Path 2640" d="M1306.308,1462.736a4.409,4.409,0,0,1,4.4-4.4H1375.6a4.374,4.374,0,0,1,1.527.279,4.381,4.381,0,0,0-2.914-1.11h-64.889a4.4,4.4,0,0,0-1.527,8.529A4.39,4.39,0,0,1,1306.308,1462.736Z" transform="translate(-1304.922 -1457.5)" fill="#fff" stroke="rgba(0,0,0,0)" stroke-miterlimit="10" stroke-width="1"/>
      </g>
      <g id="Group_1144" data-name="Group 1144" transform="translate(42.212 73.642)" opacity="0.2">
        <path id="Path_2641" data-name="Path 2641" d="M1810.61,2752.734a32.557,32.557,0,0,0,6.635.724,1.955,1.955,0,0,1,.655,3.8,24.683,24.683,0,0,1-8.5,1.021l-.9,1.124h17.759l-2.155-8.818s-8.727,2.182-13.177.1Z" transform="translate(-1808.498 -2750.582)" fill="#670301" stroke="rgba(0,0,0,0)" stroke-miterlimit="10" stroke-width="1"/>
      </g>
      <g id="Group_1145" data-name="Group 1145" transform="translate(36.93 82.184)" opacity="0.2">
        <path id="Path_2642" data-name="Path 2642" d="M1731.447,2904.92s.439,5.284-18.22,4.61v1.012h29.155l-.831-2.888S1740.787,2903.57,1731.447,2904.92Z" transform="translate(-1713.227 -2904.646)" fill="#670301" stroke="rgba(0,0,0,0)" stroke-miterlimit="10" stroke-width="1"/>
      </g>
      <g id="Group_1146" data-name="Group 1146" transform="translate(23.667 88.185)" opacity="0.2">
        <path id="Path_2643" data-name="Path 2643" d="M1505.507,3013.548s2.248,13.038-31.472,13.038l.225,1.461h55.188v-6.969S1526.3,3010.063,1505.507,3013.548Z" transform="translate(-1474.035 -3012.867)" fill="#670301" stroke="rgba(0,0,0,0)" stroke-miterlimit="10" stroke-width="1"/>
      </g>
      <g id="Group_1158" data-name="Group 1158" transform="translate(35.551 22.489)">
        <g id="Group_1149" data-name="Group 1149">
          <g id="Group_1147" data-name="Group 1147" transform="translate(0.833 0.832)">
            <path id="Path_2644" data-name="Path 2644" d="M1725.707,1871.388a2.5,2.5,0,0,1-1.476-.489l-5.572-4.048a.857.857,0,0,0-1.007,0l-5.572,4.048a2.5,2.5,0,0,1-1.476.489,2.556,2.556,0,0,1-2.058-1.058,2.481,2.481,0,0,1-.345-2.248l2.128-6.55a.854.854,0,0,0-.311-.958l-5.572-4.048a2.52,2.52,0,0,1,1.482-4.559h6.887a.855.855,0,0,0,.815-.592l2.128-6.55a2.52,2.52,0,0,1,4.794,0l2.128,6.55a.855.855,0,0,0,.815.592h6.887a2.52,2.52,0,0,1,1.482,4.559l-5.572,4.048a.855.855,0,0,0-.311.958l2.128,6.55a2.48,2.48,0,0,1-.345,2.248A2.556,2.556,0,0,1,1725.707,1871.388Z" transform="translate(-1703.403 -1843.083)" fill="#f9b32f" stroke="rgba(0,0,0,0)" stroke-miterlimit="10" stroke-width="1"/>
          </g>
          <g id="Group_1148" data-name="Group 1148">
            <path id="Path_2645" data-name="Path 2645" d="M1703.959,1829.746a1.658,1.658,0,0,1,1.606,1.167l2.128,6.55a1.689,1.689,0,0,0,1.606,1.167h6.887a1.689,1.689,0,0,1,.993,3.055l-5.572,4.048a1.689,1.689,0,0,0-.613,1.888l2.128,6.55a1.694,1.694,0,0,1-1.611,2.218,1.664,1.664,0,0,1-.987-.33l-5.572-4.048a1.689,1.689,0,0,0-1.985,0l-5.572,4.048a1.664,1.664,0,0,1-.987.33,1.694,1.694,0,0,1-1.612-2.218l2.128-6.55a1.689,1.689,0,0,0-.614-1.888l-5.572-4.048a1.689,1.689,0,0,1,.993-3.055h6.887a1.688,1.688,0,0,0,1.606-1.167l2.128-6.55a1.658,1.658,0,0,1,1.606-1.167m0-1.663a3.3,3.3,0,0,0-3.188,2.316l-2.128,6.55a.025.025,0,0,1-.024.017h-6.887a3.352,3.352,0,0,0-1.97,6.064l5.572,4.048a.025.025,0,0,1,.009.028l-2.128,6.55a3.3,3.3,0,0,0,.463,2.994,3.391,3.391,0,0,0,2.73,1.4,3.326,3.326,0,0,0,1.964-.648l5.572-4.048a.023.023,0,0,1,.015,0,.022.022,0,0,1,.014,0l5.572,4.048a3.326,3.326,0,0,0,1.964.648,3.391,3.391,0,0,0,2.73-1.4,3.3,3.3,0,0,0,.463-2.994l-2.128-6.55a.026.026,0,0,1,.009-.028l5.572-4.048a3.352,3.352,0,0,0-1.97-6.064H1709.3a.025.025,0,0,1-.024-.017l-2.128-6.55a3.3,3.3,0,0,0-3.188-2.316Z" transform="translate(-1688.373 -1828.083)" fill="#670301" stroke="rgba(0,0,0,0)" stroke-miterlimit="10" stroke-width="1"/>
          </g>
        </g>
        <g id="Group_1150" data-name="Group 1150" transform="translate(19.767 10.083)" opacity="0.6">
          <path id="Path_2646" data-name="Path 2646" d="M2044.915,2010.085a1.688,1.688,0,0,0,1.606,1.167h6.887a1.643,1.643,0,0,1,1.14.441,1.66,1.66,0,0,0-1.641-1.309h-6.887a1.685,1.685,0,0,1-1.159-.464Z" transform="translate(-2044.861 -2009.919)" fill="#fff" stroke="rgba(0,0,0,0)" stroke-miterlimit="10" stroke-width="1"/>
        </g>
        <g id="Group_1151" data-name="Group 1151" transform="translate(6.336 18.646)" opacity="0.6">
          <path id="Path_2647" data-name="Path 2647" d="M1803.223,2172.658l2.128-6.55a1.685,1.685,0,0,0-.464-1.76,1.68,1.68,0,0,1-.036.892l-2.128,6.55a1.647,1.647,0,0,0,.453,1.753A1.675,1.675,0,0,1,1803.223,2172.658Z" transform="translate(-1802.635 -2164.348)" fill="#fff" stroke="rgba(0,0,0,0)" stroke-miterlimit="10" stroke-width="1"/>
        </g>
        <g id="Group_1152" data-name="Group 1152" transform="translate(1.671 1.663)" opacity="0.6">
          <path id="Path_2648" data-name="Path 2648" d="M1720.693,1867.835h6.887a1.689,1.689,0,0,0,1.606-1.167l2.128-6.55a1.694,1.694,0,0,1,2.759-.721l-.048-.148a1.689,1.689,0,0,0-3.212,0l-2.128,6.55a1.689,1.689,0,0,1-1.606,1.167h-6.887a1.686,1.686,0,0,0-1.15,2.92A1.688,1.688,0,0,1,1720.693,1867.835Z" transform="translate(-1718.504 -1858.083)" fill="#fff" stroke="rgba(0,0,0,0)" stroke-miterlimit="10" stroke-width="1"/>
        </g>
        <g id="Group_1153" data-name="Group 1153" transform="translate(15.704 2.197)" opacity="0.2">
          <path id="Path_2649" data-name="Path 2649" d="M1971.591,1867.982v13.429l3.986-5.751-2.771-7.956Z" transform="translate(-1971.591 -1867.704)" fill="#670301" stroke="rgba(0,0,0,0)" stroke-miterlimit="10" stroke-width="1"/>
        </g>
        <g id="Group_1154" data-name="Group 1154" transform="translate(7.33 15.904)" opacity="0.2">
          <path id="Path_2650" data-name="Path 2650" d="M1828.936,2114.9l-8.375,12.216.949.825,7.513-5.009Z" transform="translate(-1820.562 -2114.903)" fill="#670301" stroke="rgba(0,0,0,0)" stroke-miterlimit="10" stroke-width="1"/>
        </g>
        <g id="Group_1155" data-name="Group 1155" transform="translate(1.754 13.137)" opacity="0.2">
          <path id="Path_2651" data-name="Path 2651" d="M1720,2065l13.951,2.767-6.918,2.707Z" transform="translate(-1720 -2065)" fill="#670301" stroke="rgba(0,0,0,0)" stroke-miterlimit="10" stroke-width="1"/>
        </g>
        <g id="Group_1156" data-name="Group 1156" transform="translate(15.704 15.904)" opacity="0.2">
          <path id="Path_2652" data-name="Path 2652" d="M1971.591,2114.9l9.338,12.481-.277-3.327-2.478-6.258Z" transform="translate(-1971.591 -2114.903)" fill="#670301" stroke="rgba(0,0,0,0)" stroke-miterlimit="10" stroke-width="1"/>
        </g>
        <g id="Group_1157" data-name="Group 1157" transform="translate(15.704 13.008)" opacity="0.1">
          <path id="Path_2653" data-name="Path 2653" d="M1971.591,2065.564l13.166-2.9-6.583,5.793Z" transform="translate(-1971.591 -2062.668)" fill="#670301" stroke="rgba(0,0,0,0)" stroke-miterlimit="10" stroke-width="1"/>
        </g>
      </g>
      <g id="Group_1162" data-name="Group 1162" transform="translate(14.289 1.941)">
        <g id="Group_1161" data-name="Group 1161" clip-path="url(#clip-path)">
          <g id="Group_1159" data-name="Group 1159" transform="translate(6.25 -9.253)" opacity="0.5">
            <rect id="Rectangle_227" data-name="Rectangle 227" width="9.592" height="28.286" transform="matrix(0.754, 0.656, -0.656, 0.754, 18.569, 0)" fill="#fff" stroke="rgba(0,0,0,0)" stroke-miterlimit="10" stroke-width="1"/>
          </g>
          <g id="Group_1160" data-name="Group 1160" transform="translate(25.493 -8.705)" opacity="0.5">
            <rect id="Rectangle_228" data-name="Rectangle 228" width="4.247" height="28.286" transform="matrix(0.754, 0.656, -0.656, 0.754, 18.569, 0)" fill="#fff" stroke="rgba(0,0,0,0)" stroke-miterlimit="10" stroke-width="1"/>
          </g>
        </g>
      </g>
      <g id="Group_1163" data-name="Group 1163" transform="translate(86.777 3.323)" opacity="0.2">
        <path id="Path_2654" data-name="Path 2654" d="M2612.2,1482.434c.081.086.16.174.234.266C2612.362,1482.607,2612.283,1482.52,2612.2,1482.434Z" transform="translate(-2612.202 -1482.434)" fill="#670301" stroke="rgba(0,0,0,0)" stroke-miterlimit="10" stroke-width="1"/>
      </g>
      <g id="Group_1164" data-name="Group 1164" transform="translate(87.317 4.023)" opacity="0.2">
        <path id="Path_2655" data-name="Path 2655" d="M2621.933,1495.049c.052.084.1.167.151.255C2622.038,1495.216,2621.985,1495.133,2621.933,1495.049Z" transform="translate(-2621.933 -1495.049)" fill="#670301" stroke="rgba(0,0,0,0)" stroke-miterlimit="10" stroke-width="1"/>
      </g>
      <g id="Group_1165" data-name="Group 1165" transform="translate(87.064 3.658)" opacity="0.2">
        <path id="Path_2656" data-name="Path 2656" d="M2617.366,1488.477c.067.086.132.172.192.263C2617.5,1488.649,2617.432,1488.563,2617.366,1488.477Z" transform="translate(-2617.366 -1488.477)" fill="#670301" stroke="rgba(0,0,0,0)" stroke-miterlimit="10" stroke-width="1"/>
      </g>
      <g id="Group_1166" data-name="Group 1166" transform="translate(87.939 5.739)" opacity="0.2">
        <path id="Path_2657" data-name="Path 2657" d="M2633.153,1526c.007.054.019.107.024.161C2633.172,1526.106,2633.161,1526.053,2633.153,1526Z" transform="translate(-2633.153 -1525.999)" fill="#670301" stroke="rgba(0,0,0,0)" stroke-miterlimit="10" stroke-width="1"/>
      </g>
      <g id="Group_1167" data-name="Group 1167" transform="translate(87.534 4.414)" opacity="0.2">
        <path id="Path_2658" data-name="Path 2658" d="M2625.841,1502.095c.039.08.08.159.114.242C2625.921,1502.254,2625.88,1502.175,2625.841,1502.095Z" transform="translate(-2625.841 -1502.095)" fill="#670301" stroke="rgba(0,0,0,0)" stroke-miterlimit="10" stroke-width="1"/>
      </g>
      <g id="Group_1168" data-name="Group 1168" transform="translate(87.847 5.269)" opacity="0.2">
        <path id="Path_2659" data-name="Path 2659" d="M2631.5,1517.522c.017.067.037.132.05.2C2631.535,1517.654,2631.515,1517.589,2631.5,1517.522Z" transform="translate(-2631.498 -1517.522)" fill="#670301" stroke="rgba(0,0,0,0)" stroke-miterlimit="10" stroke-width="1"/>
      </g>
      <g id="Group_1169" data-name="Group 1169" transform="translate(87.712 4.829)" opacity="0.2">
        <path id="Path_2660" data-name="Path 2660" d="M2629.048,1509.6c.027.074.057.147.08.224C2629.1,1509.743,2629.075,1509.67,2629.048,1509.6Z" transform="translate(-2629.048 -1509.596)" fill="#670301" stroke="rgba(0,0,0,0)" stroke-miterlimit="10" stroke-width="1"/>
      </g>
      <g id="Group_1170" data-name="Group 1170" transform="translate(28.616 1.941)" opacity="0.2">
        <path id="Path_2661" data-name="Path 2661" d="M1616.878,1466.031a4.4,4.4,0,0,0,1.545-8.522c-.053,0-.105-.008-.159-.008h-9.275c-1.093,2.084-7.568,7.937-45.691,8.531Z" transform="translate(-1563.299 -1457.5)" fill="#670301" stroke="rgba(0,0,0,0)" stroke-miterlimit="10" stroke-width="1"/>
      </g>
      <g id="Group_1171" data-name="Group 1171" transform="translate(17.235 10.495)" opacity="0.2">
        <path id="Path_2662" data-name="Path 2662" d="M1358.046,1611.774c.66.007,1.31.012,1.954.016C1359.356,1611.786,1358.706,1611.781,1358.046,1611.774Z" transform="translate(-1358.046 -1611.774)" fill="#670301" stroke="rgba(0,0,0,0)" stroke-miterlimit="10" stroke-width="1"/>
      </g>
      <g id="Group_1172" data-name="Group 1172" transform="translate(24.352 10.512)" opacity="0.2">
        <path id="Path_2663" data-name="Path 2663" d="M1486.917,1612.07l-.526,0Z" transform="translate(-1486.391 -1612.07)" fill="#670301" stroke="rgba(0,0,0,0)" stroke-miterlimit="10" stroke-width="1"/>
      </g>
      <g id="Group_1173" data-name="Group 1173" transform="translate(19.78 10.514)" opacity="0.2">
        <path id="Path_2664" data-name="Path 2664" d="M1403.941,1612.118l1.445.005Z" transform="translate(-1403.941 -1612.118)" fill="#670301" stroke="rgba(0,0,0,0)" stroke-miterlimit="10" stroke-width="1"/>
      </g>
      <g id="Group_1174" data-name="Group 1174" transform="translate(83.741 1.949)" opacity="0.2">
        <path id="Path_2665" data-name="Path 2665" d="M2557.445,1457.646a4.386,4.386,0,0,1,2.376.8A4.372,4.372,0,0,0,2557.445,1457.646Z" transform="translate(-2557.445 -1457.646)" fill="#670301" stroke="rgba(0,0,0,0)" stroke-miterlimit="10" stroke-width="1"/>
      </g>
      <g id="Group_1175" data-name="Group 1175" transform="translate(86.123 2.754)" opacity="0.2">
        <path id="Path_2666" data-name="Path 2666" d="M2600.405,1472.173q.164.116.318.247Q2600.57,1472.289,2600.405,1472.173Z" transform="translate(-2600.405 -1472.173)" fill="#670301" stroke="rgba(0,0,0,0)" stroke-miterlimit="10" stroke-width="1"/>
      </g>
      <g id="Group_1176" data-name="Group 1176" transform="translate(86.463 3.022)" opacity="0.2">
        <path id="Path_2667" data-name="Path 2667" d="M2606.807,1477.252c-.088-.091-.181-.177-.277-.26C2606.626,1477.075,2606.719,1477.161,2606.807,1477.252Z" transform="translate(-2606.53 -1476.992)" fill="#670301" stroke="rgba(0,0,0,0)" stroke-miterlimit="10" stroke-width="1"/>
      </g>
      <g id="Group_1177" data-name="Group 1177" transform="translate(22.122 10.519)" opacity="0.2">
        <path id="Path_2668" data-name="Path 2668" d="M1447.366,1612.2h0Z" transform="translate(-1446.175 -1612.2)" fill="#670301" stroke="rgba(0,0,0,0)" stroke-miterlimit="10" stroke-width="1"/>
      </g>
    </g>
    <g id="Group_1183" data-name="Group 1183" transform="translate(548.777 698.616)">
      <g id="Group_1179" data-name="Group 1179" transform="translate(0 0.13)" opacity="0.3">
        <path id="Path_2669" data-name="Path 2669" d="M909.2,3277.7c0-1.393-30.458-2.522-68.029-2.522s-68.029,1.129-68.029,2.522c0,.8,10.178,1.522,26.024,1.984,3.419.9,16.677,1.576,32.51,1.576,13.259,0,24.711-.472,30.093-1.156C889.269,3279.781,909.2,3278.827,909.2,3277.7Z" transform="translate(-773.141 -3275.179)" fill="#670301" stroke="rgba(0,0,0,0)" stroke-miterlimit="10" stroke-width="1"/>
      </g>
      <g id="Group_1182" data-name="Group 1182" transform="translate(9.983 0)">
        <g id="Group_1180" data-name="Group 1180" transform="translate(0 1.248)">
          <line id="Line_59" data-name="Line 59" x2="116.211" fill="#ae7c5b" stroke="rgba(0,0,0,0)" stroke-miterlimit="10" stroke-width="1"/>
        </g>
        <g id="Group_1181" data-name="Group 1181">
          <path id="Path_2670" data-name="Path 2670" d="M953.176,3274.074c9.684-.517,19.369-.786,29.053-.97s19.369-.28,29.053-.277,19.368.093,29.053.273,19.368.454,29.053.974c-9.684.519-19.368.791-29.053.973s-19.368.28-29.053.274-19.369-.095-29.053-.278S962.86,3274.59,953.176,3274.074Z" transform="translate(-953.176 -3272.827)" fill="#670301" stroke="rgba(0,0,0,0)" stroke-miterlimit="10" stroke-width="1"/>
        </g>
      </g>
    </g>
    <g id="Group_1184" data-name="Group 1184" transform="translate(535.606 595.649)">
      <path id="Path_2671" data-name="Path 2671" d="M552.061,1435.357a.586.586,0,0,1-.547-.377c-.782-2.05-1.812-3.365-2.956-3.833a6.587,6.587,0,0,1-.427,1.189,2.735,2.735,0,0,1-1.748,1.5,1.814,1.814,0,0,1-2.063-.7,1.407,1.407,0,0,1,.036-1.542,3.832,3.832,0,0,1,3.214-1.8,7.545,7.545,0,0,0-1.973-4.9l-.08-.054a4.2,4.2,0,0,1-1.413,2.041c-1.576,1.24-3.163,1.469-4.589.661a2.39,2.39,0,0,1-1.062-2.884,3.551,3.551,0,0,1,2.2-2.357,5.215,5.215,0,0,1,3.881.606,5.9,5.9,0,0,0-1.921-4.5c-2.389-1.973-6.258-1.2-6.3-1.19a.586.586,0,0,1-.24-1.147c.181-.038,4.449-.9,7.278,1.429,1.6,1.316,2.392,3.359,2.363,6.075q.295.184.6.392a.592.592,0,0,1,.092.078,8.755,8.755,0,0,1,2.335,5.929c1.247.4,2.721,1.583,3.871,4.6a.586.586,0,0,1-.547.795Zm-4.669-4.392a2.649,2.649,0,0,0-.547.107c-1.071.327-1.616,1.173-1.565,1.393a.656.656,0,0,0,.8.24,1.565,1.565,0,0,0,.992-.868A5.336,5.336,0,0,0,547.391,1430.964Zm-5.668-7.659a2.286,2.286,0,0,0-.712.106,2.4,2.4,0,0,0-1.454,1.633,1.219,1.219,0,0,0,.534,1.474c.993.562,2.1.373,3.287-.562a3.032,3.032,0,0,0,1.1-1.76A5.98,5.98,0,0,0,541.724,1423.305Z" transform="translate(-535.606 -1415.876)" fill="#00b3d5" stroke="rgba(0,0,0,0)" stroke-width="1"/>
    </g>
    <g id="Group_1185" data-name="Group 1185" transform="translate(676.883 604.979)">
      <path id="Path_2672" data-name="Path 2672" d="M3084.052,1604.917a.586.586,0,0,1-.546-.8c1.25-3.245,2.842-4.5,4.18-4.909a9.345,9.345,0,0,1,2.516-6.363.587.587,0,0,1,.092-.078q.338-.229.665-.431c0-.018,0-.037,0-.056-.015-2.9.847-5.072,2.561-6.466,3.032-2.465,7.581-1.528,7.772-1.487a.586.586,0,0,1-.244,1.146h0c-.042-.009-4.2-.858-6.793,1.254a6.413,6.413,0,0,0-2.113,4.947,5.618,5.618,0,0,1,4.206-.667,3.775,3.775,0,0,1,2.323,2.513,2.524,2.524,0,0,1-1.131,3.042c-1.51.849-3.188.606-4.853-.7a4.5,4.5,0,0,1-1.532-2.259l-.145.1a8.348,8.348,0,0,0-2.143,5.331,4.071,4.071,0,0,1,3.441,1.927,1.471,1.471,0,0,1,.036,1.611,1.908,1.908,0,0,1-2.172.733,2.893,2.893,0,0,1-1.845-1.6,7.017,7.017,0,0,1-.463-1.318c-1.031.387-2.234,1.484-3.261,4.149A.586.586,0,0,1,3084.052,1604.917Zm4.977-4.7a5.648,5.648,0,0,0,.357,1,1.724,1.724,0,0,0,1.09.96.745.745,0,0,0,.916-.291c.069-.2-.456-1.092-1.554-1.5A2.866,2.866,0,0,0,3089.028,1600.215Zm3.171-7.245a3.342,3.342,0,0,0,1.209,1.974c1.28,1.005,2.476,1.207,3.555.6a1.354,1.354,0,0,0,.6-1.634,2.622,2.622,0,0,0-1.584-1.787C3095.05,1591.818,3093.76,1592.11,3092.2,1592.97Z" transform="translate(-3083.466 -1584.123)" fill="#01c0cf" stroke="rgba(0,0,0,0)" stroke-width="1"/>
    </g>
    <g id="Group_1197" data-name="Group 1197" transform="translate(644.167 558.78)">
      <g id="Group_1186" data-name="Group 1186" transform="translate(8.391 0)">
        <path id="Path_2673" data-name="Path 2673" d="M2645.466,756.036a.693.693,0,0,1-.664-.893l1.111-3.694a.693.693,0,0,1,1.328.4l-1.111,3.694A.693.693,0,0,1,2645.466,756.036Z" transform="translate(-2644.772 -750.955)" fill="#00e1d3" stroke="rgba(0,0,0,0)" stroke-miterlimit="10" stroke-width="1"/>
      </g>
      <g id="Group_1187" data-name="Group 1187" transform="translate(5.108 10.916)">
        <path id="Path_2674" data-name="Path 2674" d="M2586.266,952.9a.693.693,0,0,1-.664-.893l1.111-3.695a.693.693,0,0,1,1.328.4l-1.111,3.694A.694.694,0,0,1,2586.266,952.9Z" transform="translate(-2585.572 -947.815)" fill="#00e1d3" stroke="rgba(0,0,0,0)" stroke-miterlimit="10" stroke-width="1"/>
      </g>
      <g id="Group_1190" data-name="Group 1190" transform="translate(0.586 3.693)">
        <g id="Group_1188" data-name="Group 1188" transform="translate(10.04)">
          <path id="Path_2675" data-name="Path 2675" d="M2685.777,820.773a.693.693,0,0,1-.329-1.3l3.4-1.827a.693.693,0,0,1,.656,1.221l-3.4,1.827A.689.689,0,0,1,2685.777,820.773Z" transform="translate(-2685.083 -817.56)" fill="#00e1d3" stroke="rgba(0,0,0,0)" stroke-miterlimit="10" stroke-width="1"/>
        </g>
        <g id="Group_1189" data-name="Group 1189" transform="translate(0 5.397)">
          <path id="Path_2676" data-name="Path 2676" d="M2504.712,918.112a.693.693,0,0,1-.329-1.3l3.4-1.827a.693.693,0,1,1,.656,1.221l-3.4,1.827A.692.692,0,0,1,2504.712,918.112Z" transform="translate(-2504.018 -914.899)" fill="#00e1d3" stroke="rgba(0,0,0,0)" stroke-miterlimit="10" stroke-width="1"/>
        </g>
      </g>
      <g id="Group_1193" data-name="Group 1193" transform="translate(0 5.108)">
        <g id="Group_1191" data-name="Group 1191" transform="translate(10.916 3.283)">
          <path id="Path_2677" data-name="Path 2677" d="M2694.692,904.779a.69.69,0,0,1-.2-.03l-3.694-1.111a.693.693,0,1,1,.4-1.328l3.694,1.111a.693.693,0,0,1-.2,1.357Z" transform="translate(-2690.304 -902.282)" fill="#00e1d3" stroke="rgba(0,0,0,0)" stroke-miterlimit="10" stroke-width="1"/>
        </g>
        <g id="Group_1192" data-name="Group 1192">
          <path id="Path_2678" data-name="Path 2678" d="M2497.832,845.581a.693.693,0,0,1-.2-.03l-3.694-1.111a.693.693,0,1,1,.4-1.327l3.695,1.111a.693.693,0,0,1-.2,1.357Z" transform="translate(-2493.444 -843.083)" fill="#00e1d3" stroke="rgba(0,0,0,0)" stroke-miterlimit="10" stroke-width="1"/>
        </g>
      </g>
      <g id="Group_1196" data-name="Group 1196" transform="translate(3.693 0.587)">
        <g id="Group_1194" data-name="Group 1194" transform="translate(5.397 10.04)">
          <path id="Path_2679" data-name="Path 2679" d="M2659.907,947.376a.693.693,0,0,1-.611-.365l-1.827-3.4a.693.693,0,1,1,1.221-.656l1.827,3.4a.693.693,0,0,1-.61,1.021Z" transform="translate(-2657.386 -942.592)" fill="#00e1d3" stroke="rgba(0,0,0,0)" stroke-miterlimit="10" stroke-width="1"/>
        </g>
        <g id="Group_1195" data-name="Group 1195">
          <path id="Path_2680" data-name="Path 2680" d="M2562.568,766.317a.693.693,0,0,1-.611-.365l-1.827-3.4a.693.693,0,0,1,1.221-.656l1.827,3.4a.693.693,0,0,1-.61,1.021Z" transform="translate(-2560.048 -761.533)" fill="#00e1d3" stroke="rgba(0,0,0,0)" stroke-miterlimit="10" stroke-width="1"/>
        </g>
      </g>
    </g>
    <g id="Group_1209" data-name="Group 1209" transform="translate(523.583 664.537)">
      <g id="Group_1198" data-name="Group 1198" transform="translate(9.265 0)">
        <path id="Path_2681" data-name="Path 2681" d="M1303.571,552.964a.694.694,0,0,1-.664-.893l1.226-4.079a.693.693,0,0,1,1.328.4l-1.227,4.079A.694.694,0,0,1,1303.571,552.964Z" transform="translate(-1302.877 -547.498)" fill="#00e1d3" stroke="rgba(0,0,0,0)" stroke-width="1"/>
      </g>
      <g id="Group_1199" data-name="Group 1199" transform="translate(5.64 12.052)">
        <path id="Path_2682" data-name="Path 2682" d="M1238.209,770.32a.694.694,0,0,1-.664-.893l1.227-4.079a.693.693,0,0,1,1.328.4l-1.226,4.079A.694.694,0,0,1,1238.209,770.32Z" transform="translate(-1237.516 -764.854)" fill="#00e1d3" stroke="rgba(0,0,0,0)" stroke-width="1"/>
      </g>
      <g id="Group_1202" data-name="Group 1202" transform="translate(0.647 4.078)">
        <g id="Group_1200" data-name="Group 1200" transform="translate(11.085)">
          <path id="Path_2683" data-name="Path 2683" d="M1348.08,624.437a.693.693,0,0,1-.329-1.3l3.751-2.017a.693.693,0,1,1,.656,1.221l-3.751,2.017A.692.692,0,0,1,1348.08,624.437Z" transform="translate(-1347.386 -621.034)" fill="#00e1d3" stroke="rgba(0,0,0,0)" stroke-width="1"/>
        </g>
        <g id="Group_1201" data-name="Group 1201" transform="translate(0 5.96)">
          <path id="Path_2684" data-name="Path 2684" d="M1148.168,731.914a.693.693,0,0,1-.329-1.3l3.751-2.017a.693.693,0,1,1,.656,1.221l-3.751,2.017A.69.69,0,0,1,1148.168,731.914Z" transform="translate(-1147.474 -728.51)" fill="#00e1d3" stroke="rgba(0,0,0,0)" stroke-width="1"/>
        </g>
      </g>
      <g id="Group_1205" data-name="Group 1205" transform="translate(0 5.64)">
        <g id="Group_1203" data-name="Group 1203" transform="translate(12.052 3.624)">
          <path id="Path_2685" data-name="Path 2685" d="M1357.924,717.19a.69.69,0,0,1-.2-.03l-4.079-1.227a.693.693,0,1,1,.4-1.328l4.079,1.227a.693.693,0,0,1-.2,1.357Z" transform="translate(-1353.151 -714.577)" fill="#00e1d3" stroke="rgba(0,0,0,0)" stroke-width="1"/>
        </g>
        <g id="Group_1204" data-name="Group 1204">
          <path id="Path_2686" data-name="Path 2686" d="M1140.57,651.83a.694.694,0,0,1-.2-.03l-4.079-1.227a.693.693,0,1,1,.4-1.328l4.079,1.227a.693.693,0,0,1-.2,1.357Z" transform="translate(-1135.797 -649.217)" fill="#00e1d3" stroke="rgba(0,0,0,0)" stroke-width="1"/>
        </g>
      </g>
      <g id="Group_1208" data-name="Group 1208" transform="translate(4.078 0.647)">
        <g id="Group_1206" data-name="Group 1206" transform="translate(5.959 11.085)">
          <path id="Path_2687" data-name="Path 2687" d="M1319.522,764.222a.693.693,0,0,1-.611-.365l-2.017-3.752a.693.693,0,0,1,1.221-.656l2.017,3.752a.693.693,0,0,1-.61,1.021Z" transform="translate(-1316.811 -759.084)" fill="#00e1d3" stroke="rgba(0,0,0,0)" stroke-width="1"/>
        </g>
        <g id="Group_1207" data-name="Group 1207">
          <path id="Path_2688" data-name="Path 2688" d="M1212.046,564.31a.693.693,0,0,1-.611-.365l-2.017-3.752a.693.693,0,1,1,1.221-.656l2.017,3.752a.693.693,0,0,1-.61,1.021Z" transform="translate(-1209.336 -559.172)" fill="#00e1d3" stroke="rgba(0,0,0,0)" stroke-width="1"/>
        </g>
      </g>
    </g>
    <g id="Group_1210" data-name="Group 1210" transform="translate(564.74 673.532)">
      <path id="Path_2689" data-name="Path 2689" d="M1065.407,2820.45a4.142,4.142,0,0,1-4.38,3.783,4.384,4.384,0,0,1,2.716,5.218s2.023-4.328,4.5-4.1C1068.24,2825.347,1065.07,2823.71,1065.407,2820.45Z" transform="translate(-1061.028 -2820.45)" fill="#00e1d3" stroke="rgba(0,0,0,0)" stroke-width="1"/>
    </g>
    <g id="Group_1211" data-name="Group 1211" transform="translate(663.285 683.333)">
      <circle id="Ellipse_277" data-name="Ellipse 277" cx="1.584" cy="1.584" r="1.584" transform="translate(0 0)" fill="#00e1d3" stroke="rgba(0,0,0,0)" stroke-width="1"/>
    </g>
    <g id="Group_1212" data-name="Group 1212" transform="translate(651.966 669.927)">
      <path id="Path_2690" data-name="Path 2690" d="M2638.294,2755.432a3.964,3.964,0,0,1-4.192,3.621,4.2,4.2,0,0,1,2.6,4.995s1.937-4.143,4.3-3.928C2641.006,2760.12,2637.972,2758.552,2638.294,2755.432Z" transform="translate(-2634.102 -2755.432)" fill="#00e1d3" stroke="rgba(0,0,0,0)" stroke-width="1"/>
    </g>
    <g id="Group_1213" data-name="Group 1213" transform="translate(662.453 586.048)">
      <circle id="Ellipse_278" data-name="Ellipse 278" cx="1.584" cy="1.584" r="1.584" transform="translate(0 0)" fill="#01c0cf" stroke="rgba(0,0,0,0)" stroke-miterlimit="10" stroke-width="1"/>
    </g>
    <g id="Group_1214" data-name="Group 1214" transform="translate(591.604 576.316)">
      <path id="Path_2691" data-name="Path 2691" d="M1545.5,1072.675l2.069,1.2a7.233,7.233,0,0,1,5.278-4.279l-.589-2.388A8.924,8.924,0,0,0,1545.5,1072.675Z" transform="translate(-1545.502 -1067.208)" fill="#00e1d3" stroke="rgba(0,0,0,0)" stroke-miterlimit="10" stroke-width="1"/>
    </g>
    <g id="Group_1215" data-name="Group 1215" transform="translate(541.1 637.205)">
      <path id="Path_2692" data-name="Path 2692" d="M634.7,2166.177l2.229-.869a7.233,7.233,0,0,0,4.561,5.036l-.948,2.27A8.923,8.923,0,0,1,634.7,2166.177Z" transform="translate(-634.701 -2165.308)" fill="#19b5fe" stroke="rgba(0,0,0,0)" stroke-miterlimit="10" stroke-width="1"/>
    </g>
    <g id="Group_1216" data-name="Group 1216" transform="translate(677.471 659.212)">
      <path id="Path_2693" data-name="Path 2693" d="M3100.837,2567.517l.383-2.142a6.58,6.58,0,0,1-5.3-3.183l-1.858,1.246A8.118,8.118,0,0,0,3100.837,2567.517Z" transform="translate(-3094.063 -2562.192)" fill="#ccf3f5" stroke="rgba(0,0,0,0)" stroke-miterlimit="10" stroke-width="1"/>
    </g>
    <g id="Group_1217" data-name="Group 1217" transform="translate(562.358 584.646)">
      <circle id="Ellipse_279" data-name="Ellipse 279" cx="1.584" cy="1.584" r="1.584" transform="translate(0 0)" fill="#01c0cf" stroke="rgba(0,0,0,0)" stroke-width="1"/>
    </g>
    <g id="Group_1218" data-name="Group 1218" transform="translate(669.388 597.854)">
      <path id="Path_2694" data-name="Path 2694" d="M2954.233,1456.315l-2.07-.672a6.58,6.58,0,0,1-3.877,4.814l.98,2.011A8.118,8.118,0,0,0,2954.233,1456.315Z" transform="translate(-2948.286 -1455.643)" fill="#00b3d5" stroke="rgba(0,0,0,0)" stroke-miterlimit="10" stroke-width="1"/>
    </g>
    <g id="Group_1219" data-name="Group 1219" transform="translate(551.669 657.316)">
      <path id="Path_2695" data-name="Path 2695" d="M830.364,2528l1.063,1.9a6.58,6.58,0,0,0-3.963,4.743l-2.164-.568A8.119,8.119,0,0,1,830.364,2528Z" transform="translate(-825.3 -2528.002)" fill="#ffca28" stroke="rgba(0,0,0,0)" stroke-miterlimit="10" stroke-width="1"/>
    </g>
    <g id="Group_1220" data-name="Group 1220" transform="translate(623.721 570.2)">
      <path id="Path_2696" data-name="Path 2696" d="M2128.9,956.918l-2.175.071a6.58,6.58,0,0,1-2.012,5.844l1.6,1.559A8.118,8.118,0,0,0,2128.9,956.918Z" transform="translate(-2124.709 -956.918)" fill="#00b3d5" stroke="rgba(0,0,0,0)" stroke-miterlimit="10" stroke-width="1"/>
    </g>
    <g id="Group_1221" data-name="Group 1221" transform="translate(634.645 638.452)">
      <path id="Path_2697" data-name="Path 2697" d="M2328.489,2193.119l.383-2.142a6.58,6.58,0,0,1-5.3-3.183l-1.859,1.246A8.118,8.118,0,0,0,2328.489,2193.119Z" transform="translate(-2321.714 -2187.794)" fill="#ff5722" stroke="rgba(0,0,0,0)" stroke-miterlimit="10" stroke-width="1"/>
    </g>
    <g id="Group_1222" data-name="Group 1222" transform="translate(607.031 552.936)">
      <path id="Path_2698" data-name="Path 2698" d="M1830.491,650.884l.382-2.142a6.58,6.58,0,0,1-5.3-3.183l-1.859,1.246A8.118,8.118,0,0,0,1830.491,650.884Z" transform="translate(-1823.716 -645.559)" fill="#ccf3f5" stroke="rgba(0,0,0,0)" stroke-miterlimit="10" stroke-width="1"/>
    </g>
  </g>
</svg>
