<svg xmlns="http://www.w3.org/2000/svg" width="294" height="96.369" viewBox="0 0 294 96.369">
  <g id="steps" transform="translate(12964.995 19327.348)">
    <g id="Step_3" data-name="Step 3" transform="translate(-12726.993 -19327)">
      <path id="Path_3185" data-name="Path 3185" d="M2.421.072a.436.436,0,0,1-.4-.18.711.711,0,0,1-.072-.5l.369-2.3L.837-5.6A.58.58,0,0,1,.8-6.165a.492.492,0,0,1,.481-.252.562.562,0,0,1,.338.1,1.036,1.036,0,0,1,.265.338l1.1,2.051L4.824-6.057a1.324,1.324,0,0,1,.315-.284.667.667,0,0,1,.333-.077.49.49,0,0,1,.356.126.42.42,0,0,1,.131.315A.583.583,0,0,1,5.8-5.6L3.474-2.925,3.087-.5a.609.609,0,0,1-.211.428.609.609,0,0,1-.455.144Zm4.8.018A2.076,2.076,0,0,1,5.7-.45,1.94,1.94,0,0,1,5.148-1.9a2.741,2.741,0,0,1,.328-1.373,2.345,2.345,0,0,1,.887-.9A2.437,2.437,0,0,1,7.6-4.491a2.076,2.076,0,0,1,1.521.54A1.94,1.94,0,0,1,9.666-2.5a2.741,2.741,0,0,1-.329,1.37,2.355,2.355,0,0,1-.882.9A2.43,2.43,0,0,1,7.218.09Zm.027-.855A1.059,1.059,0,0,0,7.943-1a1.489,1.489,0,0,0,.436-.639,2.529,2.529,0,0,0,.153-.9,1.174,1.174,0,0,0-.257-.815.9.9,0,0,0-.706-.283,1.064,1.064,0,0,0-.693.234,1.474,1.474,0,0,0-.441.635,2.52,2.52,0,0,0-.153.9,1.174,1.174,0,0,0,.257.815.9.9,0,0,0,.706.288Zm4.56.855a1.342,1.342,0,0,1-1.089-.45,1.734,1.734,0,0,1-.225-1.413l.351-2.178a.556.556,0,0,1,.194-.392.556.556,0,0,1,.418-.13.5.5,0,0,1,.41.162.571.571,0,0,1,.085.459l-.324,2.07a1.128,1.128,0,0,0,.076.738.6.6,0,0,0,.554.243,1.076,1.076,0,0,0,.819-.333,1.658,1.658,0,0,0,.4-.909l.3-1.908a.556.556,0,0,1,.194-.392.556.556,0,0,1,.418-.13.486.486,0,0,1,.414.167.6.6,0,0,1,.081.463L14.355-.459a.559.559,0,0,1-.192.4.559.559,0,0,1-.42.134q-.558,0-.477-.585l.027-.171A1.673,1.673,0,0,1,11.808.09Zm7.578,0a1.5,1.5,0,0,1-.738-.185,1.506,1.506,0,0,1-.535-.491,1.212,1.212,0,0,1-.2-.684,1.078,1.078,0,0,1,.6-1.017,4.118,4.118,0,0,1,1.876-.324h.621l.027-.162A.74.74,0,0,0,20.9-3.42a.919.919,0,0,0-.706-.225,2.8,2.8,0,0,0-.576.059,2.769,2.769,0,0,0-.576.194.464.464,0,0,1-.365.027.4.4,0,0,1-.225-.211.373.373,0,0,1,0-.315.573.573,0,0,1,.324-.274,3.433,3.433,0,0,1,.787-.247,4.2,4.2,0,0,1,.77-.076,2.048,2.048,0,0,1,1.116.261A1.293,1.293,0,0,1,22-3.519a2.22,2.22,0,0,1,.054,1.026l-.31,2.007a.569.569,0,0,1-.186.411.569.569,0,0,1-.426.147.432.432,0,0,1-.365-.158.6.6,0,0,1-.076-.464l.018-.09a1.388,1.388,0,0,1-.58.553,1.657,1.657,0,0,1-.743.177Zm.351-.774a1.088,1.088,0,0,0,.738-.275,1.186,1.186,0,0,0,.387-.743l.045-.261h-.468a3.276,3.276,0,0,0-1.111.131.485.485,0,0,0-.32.49.589.589,0,0,0,.212.486.8.8,0,0,0,.517.172Zm3.627.747a.433.433,0,0,1-.382-.176A.659.659,0,0,1,22.9-.594l.522-3.321a.587.587,0,0,1,.2-.419.587.587,0,0,1,.445-.139.435.435,0,0,1,.369.153.6.6,0,0,1,.072.459l-.027.162a1.677,1.677,0,0,1,1.53-.792,1.36,1.36,0,0,1,1.1.445,1.72,1.72,0,0,1,.225,1.409L27.009-.5a.587.587,0,0,1-.2.419.587.587,0,0,1-.445.139.444.444,0,0,1-.387-.176A.644.644,0,0,1,25.893-.6l.324-2.025q.162-.99-.648-.99a1.124,1.124,0,0,0-.851.333,1.64,1.64,0,0,0-.41.909L24.012-.5a.587.587,0,0,1-.2.422.587.587,0,0,1-.446.141ZM29.817.09a1.527,1.527,0,0,1-1.2-.513,2.015,2.015,0,0,1-.455-1.386,3.371,3.371,0,0,1,.266-1.364,2.266,2.266,0,0,1,.765-.963,1.988,1.988,0,0,1,1.184-.356,1.646,1.646,0,0,1,.841.212,1.3,1.3,0,0,1,.545.625l.351-2.232a.578.578,0,0,1,.21-.4.578.578,0,0,1,.438-.126.447.447,0,0,1,.382.162.633.633,0,0,1,.076.477L32.382-.5a.606.606,0,0,1-.2.424.606.606,0,0,1-.445.152.4.4,0,0,1-.373-.185A.7.7,0,0,1,31.3-.6l.018-.108a1.878,1.878,0,0,1-.635.585,1.735,1.735,0,0,1-.866.213Zm.441-.855a1.047,1.047,0,0,0,.7-.238,1.526,1.526,0,0,0,.437-.639,2.493,2.493,0,0,0,.153-.9,1.174,1.174,0,0,0-.257-.815.9.9,0,0,0-.706-.283,1.064,1.064,0,0,0-.693.234,1.474,1.474,0,0,0-.441.635,2.52,2.52,0,0,0-.153.9,1.174,1.174,0,0,0,.257.815.9.9,0,0,0,.7.291Zm6.534,2.457a.418.418,0,0,1-.423-.211A.5.5,0,0,1,36.432,1l.72-1.179L36.18-3.7a.655.655,0,0,1,.058-.558.514.514,0,0,1,.454-.216.506.506,0,0,1,.356.112.767.767,0,0,1,.184.4l.639,2.637L39.437-4.07a.967.967,0,0,1,.261-.31.6.6,0,0,1,.351-.095.438.438,0,0,1,.432.211.5.5,0,0,1-.054.49L37.4,1.287a.967.967,0,0,1-.261.311.6.6,0,0,1-.347.094ZM42.723.09A2.076,2.076,0,0,1,41.2-.45a1.94,1.94,0,0,1-.547-1.45,2.742,2.742,0,0,1,.328-1.373,2.345,2.345,0,0,1,.887-.9A2.437,2.437,0,0,1,43.1-4.491a2.076,2.076,0,0,1,1.521.54,1.94,1.94,0,0,1,.55,1.451,2.741,2.741,0,0,1-.329,1.373,2.355,2.355,0,0,1-.882.9A2.43,2.43,0,0,1,42.723.09Zm.027-.855A1.059,1.059,0,0,0,43.45-1a1.489,1.489,0,0,0,.437-.639,2.529,2.529,0,0,0,.153-.9,1.174,1.174,0,0,0-.257-.815.9.9,0,0,0-.706-.283,1.064,1.064,0,0,0-.693.234,1.474,1.474,0,0,0-.441.635,2.519,2.519,0,0,0-.153.9,1.174,1.174,0,0,0,.257.815.9.9,0,0,0,.7.287ZM47.313.09a1.342,1.342,0,0,1-1.089-.45A1.734,1.734,0,0,1,46-1.773l.351-2.178a.556.556,0,0,1,.194-.392.556.556,0,0,1,.418-.13.5.5,0,0,1,.41.162.571.571,0,0,1,.085.459l-.324,2.07a1.128,1.128,0,0,0,.076.738.6.6,0,0,0,.553.243,1.076,1.076,0,0,0,.819-.333,1.658,1.658,0,0,0,.4-.909l.3-1.908a.556.556,0,0,1,.194-.392.556.556,0,0,1,.418-.13.486.486,0,0,1,.414.167.6.6,0,0,1,.081.463L49.86-.459a.559.559,0,0,1-.192.4.559.559,0,0,1-.42.134q-.558,0-.477-.585L48.8-.684A1.673,1.673,0,0,1,47.313.09ZM51.507.072a.452.452,0,0,1-.391-.167.629.629,0,0,1-.076-.473l.531-3.366a.571.571,0,0,1,.2-.406.571.571,0,0,1,.431-.134.447.447,0,0,1,.382.162.615.615,0,0,1,.076.468l-.027.18a1.555,1.555,0,0,1,.585-.589,1.891,1.891,0,0,1,.846-.239.426.426,0,0,1,.338.072.423.423,0,0,1,.085.3.609.609,0,0,1-.135.436.656.656,0,0,1-.423.167l-.261.027a1.274,1.274,0,0,0-.864.364,1.685,1.685,0,0,0-.351.842L52.164-.468a.586.586,0,0,1-.212.411.586.586,0,0,1-.445.129Z" transform="translate(0.877 70.307)" fill="#565656"/>
      <path id="Path_3186" data-name="Path 3186" d="M1.089.072A.433.433,0,0,1,.707-.1.659.659,0,0,1,.63-.585l.477-2.97H.729q-.441,0-.441-.342a.49.49,0,0,1,.14-.369A.514.514,0,0,1,.8-4.4h.432l.036-.216A2.06,2.06,0,0,1,1.88-5.84,2.256,2.256,0,0,1,3.3-6.354l.288-.018a.367.367,0,0,1,.329.1.405.405,0,0,1,.1.283.53.53,0,0,1-.095.292.344.344,0,0,1-.261.148l-.243.018a1.182,1.182,0,0,0-.711.252,1.061,1.061,0,0,0-.315.639l-.034.24h.711q.441,0,.441.333a.5.5,0,0,1-.14.378A.514.514,0,0,1,3-3.555H2.232L1.746-.486a.6.6,0,0,1-.21.418.6.6,0,0,1-.447.14Zm2.979,0A.452.452,0,0,1,3.677-.1.629.629,0,0,1,3.6-.567l.531-3.366a.571.571,0,0,1,.2-.406.571.571,0,0,1,.431-.134.447.447,0,0,1,.383.162.615.615,0,0,1,.076.468l-.027.18a1.555,1.555,0,0,1,.585-.589,1.891,1.891,0,0,1,.846-.239.426.426,0,0,1,.338.072.423.423,0,0,1,.085.3.609.609,0,0,1-.135.436.656.656,0,0,1-.423.167l-.261.027a1.274,1.274,0,0,0-.864.364,1.685,1.685,0,0,0-.351.842L4.725-.468a.586.586,0,0,1-.212.411.586.586,0,0,1-.445.129ZM8.451-5.3A.619.619,0,0,1,8-5.45a.492.492,0,0,1-.122-.418.664.664,0,0,1,.245-.48.664.664,0,0,1,.52-.141.635.635,0,0,1,.459.148.464.464,0,0,1,.117.418.67.67,0,0,1-.247.481A.67.67,0,0,1,8.451-5.3ZM7.587.072A.433.433,0,0,1,7.2-.1a.659.659,0,0,1-.076-.482l.531-3.33a.6.6,0,0,1,.207-.415A.6.6,0,0,1,8.3-4.47a.437.437,0,0,1,.382.171.663.663,0,0,1,.076.486L8.235-.486a.6.6,0,0,1-.207.415.6.6,0,0,1-.441.143ZM11.619.09a2.538,2.538,0,0,1-1.156-.248,1.822,1.822,0,0,1-.76-.7,2.007,2.007,0,0,1-.27-1.053,2.751,2.751,0,0,1,.311-1.318,2.4,2.4,0,0,1,.859-.923,2.333,2.333,0,0,1,1.26-.342,2,2,0,0,1,.918.189,1.535,1.535,0,0,1,.585.508,1.858,1.858,0,0,1,.288.724,2.934,2.934,0,0,1,.027.828.318.318,0,0,1-.1.243.4.4,0,0,1-.225.054H10.485a1.1,1.1,0,0,0,.306.864,1.276,1.276,0,0,0,.927.315,2.8,2.8,0,0,0,.558-.059,1.723,1.723,0,0,0,.522-.194.429.429,0,0,1,.355-.076.358.358,0,0,1,.216.184.4.4,0,0,1,.018.3.555.555,0,0,1-.229.293,2.272,2.272,0,0,1-.747.306,3.568,3.568,0,0,1-.792.105Zm.234-3.816a1.192,1.192,0,0,0-.635.158,1.228,1.228,0,0,0-.414.419,1.793,1.793,0,0,0-.22.558h2.223a1.221,1.221,0,0,0-.189-.81.865.865,0,0,0-.765-.325ZM14.769.063a.433.433,0,0,1-.382-.176.659.659,0,0,1-.076-.481l.522-3.321a.587.587,0,0,1,.2-.419.587.587,0,0,1,.445-.139.435.435,0,0,1,.369.153.6.6,0,0,1,.072.459l-.027.162a1.677,1.677,0,0,1,1.53-.792,1.36,1.36,0,0,1,1.1.445,1.72,1.72,0,0,1,.225,1.409L18.414-.5a.587.587,0,0,1-.2.419.587.587,0,0,1-.445.139.444.444,0,0,1-.387-.176A.644.644,0,0,1,17.3-.594l.324-2.025q.162-.99-.648-.99a1.124,1.124,0,0,0-.851.333,1.64,1.64,0,0,0-.41.909L15.417-.5a.587.587,0,0,1-.2.422.587.587,0,0,1-.446.141ZM21.222.09a1.527,1.527,0,0,1-1.2-.513,2.015,2.015,0,0,1-.455-1.386,3.371,3.371,0,0,1,.266-1.364,2.266,2.266,0,0,1,.765-.963,1.988,1.988,0,0,1,1.184-.356,1.646,1.646,0,0,1,.841.212,1.3,1.3,0,0,1,.545.625l.351-2.232a.578.578,0,0,1,.21-.4.578.578,0,0,1,.438-.126.447.447,0,0,1,.382.162.633.633,0,0,1,.076.477L23.787-.5a.606.606,0,0,1-.2.424.606.606,0,0,1-.445.152.4.4,0,0,1-.374-.185A.7.7,0,0,1,22.707-.6l.018-.108a1.878,1.878,0,0,1-.635.585,1.735,1.735,0,0,1-.868.213Zm.441-.855A1.047,1.047,0,0,0,22.36-1a1.526,1.526,0,0,0,.437-.639,2.493,2.493,0,0,0,.153-.9,1.174,1.174,0,0,0-.257-.815.9.9,0,0,0-.706-.283,1.064,1.064,0,0,0-.693.234,1.474,1.474,0,0,0-.441.635,2.52,2.52,0,0,0-.153.9,1.174,1.174,0,0,0,.257.815.9.9,0,0,0,.706.288ZM26.676.09a3.371,3.371,0,0,1-1.521-.315A.51.51,0,0,1,24.889-.5a.451.451,0,0,1,0-.32.368.368,0,0,1,.207-.216.411.411,0,0,1,.355.045A2.7,2.7,0,0,0,26.676-.7a1.123,1.123,0,0,0,.648-.158.487.487,0,0,0,.225-.418q0-.36-.5-.459l-.828-.171a1.4,1.4,0,0,1-.769-.392,1.03,1.03,0,0,1-.274-.733,1.251,1.251,0,0,1,.229-.734,1.58,1.58,0,0,1,.675-.527,2.638,2.638,0,0,1,1.076-.2,3.136,3.136,0,0,1,.7.086,2.2,2.2,0,0,1,.643.247.487.487,0,0,1,.243.279.415.415,0,0,1-.022.3.356.356,0,0,1-.221.189.467.467,0,0,1-.36-.058A2.182,2.182,0,0,0,27.108-3.7a1.156,1.156,0,0,0-.675.167A.512.512,0,0,0,26.2-3.1a.407.407,0,0,0,.1.279.576.576,0,0,0,.329.162l.828.171q1.107.234,1.107,1.125a1.248,1.248,0,0,1-.517,1.071A2.275,2.275,0,0,1,26.676.09Zm7.1,1.62a4.162,4.162,0,0,1-1.021-.122,3.3,3.3,0,0,1-.841-.329.47.47,0,0,1-.229-.283.426.426,0,0,1,.035-.31.421.421,0,0,1,.239-.2.43.43,0,0,1,.36.049,3.189,3.189,0,0,0,.617.248,2.446,2.446,0,0,0,.68.1,1.447,1.447,0,0,0,.873-.243,1.153,1.153,0,0,0,.423-.783l.108-.666a1.564,1.564,0,0,1-.612.54,1.845,1.845,0,0,1-.837.189A1.737,1.737,0,0,1,32.292-.59a1.784,1.784,0,0,1-.486-1.328A2.971,2.971,0,0,1,32.08-3.2a2.347,2.347,0,0,1,.778-.94A2.008,2.008,0,0,1,34.046-4.5a1.744,1.744,0,0,1,.86.207,1.217,1.217,0,0,1,.544.621l.045-.27a.576.576,0,0,1,.2-.408.576.576,0,0,1,.436-.132.413.413,0,0,1,.374.171.7.7,0,0,1,.067.486L36.009-.234a2.335,2.335,0,0,1-.7,1.445,2.211,2.211,0,0,1-1.532.5ZM33.92-.963a1.124,1.124,0,0,0,.715-.23A1.437,1.437,0,0,0,35.08-1.8a2.2,2.2,0,0,0,.153-.824,1.028,1.028,0,0,0-.257-.738.964.964,0,0,0-.733-.27,1.11,1.11,0,0,0-.707.23,1.441,1.441,0,0,0-.445.607,2.162,2.162,0,0,0-.153.819,1.041,1.041,0,0,0,.257.747.952.952,0,0,0,.726.271ZM39.429.09a2.538,2.538,0,0,1-1.157-.248,1.822,1.822,0,0,1-.76-.7,2.007,2.007,0,0,1-.27-1.053,2.751,2.751,0,0,1,.311-1.318,2.4,2.4,0,0,1,.859-.923,2.333,2.333,0,0,1,1.26-.342,2,2,0,0,1,.918.189,1.535,1.535,0,0,1,.585.508,1.858,1.858,0,0,1,.288.724,2.934,2.934,0,0,1,.027.828.318.318,0,0,1-.1.243.4.4,0,0,1-.225.054h-2.87a1.1,1.1,0,0,0,.306.864,1.276,1.276,0,0,0,.927.315,2.8,2.8,0,0,0,.558-.059,1.723,1.723,0,0,0,.522-.194.429.429,0,0,1,.355-.076.358.358,0,0,1,.216.184.4.4,0,0,1,.018.3.555.555,0,0,1-.229.293,2.272,2.272,0,0,1-.747.306,3.568,3.568,0,0,1-.792.105Zm.234-3.816a1.192,1.192,0,0,0-.635.158,1.228,1.228,0,0,0-.414.419,1.793,1.793,0,0,0-.221.558h2.223a1.221,1.221,0,0,0-.189-.81.865.865,0,0,0-.764-.325ZM44.091.09a1.563,1.563,0,0,1-1.278-.482,1.515,1.515,0,0,1-.279-1.247l.306-1.917h-.4q-.459,0-.459-.36a.44.44,0,0,1,.153-.36.632.632,0,0,1,.414-.126h.423l.135-.864a.556.556,0,0,1,.194-.392.556.556,0,0,1,.418-.13.493.493,0,0,1,.414.162.584.584,0,0,1,.081.459L44.1-4.4h.882q.468,0,.468.351a.482.482,0,0,1-.139.355.517.517,0,0,1-.382.14h-.963l-.3,1.845a.785.785,0,0,0,.117.671.691.691,0,0,0,.531.2.97.97,0,0,0,.257-.027.67.67,0,0,1,.184-.027.232.232,0,0,1,.185.067A.388.388,0,0,1,45-.576a.672.672,0,0,1-.1.423.567.567,0,0,1-.27.171,1.324,1.324,0,0,1-.261.054,2.4,2.4,0,0,1-.278.018Z" transform="translate(5.386 82.307)" fill="#565656"/>
      <path id="Path_3187" data-name="Path 3187" d="M.792.072A.452.452,0,0,1,.4-.095.629.629,0,0,1,.324-.567L.855-3.933a.571.571,0,0,1,.2-.406.571.571,0,0,1,.431-.134.447.447,0,0,1,.383.162.615.615,0,0,1,.076.468l-.027.18a1.555,1.555,0,0,1,.583-.59,1.891,1.891,0,0,1,.846-.239.426.426,0,0,1,.338.072.423.423,0,0,1,.086.3.609.609,0,0,1-.135.436.656.656,0,0,1-.423.167l-.261.027a1.274,1.274,0,0,0-.864.364,1.685,1.685,0,0,0-.351.842L1.449-.468a.586.586,0,0,1-.212.411A.586.586,0,0,1,.792.072ZM5.976.09A2.538,2.538,0,0,1,4.819-.157a1.822,1.822,0,0,1-.76-.7,2.007,2.007,0,0,1-.27-1.053A2.751,2.751,0,0,1,4.1-3.227a2.4,2.4,0,0,1,.86-.923,2.333,2.333,0,0,1,1.26-.342,2,2,0,0,1,.918.189,1.535,1.535,0,0,1,.585.508,1.858,1.858,0,0,1,.288.724,2.934,2.934,0,0,1,.027.828.318.318,0,0,1-.1.243.4.4,0,0,1-.225.054H4.842a1.1,1.1,0,0,0,.306.864,1.276,1.276,0,0,0,.927.315,2.8,2.8,0,0,0,.558-.059,1.723,1.723,0,0,0,.522-.194A.429.429,0,0,1,7.511-1.1a.358.358,0,0,1,.216.184.4.4,0,0,1,.018.3.555.555,0,0,1-.229.293,2.272,2.272,0,0,1-.747.306,3.568,3.568,0,0,1-.793.1ZM6.21-3.726a1.192,1.192,0,0,0-.635.158,1.228,1.228,0,0,0-.414.419,1.793,1.793,0,0,0-.22.558H7.164a1.221,1.221,0,0,0-.189-.81.865.865,0,0,0-.765-.325ZM10.2.072a.575.575,0,0,1-.378-.126A.7.7,0,0,1,9.6-.45L8.838-3.7A.688.688,0,0,1,8.9-4.257a.5.5,0,0,1,.45-.216.445.445,0,0,1,.329.112.746.746,0,0,1,.166.383l.54,2.646L11.871-4.14a.573.573,0,0,1,.531-.333.462.462,0,0,1,.3.1.53.53,0,0,1,.167.315l.567,2.781,1.458-2.781a.887.887,0,0,1,.261-.324.64.64,0,0,1,.36-.09.423.423,0,0,1,.423.2.511.511,0,0,1-.054.481L13.995-.351a.723.723,0,0,1-.675.423.579.579,0,0,1-.6-.522L12.2-2.835,10.881-.369A.728.728,0,0,1,10.2.072ZM17.586.09a1.5,1.5,0,0,1-.738-.185,1.506,1.506,0,0,1-.535-.491,1.212,1.212,0,0,1-.2-.684,1.078,1.078,0,0,1,.6-1.017,4.118,4.118,0,0,1,1.876-.324h.621l.027-.162A.74.74,0,0,0,19.1-3.42a.919.919,0,0,0-.706-.225,2.8,2.8,0,0,0-.576.059,2.769,2.769,0,0,0-.576.194.464.464,0,0,1-.365.027.4.4,0,0,1-.225-.211.373.373,0,0,1,0-.315.573.573,0,0,1,.324-.274,3.433,3.433,0,0,1,.787-.247,4.2,4.2,0,0,1,.77-.076,2.048,2.048,0,0,1,1.116.261,1.293,1.293,0,0,1,.549.711,2.22,2.22,0,0,1,.054,1.026l-.308,2a.569.569,0,0,1-.186.411.569.569,0,0,1-.426.147.432.432,0,0,1-.365-.158.6.6,0,0,1-.076-.464l.018-.09a1.388,1.388,0,0,1-.58.553,1.657,1.657,0,0,1-.743.177Zm.351-.774a1.088,1.088,0,0,0,.738-.275,1.186,1.186,0,0,0,.387-.743l.045-.261h-.468a3.276,3.276,0,0,0-1.111.131.485.485,0,0,0-.32.49.589.589,0,0,0,.212.486A.8.8,0,0,0,17.937-.684Zm3.627.756A.452.452,0,0,1,21.172-.1.629.629,0,0,1,21.1-.567l.531-3.366a.571.571,0,0,1,.2-.406.571.571,0,0,1,.431-.134.447.447,0,0,1,.382.162.615.615,0,0,1,.076.468l-.027.18a1.555,1.555,0,0,1,.585-.589,1.891,1.891,0,0,1,.846-.239.426.426,0,0,1,.338.072.423.423,0,0,1,.085.3.609.609,0,0,1-.135.436.656.656,0,0,1-.423.167l-.261.027a1.274,1.274,0,0,0-.864.364,1.685,1.685,0,0,0-.351.842L22.221-.468a.586.586,0,0,1-.212.411.586.586,0,0,1-.445.129ZM26.208.09a1.527,1.527,0,0,1-1.2-.513,2.015,2.015,0,0,1-.455-1.386,3.371,3.371,0,0,1,.266-1.364,2.266,2.266,0,0,1,.765-.963,1.988,1.988,0,0,1,1.184-.356,1.646,1.646,0,0,1,.841.212,1.3,1.3,0,0,1,.545.625L28.5-5.886a.578.578,0,0,1,.21-.4.578.578,0,0,1,.438-.126.447.447,0,0,1,.382.162.633.633,0,0,1,.076.477L28.773-.5a.606.606,0,0,1-.2.424.606.606,0,0,1-.445.152.4.4,0,0,1-.374-.185A.7.7,0,0,1,27.693-.6l.018-.108a1.878,1.878,0,0,1-.635.585,1.735,1.735,0,0,1-.868.213Zm.441-.855a1.047,1.047,0,0,0,.7-.238,1.526,1.526,0,0,0,.437-.639,2.493,2.493,0,0,0,.153-.9,1.174,1.174,0,0,0-.257-.815.9.9,0,0,0-.706-.283,1.064,1.064,0,0,0-.693.234,1.474,1.474,0,0,0-.441.635,2.52,2.52,0,0,0-.153.9,1.174,1.174,0,0,0,.257.815.9.9,0,0,0,.7.291Zm5.5.855a2.538,2.538,0,0,1-1.156-.248,1.822,1.822,0,0,1-.76-.7,2.007,2.007,0,0,1-.27-1.053,2.751,2.751,0,0,1,.31-1.318,2.4,2.4,0,0,1,.86-.923,2.333,2.333,0,0,1,1.26-.342,2,2,0,0,1,.918.189A1.535,1.535,0,0,1,33.9-3.8a1.858,1.858,0,0,1,.288.724,2.934,2.934,0,0,1,.027.828.318.318,0,0,1-.1.243.4.4,0,0,1-.225.054H31.014a1.1,1.1,0,0,0,.306.864,1.276,1.276,0,0,0,.927.315A2.8,2.8,0,0,0,32.8-.828a1.723,1.723,0,0,0,.522-.194.429.429,0,0,1,.355-.076.358.358,0,0,1,.216.184.4.4,0,0,1,.018.3.555.555,0,0,1-.229.293,2.272,2.272,0,0,1-.747.306,3.568,3.568,0,0,1-.792.1Zm.234-3.816a1.192,1.192,0,0,0-.635.158,1.228,1.228,0,0,0-.414.419,1.793,1.793,0,0,0-.22.558h2.223a1.221,1.221,0,0,0-.189-.81.865.865,0,0,0-.766-.325ZM36.486.09a1.527,1.527,0,0,1-1.2-.513,2.015,2.015,0,0,1-.454-1.386A3.371,3.371,0,0,1,35.1-3.173a2.266,2.266,0,0,1,.765-.963,1.988,1.988,0,0,1,1.184-.356,1.646,1.646,0,0,1,.841.212,1.3,1.3,0,0,1,.544.625l.351-2.232a.578.578,0,0,1,.21-.4.578.578,0,0,1,.438-.126.447.447,0,0,1,.382.162.633.633,0,0,1,.076.477L39.051-.5a.606.606,0,0,1-.205.423A.606.606,0,0,1,38.4.072a.4.4,0,0,1-.374-.185A.7.7,0,0,1,37.971-.6l.018-.108a1.878,1.878,0,0,1-.635.585,1.735,1.735,0,0,1-.868.213Zm.441-.855a1.047,1.047,0,0,0,.7-.238,1.526,1.526,0,0,0,.437-.639,2.493,2.493,0,0,0,.153-.9,1.174,1.174,0,0,0-.257-.815.9.9,0,0,0-.707-.283,1.064,1.064,0,0,0-.693.234,1.474,1.474,0,0,0-.441.635,2.519,2.519,0,0,0-.153.9,1.174,1.174,0,0,0,.257.815.9.9,0,0,0,.7.291Z" transform="translate(8.045 94.307)" fill="#565656"/>
      <g id="Back" transform="translate(-0.002 0.307)" fill="#1d6cba" stroke="#f2f7fb" stroke-width="1">
        <circle cx="28" cy="28" r="28" stroke="none"/>
        <circle cx="28" cy="28" r="27.5" fill="none"/>
      </g>
      <g id="Back-2" data-name="Back" transform="translate(0.152 0.152)">
        <path id="Path_3181" data-name="Path 3181" d="M7.913,15.327a7.413,7.413,0,1,1,7.413-7.413,7.413,7.413,0,0,1-7.413,7.413Z" fill="#1d6cba"/>
        <path id="Path_3182" data-name="Path 3182" d="M7.913,1a6.913,6.913,0,1,0,6.913,6.913A6.913,6.913,0,0,0,7.913,1m0-1A7.913,7.913,0,1,1,0,7.913,7.913,7.913,0,0,1,7.913,0Z" fill="#f2f7fb"/>
      </g>
      <path id="_3" data-name="3" d="M5.862-24.359A1.81,1.81,0,0,0,6.741-25.9a2.312,2.312,0,0,0-.752-1.619,2.312,2.312,0,0,0-1.681-.6,2.315,2.315,0,0,0-1.687.6A2.315,2.315,0,0,0,1.864-25.9l1.577.034a.8.8,0,0,1,.278-.553.8.8,0,0,1,.589-.19.893.893,0,0,1,.668.233.893.893,0,0,1,.289.645A.954.954,0,0,1,5-25.025a.954.954,0,0,1-.693.294H3.734l.011,1.3H4.41a1.161,1.161,0,0,1,.848.356,1.161,1.161,0,0,1,.323.86,1.173,1.173,0,0,1-.32.869,1.173,1.173,0,0,1-.851.366,1.068,1.068,0,0,1-1.171-.946l-1.61.023a2.618,2.618,0,0,0,.881,1.8,2.618,2.618,0,0,0,1.9.65,2.74,2.74,0,0,0,1.971-.794,2.74,2.74,0,0,0,.811-1.965,2.428,2.428,0,0,0-1.33-2.151Z" transform="translate(3.546 31.772)" fill="#fff"/>
      <path id="Earn" d="M26.1,22.71a6.583,6.583,0,0,1-1.722,4.56,7.432,7.432,0,0,1-4.473,2.362V32.66a.533.533,0,0,1-.554.554H17.018a.562.562,0,0,1-.554-.554V29.632a10.908,10.908,0,0,1-2.206-.536,10.627,10.627,0,0,1-3.037-1.6,9.863,9.863,0,0,1-.8-.649,3.914,3.914,0,0,1-.3-.312.526.526,0,0,1-.035-.71l1.782-2.336a.539.539,0,0,1,.4-.208.429.429,0,0,1,.415.156l.035.035a9.036,9.036,0,0,0,4.2,2.163,6.044,6.044,0,0,0,1.281.138,4.2,4.2,0,0,0,2.466-.744,2.424,2.424,0,0,0,1.064-2.111,1.754,1.754,0,0,0-.26-.917,3.242,3.242,0,0,0-.58-.727,4.749,4.749,0,0,0-1.012-.649q-.692-.355-1.142-.554t-1.384-.562q-.675-.277-1.064-.433t-1.064-.459a11.693,11.693,0,0,1-1.082-.536q-.407-.236-.978-.614a6.094,6.094,0,0,1-.926-.735,10.786,10.786,0,0,1-.753-.848,4.233,4.233,0,0,1-.614-1,6.94,6.94,0,0,1-.363-1.151,6.006,6.006,0,0,1-.147-1.35,5.917,5.917,0,0,1,1.7-4.188,7.918,7.918,0,0,1,4.413-2.319V2.757a.562.562,0,0,1,.554-.554h2.336a.533.533,0,0,1,.554.554V5.8a9.626,9.626,0,0,1,1.912.4,11.087,11.087,0,0,1,1.506.58,8.338,8.338,0,0,1,1.1.649q.519.363.675.5t.26.242a.5.5,0,0,1,.087.658l-1.4,2.527a.471.471,0,0,1-.4.277.552.552,0,0,1-.467-.121q-.052-.052-.251-.208t-.675-.459a8.93,8.93,0,0,0-1.012-.554,7.729,7.729,0,0,0-1.289-.45,5.774,5.774,0,0,0-1.48-.2,4.5,4.5,0,0,0-2.682.744,2.326,2.326,0,0,0-.9,2.755,1.948,1.948,0,0,0,.51.718,7.626,7.626,0,0,0,.684.571,6.1,6.1,0,0,0,.969.536q.649.3,1.047.467t1.211.476q.917.346,1.4.545t1.315.606a10.454,10.454,0,0,1,1.307.735,11.049,11.049,0,0,1,1.073.865,4.481,4.481,0,0,1,.917,1.1,6.271,6.271,0,0,1,.545,1.324A5.709,5.709,0,0,1,26.1,22.71Z" transform="translate(9.984 10.153)" fill="#fff"/>
    </g>
    <g id="Step_2" data-name="Step 2" transform="translate(-12845.996 -19327)">
      <line id="Line" x2="50.828" transform="translate(62.089 28.152)" fill="none" stroke="#1d6cba" stroke-linecap="round" stroke-linejoin="round" stroke-width="2"/>
      <path id="Path_3188" data-name="Path 3188" d="M2.421.072a.436.436,0,0,1-.4-.18.711.711,0,0,1-.072-.5l.369-2.3L.837-5.6A.58.58,0,0,1,.8-6.165a.492.492,0,0,1,.481-.252.562.562,0,0,1,.338.1,1.036,1.036,0,0,1,.265.338l1.1,2.051L4.824-6.057a1.324,1.324,0,0,1,.315-.284.667.667,0,0,1,.333-.077.49.49,0,0,1,.356.126.42.42,0,0,1,.131.315A.583.583,0,0,1,5.8-5.6L3.474-2.925,3.087-.5a.609.609,0,0,1-.211.428.609.609,0,0,1-.455.144Zm4.8.018A2.076,2.076,0,0,1,5.7-.45,1.94,1.94,0,0,1,5.148-1.9a2.741,2.741,0,0,1,.328-1.373,2.345,2.345,0,0,1,.887-.9A2.437,2.437,0,0,1,7.6-4.491a2.076,2.076,0,0,1,1.521.54A1.94,1.94,0,0,1,9.666-2.5a2.741,2.741,0,0,1-.329,1.37,2.355,2.355,0,0,1-.882.9A2.43,2.43,0,0,1,7.218.09Zm.027-.855A1.059,1.059,0,0,0,7.943-1a1.489,1.489,0,0,0,.436-.639,2.529,2.529,0,0,0,.153-.9,1.174,1.174,0,0,0-.257-.815.9.9,0,0,0-.706-.283,1.064,1.064,0,0,0-.693.234,1.474,1.474,0,0,0-.441.635,2.52,2.52,0,0,0-.153.9,1.174,1.174,0,0,0,.257.815.9.9,0,0,0,.706.288Zm4.56.855a1.342,1.342,0,0,1-1.089-.45,1.734,1.734,0,0,1-.225-1.413l.351-2.178a.556.556,0,0,1,.194-.392.556.556,0,0,1,.418-.13.5.5,0,0,1,.41.162.571.571,0,0,1,.085.459l-.324,2.07a1.128,1.128,0,0,0,.076.738.6.6,0,0,0,.554.243,1.076,1.076,0,0,0,.819-.333,1.658,1.658,0,0,0,.4-.909l.3-1.908a.556.556,0,0,1,.194-.392.556.556,0,0,1,.418-.13.486.486,0,0,1,.414.167.6.6,0,0,1,.081.463L14.355-.459a.559.559,0,0,1-.192.4.559.559,0,0,1-.42.134q-.558,0-.477-.585l.027-.171A1.673,1.673,0,0,1,11.808.09ZM16,.072a.452.452,0,0,1-.391-.167.629.629,0,0,1-.076-.473l.531-3.366a.571.571,0,0,1,.2-.406.571.571,0,0,1,.431-.134.447.447,0,0,1,.382.162.615.615,0,0,1,.076.468l-.027.18a1.555,1.555,0,0,1,.585-.589,1.891,1.891,0,0,1,.846-.239.426.426,0,0,1,.338.072.423.423,0,0,1,.085.3.609.609,0,0,1-.135.436.656.656,0,0,1-.423.167l-.261.027a1.274,1.274,0,0,0-.864.364,1.685,1.685,0,0,0-.351.842L16.659-.468a.586.586,0,0,1-.213.412A.586.586,0,0,1,16,.072Zm6.264,0A.433.433,0,0,1,21.883-.1a.659.659,0,0,1-.077-.482l.477-2.97H21.9q-.441,0-.441-.342a.49.49,0,0,1,.139-.369.514.514,0,0,1,.374-.135h.432l.036-.216a2.06,2.06,0,0,1,.612-1.224,2.256,2.256,0,0,1,1.422-.513l.288-.018a.367.367,0,0,1,.329.1.405.405,0,0,1,.1.283.53.53,0,0,1-.095.292.344.344,0,0,1-.261.148l-.243.018a1.182,1.182,0,0,0-.711.252,1.061,1.061,0,0,0-.315.639l-.036.234h.711q.441,0,.441.333a.5.5,0,0,1-.139.378.514.514,0,0,1-.374.135h-.765L22.923-.486a.6.6,0,0,1-.21.418.6.6,0,0,1-.447.14Zm2.979,0A.452.452,0,0,1,24.851-.1a.629.629,0,0,1-.076-.473l.531-3.366a.571.571,0,0,1,.2-.406.571.571,0,0,1,.431-.134.447.447,0,0,1,.382.162.615.615,0,0,1,.076.468l-.027.18a1.555,1.555,0,0,1,.585-.589,1.891,1.891,0,0,1,.846-.239.426.426,0,0,1,.338.072.423.423,0,0,1,.085.3.609.609,0,0,1-.135.436.656.656,0,0,1-.423.167L27.4-3.49a1.274,1.274,0,0,0-.864.364,1.685,1.685,0,0,0-.351.842L25.9-.468a.586.586,0,0,1-.212.41.586.586,0,0,1-.443.13ZM29.628-5.3a.619.619,0,0,1-.455-.148.492.492,0,0,1-.122-.418.664.664,0,0,1,.245-.48.664.664,0,0,1,.52-.141.635.635,0,0,1,.459.148.464.464,0,0,1,.117.418.67.67,0,0,1-.246.478.67.67,0,0,1-.518.143ZM28.764.072A.433.433,0,0,1,28.381-.1.659.659,0,0,1,28.3-.585l.531-3.33a.6.6,0,0,1,.207-.415.6.6,0,0,1,.441-.143.437.437,0,0,1,.382.171.663.663,0,0,1,.076.486l-.531,3.33a.6.6,0,0,1-.205.412.6.6,0,0,1-.437.146ZM32.8.09a2.538,2.538,0,0,1-1.156-.248,1.822,1.822,0,0,1-.76-.7,2.007,2.007,0,0,1-.27-1.053,2.751,2.751,0,0,1,.31-1.318,2.4,2.4,0,0,1,.86-.923,2.333,2.333,0,0,1,1.26-.342,2,2,0,0,1,.918.189,1.535,1.535,0,0,1,.585.508,1.858,1.858,0,0,1,.288.724,2.934,2.934,0,0,1,.027.828.318.318,0,0,1-.1.243.4.4,0,0,1-.225.054H31.662a1.1,1.1,0,0,0,.306.864,1.276,1.276,0,0,0,.927.315,2.8,2.8,0,0,0,.558-.059,1.723,1.723,0,0,0,.522-.194A.429.429,0,0,1,34.33-1.1a.358.358,0,0,1,.216.184.4.4,0,0,1,.018.3.555.555,0,0,1-.229.293,2.272,2.272,0,0,1-.747.306A3.568,3.568,0,0,1,32.8.09Zm.234-3.816a1.192,1.192,0,0,0-.635.158,1.228,1.228,0,0,0-.414.419,1.793,1.793,0,0,0-.22.558h2.223A1.221,1.221,0,0,0,33.8-3.4a.865.865,0,0,0-.769-.325ZM35.946.063a.433.433,0,0,1-.382-.176.659.659,0,0,1-.076-.481l.522-3.321a.587.587,0,0,1,.2-.419.587.587,0,0,1,.445-.139.435.435,0,0,1,.369.153.6.6,0,0,1,.072.459l-.027.162a1.677,1.677,0,0,1,1.53-.792,1.36,1.36,0,0,1,1.1.445,1.72,1.72,0,0,1,.225,1.409L39.591-.5a.587.587,0,0,1-.2.419.587.587,0,0,1-.445.139.444.444,0,0,1-.387-.176A.644.644,0,0,1,38.475-.6l.325-2.02q.162-.99-.648-.99a1.124,1.124,0,0,0-.851.333,1.64,1.64,0,0,0-.41.909L36.594-.5a.587.587,0,0,1-.2.422.587.587,0,0,1-.446.141ZM42.4.09a1.527,1.527,0,0,1-1.2-.513,2.015,2.015,0,0,1-.454-1.386,3.371,3.371,0,0,1,.265-1.364,2.266,2.266,0,0,1,.765-.963,1.988,1.988,0,0,1,1.183-.356,1.646,1.646,0,0,1,.842.212,1.3,1.3,0,0,1,.544.625L44.7-5.887a.578.578,0,0,1,.21-.4.578.578,0,0,1,.438-.126.447.447,0,0,1,.382.162.633.633,0,0,1,.076.477L44.964-.5a.606.606,0,0,1-.2.424.606.606,0,0,1-.445.152.4.4,0,0,1-.374-.185A.7.7,0,0,1,43.884-.6L43.9-.711a1.878,1.878,0,0,1-.635.585A1.735,1.735,0,0,1,42.4.09Zm.441-.855a1.047,1.047,0,0,0,.7-.238,1.526,1.526,0,0,0,.437-.639,2.493,2.493,0,0,0,.153-.9,1.174,1.174,0,0,0-.257-.815.9.9,0,0,0-.707-.283,1.064,1.064,0,0,0-.693.234,1.474,1.474,0,0,0-.441.635,2.519,2.519,0,0,0-.153.9,1.174,1.174,0,0,0,.257.815.9.9,0,0,0,.7.291ZM47.853.09a3.371,3.371,0,0,1-1.521-.315A.51.51,0,0,1,46.066-.5a.451.451,0,0,1,0-.32.368.368,0,0,1,.207-.216.411.411,0,0,1,.356.045A2.7,2.7,0,0,0,47.853-.7,1.123,1.123,0,0,0,48.5-.86a.487.487,0,0,0,.225-.418q0-.36-.5-.459L47.4-1.908a1.4,1.4,0,0,1-.77-.392,1.03,1.03,0,0,1-.274-.733,1.251,1.251,0,0,1,.229-.734,1.58,1.58,0,0,1,.675-.527,2.638,2.638,0,0,1,1.076-.2,3.136,3.136,0,0,1,.7.086,2.2,2.2,0,0,1,.644.247.487.487,0,0,1,.243.279.415.415,0,0,1-.022.3.356.356,0,0,1-.221.189.467.467,0,0,1-.36-.058A2.182,2.182,0,0,0,48.285-3.7a1.156,1.156,0,0,0-.675.167.512.512,0,0,0-.234.436.407.407,0,0,0,.1.279.576.576,0,0,0,.328.162l.828.171q1.107.234,1.107,1.125a1.248,1.248,0,0,1-.517,1.071A2.275,2.275,0,0,1,47.853.09Z" transform="translate(2.897 70.307)" fill="#565656"/>
      <path id="Path_3189" data-name="Path 3189" d="M1.008,0A.576.576,0,0,1,.549-.176a.553.553,0,0,1-.1-.482l.81-5.13a.6.6,0,0,1,.21-.418.6.6,0,0,1,.447-.14H3.384a3.467,3.467,0,0,1,2.336.711,2.5,2.5,0,0,1,.824,2,4.182,4.182,0,0,1-.4,1.845A3.041,3.041,0,0,1,4.937-.482,3.9,3.9,0,0,1,2.907,0Zm.639-.954H2.925A2.454,2.454,0,0,0,4.3-1.305a2.075,2.075,0,0,0,.783-.954,3.5,3.5,0,0,0,.252-1.359,1.709,1.709,0,0,0-.491-1.319,2.084,2.084,0,0,0-1.462-.455H2.349ZM9.261.09A2.076,2.076,0,0,1,7.74-.45,1.94,1.94,0,0,1,7.191-1.9a2.741,2.741,0,0,1,.328-1.373,2.345,2.345,0,0,1,.887-.9,2.437,2.437,0,0,1,1.233-.319,2.076,2.076,0,0,1,1.521.54A1.94,1.94,0,0,1,11.709-2.5a2.741,2.741,0,0,1-.329,1.37,2.355,2.355,0,0,1-.882.9A2.43,2.43,0,0,1,9.261.09Zm.027-.855A1.059,1.059,0,0,0,9.986-1a1.489,1.489,0,0,0,.436-.639,2.529,2.529,0,0,0,.153-.9,1.174,1.174,0,0,0-.256-.815.9.9,0,0,0-.707-.283,1.064,1.064,0,0,0-.693.234,1.474,1.474,0,0,0-.441.635,2.52,2.52,0,0,0-.153.9,1.174,1.174,0,0,0,.257.815.9.9,0,0,0,.706.288Zm4.6.837a.575.575,0,0,1-.378-.126.7.7,0,0,1-.216-.4L12.528-3.7a.688.688,0,0,1,.063-.558.5.5,0,0,1,.45-.216.445.445,0,0,1,.329.112.746.746,0,0,1,.166.383l.54,2.646L15.561-4.14a.573.573,0,0,1,.531-.333.462.462,0,0,1,.3.1.53.53,0,0,1,.167.315l.567,2.781,1.458-2.781a.887.887,0,0,1,.261-.324.64.64,0,0,1,.36-.09.423.423,0,0,1,.423.2.511.511,0,0,1-.054.481L17.685-.351a.723.723,0,0,1-.675.423.579.579,0,0,1-.6-.522l-.522-2.385L14.571-.369a.728.728,0,0,1-.684.441ZM20.421.063a.433.433,0,0,1-.382-.176.659.659,0,0,1-.076-.481l.522-3.321a.587.587,0,0,1,.2-.419.587.587,0,0,1,.445-.139.435.435,0,0,1,.369.153.6.6,0,0,1,.072.459l-.027.162a1.677,1.677,0,0,1,1.53-.792,1.36,1.36,0,0,1,1.1.445A1.72,1.72,0,0,1,24.4-2.637L24.066-.5a.587.587,0,0,1-.2.419.587.587,0,0,1-.445.139.444.444,0,0,1-.387-.176A.644.644,0,0,1,22.95-.6l.324-2.025q.162-.99-.648-.99a1.124,1.124,0,0,0-.851.333,1.64,1.64,0,0,0-.41.909L21.069-.5a.587.587,0,0,1-.2.422.587.587,0,0,1-.446.141ZM26.667.09a1.285,1.285,0,0,1-1.08-.428,1.587,1.587,0,0,1-.207-1.247l.684-4.275a.587.587,0,0,1,.2-.419.587.587,0,0,1,.445-.139.437.437,0,0,1,.382.171.663.663,0,0,1,.076.486L26.5-1.593a.8.8,0,0,0,.067.581A.487.487,0,0,0,27-.828a.8.8,0,0,0,.162-.013.561.561,0,0,1,.117-.014.18.18,0,0,1,.144.063.391.391,0,0,1,.054.243.643.643,0,0,1-.108.4.508.508,0,0,1-.261.184A1.009,1.009,0,0,1,26.9.077a2.206,2.206,0,0,1-.233.013Zm3.456,0A2.076,2.076,0,0,1,28.6-.45a1.94,1.94,0,0,1-.547-1.45,2.741,2.741,0,0,1,.329-1.373,2.345,2.345,0,0,1,.886-.9A2.437,2.437,0,0,1,30.5-4.491a2.076,2.076,0,0,1,1.521.54,1.94,1.94,0,0,1,.55,1.451,2.742,2.742,0,0,1-.328,1.373,2.355,2.355,0,0,1-.882.9A2.43,2.43,0,0,1,30.123.09Zm.027-.855A1.059,1.059,0,0,0,30.85-1a1.489,1.489,0,0,0,.437-.639,2.529,2.529,0,0,0,.153-.9,1.174,1.174,0,0,0-.257-.815.9.9,0,0,0-.707-.283,1.064,1.064,0,0,0-.693.234,1.474,1.474,0,0,0-.441.635,2.519,2.519,0,0,0-.153.9,1.174,1.174,0,0,0,.256.815.9.9,0,0,0,.7.287ZM34.641.09A1.5,1.5,0,0,1,33.9-.095a1.506,1.506,0,0,1-.535-.491,1.212,1.212,0,0,1-.2-.684,1.078,1.078,0,0,1,.6-1.017A4.118,4.118,0,0,1,35.64-2.61h.621l.027-.162a.74.74,0,0,0-.13-.648.919.919,0,0,0-.707-.225,2.8,2.8,0,0,0-.576.059,2.769,2.769,0,0,0-.576.194.464.464,0,0,1-.365.027.4.4,0,0,1-.225-.211.373.373,0,0,1,0-.315.573.573,0,0,1,.324-.274,3.433,3.433,0,0,1,.788-.247,4.2,4.2,0,0,1,.77-.076,2.048,2.048,0,0,1,1.116.261,1.293,1.293,0,0,1,.549.711A2.22,2.22,0,0,1,37.31-2.49l-.31,2a.569.569,0,0,1-.186.411.569.569,0,0,1-.426.147.432.432,0,0,1-.365-.158.6.6,0,0,1-.076-.464l.018-.09a1.388,1.388,0,0,1-.581.553,1.657,1.657,0,0,1-.743.177Zm.351-.774a1.088,1.088,0,0,0,.738-.275,1.186,1.186,0,0,0,.387-.743l.045-.261h-.468a3.276,3.276,0,0,0-1.111.131.485.485,0,0,0-.319.49.589.589,0,0,0,.211.486.8.8,0,0,0,.517.172ZM39.807.09a1.527,1.527,0,0,1-1.2-.513,2.015,2.015,0,0,1-.454-1.386,3.371,3.371,0,0,1,.265-1.364,2.266,2.266,0,0,1,.765-.963,1.988,1.988,0,0,1,1.183-.356,1.646,1.646,0,0,1,.842.212,1.3,1.3,0,0,1,.544.625L42.1-5.886a.578.578,0,0,1,.21-.4.578.578,0,0,1,.438-.126.447.447,0,0,1,.382.162.633.633,0,0,1,.076.477L42.372-.5a.606.606,0,0,1-.2.424.606.606,0,0,1-.445.152.4.4,0,0,1-.374-.185A.7.7,0,0,1,41.292-.6l.018-.108a1.878,1.878,0,0,1-.635.585,1.735,1.735,0,0,1-.868.213Zm.441-.855a1.047,1.047,0,0,0,.7-.238,1.526,1.526,0,0,0,.437-.639,2.493,2.493,0,0,0,.153-.9,1.174,1.174,0,0,0-.257-.815.9.9,0,0,0-.707-.283,1.064,1.064,0,0,0-.693.234,1.474,1.474,0,0,0-.441.635,2.519,2.519,0,0,0-.153.9,1.174,1.174,0,0,0,.257.815.9.9,0,0,0,.7.291ZM47.4.09A1.5,1.5,0,0,1,46.662-.1a1.506,1.506,0,0,1-.535-.491,1.212,1.212,0,0,1-.2-.684,1.078,1.078,0,0,1,.6-1.017A4.118,4.118,0,0,1,48.4-2.61h.621l.027-.162a.74.74,0,0,0-.13-.648.919.919,0,0,0-.707-.225,2.8,2.8,0,0,0-.576.059,2.769,2.769,0,0,0-.576.194.464.464,0,0,1-.365.027.4.4,0,0,1-.225-.211.373.373,0,0,1,0-.315.573.573,0,0,1,.324-.274,3.433,3.433,0,0,1,.788-.247,4.2,4.2,0,0,1,.77-.076,2.048,2.048,0,0,1,1.116.261,1.293,1.293,0,0,1,.549.711A2.22,2.22,0,0,1,50.07-2.49l-.309,2a.569.569,0,0,1-.186.411.569.569,0,0,1-.426.147.432.432,0,0,1-.365-.158.6.6,0,0,1-.076-.464l.018-.09a1.388,1.388,0,0,1-.581.553A1.657,1.657,0,0,1,47.4.09Zm.351-.774a1.088,1.088,0,0,0,.738-.275,1.186,1.186,0,0,0,.387-.743l.045-.261h-.468a3.276,3.276,0,0,0-1.111.131.485.485,0,0,0-.319.49.589.589,0,0,0,.211.486.8.8,0,0,0,.52.172Zm3.375,2.376a.449.449,0,0,1-.387-.171.63.63,0,0,1-.081-.477L51.444-3.9a.606.606,0,0,1,.2-.424.606.606,0,0,1,.445-.152.413.413,0,0,1,.374.171.7.7,0,0,1,.068.486l-.018.1A1.686,1.686,0,0,1,54-4.491a1.544,1.544,0,0,1,1.211.508,2.011,2.011,0,0,1,.454,1.391A3.348,3.348,0,0,1,55.4-1.238a2.312,2.312,0,0,1-.761.968,1.965,1.965,0,0,1-1.188.36,1.711,1.711,0,0,1-.837-.2,1.249,1.249,0,0,1-.549-.608l-.3,1.881a.58.58,0,0,1-.636.529ZM53.244-.765a1.059,1.059,0,0,0,.7-.234,1.489,1.489,0,0,0,.437-.639,2.529,2.529,0,0,0,.153-.9,1.174,1.174,0,0,0-.257-.815.9.9,0,0,0-.707-.283,1.064,1.064,0,0,0-.693.234,1.474,1.474,0,0,0-.441.635,2.519,2.519,0,0,0-.153.9,1.174,1.174,0,0,0,.257.815.9.9,0,0,0,.7.287Zm3.285,2.457a.449.449,0,0,1-.387-.171.63.63,0,0,1-.081-.477L56.844-3.9a.606.606,0,0,1,.2-.424.606.606,0,0,1,.445-.152.413.413,0,0,1,.374.171.7.7,0,0,1,.068.486l-.018.1A1.686,1.686,0,0,1,59.4-4.491a1.544,1.544,0,0,1,1.211.508,2.011,2.011,0,0,1,.454,1.391A3.348,3.348,0,0,1,60.8-1.238a2.312,2.312,0,0,1-.761.968,1.965,1.965,0,0,1-1.188.36,1.711,1.711,0,0,1-.837-.2,1.249,1.249,0,0,1-.549-.608l-.3,1.881a.58.58,0,0,1-.636.529ZM58.644-.765a1.059,1.059,0,0,0,.7-.234,1.489,1.489,0,0,0,.437-.639,2.529,2.529,0,0,0,.153-.9,1.174,1.174,0,0,0-.257-.815.9.9,0,0,0-.707-.283,1.064,1.064,0,0,0-.693.234,1.474,1.474,0,0,0-.441.635,2.519,2.519,0,0,0-.153.9,1.174,1.174,0,0,0,.257.815.9.9,0,0,0,.7.287Z" transform="translate(-2.692 82.307)" fill="#565656"/>
      <g id="Back-3" data-name="Back" transform="translate(0.001 0.307)" fill="#1d6cba" stroke="#f2f7fb" stroke-width="1">
        <circle cx="28" cy="28" r="28" stroke="none"/>
        <circle cx="28" cy="28" r="27.5" fill="none"/>
      </g>
      <g id="download" transform="translate(15.87 15.93)">
        <path id="Path_2170" data-name="Path 2170" d="M28.641,22.5v5.365a2.682,2.682,0,0,1-2.682,2.682H7.182A2.682,2.682,0,0,1,4.5,27.865V22.5" transform="translate(-4.5 -6.406)" fill="none" stroke="#fff" stroke-linecap="round" stroke-linejoin="round" stroke-width="3"/>
        <path id="Path_2171" data-name="Path 2171" d="M10.5,15l6.706,6.706L23.911,15" transform="translate(-5.136 -5.611)" fill="none" stroke="#fff" stroke-linecap="round" stroke-linejoin="round" stroke-width="3"/>
        <path id="Path_2172" data-name="Path 2172" d="M18,20.594V4.5" transform="translate(-5.931 -4.5)" fill="none" stroke="#fff" stroke-linecap="round" stroke-linejoin="round" stroke-width="3"/>
      </g>
      <path id="Back-4" data-name="Back" d="M7.913,0A7.913,7.913,0,1,1,0,7.913,7.913,7.913,0,0,1,7.913,0Z" transform="translate(0.152 0.152)" fill="#1d6cba" stroke="#fff" stroke-width="1"/>
      <path id="_2" data-name="2" d="M1.665-19.587H7.183v-1.441H3.793C6.44-23.8,7.014-24.452,7-25.77a2.422,2.422,0,0,0-.777-1.748,2.422,2.422,0,0,0-1.8-.639,2.525,2.525,0,0,0-1.944.7,2.525,2.525,0,0,0-.767,1.92l1.577.011a1.025,1.025,0,0,1,.244-.85,1.025,1.025,0,0,1,.815-.344,1.024,1.024,0,0,1,.79.3,1.024,1.024,0,0,1,.291.8c0,.687-.248,1.059-3.761,4.82Z" transform="translate(3.509 31.809)" fill="#fff"/>
    </g>
    <g id="Step_1" data-name="Step 1" transform="translate(-12965 -19327)">
      <line id="Line-2" data-name="Line" x2="51" transform="translate(62.005 28.307)" fill="none" stroke="#1d6cba" stroke-linecap="round" stroke-linejoin="round" stroke-width="2"/>
      <path id="Path_3192" data-name="Path 3192" d="M.936.072a.48.48,0,0,1-.423-.18.67.67,0,0,1-.072-.5l.828-5.229a.6.6,0,0,1,.2-.43.6.6,0,0,1,.453-.146q.585,0,.477.684L1.575-.513a.6.6,0,0,1-.2.427A.6.6,0,0,1,.936.072ZM3.33.063a.433.433,0,0,1-.382-.176.659.659,0,0,1-.077-.481l.522-3.321a.587.587,0,0,1,.2-.419.587.587,0,0,1,.445-.139.435.435,0,0,1,.369.153.6.6,0,0,1,.072.459L4.455-3.7a1.677,1.677,0,0,1,1.53-.792,1.36,1.36,0,0,1,1.1.445A1.72,1.72,0,0,1,7.31-2.638L6.975-.5a.587.587,0,0,1-.2.419.587.587,0,0,1-.445.139A.444.444,0,0,1,5.94-.113a.644.644,0,0,1-.081-.481l.324-2.025q.162-.99-.648-.99a1.124,1.124,0,0,0-.851.333,1.64,1.64,0,0,0-.41.909L3.978-.5a.587.587,0,0,1-.2.422A.587.587,0,0,1,3.33.063ZM9.819.072a.635.635,0,0,1-.427-.135.777.777,0,0,1-.229-.4L8.271-3.7a.667.667,0,0,1,.054-.558.5.5,0,0,1,.45-.216.541.541,0,0,1,.365.112.724.724,0,0,1,.193.4l.63,2.637,1.575-2.763a.862.862,0,0,1,.261-.3.647.647,0,0,1,.351-.085.43.43,0,0,1,.427.207.5.5,0,0,1-.058.486L10.476-.351a.749.749,0,0,1-.657.423ZM14.148-5.3a.619.619,0,0,1-.455-.148.492.492,0,0,1-.122-.418.664.664,0,0,1,.245-.48.664.664,0,0,1,.52-.141.635.635,0,0,1,.459.148.464.464,0,0,1,.117.418.67.67,0,0,1-.246.478A.67.67,0,0,1,14.148-5.3ZM13.284.072A.433.433,0,0,1,12.9-.1a.659.659,0,0,1-.076-.482l.531-3.33a.6.6,0,0,1,.205-.415A.6.6,0,0,1,14-4.473a.437.437,0,0,1,.382.171.663.663,0,0,1,.076.486l-.531,3.33a.6.6,0,0,1-.205.413.6.6,0,0,1-.438.145ZM17.118.09A1.563,1.563,0,0,1,15.84-.392a1.515,1.515,0,0,1-.279-1.247l.306-1.917h-.4q-.459,0-.459-.36a.44.44,0,0,1,.153-.36.632.632,0,0,1,.414-.126H16l.135-.864a.556.556,0,0,1,.194-.392.556.556,0,0,1,.418-.13.493.493,0,0,1,.414.162.584.584,0,0,1,.081.459l-.117.765h.882q.468,0,.468.351a.482.482,0,0,1-.139.355.517.517,0,0,1-.382.14h-.963l-.3,1.845a.785.785,0,0,0,.117.671.691.691,0,0,0,.531.2A.97.97,0,0,0,17.6-.864a.67.67,0,0,1,.185-.027.232.232,0,0,1,.184.067.388.388,0,0,1,.059.248.672.672,0,0,1-.1.423.567.567,0,0,1-.27.171A1.324,1.324,0,0,1,17.4.072a2.4,2.4,0,0,1-.282.018Zm3.609,0A2.538,2.538,0,0,1,19.57-.157a1.822,1.822,0,0,1-.76-.7,2.007,2.007,0,0,1-.27-1.053,2.751,2.751,0,0,1,.31-1.318,2.4,2.4,0,0,1,.86-.923,2.333,2.333,0,0,1,1.26-.342,2,2,0,0,1,.918.189,1.535,1.535,0,0,1,.585.508,1.858,1.858,0,0,1,.288.724,2.934,2.934,0,0,1,.027.828.318.318,0,0,1-.1.243.4.4,0,0,1-.225.054h-2.87a1.1,1.1,0,0,0,.306.864,1.276,1.276,0,0,0,.927.315,2.8,2.8,0,0,0,.558-.059,1.723,1.723,0,0,0,.522-.194.429.429,0,0,1,.356-.076.358.358,0,0,1,.216.184.4.4,0,0,1,.018.3.555.555,0,0,1-.229.293,2.272,2.272,0,0,1-.747.306,3.568,3.568,0,0,1-.793.1Zm.234-3.816a1.192,1.192,0,0,0-.634.158,1.228,1.228,0,0,0-.414.419,1.793,1.793,0,0,0-.22.558h2.223a1.221,1.221,0,0,0-.189-.81.865.865,0,0,0-.766-.325ZM26.64,1.692a.418.418,0,0,1-.423-.211A.5.5,0,0,1,26.28,1L27-.18,26.028-3.7a.655.655,0,0,1,.059-.558.514.514,0,0,1,.455-.216.506.506,0,0,1,.355.112.767.767,0,0,1,.184.4l.639,2.637L29.286-4.07a.967.967,0,0,1,.261-.31.6.6,0,0,1,.351-.1.438.438,0,0,1,.432.211.5.5,0,0,1-.054.49L27.252,1.287a.967.967,0,0,1-.261.311.6.6,0,0,1-.351.094ZM32.571.09A2.076,2.076,0,0,1,31.05-.45,1.94,1.94,0,0,1,30.5-1.9a2.741,2.741,0,0,1,.329-1.373,2.345,2.345,0,0,1,.886-.9,2.437,2.437,0,0,1,1.233-.319,2.076,2.076,0,0,1,1.521.54,1.94,1.94,0,0,1,.55,1.452,2.742,2.742,0,0,1-.329,1.37,2.355,2.355,0,0,1-.882.9,2.43,2.43,0,0,1-1.237.32ZM32.6-.765A1.059,1.059,0,0,0,33.3-1a1.489,1.489,0,0,0,.437-.639,2.529,2.529,0,0,0,.153-.9,1.174,1.174,0,0,0-.257-.815.9.9,0,0,0-.707-.283,1.064,1.064,0,0,0-.693.234,1.474,1.474,0,0,0-.441.635,2.519,2.519,0,0,0-.153.9,1.174,1.174,0,0,0,.256.815.9.9,0,0,0,.7.288ZM37.161.09a1.342,1.342,0,0,1-1.089-.45,1.734,1.734,0,0,1-.225-1.413L36.2-3.951a.556.556,0,0,1,.194-.392.556.556,0,0,1,.418-.13.5.5,0,0,1,.41.162.571.571,0,0,1,.085.459l-.324,2.07a1.128,1.128,0,0,0,.076.738.6.6,0,0,0,.553.243,1.076,1.076,0,0,0,.819-.333,1.658,1.658,0,0,0,.4-.909l.3-1.908a.556.556,0,0,1,.194-.392.556.556,0,0,1,.418-.13.486.486,0,0,1,.414.167.6.6,0,0,1,.081.463L39.708-.459a.559.559,0,0,1-.191.4A.559.559,0,0,1,39.1.072q-.558,0-.477-.585l.027-.171A1.673,1.673,0,0,1,37.161.09ZM41.355.072A.452.452,0,0,1,40.964-.1a.629.629,0,0,1-.076-.473l.531-3.366a.571.571,0,0,1,.2-.406.571.571,0,0,1,.431-.134.447.447,0,0,1,.382.162.615.615,0,0,1,.076.468l-.027.18a1.555,1.555,0,0,1,.585-.589,1.891,1.891,0,0,1,.846-.239.426.426,0,0,1,.338.072.423.423,0,0,1,.085.3.609.609,0,0,1-.135.436.656.656,0,0,1-.423.167l-.261.027a1.274,1.274,0,0,0-.864.364,1.685,1.685,0,0,0-.351.842L42.012-.468a.586.586,0,0,1-.212.411.586.586,0,0,1-.445.129Z" transform="translate(5.96 70.307)" fill="#565656"/>
      <path id="Path_3190" data-name="Path 3190" d="M1.089.072A.433.433,0,0,1,.707-.1.659.659,0,0,1,.63-.585l.477-2.97H.729q-.441,0-.441-.342a.49.49,0,0,1,.14-.369A.514.514,0,0,1,.8-4.4h.432l.036-.216A2.06,2.06,0,0,1,1.88-5.84,2.256,2.256,0,0,1,3.3-6.354l.288-.018a.367.367,0,0,1,.329.1.405.405,0,0,1,.1.283.53.53,0,0,1-.095.292.344.344,0,0,1-.261.148l-.243.018a1.182,1.182,0,0,0-.711.252,1.061,1.061,0,0,0-.315.639l-.034.24h.711q.441,0,.441.333a.5.5,0,0,1-.14.378A.514.514,0,0,1,3-3.555H2.232L1.746-.486a.6.6,0,0,1-.21.418.6.6,0,0,1-.447.14Zm2.979,0A.452.452,0,0,1,3.677-.1.629.629,0,0,1,3.6-.567l.531-3.366a.571.571,0,0,1,.2-.406.571.571,0,0,1,.431-.134.447.447,0,0,1,.383.162.615.615,0,0,1,.076.468l-.027.18a1.555,1.555,0,0,1,.585-.589,1.891,1.891,0,0,1,.846-.239.426.426,0,0,1,.338.072.423.423,0,0,1,.085.3.609.609,0,0,1-.135.436.656.656,0,0,1-.423.167l-.261.027a1.274,1.274,0,0,0-.864.364,1.685,1.685,0,0,0-.351.842L4.725-.468a.586.586,0,0,1-.212.411.586.586,0,0,1-.445.129ZM8.451-5.3A.619.619,0,0,1,8-5.45a.492.492,0,0,1-.122-.418.664.664,0,0,1,.245-.48.664.664,0,0,1,.52-.141.635.635,0,0,1,.459.148.464.464,0,0,1,.117.418.67.67,0,0,1-.247.481A.67.67,0,0,1,8.451-5.3ZM7.587.072A.433.433,0,0,1,7.2-.1a.659.659,0,0,1-.076-.482l.531-3.33a.6.6,0,0,1,.207-.415A.6.6,0,0,1,8.3-4.47a.437.437,0,0,1,.382.171.663.663,0,0,1,.076.486L8.235-.486a.6.6,0,0,1-.207.415.6.6,0,0,1-.441.143ZM11.619.09a2.538,2.538,0,0,1-1.156-.248,1.822,1.822,0,0,1-.76-.7,2.007,2.007,0,0,1-.27-1.053,2.751,2.751,0,0,1,.311-1.318,2.4,2.4,0,0,1,.859-.923,2.333,2.333,0,0,1,1.26-.342,2,2,0,0,1,.918.189,1.535,1.535,0,0,1,.585.508,1.858,1.858,0,0,1,.288.724,2.934,2.934,0,0,1,.027.828.318.318,0,0,1-.1.243.4.4,0,0,1-.225.054H10.485a1.1,1.1,0,0,0,.306.864,1.276,1.276,0,0,0,.927.315,2.8,2.8,0,0,0,.558-.059,1.723,1.723,0,0,0,.522-.194.429.429,0,0,1,.355-.076.358.358,0,0,1,.216.184.4.4,0,0,1,.018.3.555.555,0,0,1-.229.293,2.272,2.272,0,0,1-.747.306,3.568,3.568,0,0,1-.792.105Zm.234-3.816a1.192,1.192,0,0,0-.635.158,1.228,1.228,0,0,0-.414.419,1.793,1.793,0,0,0-.22.558h2.223a1.221,1.221,0,0,0-.189-.81.865.865,0,0,0-.765-.325ZM14.769.063a.433.433,0,0,1-.382-.176.659.659,0,0,1-.076-.481l.522-3.321a.587.587,0,0,1,.2-.419.587.587,0,0,1,.445-.139.435.435,0,0,1,.369.153.6.6,0,0,1,.072.459l-.027.162a1.677,1.677,0,0,1,1.53-.792,1.36,1.36,0,0,1,1.1.445,1.72,1.72,0,0,1,.225,1.409L18.414-.5a.587.587,0,0,1-.2.419.587.587,0,0,1-.445.139.444.444,0,0,1-.387-.176A.644.644,0,0,1,17.3-.594l.324-2.025q.162-.99-.648-.99a1.124,1.124,0,0,0-.851.333,1.64,1.64,0,0,0-.41.909L15.417-.5a.587.587,0,0,1-.2.422.587.587,0,0,1-.446.141ZM21.222.09a1.527,1.527,0,0,1-1.2-.513,2.015,2.015,0,0,1-.455-1.386,3.371,3.371,0,0,1,.266-1.364,2.266,2.266,0,0,1,.765-.963,1.988,1.988,0,0,1,1.184-.356,1.646,1.646,0,0,1,.841.212,1.3,1.3,0,0,1,.545.625l.351-2.232a.578.578,0,0,1,.21-.4.578.578,0,0,1,.438-.126.447.447,0,0,1,.382.162.633.633,0,0,1,.076.477L23.787-.5a.606.606,0,0,1-.2.424.606.606,0,0,1-.445.152.4.4,0,0,1-.374-.185A.7.7,0,0,1,22.707-.6l.018-.108a1.878,1.878,0,0,1-.635.585,1.735,1.735,0,0,1-.868.213Zm.441-.855A1.047,1.047,0,0,0,22.36-1a1.526,1.526,0,0,0,.437-.639,2.493,2.493,0,0,0,.153-.9,1.174,1.174,0,0,0-.257-.815.9.9,0,0,0-.706-.283,1.064,1.064,0,0,0-.693.234,1.474,1.474,0,0,0-.441.635,2.52,2.52,0,0,0-.153.9,1.174,1.174,0,0,0,.257.815.9.9,0,0,0,.706.288ZM26.676.09a3.371,3.371,0,0,1-1.521-.315A.51.51,0,0,1,24.889-.5a.451.451,0,0,1,0-.32.368.368,0,0,1,.207-.216.411.411,0,0,1,.355.045A2.7,2.7,0,0,0,26.676-.7a1.123,1.123,0,0,0,.648-.158.487.487,0,0,0,.225-.418q0-.36-.5-.459l-.828-.171a1.4,1.4,0,0,1-.769-.392,1.03,1.03,0,0,1-.274-.733,1.251,1.251,0,0,1,.229-.734,1.58,1.58,0,0,1,.675-.527,2.638,2.638,0,0,1,1.076-.2,3.136,3.136,0,0,1,.7.086,2.2,2.2,0,0,1,.643.247.487.487,0,0,1,.243.279.415.415,0,0,1-.022.3.356.356,0,0,1-.221.189.467.467,0,0,1-.36-.058A2.182,2.182,0,0,0,27.108-3.7a1.156,1.156,0,0,0-.675.167A.512.512,0,0,0,26.2-3.1a.407.407,0,0,0,.1.279.576.576,0,0,0,.329.162l.828.171q1.107.234,1.107,1.125a1.248,1.248,0,0,1-.517,1.071A2.275,2.275,0,0,1,26.676.09ZM33.8.09a1.563,1.563,0,0,1-1.278-.482,1.515,1.515,0,0,1-.279-1.247l.306-1.917h-.4q-.459,0-.459-.36a.44.44,0,0,1,.153-.36.632.632,0,0,1,.414-.126h.423l.135-.864A.556.556,0,0,1,33-5.658a.556.556,0,0,1,.418-.13.493.493,0,0,1,.414.162.584.584,0,0,1,.081.459L33.8-4.4h.882q.468,0,.468.351a.482.482,0,0,1-.139.355.517.517,0,0,1-.383.14h-.963l-.3,1.845a.785.785,0,0,0,.117.671.691.691,0,0,0,.531.2.97.97,0,0,0,.257-.027.67.67,0,0,1,.185-.027.232.232,0,0,1,.184.067.388.388,0,0,1,.059.248.672.672,0,0,1-.1.423.567.567,0,0,1-.27.171,1.324,1.324,0,0,1-.261.054,2.4,2.4,0,0,1-.272.019Zm3.492,0a2.076,2.076,0,0,1-1.521-.54,1.94,1.94,0,0,1-.549-1.45,2.742,2.742,0,0,1,.328-1.373,2.345,2.345,0,0,1,.887-.9,2.437,2.437,0,0,1,1.233-.319,2.076,2.076,0,0,1,1.521.54A1.94,1.94,0,0,1,39.735-2.5a2.741,2.741,0,0,1-.329,1.373,2.355,2.355,0,0,1-.882.9A2.43,2.43,0,0,1,37.287.09Zm.027-.855a1.059,1.059,0,0,0,.7-.234,1.489,1.489,0,0,0,.437-.639,2.529,2.529,0,0,0,.153-.9,1.174,1.174,0,0,0-.257-.815.9.9,0,0,0-.706-.283,1.064,1.064,0,0,0-.693.234,1.474,1.474,0,0,0-.441.635,2.519,2.519,0,0,0-.153.9,1.174,1.174,0,0,0,.257.815.9.9,0,0,0,.7.287Z" transform="translate(7.971 82.307)" fill="#565656"/>
      <path id="Path_3191" data-name="Path 3191" d="M2.034.09A3.371,3.371,0,0,1,.513-.225.51.51,0,0,1,.248-.5a.451.451,0,0,1,0-.32.368.368,0,0,1,.207-.216A.411.411,0,0,1,.81-.99,2.7,2.7,0,0,0,2.034-.7a1.123,1.123,0,0,0,.648-.16.487.487,0,0,0,.225-.418q0-.36-.495-.459l-.828-.171A1.4,1.4,0,0,1,.815-2.3,1.03,1.03,0,0,1,.54-3.033a1.251,1.251,0,0,1,.23-.733,1.58,1.58,0,0,1,.675-.527,2.638,2.638,0,0,1,1.075-.2,3.136,3.136,0,0,1,.7.086,2.2,2.2,0,0,1,.643.247.487.487,0,0,1,.243.279.415.415,0,0,1-.023.3.356.356,0,0,1-.22.189A.467.467,0,0,1,3.5-3.45,2.182,2.182,0,0,0,2.466-3.7a1.156,1.156,0,0,0-.675.167.512.512,0,0,0-.234.436.407.407,0,0,0,.1.279.576.576,0,0,0,.329.162l.828.171q1.107.234,1.107,1.125A1.248,1.248,0,0,1,3.407-.288,2.275,2.275,0,0,1,2.034.09Zm4-5.391a.619.619,0,0,1-.454-.148.492.492,0,0,1-.122-.418.664.664,0,0,1,.245-.48.664.664,0,0,1,.52-.141.635.635,0,0,1,.459.148.464.464,0,0,1,.117.418.67.67,0,0,1-.244.477.67.67,0,0,1-.516.145ZM5.175.072A.433.433,0,0,1,4.792-.1a.659.659,0,0,1-.076-.482l.531-3.33a.6.6,0,0,1,.207-.415.6.6,0,0,1,.441-.143.437.437,0,0,1,.383.171.663.663,0,0,1,.076.486L5.823-.486a.6.6,0,0,1-.207.415.6.6,0,0,1-.441.143ZM8.991,1.71A4.162,4.162,0,0,1,7.97,1.588a3.3,3.3,0,0,1-.842-.329A.47.47,0,0,1,6.9.977.426.426,0,0,1,6.934.666a.421.421,0,0,1,.239-.2.43.43,0,0,1,.36.049A3.189,3.189,0,0,0,8.15.763a2.446,2.446,0,0,0,.679.095A1.447,1.447,0,0,0,9.7.612a1.153,1.153,0,0,0,.423-.783l.108-.666a1.564,1.564,0,0,1-.612.54,1.845,1.845,0,0,1-.837.189A1.737,1.737,0,0,1,7.506-.59,1.784,1.784,0,0,1,7.02-1.917,2.971,2.971,0,0,1,7.294-3.2a2.347,2.347,0,0,1,.779-.94A2.008,2.008,0,0,1,9.261-4.5a1.744,1.744,0,0,1,.859.207,1.217,1.217,0,0,1,.544.621l.045-.27a.576.576,0,0,1,.2-.408.576.576,0,0,1,.436-.132.413.413,0,0,1,.374.171.7.7,0,0,1,.067.486L11.223-.234a2.335,2.335,0,0,1-.7,1.445A2.211,2.211,0,0,1,8.991,1.71ZM9.135-.963a1.124,1.124,0,0,0,.715-.23A1.437,1.437,0,0,0,10.3-1.8a2.2,2.2,0,0,0,.153-.824,1.028,1.028,0,0,0-.257-.738.964.964,0,0,0-.733-.27,1.11,1.11,0,0,0-.707.23A1.441,1.441,0,0,0,8.31-2.8a2.162,2.162,0,0,0-.153.819,1.041,1.041,0,0,0,.257.747.952.952,0,0,0,.721.266ZM12.915.063a.433.433,0,0,1-.382-.176.659.659,0,0,1-.076-.481l.522-3.321a.587.587,0,0,1,.2-.419.587.587,0,0,1,.445-.139A.435.435,0,0,1,14-4.32a.6.6,0,0,1,.072.459L14.04-3.7a1.677,1.677,0,0,1,1.53-.792,1.36,1.36,0,0,1,1.1.445A1.72,1.72,0,0,1,16.9-2.638L16.56-.5a.587.587,0,0,1-.2.419.587.587,0,0,1-.445.139.444.444,0,0,1-.387-.176A.644.644,0,0,1,15.444-.6l.324-2.025q.162-.99-.648-.99a1.124,1.124,0,0,0-.851.333,1.64,1.64,0,0,0-.41.909L13.563-.5a.587.587,0,0,1-.2.422.587.587,0,0,1-.446.141ZM21.636.09a1.342,1.342,0,0,1-1.089-.45,1.734,1.734,0,0,1-.225-1.413l.351-2.178a.556.556,0,0,1,.194-.392.556.556,0,0,1,.418-.13.5.5,0,0,1,.41.162.571.571,0,0,1,.086.459l-.324,2.07a1.128,1.128,0,0,0,.076.738.6.6,0,0,0,.554.243,1.076,1.076,0,0,0,.819-.333,1.658,1.658,0,0,0,.4-.909l.3-1.908a.556.556,0,0,1,.194-.392.556.556,0,0,1,.418-.13.486.486,0,0,1,.414.167.6.6,0,0,1,.081.463l-.53,3.384a.559.559,0,0,1-.192.4.559.559,0,0,1-.42.134q-.558,0-.477-.585l.027-.171A1.673,1.673,0,0,1,21.636.09Zm3.942,1.6a.449.449,0,0,1-.387-.171.63.63,0,0,1-.081-.477L25.893-3.9a.606.606,0,0,1,.2-.424.606.606,0,0,1,.445-.152.413.413,0,0,1,.373.171.7.7,0,0,1,.068.486l-.018.1a1.686,1.686,0,0,1,1.485-.774,1.544,1.544,0,0,1,1.211.508,2.011,2.011,0,0,1,.455,1.391,3.348,3.348,0,0,1-.265,1.355,2.312,2.312,0,0,1-.761.968A1.965,1.965,0,0,1,27.9.09a1.711,1.711,0,0,1-.837-.2,1.249,1.249,0,0,1-.549-.608l-.3,1.881a.58.58,0,0,1-.636.529ZM27.693-.765A1.059,1.059,0,0,0,28.39-1a1.489,1.489,0,0,0,.436-.639,2.529,2.529,0,0,0,.153-.9,1.174,1.174,0,0,0-.256-.815.9.9,0,0,0-.707-.283,1.064,1.064,0,0,0-.693.234,1.474,1.474,0,0,0-.441.635,2.52,2.52,0,0,0-.153.9,1.174,1.174,0,0,0,.257.815.9.9,0,0,0,.707.288Z" transform="translate(12.786 94.307)" fill="#565656"/>
      <g id="Back-5" data-name="Back" transform="translate(0.005 0.307)" fill="#1d6cba" stroke="#f2f7fb" stroke-width="1">
        <circle cx="28" cy="28" r="28" stroke="none"/>
        <circle cx="28" cy="28" r="27.5" fill="none"/>
      </g>
      <g id="back-6" data-name="back" transform="translate(0.152 0.152)">
        <path id="Path_3183" data-name="Path 3183" d="M7.913,15.327a7.413,7.413,0,1,1,7.413-7.413,7.413,7.413,0,0,1-7.413,7.413Z" fill="#1d6cba" stroke="#fff" stroke-width="1"/>
        <path id="Path_3184" data-name="Path 3184" d="M7.913,1a6.913,6.913,0,1,0,6.913,6.913A6.913,6.913,0,0,0,7.913,1m0-1A7.913,7.913,0,1,1,0,7.913,7.913,7.913,0,0,1,7.913,0Z" fill="#f2f7fb"/>
      </g>
      <path id="_1" data-name="1" d="M2.682-19.3H4.326v-8.45H2.783L.925-26.342v1.8l1.757-1.351Z" transform="translate(5.467 31.707)" fill="#fff"/>
      <g id="user" transform="translate(15.128 11.307)">
        <path id="Path_2173" data-name="Path 2173" d="M-12896.5-18827.2v18.881h3.358" transform="translate(12902.208 18841.73)" fill="none" stroke="#fff" stroke-linecap="round" stroke-linejoin="round" stroke-width="2"/>
        <path id="Path_2174" data-name="Path 2174" d="M-12866.3-18808.4h3.5v-18.881" transform="translate(12881.185 18841.73)" fill="none" stroke="#fff" stroke-linecap="round" stroke-linejoin="round" stroke-width="2"/>
        <path id="Path_2175" data-name="Path 2175" d="M-12882.9-18829.3s4.652-12.973,8.35-12.48,4.578,4.871,5.861,13.238" transform="translate(12892.735 18851.859)" fill="none" stroke="#fff" stroke-linecap="round" stroke-linejoin="round" stroke-width="2"/>
        <path id="Path_2176" data-name="Path 2176" d="M-12841-18841.9h3.014v2.162" transform="translate(12863.612 18851.93)" fill="none" stroke="#fff" stroke-linecap="round" stroke-linejoin="round" stroke-width="2"/>
        <path id="Path_2177" data-name="Path 2177" d="M-12902.3-18841.9h-6.784s-3.584.207-4.675,5.48-1.544,7.914-1.544,7.914" transform="translate(12915.296 18851.93)" fill="none" stroke="#fff" stroke-linecap="round" stroke-linejoin="round" stroke-width="2"/>
        <g id="Ellipse_267" data-name="Ellipse 267" transform="translate(1.877)" fill="none" stroke="#fff" stroke-width="2">
          <ellipse cx="4" cy="3.5" rx="4" ry="3.5" stroke="none"/>
          <ellipse cx="4" cy="3.5" rx="3" ry="2.5" fill="none"/>
        </g>
        <g id="Ellipse_268" data-name="Ellipse 268" transform="translate(14.877)" fill="none" stroke="#fff" stroke-width="2">
          <circle cx="3.5" cy="3.5" r="3.5" stroke="none"/>
          <circle cx="3.5" cy="3.5" r="2.5" fill="none"/>
        </g>
      </g>
    </g>
  </g>
</svg>
