<svg xmlns="http://www.w3.org/2000/svg" width="91.5" height="91.5" viewBox="0 0 91.5 91.5">
  <g id="battle" transform="translate(-1 -1)" opacity="0.15">
    <path id="Path_3289" data-name="Path 3289" d="M29,57.427A4.427,4.427,0,1,0,33.427,53,4.433,4.433,0,0,0,29,57.427Zm5.9,0a1.476,1.476,0,1,1-1.476-1.476A1.476,1.476,0,0,1,34.9,57.427Z" transform="translate(13.323 24.742)" fill="#eeeff3"/>
    <path id="Path_3290" data-name="Path 3290" d="M81.7,25.144a8.856,8.856,0,0,0,4.9-7.91V9.855a5.909,5.909,0,0,0-5.9-5.9H71.839A2.955,2.955,0,0,1,68.887,1H65.935V8.379a4.421,4.421,0,0,0,2.952,4.156v4.7a8.863,8.863,0,0,0,4.665,7.8A22.185,22.185,0,0,0,58.443,35.814l-5.406,9.46H40.463l-5.406-9.46a22.149,22.149,0,0,0-15.1-10.785,8.861,8.861,0,0,0,4.659-7.8v-4.7a4.421,4.421,0,0,0,2.952-4.156V1H24.613a2.955,2.955,0,0,1-2.952,2.952H12.806a5.909,5.909,0,0,0-5.9,5.9v7.379a8.856,8.856,0,0,0,4.9,7.91A14.821,14.821,0,0,0,1,39.371V52.653a5.909,5.909,0,0,0,5.9,5.9V87.335a5.158,5.158,0,0,0,8.855,3.6,5.158,5.158,0,0,0,8.855-3.6V37.362a9.012,9.012,0,0,1,2.757,2.845L31.992,48.3v2.881a2.955,2.955,0,0,0,2.952,2.952V55.5a26.453,26.453,0,0,0,6.74,17.677,10.331,10.331,0,1,0,10.133,0A26.453,26.453,0,0,0,58.556,55.5V54.129a2.955,2.955,0,0,0,2.952-2.952V48.3l4.6-8.055a9.083,9.083,0,0,1,2.777-2.879V87.335a5.158,5.158,0,0,0,8.855,3.6,5.158,5.158,0,0,0,8.855-3.6V58.556a5.909,5.909,0,0,0,5.9-5.9V39.371A14.823,14.823,0,0,0,81.7,25.144ZM68.887,6.111a5.858,5.858,0,0,0,2.952.793h8.855a2.955,2.955,0,0,1,2.952,2.952H70.363a1.476,1.476,0,0,1-1.476-1.476Zm2.952,6.7H83.645v4.427a5.9,5.9,0,0,1-11.806,0ZM12.806,6.9h8.855a5.858,5.858,0,0,0,2.952-.793V8.379a1.476,1.476,0,0,1-1.476,1.476H9.855A2.955,2.955,0,0,1,12.806,6.9ZM9.855,17.234V12.806H21.661v4.427a5.9,5.9,0,0,1-11.806,0ZM33.8,45.506l-3.884-6.8A12.035,12.035,0,0,0,24.626,34L24.613,34v-.528H21.661V87.335a2.214,2.214,0,0,1-4.427,0V54.129H14.282V87.335a2.214,2.214,0,0,1-4.427,0V33.468H6.9V55.6a2.955,2.955,0,0,1-2.952-2.952V39.371a11.791,11.791,0,0,1,11.386-11.8A19.283,19.283,0,0,1,32.5,37.278l4.569,8H34.944A2.941,2.941,0,0,0,33.8,45.506Zm4.1,8.625h4.427V69.265A23.529,23.529,0,0,1,37.9,55.5ZM48.226,64.46H45.274V61.508h2.952Zm-2.952,2.952h2.952v4.545a9.282,9.282,0,0,0-2.952,0Zm2.952-8.855H45.274V54.129h2.952Zm5.9,23.613A7.379,7.379,0,1,1,46.75,74.79,7.387,7.387,0,0,1,54.129,82.169Zm-2.952-12.9V54.129H55.6V55.5a23.527,23.527,0,0,1-4.427,13.765ZM34.944,51.177V48.226H58.556l0,2.952Zm54.6,1.476A2.955,2.955,0,0,1,86.6,55.6V33.468H83.645V87.335a2.214,2.214,0,0,1-4.427,0V54.129H76.266V87.335a2.214,2.214,0,0,1-4.427,0V33.468H68.887V34L68.874,34a12.07,12.07,0,0,0-5.307,4.74L59.7,45.506a2.929,2.929,0,0,0-1.145-.232H56.436l4.569-8A19.3,19.3,0,0,1,78.164,27.57a11.792,11.792,0,0,1,11.384,11.8Z" transform="translate(0)" fill="#eeeff3"/>
  </g>
</svg>
