<svg id="unclick" xmlns="http://www.w3.org/2000/svg" width="27" height="27" viewBox="0 0 27 27">
  <path id="Path_4" data-name="Path 4" d="M0,0H27V27H0Z" fill="none"/>
  <path id="Path_4894" data-name="Path 4894" d="M2.176,20.995A3.035,3.035,0,0,1,1,20.512a2.367,2.367,0,0,1-.988-1.87C-.008,18.256,0,17.862,0,17.472V3.369A3.249,3.249,0,0,1,2.227.189a3.555,3.555,0,0,1,1.1-.18Q7.955-.011,12.577,0A3.272,3.272,0,0,1,15.9,3.318c.007,3.69,0,7.38,0,11.07a.833.833,0,0,1-.452.81.773.773,0,0,1-.851-.068.789.789,0,0,1-.335-.608c-.007-.082,0-.164,0-.246V3.39a1.63,1.63,0,0,0-1.213-1.679,1.972,1.972,0,0,0-.526-.064q-4.572-.006-9.143,0A1.647,1.647,0,0,0,1.645,3.376V18.463a.778.778,0,0,0,.511.825.837.837,0,0,0,.966-.238Q5.2,16.9,7.294,14.759a.816.816,0,0,1,.92-.273,1.254,1.254,0,0,1,.429.3q2.08,2.123,4.148,4.259a.823.823,0,0,0,.846.279.8.8,0,0,0,.637-.8.82.82,0,1,1,1.638.049,2.452,2.452,0,0,1-2.04,2.377,1.088,1.088,0,0,0-.132.041h-.618a3.318,3.318,0,0,1-1.9-1.208C10.195,18.7,9.146,17.646,8.108,16.58a2.159,2.159,0,0,0-.165-.155c-.058.069-.1.13-.154.184L4.317,20.18a2.53,2.53,0,0,1-1.287.756c-.079.017-.156.04-.234.06Z" transform="translate(5.545 3.005)"/>
</svg>
