<svg xmlns="http://www.w3.org/2000/svg" xmlns:xlink="http://www.w3.org/1999/xlink" width="49" height="49" viewBox="0 0 49 49">
  <defs>
    <filter id="Rectangle_130" x="0" y="0" width="49" height="49" filterUnits="userSpaceOnUse">
      <feOffset dx="2" dy="2" input="SourceAlpha"/>
      <feGaussianBlur stdDeviation="2" result="blur"/>
      <feFlood flood-color="#2a2a2a" flood-opacity="0.349"/>
      <feComposite operator="in" in2="blur"/>
      <feComposite in="SourceGraphic"/>
    </filter>
    <linearGradient id="linear-gradient" y1="1" x2="1" gradientUnits="objectBoundingBox">
      <stop offset="0" stop-color="#00b3d5"/>
      <stop offset="1" stop-color="#00e1d3"/>
    </linearGradient>
  </defs>
  <g id="login" transform="translate(4.001 4)">
    <g transform="matrix(1, 0, 0, 1, -4, -4)" filter="url(#Rectangle_130)">
      <rect id="Rectangle_130-2" data-name="Rectangle 130" width="37" height="37" transform="translate(4 4)" fill="none"/>
    </g>
    <g id="Group_527" data-name="Group 527" transform="translate(0.999 2)">
      <path id="Union_11" data-name="Union 11" d="M16.148,14.079a1.138,1.138,0,0,1,0-1.61l4.125-4.125H1.132a1.138,1.138,0,0,1,0-2.275H20.275L16.148,1.942a1.138,1.138,0,1,1,1.61-1.61L23.825,6.4a1.136,1.136,0,0,1,.324.95v.007l0,.016a1.137,1.137,0,0,1-.372.688l-6.016,6.017a1.137,1.137,0,0,1-1.61,0Z" transform="translate(0 9.388)" fill="url(#linear-gradient)"/>
      <path id="Path_987" data-name="Path 987" d="M51.991,33.525A16.5,16.5,0,0,1,36.551,23a1.131,1.131,0,1,1,2.105-.827,14.333,14.333,0,1,0,0-10.489,1.131,1.131,0,1,1-2.105-.827,16.591,16.591,0,1,1,15.44,22.667Zm0,0" transform="translate(-33.879 -0.333)" fill="url(#linear-gradient)"/>
    </g>
  </g>
</svg>
