<svg xmlns="http://www.w3.org/2000/svg" xmlns:xlink="http://www.w3.org/1999/xlink" width="37.219" height="35.99" viewBox="0 0 37.219 35.99">
  <defs>
    <linearGradient id="linear-gradient" y1="1" x2="1" gradientUnits="objectBoundingBox">
      <stop offset="0" stop-color="#00b3d5"/>
      <stop offset="1" stop-color="#00e1d3"/>
    </linearGradient>
  </defs>
  <g id="dailyquiz" transform="translate(0.5 0.501)">
    <g id="Group_565" data-name="Group 565" transform="translate(17.352 1.726)">
      <path id="Path_1895" data-name="Path 1895" d="M4114.73,5292.751a.739.739,0,0,1-.29-.06.729.729,0,0,1-.44-.669v-27.646a.732.732,0,0,1,.421-.662c1.925-.9,3.761-1.669,5.455-2.294a.729.729,0,0,1,.981.684v5.759c1.688-1.737,2.265-1.737,2.48-1.737s.805,0,2.721,1.847v-7.638a.728.728,0,0,1,.636-.723c4.886-.622,5.987,1.3,6.1,1.524a.73.73,0,0,1,.076.323v25.523a.731.731,0,0,1-.243.543.721.721,0,0,1-.565.182c-.1-.01-10.592-1.04-16.83,4.844A.727.727,0,0,1,4114.73,5292.751Zm.729-27.91v25.6c5.7-4.381,13.439-4.376,15.949-4.244v-24.492c-.275-.267-1.247-.94-3.891-.716v8.765a.729.729,0,0,1-1.262.5,18.436,18.436,0,0,0-2.912-2.642,16.5,16.5,0,0,0-2.661,2.618.73.73,0,0,1-1.284-.476v-6.6C4118.147,5263.648,4116.83,5264.211,4115.459,5264.842Zm7.972,2.732,8.069-5.763h0Z" transform="translate(-4114 -5259.489)" stroke="rgba(0,0,0,0)" stroke-width="1" fill="url(#linear-gradient)"/>
    </g>
    <g id="Group_566" data-name="Group 566" transform="translate(0 1.733)">
      <path id="Path_1896" data-name="Path 1896" d="M4013.137,5292.793a.724.724,0,0,1-.5-.2c-6.237-5.883-16.725-4.854-16.83-4.842a.731.731,0,0,1-.806-.724V5261.5a.728.728,0,0,1,.076-.323c.246-.5,2.853-4.659,18.37,2.579a.729.729,0,0,1,.42.662v27.646a.727.727,0,0,1-.44.668A.749.749,0,0,1,4013.137,5292.793Zm-15.231-6.589c3.324,0,9.651.552,14.5,4.28v-25.6c-12.371-5.692-15.46-3.617-15.948-3.143v24.5C3996.833,5286.219,3997.324,5286.2,3997.906,5286.2Z" transform="translate(-3995 -5259.537)" stroke="rgba(0,0,0,0)" stroke-width="1" fill="url(#linear-gradient)"/>
    </g>
    <g id="Group_567" data-name="Group 567" transform="translate(22.75 0)">
      <path id="Path_1897" data-name="Path 1897" d="M4151.729,5260.386a.7.7,0,0,1-.252-.046.729.729,0,0,1-.477-.682v-9.906a.728.728,0,0,1,.384-.642c2.564-1.38,4.615-1.779,6.09-1.178a2.747,2.747,0,0,1,1.611,1.6.732.732,0,0,1,.034.22v9.906a.73.73,0,0,1-1.261.5,18.582,18.582,0,0,0-2.914-2.642,16.506,16.506,0,0,0-2.659,2.617A.731.731,0,0,1,4151.729,5260.386Zm3.21-4.361c.217,0,.8,0,2.721,1.846v-7.966a1.432,1.432,0,0,0-.773-.64c-.691-.262-2.015-.3-4.429.928v7.569C4154.146,5256.025,4154.723,5256.025,4154.939,5256.025Zm2.759-6.038h0Z" transform="translate(-4151 -5247.66)" stroke="rgba(0,0,0,0)" stroke-width="1" fill="url(#linear-gradient)"/>
    </g>
    <g id="Group_568" data-name="Group 568" transform="translate(5.857 11.717)">
      <path id="Path_1898" data-name="Path 1898" d="M4041.7,5330.765a.738.738,0,0,1-.369-.1,11.43,11.43,0,0,0-5.411-1.21.729.729,0,0,1-.064-1.457,12.723,12.723,0,0,1,6.216,1.409.73.73,0,0,1-.371,1.358Z" transform="translate(-4035.156 -5327.993)" stroke="rgba(0,0,0,0)" stroke-width="1" fill="url(#linear-gradient)"/>
    </g>
    <g id="Group_569" data-name="Group 569" transform="translate(5.857 19.592)">
      <path id="Path_1899" data-name="Path 1899" d="M4041.7,5384.765a.738.738,0,0,1-.369-.1,11.42,11.42,0,0,0-5.411-1.209.73.73,0,0,1-.064-1.458,12.723,12.723,0,0,1,6.216,1.41.73.73,0,0,1-.371,1.359Z" transform="translate(-4035.156 -5381.991)" stroke="rgba(0,0,0,0)" stroke-width="1" fill="url(#linear-gradient)"/>
    </g>
    <g id="Group_570" data-name="Group 570" transform="translate(22.265 19.229)">
      <path id="Path_1900" data-name="Path 1900" d="M4148.407,5382.639a.729.729,0,0,1-.428-1.32c3.212-2.332,7.952-1.763,8.153-1.738a.729.729,0,0,1-.182,1.447h0c-.044-.005-4.375-.516-7.116,1.471A.721.721,0,0,1,4148.407,5382.639Z" transform="translate(-4147.676 -5379.501)" stroke="rgba(0,0,0,0)" stroke-width="1" fill="url(#linear-gradient)"/>
    </g>
  </g>
</svg>
