<svg xmlns="http://www.w3.org/2000/svg" xmlns:xlink="http://www.w3.org/1999/xlink" width="55" height="55" viewBox="0 0 55 55">
  <defs>
    <linearGradient id="linear-gradient" x2="1" y2="1" gradientUnits="objectBoundingBox">
      <stop offset="0" stop-color="#00b3d5"/>
      <stop offset="1" stop-color="#00e1d3"/>
    </linearGradient>
  </defs>
  <g id="vs_match" transform="translate(-15 -116.048)">
    <rect id="Rectangle_298" data-name="Rectangle 298" width="55" height="55" transform="translate(15 116.048)" fill="none"/>
    <g id="Group_1616" data-name="Group 1616">
      <path id="Path_2748" data-name="Path 2748" d="M504.868,4671.7l-8.317,19.211-8.194,19.347H487.2l3.944-11.743a.144.144,0,0,1,.009-.022.193.193,0,0,0-.176-.274h-8.809a.193.193,0,0,1-.193-.19l-.5-26.4a.193.193,0,0,1,.194-.2h7.063a.193.193,0,0,1,.193.189l.353,17.611a.193.193,0,0,0,.371.071l7.408-17.753a.192.192,0,0,1,.178-.118h7.455A.194.194,0,0,1,504.868,4671.7Z" transform="translate(-458.859 -4541.441)" stroke="rgba(0,0,0,0)" stroke-width="1" fill="url(#linear-gradient)"/>
      <path id="Path_2749" data-name="Path 2749" d="M1066.422,4976.2l4.207-9.935-1.283-.013Z" transform="translate(-1040.413 -4807.831)" stroke="rgba(0,0,0,0)" stroke-width="1" fill="url(#linear-gradient)"/>
      <path id="Path_2752" data-name="Path 2752" d="M1210.682,4551.846l-1.518,4.255a.328.328,0,0,1-.31.218h-6.281a.329.329,0,0,1-.307-.444l1.6-4.278q.284-.758-.855-.758a1.92,1.92,0,0,0-1.873,1.415l-.011.033-.484,1.644-.006.019q-.542,1.442,1.31,3.372a31.109,31.109,0,0,1,4.378,4.9,3.686,3.686,0,0,1,.182,3.223l-1.254,3.529c-1.33,3.746-5.114,5.644-11.335,5.644-6,0-8.306-1.728-6.939-5.139l2.433-6.076a.329.329,0,0,1,.3-.206h6.412a.329.329,0,0,1,.307.445l-2.242,5.862q-.366.957,1.125.958,1.439,0,1.793-.942l1.234-3.29q.56-1.493-1.269-3.481a34.718,34.718,0,0,1-4.25-4.88,2.936,2.936,0,0,1-.123-2.683l1.161-2.9c.054-.136.113-.269.175-.4.344-.71,8.34-19.5,8.34-19.5h.87l-.239.632-4.538,14.643a.328.328,0,0,0,.408.412,19.478,19.478,0,0,1,5.625-.708C1209.689,4547.371,1211.75,4548.85,1210.682,4551.846Z" transform="translate(-1149.004 -4414.345)" stroke="rgba(0,0,0,0)" stroke-width="1" fill="url(#linear-gradient)"/>
      <path id="Path_2754" data-name="Path 2754" d="M1339.693,4553.318l-4.728,13.313,1.278-.314Z" transform="translate(-1283.06 -4434.718)" stroke="rgba(0,0,0,0)" stroke-width="1" fill="url(#linear-gradient)"/>
    </g>
  </g>
</svg>
