<svg xmlns="http://www.w3.org/2000/svg" width="28" height="36" viewBox="0 0 28 36">
    <path data-name="lock" d="M31.25 15.836h-2.1V11.8a8.4 8.4 0 0 0-16.8-.112v4.154h-2.1a3.491 3.491 0 0 0-3.5 3.458v16.613a3.491 3.491 0 0 0 3.5 3.461h21a3.491 3.491 0 0 0 3.5-3.461V19.3a3.491 3.491 0 0 0-3.5-3.464zm-9.275 10.8v5.954a1.247 1.247 0 0 1-1.164 1.246 1.221 1.221 0 0 1-1.286-1.212v-5.988a2.765 2.765 0 0 1-1.566-2.743 2.8 2.8 0 0 1 5.591.251 2.759 2.759 0 0 1-1.575 2.492zm4.725-10.8H14.8v-4.153a5.8 5.8 0 0 1 1.75-4.154 5.961 5.961 0 0 1 8.4 0 5.8 5.8 0 0 1 1.75 4.154z" transform="translate(-6.75 -3.374)" style="fill:#aaa"/>
</svg>
