<svg id="score" xmlns="http://www.w3.org/2000/svg" width="28.007" height="28" viewBox="0 0 28.007 28">
  <path id="score-2" data-name="score" d="M14,28A14,14,0,1,1,28.007,14.039,13.989,13.989,0,0,1,14,28M8.286,20.841a1.406,1.406,0,0,0,2.12,1.328q1.673-.9,3.331-1.834a.475.475,0,0,1,.538,0c1.1.63,2.206,1.249,3.313,1.866a1.4,1.4,0,0,0,2.083-1.468c-.219-1.348-.43-2.7-.655-4.045a.5.5,0,0,1,.161-.489c.924-.932,1.839-1.874,2.754-2.815a1.405,1.405,0,0,0-.816-2.408c-1.242-.2-2.482-.4-3.726-.574a.481.481,0,0,1-.423-.33C16.438,8.914,15.9,7.756,15.373,6.59A1.433,1.433,0,0,0,14.034,5.6a1.417,1.417,0,0,0-1.355.959c-.542,1.181-1.107,2.352-1.657,3.53a.467.467,0,0,1-.4.314c-1.211.175-2.417.388-3.629.557a1.423,1.423,0,0,0-.845,2.527Q7.5,14.832,8.822,16.2a.54.54,0,0,1,.152.385c-.1.692-.223,1.38-.336,2.07-.125.765-.247,1.531-.353,2.187" transform="translate(0)" fill="#2d83d0"/>
</svg>
