<svg xmlns="http://www.w3.org/2000/svg" width="97.337" height="92.504" viewBox="0 0 97.337 92.504">
  <g id="maths" transform="translate(-2295.5 -726.445)" opacity="0.15">
    <path id="Path_4792" data-name="Path 4792" d="M2296,784.176a5.3,5.3,0,0,1,.787-.766,1.562,1.562,0,0,1,2.406,1.366,8.6,8.6,0,0,0,1.978,5.163,7.671,7.671,0,0,0,5.181,2.727c.281.027.56.068.838.113,1.2.194,1.63.665,1.636,1.882.016,2.853.006,5.706.006,8.559v9.737c.418-.4.656-.617.883-.844q9.112-9.112,18.209-18.239a3.419,3.419,0,0,1,2.645-1.113c7.525.036,15.049.022,22.574.017a8.635,8.635,0,0,0,5.394-1.589,7.988,7.988,0,0,0,3.3-6.645c.037-6.3.06-12.6,0-18.905a8,8,0,0,0-8.341-8.186q-22.95-.027-45.9,0a7.985,7.985,0,0,0-8.314,7.312,3.34,3.34,0,0,0-.044.373,1.709,1.709,0,0,1-1.26,1.863c-.963.249-1.514-.352-1.971-1.079v-1.882a27.125,27.125,0,0,1,1.714-4.413,10.561,10.561,0,0,1,9.252-5.359c3.448-.09,6.9-.024,10.349-.027h1.16c0-.473,0-.867,0-1.261.021-5.205-.095-10.416.1-15.615a10.92,10.92,0,0,1,10.765-10.384c10.788-.076,21.577-.03,32.365-.034,6.366,0,12.733-.015,19.1,0a11.181,11.181,0,0,1,11.457,9.919,6.7,6.7,0,0,1,.072,1.219,1.621,1.621,0,0,1-1.566,1.67,1.7,1.7,0,0,1-1.628-1.52,16.152,16.152,0,0,0-.96-3.687,7.617,7.617,0,0,0-6.84-4.382c-.281-.017-.564-.015-.846-.015q-25.121,0-50.243,0c-3.476,0-6.169,1.377-7.687,4.555a8.993,8.993,0,0,0-.824,3.615c-.089,5.11-.038,10.223-.036,15.335a5.763,5.763,0,0,0,.072.583h1.1q15.336,0,30.672.005a11.153,11.153,0,0,1,11.2,8.764c.181.757.244,1.541.386,2.47.792,0,1.625.048,2.451-.011a2.329,2.329,0,0,1,2.413,1.384c2.9,5.161,5.857,10.292,8.8,15.432.169.295.349.583.656,1.092.028-.516.056-.8.056-1.086q0-7.2,0-14.4c0-1.9.369-2.313,2.232-2.506a7.85,7.85,0,0,0,7.111-6,13.382,13.382,0,0,0,.278-1.855c.138-1.083.749-1.7,1.665-1.666a1.6,1.6,0,0,1,1.528,1.879,11.009,11.009,0,0,1-6.229,9.7,32.351,32.351,0,0,1-3.371,1.286v.964q0,9.55,0,19.1c0,.343.084.766-.08,1.013-.323.487-.736,1.129-1.216,1.236s-1.111-.319-1.628-.6c-.213-.116-.3-.461-.445-.705-3.7-6.474-7.441-12.923-11.057-19.444-.763-1.376-1.588-1.982-3.245-1.435v.868q0,7.245,0,14.489c-.009,6.924-4.848,11.763-11.79,11.773q-10.914.016-21.828-.013a2.294,2.294,0,0,0-1.807.73q-10.315,10.374-20.677,20.7a5.562,5.562,0,0,1-.842.745,1.542,1.542,0,0,1-2.391-.9,4.319,4.319,0,0,1-.1-1.117q-.008-9.6,0-19.194V795.9a12.13,12.13,0,0,1-6.028-2.974,11.489,11.489,0,0,1-3.41-6.241c-.044-.212-.119-.418-.179-.627Z" transform="translate(0 0)" fill="#eeeff3" stroke="rgba(0,0,0,0)" stroke-width="1"/>
    <path id="Path_4793" data-name="Path 4793" d="M2511.577,773.962c.227-1.571.474-3.138.674-4.713.269-2.116.621-2.451,2.73-2.451h12.688c1.6.006,2.371.545,2.353,1.638-.018,1.058-.775,1.583-2.312,1.584-3.791,0-7.582.02-11.372-.014-.749-.007-1.009.211-1.1.975-.335,2.765-.759,5.518-1.153,8.276-.035.248-.013.561-.155.725-.384.444-.8,1.078-1.283,1.158a1.838,1.838,0,0,1-1.554-.69c-1.208-2.187-2.3-4.441-3.373-6.7a1.476,1.476,0,0,1,.785-1.962,1.512,1.512,0,0,1,1.986.535c.34.517.594,1.091.887,1.64Z" transform="translate(-169.024 -31.842)" fill="#eeeff3" stroke="rgba(0,0,0,0)" stroke-width="1"/>
    <path id="Path_4794" data-name="Path 4794" d="M2676.687,797.14c.983,0,1.664-.024,2.344.005,1.135.049,1.808.677,1.8,1.63-.011.969-.669,1.559-1.831,1.57-2.006.019-4.011,0-6.017.006a1.6,1.6,0,0,1-1.626-1.034,1.544,1.544,0,0,1,.452-1.791,41.926,41.926,0,0,0,3.349-3.6c-.688,0-1.376.012-2.064,0-1.121-.023-1.843-.646-1.854-1.576a1.659,1.659,0,0,1,1.824-1.619c2.005-.025,4.011-.007,6.017-.007a1.613,1.613,0,0,1,1.646,1.021,1.646,1.646,0,0,1-.483,1.879C2679.125,794.722,2678.016,795.825,2676.687,797.14Z" transform="translate(-299.756 -50.953)" fill="#eeeff3" stroke="rgba(0,0,0,0)" stroke-width="1"/>
    <path id="Path_4795" data-name="Path 4795" d="M2452.458,788.882c.675-.764,1.185-1.4,1.752-1.971.926-.939,1.813-1.03,2.546-.319.707.686.613,1.658-.257,2.554-.545.562-1.1,1.114-1.647,1.672-.021.022-.034.052-.182.286.633.564,1.336,1.134,1.972,1.772a1.611,1.611,0,1,1-2.269,2.252c-.625-.611-1.2-1.273-1.9-2.026-.72.746-1.327,1.4-1.967,2.029a1.651,1.651,0,0,1-2.417.164,1.6,1.6,0,0,1,.142-2.408c.613-.622,1.274-1.2,2.077-1.944-.72-.671-1.347-1.219-1.931-1.809-.866-.875-.948-1.776-.27-2.484.71-.742,1.635-.674,2.55.241C2451.228,787.462,2451.745,788.089,2452.458,788.882Z" transform="translate(-121.113 -47.28)" fill="#eeeff3" stroke="rgba(0,0,0,0)" stroke-width="1"/>
    <path id="Path_4796" data-name="Path 4796" d="M2558.061,799.057c-.6-.656-1.232-1.312-1.832-1.993a1.614,1.614,0,0,1-.071-2.348,1.646,1.646,0,0,1,2.415.175c.594.6,1.157,1.232,1.822,1.944.735-.683,1.433-1.373,2.176-2.011a1.566,1.566,0,0,1,2.489,1.727,2.239,2.239,0,0,1-.58.836q-2.974,2.942-5.977,5.854a1.629,1.629,0,0,1-2.488.15,1.649,1.649,0,0,1,.225-2.417c.586-.608,1.187-1.2,1.779-1.8C2558.037,799.15,2558.039,799.116,2558.061,799.057Z" transform="translate(-207.371 -53.786)" fill="#eeeff3" stroke="rgba(0,0,0,0)" stroke-width="1"/>
    <path id="Path_4797" data-name="Path 4797" d="M2614.758,797.5c-1.288-.144-3.111.335-3.072-1.679.037-1.9,1.777-1.514,3.078-1.6.156-1.3-.3-3.117,1.682-3.109,1.93.008,1.522,1.753,1.594,3.05,1.274.244,3.175-.348,3.128,1.757-.044,1.979-1.838,1.392-3.076,1.587-.227,1.231.4,3.094-1.655,3.091C2614.414,800.6,2614.949,798.774,2614.758,797.5Z" transform="translate(-252.189 -51.27)" fill="#eeeff3" stroke="rgba(0,0,0,0)" stroke-width="1"/>
    <path id="Path_4798" data-name="Path 4798" d="M2656.956,870.754a1.6,1.6,0,0,1,1.548,1.567,1.588,1.588,0,0,1-3.176.017A1.608,1.608,0,0,1,2656.956,870.754Z" transform="translate(-287.054 -114.889)" fill="#eeeff3" stroke="rgba(0,0,0,0)" stroke-width="1"/>
    <path id="Path_4799" data-name="Path 4799" d="M2688.794,870.741a1.581,1.581,0,0,1,1.611,1.5,1.549,1.549,0,0,1-1.537,1.649,1.587,1.587,0,0,1-1.63-1.576A1.626,1.626,0,0,1,2688.794,870.741Z" transform="translate(-312.544 -114.878)" fill="#eeeff3" stroke="rgba(0,0,0,0)" stroke-width="1"/>
    <path id="Path_4800" data-name="Path 4800" d="M2722.371,872.306a1.533,1.533,0,0,1-1.487,1.6,1.576,1.576,0,0,1-1.667-1.527,1.6,1.6,0,0,1,1.6-1.608A1.558,1.558,0,0,1,2722.371,872.306Z" transform="translate(-338.091 -114.899)" fill="#eeeff3" stroke="rgba(0,0,0,0)" stroke-width="1"/>
    <path id="Path_4801" data-name="Path 4801" d="M2447.673,967.574a4.89,4.89,0,0,1,8.085,3.783,18.815,18.815,0,0,1,1.264-2.365c1.759-2.424,4.3-2.831,7.05-2.526a1.547,1.547,0,0,1,.141,3,8.831,8.831,0,0,1-1.862.142,3.215,3.215,0,1,0,.038,6.414c.439.006.88-.02,1.316.012a1.6,1.6,0,1,1-.043,3.19c-3.516.232-6.483-.859-7.949-4.959,0,1.1.035,2.192-.01,3.286a1.6,1.6,0,1,1-3.187-.05c-.011-.219,0-.439,0-.658q0-2.445,0-4.891a6.479,6.479,0,0,0-.015-.752,1.621,1.621,0,0,0-1.664-1.573,1.578,1.578,0,0,0-1.519,1.7c-.027,1.222-.008,2.445-.009,3.668,0,.784.019,1.568-.005,2.351-.037,1.17-.706,1.9-1.667,1.87-.945-.033-1.525-.718-1.537-1.878-.017-1.787,0-3.574-.008-5.361a5.4,5.4,0,0,0-.053-.935,1.57,1.57,0,0,0-1.6-1.412,1.518,1.518,0,0,0-1.526,1.583c-.043,1.88-.014,3.762-.03,5.642a5.02,5.02,0,0,1-.122,1.208,1.426,1.426,0,0,1-1.523,1.14,1.357,1.357,0,0,1-1.484-1.287,50.492,50.492,0,0,1,.1-7.787c.442-3.194,4.268-4.708,7.06-3.05C2447.172,967.231,2447.425,967.411,2447.673,967.574Z" transform="translate(-114.751 -191.279)" fill="#eeeff3" stroke="rgba(0,0,0,0)" stroke-width="1"/>
    <path id="Path_4802" data-name="Path 4802" d="M2331.083,953.7v3.207h4.022c1.63,0,2.368.509,2.353,1.62-.014,1.088-.767,1.586-2.4,1.587h-3.925v3.2h4.562c.533,0,1.066-.014,1.6,0a1.665,1.665,0,0,1,1.8,1.637,1.634,1.634,0,0,1-1.78,1.556c-1.973.022-3.947.007-5.921.007-.595,0-1.191.017-1.785-.006a1.6,1.6,0,0,1-1.74-1.694q-.049-6.3,0-12.592a1.594,1.594,0,0,1,1.784-1.735q3.806-.035,7.612,0a1.631,1.631,0,0,1,1.834,1.589,1.668,1.668,0,0,1-1.839,1.609c-1.691.031-3.383.009-5.074.01Z" transform="translate(-25.435 -178.577)" fill="#eeeff3" stroke="rgba(0,0,0,0)" stroke-width="1"/>
    <path id="Path_4803" data-name="Path 4803" d="M2554.671,897.969c1.353,0,2.689-.01,4.025.006a4.265,4.265,0,0,1,1.2.14,1.431,1.431,0,0,1,1.067,1.657,1.362,1.362,0,0,1-1.322,1.355c-2.284.058-4.573.08-6.854-.024a1.719,1.719,0,0,1-1.247-1.038c-.557-2.615.046-5.753,3.477-6.724.507-.143,1.053-.145,1.566-.271a1.491,1.491,0,0,0,1.174-1.677,1.443,1.443,0,0,0-1.322-1.367,1.468,1.468,0,0,0-1.735,1.083,6.335,6.335,0,0,0-.143.64,1.546,1.546,0,0,1-1.812,1.355,1.61,1.61,0,0,1-1.349-1.841,4.8,4.8,0,1,1,5.438,5.038C2555.152,896.537,2554.89,896.728,2554.671,897.969Z" transform="translate(-203.998 -127.696)" fill="#eeeff3" stroke="rgba(0,0,0,0)" stroke-width="1"/>
    <path id="Path_4804" data-name="Path 4804" d="M2395.161,998.4c.564,0,1.131-.042,1.69.01a1.54,1.54,0,0,1,1.464,1.55,1.506,1.506,0,0,1-1.417,1.588,28.284,28.284,0,0,1-3.566-.01,1.5,1.5,0,0,1-1.372-1.623,1.534,1.534,0,0,1,1.417-1.5c.589-.059,1.189-.011,1.784-.011Z" transform="translate(-76.658 -216.846)" fill="#eeeff3" stroke="rgba(0,0,0,0)" stroke-width="1"/>
    <path id="Path_4805" data-name="Path 4805" d="M2395.168,977.7c-.594,0-1.193.047-1.782-.011a1.475,1.475,0,0,1-1.39-1.5,1.362,1.362,0,0,1,1.212-1.538,24.981,24.981,0,0,1,3.921,0,1.384,1.384,0,0,1,1.2,1.63,1.427,1.427,0,0,1-1.378,1.405C2396.361,977.748,2395.762,977.7,2395.168,977.7Z" transform="translate(-76.688 -197.83)" fill="#eeeff3" stroke="rgba(0,0,0,0)" stroke-width="1"/>
    <path id="Path_4806" data-name="Path 4806" d="M2489.381,902.774a1.562,1.562,0,1,1-.052,3.123,1.562,1.562,0,1,1,.052-3.123Z" transform="translate(-153.209 -140.468)" fill="#eeeff3" stroke="rgba(0,0,0,0)" stroke-width="1"/>
    <path id="Path_4807" data-name="Path 4807" d="M2361.54,902.745a1.537,1.537,0,0,1,1.576,1.511,1.56,1.56,0,0,1-1.56,1.629,1.6,1.6,0,0,1-1.594-1.612A1.581,1.581,0,0,1,2361.54,902.745Z" transform="translate(-51.097 -140.445)" fill="#eeeff3" stroke="rgba(0,0,0,0)" stroke-width="1"/>
    <path id="Path_4808" data-name="Path 4808" d="M2457.337,905.89a1.553,1.553,0,0,1-1.469-1.709,1.534,1.534,0,0,1,1.655-1.422,1.578,1.578,0,0,1,1.494,1.609A1.6,1.6,0,0,1,2457.337,905.89Z" transform="translate(-127.708 -140.455)" fill="#eeeff3" stroke="rgba(0,0,0,0)" stroke-width="1"/>
    <path id="Path_4809" data-name="Path 4809" d="M2395.1,904.387a1.57,1.57,0,1,1-1.455-1.624A1.538,1.538,0,0,1,2395.1,904.387Z" transform="translate(-76.659 -140.456)" fill="#eeeff3" stroke="rgba(0,0,0,0)" stroke-width="1"/>
    <path id="Path_4810" data-name="Path 4810" d="M2425.5,905.89a1.555,1.555,0,0,1-1.553-1.631,1.536,1.536,0,0,1,1.576-1.506,1.569,1.569,0,1,1-.023,3.137Z" transform="translate(-102.208 -140.451)" fill="#eeeff3" stroke="rgba(0,0,0,0)" stroke-width="1"/>
  </g>
</svg>
