<svg xmlns="http://www.w3.org/2000/svg" width="19.997" height="15.998" viewBox="0 0 19.997 15.998">
  <path id="ios-eye-off" d="M10,12.495A4.482,4.482,0,0,1,5.535,8.336L2.257,5.8A10.414,10.414,0,0,0,1.11,7.54a1.011,1.011,0,0,0,0,.912A10.021,10.021,0,0,0,10,13.994a9.705,9.705,0,0,0,2.434-.327l-1.621-1.254a4.5,4.5,0,0,1-.812.082Zm9.805,1.815-3.454-2.67A10.35,10.35,0,0,0,18.89,8.451a1.011,1.011,0,0,0,0-.912A10.021,10.021,0,0,0,10,2,9.628,9.628,0,0,0,5.4,3.174L1.422.1A.5.5,0,0,0,.72.19L.107.979a.5.5,0,0,0,.088.7L18.578,15.889a.5.5,0,0,0,.7-.088l.614-.79A.5.5,0,0,0,19.805,14.31Zm-5.74-4.437-1.228-.949a2.961,2.961,0,0,0-3.628-3.81A1.489,1.489,0,0,1,9.5,6a1.457,1.457,0,0,1-.048.312l-2.3-1.778A4.446,4.446,0,0,1,10,3.5,4.5,4.5,0,0,1,14.5,8a4.393,4.393,0,0,1-.434,1.878Z" transform="translate(-0.001 0.003)" fill="#a8a8a8"/>
</svg>
