<svg id="crown" xmlns="http://www.w3.org/2000/svg" width="35.449" height="21.634" viewBox="0 0 35.449 21.634">
  <path id="Path_2507" data-name="Path 2507" d="M145.384,132.731v1.092h29.552v-1.092H145.384Z" transform="translate(-142.293 -112.188)" fill="#fff"/>
  <path id="Path_2508" data-name="Path 2508" d="M166.485,45.259a1.03,1.03,0,1,0-1.334.978c-.086.321-.2.695-.343,1.092-.106.292-.229.6-.371.9q-.071.153-.148.306c-.1.2-.215.405-.336.6a6.908,6.908,0,0,1-.391.572,4.991,4.991,0,0,1-.911.931,3.9,3.9,0,0,1-.328.231,3.541,3.541,0,0,1-.391.206,3.452,3.452,0,0,1-2.053.254,3.205,3.205,0,0,1-1-.333,2.9,2.9,0,0,1-.277-.169,4.167,4.167,0,0,1-1.544-2.718,9.969,9.969,0,0,1-.173-1.9c0-.2,0-.389.012-.57.014-.342.04-.645.067-.891a1.027,1.027,0,1,0-.819-.148A10.077,10.077,0,0,1,156,46.01a4.581,4.581,0,0,1-1.269,2.674,2.4,2.4,0,0,1-.194.15,2.317,2.317,0,0,1-1.24.405,3.044,3.044,0,0,1-.307,0,2.61,2.61,0,0,1-1.1-.306,2.72,2.72,0,0,1-.313-.2,3.458,3.458,0,0,1-.791-.83,5.307,5.307,0,0,1-.414-.715,7.565,7.565,0,0,1-.334-.812c-.1-.283-.185-.578-.262-.88s-.142-.61-.2-.92a23.416,23.416,0,0,1-.325-4.068,1.582,1.582,0,0,0,.784-.438c.006-.006.01-.013.016-.019a1.615,1.615,0,0,0,.172-.212c.016-.023.026-.05.041-.075a1.536,1.536,0,0,0,.1-.192,1.5,1.5,0,0,0,.048-.153c.014-.047.033-.093.044-.142a1.6,1.6,0,0,0,.032-.316v0h0a1.592,1.592,0,0,0-.032-.318c-.01-.048-.029-.093-.043-.14a1.59,1.59,0,0,0-.048-.156,1.567,1.567,0,0,0-.1-.192c-.014-.024-.025-.051-.041-.075a1.6,1.6,0,0,0-.174-.214c-.005-.006-.009-.012-.014-.018a1.589,1.589,0,1,0-1.387,2.677c.19,2.654.2,8.3-3.146,8.487-2.7.152-3.537-3.064-3.767-4.372a1.026,1.026,0,1,0-.894.065c.184,1.576.348,5.715-2.9,6.253-3.366.558-4.808-3.083-5.3-4.846a1.035,1.035,0,1,0-.672.165l2.073,10.534h29.726l2.086-10.6A1.029,1.029,0,0,0,166.485,45.259ZM135.841,55.446l-.731-1.834.731-1.833.732,1.833Zm6.46,0-.731-1.834.731-1.833.731,1.833Zm19.379-3.668.731,1.833-.731,1.834-.731-1.834Zm-6.46,3.668-.731-1.834.731-1.833.731,1.833Zm-7.191-1.834.731-1.833.731,1.833-.731,1.834Z" transform="translate(-131.036 -37.37)" fill="#fff"/>
</svg>
