<svg xmlns="http://www.w3.org/2000/svg" width="30" height="30" viewBox="0 0 30 30">
  <g id="camera" transform="translate(-211 -298)">
    <path id="back" d="M15,0A15,15,0,1,1,0,15,15,15,0,0,1,15,0Z" transform="translate(211 298)" fill="#1d6cba"/>
    <g id="camera-2" data-name="camera" transform="translate(218.5 306.25)">
      <path id="Path_2734" data-name="Path 2734" d="M18,15.6a2.4,2.4,0,1,1-2.4-2.4A2.4,2.4,0,0,1,18,15.6Z" transform="translate(-8.1 -8.1)" fill="#fff"/>
      <path id="Path_2735" data-name="Path 2735" d="M8.25,3,6.878,4.5H4.5A1.5,1.5,0,0,0,3,6v9a1.5,1.5,0,0,0,1.5,1.5h12A1.5,1.5,0,0,0,18,15V6a1.5,1.5,0,0,0-1.5-1.5H14.122L12.75,3ZM10.5,14.25a3.75,3.75,0,1,1,3.75-3.75A3.751,3.751,0,0,1,10.5,14.25Z" transform="translate(-3 -3)" fill="#fff"/>
    </g>
  </g>
</svg>
