<svg xmlns="http://www.w3.org/2000/svg" width="28.322" height="28.434" viewBox="0 0 28.322 28.434">
    <defs>
        <clipPath id="bzi4r2wjma">
            <path data-name="Rectangle 62" style="fill:none" d="M0 0h28.322v28.434H0z"/>
        </clipPath>
    </defs>
    <g data-name="Group 6625" style="clip-path:url(#bzi4r2wjma)">
        <path data-name="Path 4909" d="M14.18 4.837C13.138 5.875 12.2 6.8 11.273 7.733Q7.385 11.624 3.5 15.517a2.024 2.024 0 0 1-2.572.3 2 2 0 0 1-.8-2.38 2.364 2.364 0 0 1 .517-.785Q6.6 6.681 12.564.729a2.026 2.026 0 0 1 3.108 0q5.967 5.954 11.923 11.92a2.042 2.042 0 1 1-2.88 2.872q-5.085-5.092-10.16-10.187a4.743 4.743 0 0 1-.375-.5" style="fill:#2d83d0"/>
        <path data-name="Path 4910" d="M10.566 3.568a3.619 3.619 0 0 1-.3.429q-3.8 3.813-7.6 7.62a1.5 1.5 0 0 1-1.532.445 1.437 1.437 0 0 1-1.09-1.122 1.508 1.508 0 0 1 .475-1.49Q4.962 5.019 9.4.578l.1-.1a1.5 1.5 0 0 1 2.2.007Q16.239 5 20.757 9.535a1.528 1.528 0 1 1-2.169 2.146q-3.819-3.817-7.628-7.643c-.109-.109-.2-.237-.394-.47" transform="translate(3.531 14.217)" style="fill:rgba(45,131,208,.5)"/>
    </g>
</svg>
