<svg xmlns="http://www.w3.org/2000/svg" width="26.41" height="28.319" viewBox="0 0 26.41 28.319">
    <g data-name="pre">
        <path data-name="Path 4909" d="M14.18 11.4c-1.042-1.038-1.976-1.965-2.907-2.9Q7.385 4.616 3.5.724A2.024 2.024 0 0 0 .927.423a2 2 0 0 0-.8 2.38 2.364 2.364 0 0 0 .517.785Q6.6 9.559 12.564 15.512a2.026 2.026 0 0 0 3.108 0Q21.639 9.562 27.595 3.6a2.051 2.051 0 0 0 .128-3.011 2.061 2.061 0 0 0-3.009.136Q19.63 5.811 14.555 10.906a4.743 4.743 0 0 0-.375.5" transform="rotate(90 8.12 8.12)" style="fill:#2d83d0"/>
        <path data-name="Path 4910" d="M10.566 8.625a3.619 3.619 0 0 0-.3-.429q-3.8-3.813-7.6-7.62A1.5 1.5 0 0 0 1.129.131 1.437 1.437 0 0 0 .044 1.253a1.508 1.508 0 0 0 .475 1.49Q4.962 7.175 9.4 11.615l.1.1a1.5 1.5 0 0 0 2.205-.007q4.535-4.517 9.054-9.05a1.528 1.528 0 1 0-2.17-2.145Q14.77 4.33 10.96 8.156c-.109.109-.2.237-.394.47" transform="rotate(90 11.44 14.971)" style="fill:rgba(45,131,208,.5)"/>
    </g>
</svg>
