<svg xmlns="http://www.w3.org/2000/svg" width="66.503" height="100.522" viewBox="0 0 66.503 100.522">
  <g id="contest" transform="translate(-86.646)" opacity="0.2">
    <g id="XMLID_138_" transform="translate(86.646 0)">
      <path id="XMLID_747_" d="M151.186,96.584h-8.509V80.7a10.826,10.826,0,0,0-10.813-10.813h-2.8l-2.2-17.273,4.2,3.068a5.764,5.764,0,0,0,6.891.008,5.765,5.765,0,0,0,2.123-6.557l-4.312-13.171,11.267-8.148a5.853,5.853,0,0,0-3.43-10.6H129.7L125.442,4.053a5.854,5.854,0,0,0-11.139,0l-4.255,13.164H96.14a5.853,5.853,0,0,0-3.43,10.6l11.267,8.148L99.664,49.133a5.853,5.853,0,0,0,9.014,6.549l4.2-3.068-2.2,17.272h-2.8A10.826,10.826,0,0,0,97.068,80.7V96.584H88.609a1.963,1.963,0,0,0,0,3.926h22.43a1.963,1.963,0,0,0,0-3.926H100.994V80.7a6.9,6.9,0,0,1,6.887-6.887h23.982a6.9,6.9,0,0,1,6.887,6.887V96.584H128.707a1.963,1.963,0,0,0,0,3.926h22.48a1.963,1.963,0,0,0,0-3.926ZM106.364,52.51a1.927,1.927,0,0,1-2.968-2.156l4.757-14.533a1.963,1.963,0,0,0-.715-2.2L95.01,24.632a1.927,1.927,0,0,1,1.129-3.489h15.337a1.963,1.963,0,0,0,1.868-1.359l4.695-14.523a1.927,1.927,0,0,1,3.668,0L126.4,19.784a1.963,1.963,0,0,0,1.868,1.359h15.337a1.927,1.927,0,0,1,1.129,3.489l-12.428,8.988a1.963,1.963,0,0,0-.715,2.2l4.757,14.533a1.927,1.927,0,0,1-2.968,2.156L121.03,43.494a1.963,1.963,0,0,0-2.315,0Zm8.278,17.376,2.6-20.457,2.628-1.918,2.628,1.918,2.6,20.457Z" transform="translate(-86.646 0)" fill="#eeeff3"/>
      <path id="XMLID_749_" d="M221.8,425.963A1.963,1.963,0,0,0,219.837,424H201.719a1.963,1.963,0,1,0,0,3.926h18.118A1.963,1.963,0,0,0,221.8,425.963Z" transform="translate(-177.551 -340.765)" fill="#eeeff3"/>
      <path id="XMLID_750_" d="M239.5,142.963A1.963,1.963,0,0,0,237.541,141h-6.675a1.963,1.963,0,0,0,0,3.926h6.675A1.963,1.963,0,0,0,239.5,142.963Z" transform="translate(-200.977 -113.32)" fill="#eeeff3"/>
      <path id="XMLID_759_" d="M323.866,31.566a1.957,1.957,0,0,0,1.388-.575l4.973-4.973a1.963,1.963,0,0,0-2.776-2.776l-4.973,4.973a1.963,1.963,0,0,0,1.388,3.351Z" transform="translate(-275.719 -18.217)" fill="#eeeff3"/>
      <path id="XMLID_762_" d="M366.314,183.562a1.963,1.963,0,0,0,1,2.589l6.435,2.839a1.963,1.963,0,0,0,1.585-3.592l-6.435-2.839A1.964,1.964,0,0,0,366.314,183.562Z" transform="translate(-311.278 -146.586)" fill="#eeeff3"/>
      <path id="XMLID_764_" d="M94.839,189.154a1.953,1.953,0,0,0,.791-.168l6.435-2.839a1.963,1.963,0,0,0-1.585-3.592l-6.435,2.839a1.963,1.963,0,0,0,.793,3.76Z" transform="translate(-91.652 -146.583)" fill="#eeeff3"/>
      <path id="XMLID_765_" d="M150.117,30.991a1.963,1.963,0,0,0,2.776-2.776l-4.973-4.973a1.963,1.963,0,0,0-2.776,2.776Z" transform="translate(-133.198 -18.217)" fill="#eeeff3"/>
      <path id="XMLID_769_" d="M247.866,492.06a1.964,1.964,0,1,0,1.388.575A1.977,1.977,0,0,0,247.866,492.06Z" transform="translate(-214.639 -395.464)" fill="#eeeff3"/>
    </g>
  </g>
</svg>
