<svg xmlns="http://www.w3.org/2000/svg" xmlns:xlink="http://www.w3.org/1999/xlink" width="203.399" height="95.536" viewBox="0 0 203.399 95.536">
  <defs>
    <linearGradient id="linear-gradient" x2="1" y2="1" gradientUnits="objectBoundingBox">
      <stop offset="0" stop-color="#00b3d5"/>
      <stop offset="1" stop-color="#00e1d3"/>
    </linearGradient>
  </defs>
  <g id="Sad_Puppy" data-name="Sad Puppy" transform="translate(-775.327 -480.23)">
    <g id="Puppy" transform="translate(775.327 480.23)">
      <path id="Path_3163" data-name="Path 3163" d="M926.763,555.153c-.08.34-.165.68-.25,1.02-4.932.473-15.251,1.623-23.281,2.535a15.965,15.965,0,0,0-5.348,1.581,15.685,15.685,0,0,0-2.227,1.352l-.119.088a15.989,15.989,0,0,0-4.676,5.454c-.018-.052-.037-.1-.055-.158-.885-2.661-.986-7.609,3.555-16.074a69.65,69.65,0,0,0,8.938-25.415c.045-.345.084-.679.119-1a45.29,45.29,0,0,0,.26-6.308,24.617,24.617,0,0,0-.419-4.14,1.219,1.219,0,1,0-2.379.529,27.933,27.933,0,0,1,.356,6.043c-.177,6.111-1.8,16.448-9,29.1l-.015.026c-4.015,7.479-5.257,13.576-3.69,18.12,0,0,0,.009.005.015a9.726,9.726,0,0,0,1.124,2.263,16.02,16.02,0,0,0-.619,4.42,4.906,4.906,0,0,0,.686,2.51H845.666l-.285-.217a45.837,45.837,0,0,1-6.652-6.272q-.828-.964-1.557-1.93a28.141,28.141,0,0,1-4.318-7.917,21.5,21.5,0,0,1-.654-2.358,19.447,19.447,0,0,1-.289-6.631c1.088-8.454,3.022-11.229,5.071-14.167A29.33,29.33,0,0,0,842.25,525.7q.292-1.271.659-2.639c.28-1.038.6-2.115.952-3.218,4.49-13.941,15.285-32.116,41.084-33.345a38.875,38.875,0,0,1,32.714,14.836,47.625,47.625,0,0,1,6.272,10.153q.534,1.163,1.011,2.36C929.68,525.7,930.381,540.065,926.763,555.153Z" transform="translate(-809.632 -484.011)" fill="#fff"/>
      <path id="Path_3164" data-name="Path 3164" d="M940.58,582.561c0,8.683-5.266,15.722-11.761,15.722s-11.761-7.039-11.761-15.722,3.335-22.182,9.83-22.182S940.58,573.877,940.58,582.561Z" transform="translate(-861.496 -528.959)" stroke="rgba(0,0,0,0)" stroke-width="1" fill="url(#linear-gradient)"/>
      <path id="Path_3165" data-name="Path 3165" d="M811.262,693.059H783.807a2.265,2.265,0,0,1-2.262-2.263,12.331,12.331,0,0,1,10.131-12.138l2.028-.368,2.7-.49,3.521-.639q.32.993.731,1.984a33.9,33.9,0,0,0,5.745,9.064A47.363,47.363,0,0,0,811.262,693.059Z" transform="translate(-779.107 -599.96)" fill="#e7e4e7"/>
      <path id="Path_3166" data-name="Path 3166" d="M818.816,615.041a21.775,21.775,0,0,0,.321,7.376l-4.281.778a9.3,9.3,0,0,1-.632-2.833c-.658-8.869,8.479-21.923,14.384-29.357a26.121,26.121,0,0,1-4.3,8.786C822.18,602.842,819.981,605.995,818.816,615.041Z" transform="translate(-798.955 -547.579)" fill="#e7e4e7"/>
      <path id="Path_3167" data-name="Path 3167" d="M1177.282,580.589c-.59,1.928-3.127,3.93-5.733,5.524-.634-.708-1.3-1.425-2-2.143a68.753,68.753,0,0,0-6.375-5.817,41.864,41.864,0,0,1,4.219-1.073c3.478-.678,7.963-.973,9.578,1.471a3,3,0,0,1,.192.335A2.214,2.214,0,0,1,1177.282,580.589Z" transform="translate(-1011.133 -538.822)" fill="#fff"/>
      <path id="Path_3168" data-name="Path 3168" d="M1103.223,611.847v2.272a5.251,5.251,0,0,1-5.244,5.246H998.266a1.061,1.061,0,0,0-.141-.009H986.61a2.5,2.5,0,0,1-2.5-2.5,13.544,13.544,0,0,1,.829-4.674c.027-.075.055-.151.084-.225a13.548,13.548,0,0,1,11.117-8.572c8.517-.966,19.61-2.2,24.083-2.609h.007l.032,0,.813-.074v-.005l2.4-.232a1.218,1.218,0,1,0-.235-2.425l-1.52.147h0a76.293,76.293,0,0,0,1.419-31.123,59.741,59.741,0,0,0-3.03-11.089q1.362-.036,2.689,0a48.328,48.328,0,0,1,25.736,8.351q.431.287.855.58,1.143.79,2.223,1.615a66.257,66.257,0,0,1,8.919,8.267c.568.63,1.115,1.259,1.639,1.88,1.628,1.932,3.042,3.806,4.242,5.524a19.946,19.946,0,0,0,12.464,8.156l8.078,1.628A20.337,20.337,0,0,1,1103.223,611.847Z" transform="translate(-902.263 -526.265)" fill="#fff"/>
      <path id="Path_3169" data-name="Path 3169" d="M973.588,551.423a22.78,22.78,0,0,0-13.092-7.879l-8.077-1.627a17.518,17.518,0,0,1-10.948-7.164c-1.136-1.626-2.507-3.452-4.112-5.368,3.616-2.261,5.784-4.5,6.449-6.673a4.72,4.72,0,0,0-.6-4.1c-1.9-2.87-5.973-3.716-12.113-2.513a46.9,46.9,0,0,0-6.074,1.66q-1.531-1.111-3.174-2.155a50.352,50.352,0,0,0-29.655-8.077,50.125,50.125,0,0,0-6.938-11.513,42.568,42.568,0,0,0-15.335-12.045,41.223,41.223,0,0,0-19.39-3.692c-13.8.657-24.947,6.006-33.123,15.9a59.86,59.86,0,0,0-11,21.921v0a134.946,134.946,0,0,0-8.64,11.188c-6.808,9.916-10.037,17.958-9.6,23.9a11.967,11.967,0,0,0,.626,3.1l-1.333.243a14.765,14.765,0,0,0-12.133,14.535,4.706,4.706,0,0,0,4.7,4.7H971.044a7.692,7.692,0,0,0,7.682-7.683v-2.272A22.775,22.775,0,0,0,973.588,551.423Zm-42-32.934c3.478-.678,7.963-.973,9.578,1.471a2.26,2.26,0,0,1,.307,2.038c-.59,1.928-3.127,3.93-5.733,5.524a70.117,70.117,0,0,0-8.371-7.96A41.879,41.879,0,0,1,931.591,518.489ZM804.98,523.657a26.12,26.12,0,0,1-4.3,8.786c-2.126,3.051-4.324,6.2-5.489,15.25a21.776,21.776,0,0,0,.321,7.376l-4.281.778a9.3,9.3,0,0,1-.632-2.833C789.938,544.144,799.075,531.09,804.98,523.657Zm-24.953,49.673a2.265,2.265,0,0,1-2.262-2.263A12.331,12.331,0,0,1,787.9,558.928l2.028-.368,2.7-.49,3.521-.639q.32.993.731,1.984a33.909,33.909,0,0,0,5.745,9.064,47.381,47.381,0,0,0,4.863,4.85ZM856.5,563.242c-.885-2.661-.986-7.609,3.555-16.074,6.332-11.131,8.419-20.509,9.058-26.418a35.094,35.094,0,0,0-.16-10.448,1.219,1.219,0,1,0-2.379.529c.032.143,3.053,14.586-8.644,35.146l-.015.026c-4.015,7.479-5.257,13.576-3.69,18.12a9.7,9.7,0,0,0,1.129,2.278,16.019,16.019,0,0,0-.619,4.42,4.907,4.907,0,0,0,.686,2.51H811.361a45.9,45.9,0,0,1-6.937-6.489,29.981,29.981,0,0,1-5.876-9.847,21.5,21.5,0,0,1-.654-2.358,19.447,19.447,0,0,1-.289-6.631c1.088-8.454,3.023-11.229,5.071-14.167a29.329,29.329,0,0,0,5.268-11.919q.292-1.271.659-2.639c.28-1.038.6-2.115.952-3.218,4.49-13.941,15.284-32.116,41.084-33.344a38.875,38.875,0,0,1,32.714,14.836,47.625,47.625,0,0,1,6.272,10.153q.534,1.163,1.011,2.36c4.845,12.121,5.468,26.868,1.571,42.327-4.932.473-15.251,1.623-23.281,2.535a15.974,15.974,0,0,0-12.371,8.474C856.539,563.348,856.52,563.3,856.5,563.242Zm119.786,4.841a5.251,5.251,0,0,1-5.244,5.246H871.331a1.061,1.061,0,0,0-.141-.009H859.675a2.5,2.5,0,0,1-2.5-2.5A13.544,13.544,0,0,1,869.2,557.348c8.517-.966,19.61-2.2,24.083-2.609h.007l.032,0,.813-.074v-.005l2.4-.232A1.218,1.218,0,1,0,896.3,552l-1.52.147h0a76.294,76.294,0,0,0,1.419-31.123,59.736,59.736,0,0,0-3.03-11.089,48.35,48.35,0,0,1,29.28,8.931q1.143.79,2.223,1.615a66.263,66.263,0,0,1,8.919,8.267c.568.63,1.115,1.259,1.639,1.881,1.628,1.932,3.042,3.806,4.242,5.524a19.946,19.946,0,0,0,12.464,8.156l8.078,1.628a20.338,20.338,0,0,1,16.273,19.878Z" transform="translate(-775.327 -480.231)" fill="#4c3e36"/>
      <path id="Path_3170" data-name="Path 3170" d="M933.633,500.049c-.19-.1-4.7-2.414-8.554-1.176a3.706,3.706,0,0,0-2.617,2.289,3.573,3.573,0,0,0-.063,1.94,6.9,6.9,0,0,0-4.77,2.278,3.924,3.924,0,0,0-.6,3.978c1.185,2.813,5.326,4.315,8.807,4.782a1.051,1.051,0,0,0,.163.011,1.219,1.219,0,0,0,.161-2.427c-3.82-.513-6.355-2.055-6.885-3.313a1.471,1.471,0,0,1,.307-1.577c1.377-1.853,6.662-1.593,9.671-.995a1.219,1.219,0,0,0,.478-2.39,27.508,27.508,0,0,0-4.83-.49,1.621,1.621,0,0,1-.131-1.021c.127-.377.642-.613,1.052-.745,2.877-.925,6.645,1,6.683,1.018a1.219,1.219,0,0,0,1.126-2.162Z" transform="translate(-861.298 -491.344)" fill="#4c3e36"/>
      <path id="Path_3171" data-name="Path 3171" d="M889.648,673.57a5.281,5.281,0,0,0-4.2,1.982,1.219,1.219,0,0,0,1.921,1.5,2.859,2.859,0,0,1,2.25-1.045,2.517,2.517,0,0,1,2.029,1.024,1.218,1.218,0,1,0,1.953-1.458A4.962,4.962,0,0,0,889.648,673.57Z" transform="translate(-842.122 -597.776)" fill="#4c3e36"/>
      <path id="Path_3172" data-name="Path 3172" d="M940.766,609.371l-3.535-2.864A1.219,1.219,0,0,0,935.7,608.4l3.534,2.864a1.219,1.219,0,1,0,1.536-1.894Z" transform="translate(-872.554 -556.838)" fill="#4c3e36"/>
      <circle id="Ellipse_309" data-name="Ellipse 309" cx="1.767" cy="1.767" r="1.767" transform="translate(61.655 58.477)" fill="#4c3e36"/>
      <path id="Path_3173" data-name="Path 3173" d="M863.881,609.753l-3.919,2.31a1.219,1.219,0,1,0,1.238,2.1l3.92-2.31a1.219,1.219,0,0,0-1.238-2.1Z" transform="translate(-826.419 -558.874)" fill="#4c3e36"/>
      <circle id="Ellipse_310" data-name="Ellipse 310" cx="1.767" cy="1.767" r="1.767" transform="translate(34.842 57.867)" fill="#4c3e36"/>
      <path id="Path_3174" data-name="Path 3174" d="M891.252,646.341c-2.574,0-4.662.423-4.662.945s2,2.1,4.576,2.1,4.747-1.581,4.747-2.1S893.826,646.341,891.252,646.341Z" transform="translate(-842.973 -581.222)" fill="#4c3e36"/>
      <path id="Path_3175" data-name="Path 3175" d="M1108.523,564.346a15.589,15.589,0,0,1-11.8,4.2c-7.781-.428-13.855-5.972-13.934-12.547A48.328,48.328,0,0,1,1108.523,564.346Z" transform="translate(-962.257 -526.294)" fill="url(#linear-gradient)"/>
      <path id="Path_3176" data-name="Path 3176" d="M915.6,524.272a3.739,3.739,0,0,1-.292-1.232c-.464.83-1.69,3.374-.245,4.887,1.886,1.972,6.806,1.5,8.795,1.045C920.5,528.427,916.726,526.939,915.6,524.272Z" transform="translate(-859.87 -506.258)" fill="#e7e4e7"/>
      <path id="Path_3177" data-name="Path 3177" d="M1187.169,584.134a2.215,2.215,0,0,0-.114-1.7c-.29,1.217-1.688,3.4-7.614,5.083.7.718,1.361,1.434,2,2.143C1184.042,588.064,1186.58,586.062,1187.169,584.134Z" transform="translate(-1021.019 -542.366)" fill="#e7e4e7"/>
      <path id="Path_3178" data-name="Path 3178" d="M986.379,611a15.325,15.325,0,0,1,1.708-9c2.379-4.758,7.906-21.753,6.433-34.5a45.269,45.269,0,0,1-.26,6.308c-.035.324-.074.658-.119,1a69.65,69.65,0,0,1-8.938,25.415c-4.541,8.466-4.44,13.414-3.555,16.074.018.054.037.106.055.158A15.989,15.989,0,0,1,986.379,611Z" transform="translate(-900.473 -533.287)" fill="#e7e4e7"/>
      <path id="Path_3179" data-name="Path 3179" d="M1096.155,703.259s-107.557.853-109.629-.609a4.555,4.555,0,0,1-1.588-3.763,13.544,13.544,0,0,0-.829,4.674,2.5,2.5,0,0,0,2.5,2.5h11.515a1.051,1.051,0,0,1,.141.009h99.713a5.251,5.251,0,0,0,5.244-5.246v-2.262C1101.439,702.849,1096.155,703.259,1096.155,703.259Z" transform="translate(-902.263 -612.972)" fill="#e7e4e7"/>
      <path id="Path_3180" data-name="Path 3180" d="M954.54,696.526a9.724,9.724,0,0,1-1.123-2.263c-.02.142-.044.289-.071.438,0-.07,0-.139.007-.212-2.781,6.216-6.989,8.424-14.886,8.967h16.141a4.906,4.906,0,0,1-.686-2.51A16.024,16.024,0,0,1,954.54,696.526Z" transform="translate(-874.513 -610.358)" fill="#e7e4e7"/>
    </g>
  </g>
</svg>
