<svg id="rank_a" data-name="rank a" xmlns="http://www.w3.org/2000/svg" xmlns:xlink="http://www.w3.org/1999/xlink" width="25" height="31.051" viewBox="0 0 25 31.051">
  <defs>
    <linearGradient id="linear-gradient" x2="1" y2="1" gradientUnits="objectBoundingBox">
      <stop offset="0" stop-color="#00b3d5"/>
      <stop offset="1" stop-color="#00e1d3"/>
    </linearGradient>
  </defs>
  <path id="Path_2509" data-name="Path 2509" d="M97.469,73.959l-.692-.186-.186-.692a.218.218,0,0,0-.421,0l-.186.692-.692.186a.218.218,0,0,0,0,.421l.692.186.186.692a.218.218,0,0,0,.421,0l.186-.692.692-.186a.218.218,0,0,0,0-.421Z" transform="translate(-91.438 -72.92)" fill="#212121"/>
  <path id="Path_2510" data-name="Path 2510" d="M67.381,193.2l-.394-.106-.106-.394a.218.218,0,0,0-.421,0l-.106.394-.394.106a.218.218,0,0,0,0,.421l.394.106.106.394a.218.218,0,0,0,.421,0l.106-.394.394-.106a.218.218,0,0,0,0-.421Z" transform="translate(-65.798 -177.48)" fill="#212121"/>
  <g id="Group_1027" data-name="Group 1027" transform="translate(12.122 16.527)">
    <path id="Path_2511" data-name="Path 2511" d="M171.194,216.777l-2.372-.9a.727.727,0,0,0-.821.22l-1.6,1.964a.727.727,0,0,1-1.265-.272l-2.982-11.128a.727.727,0,0,1,.514-.89l5.617-1.505a.727.727,0,0,1,.89.514l2.982,11.128A.727.727,0,0,1,171.194,216.777Z" transform="translate(-162.126 -204.243)" fill="url(#linear-gradient)"/>
  </g>
  <g id="Group_1028" data-name="Group 1028" transform="translate(3.842 16.527)">
    <path id="Path_2512" data-name="Path 2512" d="M97.3,216.777l2.372-.9a.727.727,0,0,1,.821.22l1.6,1.964a.727.727,0,0,0,1.265-.272l2.982-11.128a.727.727,0,0,0-.514-.89l-5.617-1.505a.727.727,0,0,0-.89.514l-2.982,11.128A.727.727,0,0,0,97.3,216.777Z" transform="translate(-96.31 -204.243)" fill="url(#linear-gradient)"/>
  </g>
  <g id="Group_1030" data-name="Group 1030" transform="translate(3.842 16.527)">
    <g id="Group_1029" data-name="Group 1029">
      <path id="Path_2513" data-name="Path 2513" d="M98.371,215.909l2.982-11.128a.725.725,0,0,1,.082-.185l-1.227-.329a.727.727,0,0,0-.89.514l-2.982,11.128a.727.727,0,0,0,.96.868l1.1-.417A.713.713,0,0,1,98.371,215.909Z" transform="translate(-96.31 -204.243)" fill="#fff"/>
    </g>
  </g>
  <g id="Group_1032" data-name="Group 1032" transform="translate(12.125 16.528)">
    <g id="Group_1031" data-name="Group 1031">
      <path id="Path_2514" data-name="Path 2514" d="M164.332,206.664a.727.727,0,0,1,.514-.89l4.266-1.143a.726.726,0,0,0-.829-.362l-5.617,1.505a.727.727,0,0,0-.514.89l2.982,11.128a.727.727,0,0,0,1.265.272l.744-.911Z" transform="translate(-162.126 -204.243)" fill="#fff"/>
    </g>
  </g>
  <g id="Group_1033" data-name="Group 1033" transform="translate(5.694 16.53)" style="mix-blend-mode: multiply;isolation: isolate">
    <path id="Path_2515" data-name="Path 2515" d="M124.524,204.782a.727.727,0,0,0-.89-.514l-5.273,1.413-5.273-1.413a.727.727,0,0,0-.89.514l-1.152,4.3a4.69,4.69,0,0,1,1.32.581c.916.666,1.417,2.217,2.517,2.574.895.291,1.968-.336,2.988-.541l.49-1.828.482,1.8c1.064.167,2.2.874,3.14.569,1.1-.357,1.6-1.908,2.517-2.574a4.282,4.282,0,0,1,1.187-.538Z" transform="translate(-111.046 -204.243)" fill="#bdbdbd"/>
  </g>
  <g id="Group_1034" data-name="Group 1034" transform="translate(11.686 16.091)">
    <path id="Path_2516" data-name="Path 2516" d="M162.807,215.738a1.165,1.165,0,0,1-1.126-.862L158.7,203.748a1.163,1.163,0,0,1,.822-1.425l5.617-1.505a1.164,1.164,0,0,1,1.425.822l2.982,11.128a1.163,1.163,0,0,1-1.536,1.388l-2.372-.9a.291.291,0,0,0-.328.088l-1.6,1.964A1.157,1.157,0,0,1,162.807,215.738Zm2.633-14.087a.288.288,0,0,0-.075.01l-5.617,1.505a.291.291,0,0,0-.205.356l2.982,11.128a.291.291,0,0,0,.506.109l1.6-1.964a1.161,1.161,0,0,1,1.313-.352l2.371.9a.291.291,0,0,0,.384-.347l-2.982-11.128A.291.291,0,0,0,165.44,201.651Z" transform="translate(-158.659 -200.778)" fill="#212121"/>
  </g>
  <g id="Group_1035" data-name="Group 1035" transform="translate(3.406 16.091)">
    <path id="Path_2517" data-name="Path 2517" d="M99.629,215.739a1.158,1.158,0,0,1-.9-.427l-1.6-1.964a.291.291,0,0,0-.328-.088l-2.372.9a1.163,1.163,0,0,1-1.536-1.388l2.982-11.128a1.165,1.165,0,0,1,1.424-.823l5.618,1.505a1.163,1.163,0,0,1,.822,1.424l-2.982,11.128a1.165,1.165,0,0,1-1.126.862ZM96.9,212.368a1.162,1.162,0,0,1,.9.427l1.6,1.964a.291.291,0,0,0,.506-.109l2.982-11.128a.291.291,0,0,0-.205-.356l-5.618-1.505a.292.292,0,0,0-.356.206L93.733,213a.291.291,0,0,0,.384.347l2.372-.9A1.162,1.162,0,0,1,96.9,212.368Z" transform="translate(-92.85 -200.779)" fill="#212121"/>
  </g>
  <g id="Group_1038" data-name="Group 1038" transform="translate(1.163 0.42)">
    <g id="Group_1036" data-name="Group 1036" transform="translate(0.436 0.437)">
      <path id="Path_2518" data-name="Path 2518" d="M101.464,90.717c0,1.176-1.321,2.129-1.665,3.19-.357,1.1.139,2.644-.527,3.559s-2.3.927-3.224,1.6-1.417,2.216-2.517,2.573c-1.061.344-2.373-.6-3.549-.6s-2.488.948-3.549.6c-1.1-.357-1.6-1.907-2.517-2.573s-2.551-.675-3.224-1.6-.17-2.46-.527-3.559c-.345-1.061-1.665-2.014-1.665-3.19s1.32-2.129,1.665-3.19c.357-1.1-.139-2.644.527-3.559s2.3-.927,3.224-1.6,1.417-2.216,2.516-2.573c1.061-.344,2.373.6,3.549.6s2.488-.948,3.549-.6c1.1.357,1.6,1.907,2.517,2.573s2.551.675,3.224,1.6.17,2.46.527,3.559C100.144,88.588,101.464,89.541,101.464,90.717Z" transform="translate(-78.5 -79.719)" fill="#fff"/>
    </g>
    <g id="Group_1037" data-name="Group 1037">
      <path id="Path_2519" data-name="Path 2519" d="M90,99.119a5.371,5.371,0,0,1-1.627-.357,3.268,3.268,0,0,0-2.832,0,3.68,3.68,0,0,1-2.268.259,3.73,3.73,0,0,1-1.73-1.585,4.649,4.649,0,0,0-.909-1.051,4.7,4.7,0,0,0-1.3-.55,2.8,2.8,0,0,1-2.487-3.409,4.773,4.773,0,0,0-.126-1.418,4.563,4.563,0,0,0-.706-1.166,2.867,2.867,0,0,1,0-4.317,4.564,4.564,0,0,0,.706-1.166,4.774,4.774,0,0,0,.127-1.418,2.8,2.8,0,0,1,2.487-3.409,4.7,4.7,0,0,0,1.3-.55,4.645,4.645,0,0,0,.909-1.051,3.73,3.73,0,0,1,1.73-1.585,3.677,3.677,0,0,1,2.267.259,3.267,3.267,0,0,0,2.832,0,3.681,3.681,0,0,1,2.268-.259,3.73,3.73,0,0,1,1.73,1.585,4.646,4.646,0,0,0,.909,1.051,4.7,4.7,0,0,0,1.3.55,2.8,2.8,0,0,1,2.487,3.409,4.774,4.774,0,0,0,.127,1.418,4.561,4.561,0,0,0,.706,1.166,2.867,2.867,0,0,1,0,4.317,4.558,4.558,0,0,0-.706,1.166,4.773,4.773,0,0,0-.127,1.418,2.8,2.8,0,0,1-2.487,3.409,4.7,4.7,0,0,0-1.3.55,4.652,4.652,0,0,0-.909,1.051,3.73,3.73,0,0,1-1.73,1.585A2.061,2.061,0,0,1,90,99.119Zm-3.043-1.551a5.53,5.53,0,0,1,1.688.367,3.063,3.063,0,0,0,1.726.258,3.1,3.1,0,0,0,1.29-1.263,5.321,5.321,0,0,1,1.1-1.248,5.384,5.384,0,0,1,1.544-.676,2,2,0,0,0,1.88-2.575,5.456,5.456,0,0,1,.169-1.69,5.231,5.231,0,0,1,.834-1.415,3.109,3.109,0,0,0,.81-1.64,3.109,3.109,0,0,0-.81-1.64,5.232,5.232,0,0,1-.834-1.415,5.456,5.456,0,0,1-.169-1.69,3.083,3.083,0,0,0-.3-1.747,3.1,3.1,0,0,0-1.584-.828,5.384,5.384,0,0,1-1.544-.676,5.321,5.321,0,0,1-1.1-1.248,3.1,3.1,0,0,0-1.29-1.263,3.063,3.063,0,0,0-1.726.259,4.074,4.074,0,0,1-3.377,0,3.062,3.062,0,0,0-1.726-.259,3.1,3.1,0,0,0-1.29,1.263,5.321,5.321,0,0,1-1.1,1.248,5.381,5.381,0,0,1-1.544.676,3.1,3.1,0,0,0-1.584.828,3.083,3.083,0,0,0-.3,1.747,5.457,5.457,0,0,1-.169,1.69,5.225,5.225,0,0,1-.834,1.415,3.11,3.11,0,0,0-.81,1.64,3.11,3.11,0,0,0,.81,1.641,5.224,5.224,0,0,1,.834,1.414,5.455,5.455,0,0,1,.169,1.69,2,2,0,0,0,1.88,2.576,5.383,5.383,0,0,1,1.544.676,5.319,5.319,0,0,1,1.1,1.248,3.1,3.1,0,0,0,1.29,1.263,3.062,3.062,0,0,0,1.726-.258A5.528,5.528,0,0,1,86.954,97.568Z" transform="translate(-75.036 -76.251)" fill="#212121"/>
    </g>
  </g>
  <g id="Group_1039" data-name="Group 1039" transform="translate(3.36 2.543)">
    <path id="Path_2520" data-name="Path 2520" d="M111.928,102.431c0,1-1.118,1.8-1.41,2.7-.3.931.118,2.24-.446,3.015s-1.947.785-2.73,1.355-1.2,1.877-2.13,2.18c-.9.292-2.009-.511-3-.511s-2.106.8-3,.511c-.931-.3-1.355-1.615-2.131-2.18s-2.16-.572-2.73-1.355-.144-2.083-.446-3.015c-.292-.9-1.41-1.706-1.41-2.7s1.118-1.8,1.41-2.7c.3-.931-.117-2.24.446-3.015s1.947-.785,2.73-1.355,1.2-1.877,2.13-2.179c.9-.292,2.009.511,3,.511s2.106-.8,3-.511c.931.3,1.355,1.615,2.13,2.18s2.16.572,2.73,1.355.144,2.083.447,3.015C110.81,100.629,111.928,101.436,111.928,102.431Z" transform="translate(-92.486 -93.117)" stroke="rgba(0,0,0,0)" stroke-width="1" fill="url(#linear-gradient)"/>
  </g>
  <g id="Group_1043" data-name="Group 1043" transform="translate(4.389 3.163)">
    <g id="Group_1040" data-name="Group 1040" transform="translate(0 0)">
      <ellipse id="Ellipse_272" data-name="Ellipse 272" cx="7.266" cy="7.269" rx="7.266" ry="7.269" transform="matrix(0.975, -0.221, 0.221, 0.975, 0, 3.212)" fill="#fff"/>
    </g>
    <g id="Group_1041" data-name="Group 1041" transform="translate(2.754 11.269)">
      <path id="Path_2521" data-name="Path 2521" d="M128.517,192.664q-.334,0-.67-.029a7.663,7.663,0,0,1-5.157-2.641.436.436,0,1,1,.66-.57,6.829,6.829,0,0,0,11.389-1.636.436.436,0,0,1,.794.362A7.727,7.727,0,0,1,128.517,192.664Z" transform="translate(-122.584 -187.532)" fill="#212121"/>
    </g>
    <g id="Group_1042" data-name="Group 1042" transform="translate(2.607 0.99)">
      <path id="Path_2522" data-name="Path 2522" d="M121.824,109.468a.436.436,0,0,1-.338-.711,7.7,7.7,0,0,1,11.6-.425.436.436,0,0,1-.636.6,6.825,6.825,0,0,0-10.29.378A.435.435,0,0,1,121.824,109.468Z" transform="translate(-121.388 -105.897)" fill="#212121"/>
    </g>
  </g>
  <g id="Group_1046" data-name="Group 1046" transform="translate(10.538 6.891)">
    <g id="Group_1045" data-name="Group 1045">
      <g id="Group_1044" data-name="Group 1044">
        <path id="Path_2523" data-name="Path 2523" d="M153.471,135.947a2.07,2.07,0,0,1-.275,1.188,1.124,1.124,0,0,1-1.7,0,2.049,2.049,0,0,1-.279-1.188V129.72h-.2a1.985,1.985,0,0,1-1.121-.262.875.875,0,0,1-.382-.772.858.858,0,0,1,.392-.772,2.22,2.22,0,0,1,1.191-.255h1.114a1.176,1.176,0,0,1,.97.362,1.96,1.96,0,0,1,.292,1.215Z" transform="translate(-149.512 -127.66)"/>
      </g>
    </g>
  </g>
  <g id="Group_1047" data-name="Group 1047" transform="translate(6.105 8.222)">
    <path id="Path_2524" data-name="Path 2524" d="M115.166,138.664a.436.436,0,1,1-.436-.436A.436.436,0,0,1,115.166,138.664Z" transform="translate(-114.294 -138.228)" fill="#212121"/>
  </g>
</svg>
