<svg id="coins" xmlns="http://www.w3.org/2000/svg" width="25.335" height="28" viewBox="0 0 25.335 28">
  <path id="coins-2" data-name="coins" d="M8.042,7.119a5.4,5.4,0,0,1-.931-2.394A3.8,3.8,0,0,1,8.875,1.035a6.031,6.031,0,0,1,3.1-1.006,7.693,7.693,0,0,1,3.883.6,3.842,3.842,0,0,1,2.282,2.59,7.923,7.923,0,0,1,.117.8c.567-.36,1.116-.717,1.674-1.059a1.386,1.386,0,0,1,1.764.144,1.277,1.277,0,0,1-.178,2.054c-.506.338-1.024.658-1.59,1.02a1.5,1.5,0,0,1,1,.459,1.369,1.369,0,0,1,.336.989c-.039.722-.441,1.1-1.421,1.318.115.1.211.182.305.266a15.294,15.294,0,0,1,4.646,6.9,11.02,11.02,0,0,1,.237,5.978,6.871,6.871,0,0,1-5.313,5.389,15.454,15.454,0,0,1-3.649.5c-2.264.032-4.529.039-6.793,0a14.419,14.419,0,0,1-4.348-.712A6.676,6.676,0,0,1,.411,22.474a10.817,10.817,0,0,1,.655-7.61A17.1,17.1,0,0,1,7.815,7.272c.07-.044.137-.093.227-.153m4.653,3.27a1.349,1.349,0,0,0-1.38,1.369.354.354,0,0,1-.193.357A3.334,3.334,0,0,0,12.1,18.3c.22.044.449.045.669.089a.57.57,0,0,1,.433.586.6.6,0,0,1-.431.621.488.488,0,0,1-.589-.314c-.022-.041-.045-.082-.07-.122a1.281,1.281,0,0,0-1.795-.434,1.28,1.28,0,0,0-.567,1.755A3.088,3.088,0,0,0,11,21.82a.568.568,0,0,1,.33.514A1.272,1.272,0,0,0,12.7,23.511a1.27,1.27,0,0,0,1.311-1.237.435.435,0,0,1,.261-.407,3.341,3.341,0,0,0-1.554-6.217.566.566,0,0,1-.509-.293.669.669,0,0,1,.233-.889c.283-.155.5-.066.729.3a1.355,1.355,0,0,0,2.338-1.37A3.01,3.01,0,0,0,14.3,12.175a.481.481,0,0,1-.286-.478A1.322,1.322,0,0,0,12.7,10.389M12.7,6.2V6.172a5.473,5.473,0,0,1,1.068.011c.879.178,1.243-.356,1.554-1.017a1.4,1.4,0,0,0-.952-2.222,5.824,5.824,0,0,0-2.423-.19,3.253,3.253,0,0,0-1.533.507,1.23,1.23,0,0,0-.537,1.586,6.253,6.253,0,0,0,.7,1.172.528.528,0,0,0,.376.168c.581.018,1.164.008,1.746.008" transform="translate(0 0)" fill="#2d83d0"/>
</svg>
