<svg xmlns="http://www.w3.org/2000/svg" width="107.405" height="92.5" viewBox="0 0 107.405 92.5">
  <g id="learning" transform="translate(745.5 -545.224)" opacity="0.15">
    <path id="Path_4775" data-name="Path 4775" d="M-745,627.431V555.52a2.806,2.806,0,0,1,2.943-1.466c.757.06,1.522.011,2.284.011h3.032c.032-.241.048-.309.048-.378q0-2.492.006-4.984c0-2.318.637-2.95,2.971-2.95,10.8,0,21.6.051,32.4-.029,3.766-.028,6.922,1.066,9.382,3.97.034.041.125.034.238.062a10.588,10.588,0,0,1,8.486-4.006q16.822.01,33.644,0c1.9,0,2.65.749,2.658,2.637.008,1.859,0,3.718,0,5.674,1.859,0,3.618.053,5.371-.018a2.884,2.884,0,0,1,2.942,1.472v71.911a2.966,2.966,0,0,1-2.944,1.473c-12.052-.031-24.1,0-36.157-.034a6.769,6.769,0,0,0-6.369,3.657c-3.624,6.26-11.843,6.26-15.467,0a6.769,6.769,0,0,0-6.368-3.658c-12.052.036-24.1,0-36.157.034A2.965,2.965,0,0,1-745,627.431Zm37.408-77.516v1.213c0,4.295-.01,8.589.007,12.883a2.3,2.3,0,0,1-1.143,2.272,2.192,2.192,0,0,1-2.428-.315c-1.319-.892-2.669-1.739-3.963-2.664a1.116,1.116,0,0,0-1.543-.025c-1.228.9-2.529,1.7-3.785,2.556a2.356,2.356,0,0,1-2.694.419,2.436,2.436,0,0,1-1.086-2.413c.021-4.26.009-8.52.009-12.78v-1.068h-8.255v66.422h1.28q15.221,0,30.441,0a11.617,11.617,0,0,1,5.233,1.1c.517.254,1,.568,1.643.933V617.2q0-30.079,0-60.158c0-.312.006-.624-.006-.935a6.209,6.209,0,0,0-6.164-6.173C-702.5,549.859-704.962,549.915-707.592,549.915Zm17.873,68.424a1.4,1.4,0,0,0,.379-.09,11.792,11.792,0,0,1,7-1.845c10.008.03,20.016.012,30.024.012h1.166V549.909H-682.6c-4.629,0-7.116,2.487-7.116,7.116q0,30.078,0,60.156Zm42.811-60.065v1.3q0,29.044,0,58.088c0,2.255-.655,2.91-2.91,2.911-10.945,0-21.89.066-32.834-.032-4.347-.039-6.986,2.862-7.092,6.264a2.041,2.041,0,0,1-2.053,2.065,2.04,2.04,0,0,1-2.054-2.063c-.106-3.4-2.746-6.3-7.091-6.266-10.909.1-21.82.033-32.731.032-2.4,0-3.015-.616-3.015-3.014q0-28.992,0-57.984v-1.3h-4.092v66.455H-718.6c4.4,0,8.8-.033,13.2.01A10.244,10.244,0,0,1-696.219,630a8.755,8.755,0,0,0,1.278,1.75,4.663,4.663,0,0,0,7.424-1.47c2.154-3.888,5.551-5.579,9.949-5.565,11.187.036,22.375.012,33.562.012h1.2V558.274Zm-64.914,2.237V549.991H-720v10.52c.7-.461,1.3-.85,1.9-1.247,2.1-1.4,2.278-1.4,4.34-.03C-713.155,559.635-712.55,560.031-711.822,560.512Z" fill="#eeeff3" stroke="rgba(0,0,0,0)" stroke-width="1"/>
    <path id="Path_4776" data-name="Path 4776" d="M-613.826,690.035q-4.311,0-8.623,0a2.267,2.267,0,0,1-2.07-.95,1.986,1.986,0,0,1,1.529-3.15c6.059-.083,12.119-.059,18.178-.014a2,2,0,0,1,1.92,2.075,2.1,2.1,0,0,1-2.208,2.025C-608.008,690.056-610.917,690.034-613.826,690.035Z" transform="translate(-95.158 -111.031)" fill="#eeeff3" stroke="rgba(0,0,0,0)" stroke-width="1"/>
    <path id="Path_4777" data-name="Path 4777" d="M-614.025,750.023c-2.84,0-5.68.019-8.519-.007-1.734-.016-2.78-1.346-2.226-2.779a2.022,2.022,0,0,1,2.018-1.359q8.831-.022,17.661,0a2.075,2.075,0,0,1,2.167,2.062,2.113,2.113,0,0,1-2.272,2.068C-608.138,750.042-611.082,750.023-614.025,750.023Z" transform="translate(-95.126 -158.548)" fill="#eeeff3" stroke="rgba(0,0,0,0)" stroke-width="1"/>
    <path id="Path_4778" data-name="Path 4778" d="M-613.817,805.855c2.84,0,5.679-.019,8.519.007,1.734.016,2.779,1.347,2.225,2.779A2.022,2.022,0,0,1-605.093,810q-8.83.022-17.661,0a2.075,2.075,0,0,1-2.167-2.063,2.113,2.113,0,0,1,2.272-2.068C-619.7,805.837-616.761,805.856-613.817,805.855Z" transform="translate(-95.125 -206.065)" fill="#eeeff3" stroke="rgba(0,0,0,0)" stroke-width="1"/>
    <path id="Path_4779" data-name="Path 4779" d="M-662.854,685.95a2.133,2.133,0,0,1,2.058,2.066,2.133,2.133,0,0,1-2.066,2.058,2.132,2.132,0,0,1-2.058-2.065A2.133,2.133,0,0,1-662.854,685.95Z" transform="translate(-63.438 -111.084)" fill="#eeeff3" stroke="rgba(0,0,0,0)" stroke-width="1"/>
    <path id="Path_4780" data-name="Path 4780" d="M-660.8,748.057a2.127,2.127,0,0,1-2.106,2.018,2.127,2.127,0,0,1-2.018-2.106,2.126,2.126,0,0,1,2.106-2.018A2.126,2.126,0,0,1-660.8,748.057Z" transform="translate(-63.435 -158.616)" fill="#eeeff3" stroke="rgba(0,0,0,0)" stroke-width="1"/>
    <path id="Path_4781" data-name="Path 4781" d="M-662.869,805.957a2.131,2.131,0,0,1,2.072,2.051,2.131,2.131,0,0,1-2.051,2.072,2.131,2.131,0,0,1-2.072-2.051A2.131,2.131,0,0,1-662.869,805.957Z" transform="translate(-63.437 -206.151)" fill="#eeeff3" stroke="rgba(0,0,0,0)" stroke-width="1"/>
    <path id="Path_4782" data-name="Path 4782" d="M-443.942,642.488q-6.182,0-12.364,0c-1.977,0-2.7-.724-2.7-2.7q-.008-5.611,0-11.222c0-1.976.724-2.7,2.7-2.7q12.468-.006,24.936,0c1.977,0,2.7.724,2.7,2.7q.008,5.611,0,11.222c0,1.976-.724,2.7-2.7,2.7Q-437.657,642.495-443.942,642.488Zm-10.864-4.23h21.9v-8.185h-21.9Z" transform="translate(-226.554 -63.483)" fill="#eeeff3" stroke="rgba(0,0,0,0)" stroke-width="1"/>
    <path id="Path_4783" data-name="Path 4783" d="M-408.027,750.023c-2.84,0-5.679.019-8.519-.007-1.734-.016-2.78-1.348-2.225-2.779a2.024,2.024,0,0,1,2.019-1.358q8.83-.022,17.661,0a2.075,2.075,0,0,1,2.167,2.063,2.113,2.113,0,0,1-2.272,2.068C-402.14,750.042-405.083,750.023-408.027,750.023Z" transform="translate(-258.313 -158.548)" fill="#eeeff3" stroke="rgba(0,0,0,0)" stroke-width="1"/>
    <path id="Path_4784" data-name="Path 4784" d="M-407.817,805.855c2.839,0,5.679-.019,8.519.007,1.734.016,2.779,1.347,2.225,2.779A2.022,2.022,0,0,1-399.093,810q-8.83.022-17.661,0a2.075,2.075,0,0,1-2.167-2.063,2.113,2.113,0,0,1,2.272-2.068C-413.7,805.837-410.761,805.856-407.817,805.855Z" transform="translate(-258.313 -206.065)" fill="#eeeff3" stroke="rgba(0,0,0,0)" stroke-width="1"/>
    <path id="Path_4785" data-name="Path 4785" d="M-456.9,745.952a2.127,2.127,0,0,1,2.105,2.018,2.126,2.126,0,0,1-2.018,2.105,2.126,2.126,0,0,1-2.105-2.018A2.126,2.126,0,0,1-456.9,745.952Z" transform="translate(-226.624 -158.616)" fill="#eeeff3" stroke="rgba(0,0,0,0)" stroke-width="1"/>
    <path id="Path_4786" data-name="Path 4786" d="M-456.9,810.078a2.126,2.126,0,0,1-2.018-2.105,2.127,2.127,0,0,1,2.106-2.018,2.126,2.126,0,0,1,2.018,2.106A2.126,2.126,0,0,1-456.9,810.078Z" transform="translate(-226.624 -206.149)" fill="#eeeff3" stroke="rgba(0,0,0,0)" stroke-width="1"/>
  </g>
</svg>
