<svg xmlns="http://www.w3.org/2000/svg" width="27.1" height="26" viewBox="0 0 27.1 26">
    <g data-name="Button language" transform="translate(0 1)">
        <rect width="27.1" height="26" rx="5" transform="translate(0 -1)" style="fill:#fff"/>
        <path d="M10.609 11.828q-.009.027-.112 0t-.281-.1l-.179-.08a5.35 5.35 0 0 1-.777-.437q-.063-.045-.366-.281t-.339-.254a15.211 15.211 0 0 1-1.2 1.616 6.637 6.637 0 0 1-.937.982.707.707 0 0 1-.174.036.344.344 0 0 1-.165 0q.054-.036.732-.821.188-.214.763-1.027a12.483 12.483 0 0 0 .7-1.054q.152-.268.455-.879a6.96 6.96 0 0 0 .321-.692 7.337 7.337 0 0 0-.982.295q-.068.009-.24.058l-.308.085a1.53 1.53 0 0 0-.152.045.152.152 0 0 0-.018.094.2.2 0 0 1-.009.085q-.045.089-.277.134a.72.72 0 0 1-.42 0 .377.377 0 0 1-.25-.187.454.454 0 0 1-.045-.205 1.726 1.726 0 0 1 .219-.045 2.666 2.666 0 0 0 .263-.054Q7.35 9 7.77 8.855q.893-.312.911-.312a1.981 1.981 0 0 0 .384-.174 4.038 4.038 0 0 1 .393-.192q.08-.027.192-.071t.129-.049a.12.12 0 0 1 .054 0 1.016 1.016 0 0 1-.009.295 1.9 1.9 0 0 1-.112.241q-.112.223-.237.478t-.152.3a13.39 13.39 0 0 1-.687 1.17l.571.25q.107.054.665.286l.6.25q.036.009.094.228a.676.676 0 0 1 .04.272zm-1.83-4.339a.362.362 0 0 1-.036.25.809.809 0 0 1-.446.339 1.433 1.433 0 0 1-.536.107.739.739 0 0 1-.437-.232.671.671 0 0 1-.161-.366l.009-.027a.382.382 0 0 0 .174.045.776.776 0 0 0 .237 0q.089-.018.518-.143a2.549 2.549 0 0 1 .491-.125.176.176 0 0 1 .188.152zm6.232 1.152.563 2.027-1.241-.375zm-9.893 7.143 6.2-2.071V4.5l-6.2 2.08v9.205zm11.08-2.83.911.277-1.616-5.867-.893-.277-1.929 4.786.911.277.4-.982 1.884.58zm-4.491-8.59 5.116 1.643V2.614zm2.777 11.812 1.411.116-.482 1.429-.357-.589a6.619 6.619 0 0 1-2.464.964 4.279 4.279 0 0 1-.813.107h-.75a6.034 6.034 0 0 1-1.781-.348 5.929 5.929 0 0 1-1.639-.755.186.186 0 0 1-.071-.143.173.173 0 0 1 .045-.121.15.15 0 0 1 .116-.049.5.5 0 0 1 .161.067l.272.146.183.1a7.911 7.911 0 0 0 1.424.549 5.2 5.2 0 0 0 1.406.219 7.619 7.619 0 0 0 1.491-.129 7.359 7.359 0 0 0 1.4-.451q.134-.062.272-.138l.3-.17q.165-.094.254-.147zm4-9.634v9.634l-6.911-2.2q-.125.054-3.348 1.138T4.94 16.2a.161.161 0 0 1-.161-.116.069.069 0 0 0-.009-.027V6.436a.4.4 0 0 1 .036-.089.4.4 0 0 1 .179-.1q.946-.313 1.33-.446V2.373L11.3 4.141q.018 0 1.433-.491t2.821-.969q1.403-.481 1.439-.481.179 0 .179.187v3.736z" transform="translate(1.942 1.797)" style="fill:#1b61b1" data-name="language icon"/>
    </g>
</svg>
