<svg data-name="Reset time" xmlns="http://www.w3.org/2000/svg" width="44.827" height="45" viewBox="0 0 44.827 45">
    <defs>
        <linearGradient id="f9ljj02xma" x1=".045" y1=".03" x2="1" y2="1" gradientUnits="objectBoundingBox">
            <stop offset="0" stop-color="#1f68b7"/>
            <stop offset="1" stop-color="#45aef7"/>
        </linearGradient>
    </defs>
    <path data-name="Path 3281" d="M-10.641 3.363a.531.531 0 0 1-.447-.157.531.531 0 0 1-.143-.452v-5.37a.531.531 0 0 1 .15-.45.531.531 0 0 1 .45-.15h2.224a2.419 2.419 0 0 1 1.65.516 1.811 1.811 0 0 1 .577 1.431 1.873 1.873 0 0 1-.378 1.2 1.885 1.885 0 0 1-1.089.645 1.367 1.367 0 0 1 .775.711l.692 1.283a.635.635 0 0 1 .06.544q-.092.249-.475.249A.71.71 0 0 1-7 3.257a.9.9 0 0 1-.277-.328l-.933-1.716A.905.905 0 0 0-8.6.8a1.36 1.36 0 0 0-.574-.109h-.877v2.063a.531.531 0 0 1-.143.452.531.531 0 0 1-.447.157zm.591-3.553h1.439q1.292 0 1.292-1.052t-1.292-1.042h-1.444zm7.142 3.571a2.841 2.841 0 0 1-1.32-.281 2.03 2.03 0 0 1-.854-.812 2.474 2.474 0 0 1-.3-1.246A2.5 2.5 0 0 1-5.091-.19a2.136 2.136 0 0 1 .8-.826 2.266 2.266 0 0 1 1.167-.3 1.957 1.957 0 0 1 1.524.61 2.364 2.364 0 0 1 .551 1.66q0 .341-.443.341h-2.787a1.229 1.229 0 0 0 .421.915 1.229 1.229 0 0 0 .964.294 2.78 2.78 0 0 0 .54-.06 1.966 1.966 0 0 0 .567-.208.522.522 0 0 1 .406-.088.364.364 0 0 1 .235.2.461.461 0 0 1 .018.328.544.544 0 0 1-.263.309 2.4 2.4 0 0 1-.738.3 3.481 3.481 0 0 1-.78.1zm-.167-3.912a1.107 1.107 0 0 0-.825.314 1.4 1.4 0 0 0-.378.849H-2a1.384 1.384 0 0 0-.309-.863.976.976 0 0 0-.766-.3zm4.6 3.912A4.563 4.563 0 0 1 .681 3.3a2.485 2.485 0 0 1-.794-.286.472.472 0 0 1-.24-.277.448.448 0 0 1 .014-.3.383.383 0 0 1 .2-.208.391.391 0 0 1 .339.022 3.182 3.182 0 0 0 .693.249 3.033 3.033 0 0 0 .637.069 1.155 1.155 0 0 0 .66-.148.469.469 0 0 0 .212-.4q0-.388-.572-.5l-.923-.179Q-.265 1.121-.265.124a1.233 1.233 0 0 1 .244-.766 1.559 1.559 0 0 1 .678-.5 2.643 2.643 0 0 1 1-.175A2.893 2.893 0 0 1 3.1-.956a.369.369 0 0 1 .21.256.47.47 0 0 1-.032.3.4.4 0 0 1-.217.2.415.415 0 0 1-.341-.031 2.51 2.51 0 0 0-.549-.212 2.108 2.108 0 0 0-.5-.065A1.148 1.148 0 0 0 1-.351a.488.488 0 0 0-.218.415q0 .406.526.5l.923.175a1.747 1.747 0 0 1 .909.406 1.045 1.045 0 0 1 .309.794 1.235 1.235 0 0 1-.526 1.057 2.332 2.332 0 0 1-1.4.388zm5.075 0A2.841 2.841 0 0 1 5.276 3.1a2.03 2.03 0 0 1-.854-.812 2.474 2.474 0 0 1-.3-1.246A2.5 2.5 0 0 1 4.413-.19a2.136 2.136 0 0 1 .8-.826 2.266 2.266 0 0 1 1.167-.3 1.957 1.957 0 0 1 1.52.61 2.364 2.364 0 0 1 .555 1.66q0 .341-.443.341H5.225A1.229 1.229 0 0 0 6.609 2.5a2.78 2.78 0 0 0 .544-.06 1.966 1.966 0 0 0 .567-.208.522.522 0 0 1 .406-.088.364.364 0 0 1 .235.2.461.461 0 0 1 .018.328.544.544 0 0 1-.263.309 2.4 2.4 0 0 1-.738.3 3.481 3.481 0 0 1-.778.1zM6.429-.531a1.107 1.107 0 0 0-.821.314 1.4 1.4 0 0 0-.378.848H7.5a1.384 1.384 0 0 0-.309-.863.976.976 0 0 0-.762-.299zm4.992 3.912a1.574 1.574 0 0 1-1.79-1.771V-.356h-.48q-.461 0-.461-.434t.461-.434h.48v-.84a.514.514 0 0 1 .146-.436.514.514 0 0 1 .436-.145.509.509 0 0 1 .432.147.509.509 0 0 1 .141.434v.84h.978q.461 0 .461.434t-.461.434h-.978v1.9a.985.985 0 0 0 .194.664.794.794 0 0 0 .627.221 1.239 1.239 0 0 0 .277-.028 1.72 1.72 0 0 1 .208-.037.216.216 0 0 1 .185.069.484.484 0 0 1 .074.318.841.841 0 0 1-.06.328.348.348 0 0 1-.217.2 2.5 2.5 0 0 1-.314.069 2.108 2.108 0 0 1-.337.032zm6.044 0a1.574 1.574 0 0 1-1.79-1.772V-.356H15.2q-.461 0-.461-.434t.461-.434h.48v-.84a.514.514 0 0 1 .14-.436.514.514 0 0 1 .436-.145.509.509 0 0 1 .432.147.509.509 0 0 1 .141.434v.84h.978q.461 0 .461.434t-.461.434h-.978v1.9a.985.985 0 0 0 .194.664.794.794 0 0 0 .627.221 1.239 1.239 0 0 0 .277-.028 1.72 1.72 0 0 1 .212-.037.216.216 0 0 1 .185.069.484.484 0 0 1 .074.318.841.841 0 0 1-.06.328.348.348 0 0 1-.217.2 2.5 2.5 0 0 1-.314.069 2.108 2.108 0 0 1-.341.032zm2.168-5.527a.726.726 0 0 1-.5-.161.57.57 0 0 1-.185-.448.567.567 0 0 1 .185-.452.738.738 0 0 1 .5-.157q.683 0 .683.609t-.682.609zm0 5.5a.538.538 0 0 1-.424-.166.671.671 0 0 1-.148-.461V-.66q0-.627.572-.627t.581.627v3.386a.671.671 0 0 1-.148.461.554.554 0 0 1-.434.166zM22 3.363a.514.514 0 0 1-.572-.591V-.716a.506.506 0 0 1 .136-.431A.506.506 0 0 1 22-1.3a.506.506 0 0 1 .427.15.506.506 0 0 1 .136.431v.185a1.471 1.471 0 0 1 .563-.577 1.631 1.631 0 0 1 .83-.208 1.272 1.272 0 0 1 1.329.886 1.569 1.569 0 0 1 .609-.646 1.738 1.738 0 0 1 .9-.235q1.523 0 1.523 1.855v2.231a.58.58 0 1 1-1.153 0V.585a1.322 1.322 0 0 0-.171-.757.659.659 0 0 0-.577-.24.866.866 0 0 0-.711.318 1.361 1.361 0 0 0-.258.881v1.985a.579.579 0 1 1-1.153 0V.585a1.322 1.322 0 0 0-.171-.757.646.646 0 0 0-.567-.24.866.866 0 0 0-.711.318 1.361 1.361 0 0 0-.258.881v1.985a.518.518 0 0 1-.587.591zm9.726.018a2.841 2.841 0 0 1-1.32-.286 2.03 2.03 0 0 1-.854-.812 2.474 2.474 0 0 1-.3-1.246 2.5 2.5 0 0 1 .292-1.227 2.136 2.136 0 0 1 .8-.826 2.266 2.266 0 0 1 1.167-.3 1.957 1.957 0 0 1 1.518.609 2.364 2.364 0 0 1 .556 1.661q0 .341-.443.341H30.36A1.229 1.229 0 0 0 31.744 2.5a2.78 2.78 0 0 0 .54-.06 1.966 1.966 0 0 0 .567-.208.522.522 0 0 1 .406-.088.364.364 0 0 1 .235.2.461.461 0 0 1 .018.328.544.544 0 0 1-.263.309 2.4 2.4 0 0 1-.738.3 3.481 3.481 0 0 1-.778.1zm-.162-3.912a1.107 1.107 0 0 0-.821.314 1.4 1.4 0 0 0-.378.849h2.27a1.384 1.384 0 0 0-.309-.863.976.976 0 0 0-.762-.3z" transform="translate(11.238 41.602)" style="fill:url(#f9ljj02xma)"/>
    <path data-name="Path 2772" d="M129.406 2969.076a12.651 12.651 0 0 1-9.285 4.955h-.061a1 1 0 0 1-.078-1.989 10.666 10.666 0 0 0-.063-21.3c-.2-.011-.4-.016-.58-.016a10.674 10.674 0 0 0-10.647 10.022.993.993 0 0 1-1.713.615 1 1 0 0 1-.271-.75 12.518 12.518 0 0 1 2.971-7.391l.169-.2-1.164-1.167a1 1 0 0 1 1.407-1.408l1.188 1.191.2-.158a12.612 12.612 0 0 1 6.612-2.685l.256-.026v-1.884H115.5a1 1 0 0 1 0-1.991h7.713a1 1 0 0 1 0 1.991h-2.878v1.886l.257.023a13.46 13.46 0 0 1 1.467.224 12.5 12.5 0 0 1 5.339 2.545l.2.162 1.277-1.279a1 1 0 0 1 1.408 1.406l-1.283 1.285.162.2a12.5 12.5 0 0 1 2.546 5.337 12.627 12.627 0 0 1-2.305 10.4z" transform="translate(-96.173 -2944.9)" style="fill:url(#f9ljj02xma)"/>
    <path data-name="Path 2773" d="M129.406 2969.076a12.651 12.651 0 0 1-9.285 4.955h-.061a1 1 0 0 1-.078-1.989 10.666 10.666 0 0 0-.063-21.3c-.2-.011-.4-.016-.58-.016a10.674 10.674 0 0 0-10.647 10.022.993.993 0 0 1-1.713.615 1 1 0 0 1-.271-.75 12.518 12.518 0 0 1 2.971-7.391l.169-.2-1.164-1.167a1 1 0 0 1 1.407-1.408l1.188 1.191.2-.158a12.612 12.612 0 0 1 6.612-2.685l.256-.026v-1.884H115.5a1 1 0 0 1 0-1.991h7.713a1 1 0 0 1 0 1.991h-2.878v1.886l.257.023a13.46 13.46 0 0 1 1.467.224 12.5 12.5 0 0 1 5.339 2.545l.2.162 1.277-1.279a1 1 0 0 1 1.408 1.406l-1.283 1.285.162.2a12.5 12.5 0 0 1 2.546 5.337 12.627 12.627 0 0 1-2.305 10.4z" transform="translate(-96.173 -2944.9)" style="fill:url(#f9ljj02xma)"/>
    <path data-name="Path 2774" d="M146.891 2977.7v6.094a1 1 0 0 1-1.991 0v-6.094a1 1 0 1 1 1.991 0z" transform="translate(-122.727 -2967.009)" style="fill:url(#f9ljj02xma)"/>
    <path data-name="Path 2775" d="M146.891 2977.7v6.094a1 1 0 0 1-1.991 0v-6.094a1 1 0 1 1 1.991 0z" transform="translate(-122.727 -2967.009)" style="fill:url(#f9ljj02xma)"/>
    <path data-name="Path 2776" d="M113.541 3006.1a1 1 0 0 1-1 1h-9.1a1 1 0 1 1 0-1.991h9.1a1 1 0 0 1 1 1z" transform="translate(-93.216 -2986.755)" style="fill:url(#f9ljj02xma)"/>
    <path data-name="Path 2777" d="M113.541 3006.1a1 1 0 0 1-1 1h-9.1a1 1 0 1 1 0-1.991h9.1a1 1 0 0 1 1 1z" transform="translate(-93.216 -2986.755)" style="fill:url(#f9ljj02xma)"/>
    <path data-name="Path 2778" d="M119.064 3021.029a1 1 0 0 1-1 1h-6.674a1 1 0 0 1 0-1.991h6.674a1 1 0 0 1 1 .991z" transform="translate(-98.739 -2997.137)" style="fill:url(#f9ljj02xma)"/>
    <path data-name="Path 2779" d="M119.064 3021.029a1 1 0 0 1-1 1h-6.674a1 1 0 0 1 0-1.991h6.674a1 1 0 0 1 1 .991z" transform="translate(-98.739 -2997.137)" style="fill:url(#f9ljj02xma)"/>
    <path data-name="Path 2780" d="M124.409 3035.029a1 1 0 0 1-1 1h-3.64a1 1 0 1 1 0-1.991h3.64a1 1 0 0 1 1 .991z" transform="translate(-104.568 -3006.872)" style="fill:url(#f9ljj02xma)"/>
    <path data-name="Path 2781" d="M124.409 3035.029a1 1 0 0 1-1 1h-3.64a1 1 0 1 1 0-1.991h3.64a1 1 0 0 1 1 .991z" transform="translate(-104.568 -3006.872)" style="fill:url(#f9ljj02xma)"/>
</svg>
