<svg xmlns="http://www.w3.org/2000/svg" xmlns:xlink="http://www.w3.org/1999/xlink" width="20.044" height="21.43" viewBox="0 0 20.044 21.43">
  <defs>
    <linearGradient id="linear-gradient" y1="1" x2="1" gradientUnits="objectBoundingBox">
      <stop offset="0" stop-color="#00b3d5"/>
      <stop offset="1" stop-color="#00e1d3"/>
    </linearGradient>
  </defs>
  <g id="leaderboard" transform="translate(-1372.28 -8490.09)">
    <g id="Group_1392" data-name="Group 1392" transform="translate(1372.78 8490.59)">
      <g id="Group_1391" data-name="Group 1391">
        <path id="Path_2837" data-name="Path 2837" d="M1390.238,8494.327h-1.7v-2.151a1.589,1.589,0,0,0-1.586-1.586h-9.211a1.589,1.589,0,0,0-1.586,1.586v2.151h-1.791a1.588,1.588,0,0,0-1.586,1.586v3.427a4.174,4.174,0,0,0,3.74,4.173,6.181,6.181,0,0,0,4.727,4.007v1.3h-3.2a1.1,1.1,0,1,0,0,2.2h8.833a1.1,1.1,0,0,0,0-2.2h-3.429v-1.3a6.172,6.172,0,0,0,4.733-4.017,4.2,4.2,0,0,0,3.641-4.161v-3.427A1.589,1.589,0,0,0,1390.238,8494.327Zm-14.186,6.78a2,2,0,0,1-1.069-1.768v-2.81h1.069Zm10.285.317a3.955,3.955,0,0,1-.171,1.156,4.011,4.011,0,0,1-1.419,2.03,3.987,3.987,0,0,1-4.8,0,4.014,4.014,0,0,1-1.419-2.034,3.961,3.961,0,0,1-.171-1.153v-8.632h7.977Zm3.284-4.895v2.81a2.015,2.015,0,0,1-.994,1.725v-4.534Z" transform="translate(-1372.78 -8490.59)" stroke="rgba(0,0,0,0)" stroke-width="1" fill="url(#linear-gradient)"/>
      </g>
    </g>
  </g>
</svg>
