<svg xmlns="http://www.w3.org/2000/svg" width="18.567" height="20" viewBox="0 0 18.567 20">
    <path data-name="Path 4834" d="M18.567 6.537a2.222 2.222 0 0 1-1 1.964c-.155.1-.32.187-.476.287a1.419 1.419 0 0 0 0 2.431c.224.144.465.267.673.432a2.1 2.1 0 0 1 .576 2.592 16.754 16.754 0 0 1-.868 1.5 2.116 2.116 0 0 1-2.735.7 4.558 4.558 0 0 0-.858-.41 1.413 1.413 0 0 0-1.748 1.358 5.15 5.15 0 0 1-.085 1.016 2.078 2.078 0 0 1-1.992 1.584 13.078 13.078 0 0 1-1.843-.043 2.087 2.087 0 0 1-1.78-2.057 4.523 4.523 0 0 0-.04-.754 1.4 1.4 0 0 0-2.015-.988c-.192.1-.374.213-.565.31a2.113 2.113 0 0 1-2.742-.74c-.3-.469-.577-.953-.833-1.446a2.112 2.112 0 0 1 .734-2.746c.167-.11.346-.2.513-.311a1.419 1.419 0 0 0 0-2.419c-.15-.1-.308-.178-.458-.274a2.127 2.127 0 0 1-.756-2.846q.362-.677.768-1.33a2.123 2.123 0 0 1 2.861-.75c.163.088.319.189.485.271a1.422 1.422 0 0 0 2.048-1.239 5.7 5.7 0 0 1 .068-.974A2.041 2.041 0 0 1 8.321.039a10.444 10.444 0 0 1 2.042.024 2.079 2.079 0 0 1 1.766 2 5.368 5.368 0 0 0 .044.82 1.4 1.4 0 0 0 1.982.994c.207-.1.4-.226.605-.33a2.11 2.11 0 0 1 2.726.733 15.116 15.116 0 0 1 .839 1.468 4.16 4.16 0 0 1 .242.789zM3.588 9.994a2.827 2.827 0 0 1-1.285 2.388c-.159.108-.331.2-.5.3a.707.707 0 0 0-.274 1q.34.613.7 1.215a.7.7 0 0 0 .982.266c.157-.084.308-.179.465-.262a2.828 2.828 0 0 1 4.092 1.87 6.44 6.44 0 0 1 .084 1.084.716.716 0 0 0 .707.713c.482.008.965.009 1.447 0a.705.705 0 0 0 .695-.7c.007-.193 0-.387 0-.58a2.864 2.864 0 0 1 3.172-2.7 3.811 3.811 0 0 1 1.438.56.7.7 0 0 0 1.029-.273q.341-.575.667-1.157a.717.717 0 0 0-.269-1.035c-.139-.085-.282-.164-.42-.251a2.847 2.847 0 0 1 .018-4.854c.145-.09.3-.169.44-.261a.705.705 0 0 0 .251-.972q-.344-.624-.712-1.234a.692.692 0 0 0-.966-.261c-.17.09-.332.2-.5.284a2.831 2.831 0 0 1-4.027-1.748 5.982 5.982 0 0 1-.118-1.213.722.722 0 0 0-.721-.724 48.35 48.35 0 0 0-1.425 0 .709.709 0 0 0-.706.713c-.005.186 0 .372 0 .557a2.831 2.831 0 0 1-3.444 2.654 5.933 5.933 0 0 1-1.174-.512.718.718 0 0 0-1.016.277q-.347.584-.678 1.177a.714.714 0 0 0 .285 1.029c.159.1.323.183.477.287a2.83 2.83 0 0 1 1.285 2.36z"/>
    <path data-name="Path 4835" d="M5.72 9.996A3.57 3.57 0 0 1 9.304 6.44a3.571 3.571 0 0 1 3.539 3.579 3.572 3.572 0 0 1-3.585 3.557 3.572 3.572 0 0 1-3.538-3.58zm3.556-2.128a2.145 2.145 0 0 0-2.131 2.146 2.145 2.145 0 0 0 2.142 2.135 2.146 2.146 0 0 0 2.131-2.146 2.144 2.144 0 0 0-2.142-2.14z"/>
</svg>
