<svg xmlns="http://www.w3.org/2000/svg" width="34" height="34.001" viewBox="0 0 34 34.001">
  <g id="language" transform="translate(13260.986 20575)">
    <path id="Path_3283" data-name="Path 3283" d="M0,0H34V34H0Z" transform="translate(-13260.986 -20575)" fill="none"/>
    <g id="Group_1613" data-name="Group 1613" transform="translate(5 -5.113)">
      <path id="Icon_metro-language" data-name="Icon metro-language" d="M26.532,15.883l1.2,4.307-2.637-.8ZM5.51,31.062l13.168-4.4V7.08L5.51,11.5V31.062Zm23.546-6.015,1.935.588L27.557,13.17l-1.9-.588-4.1,10.17,1.935.588.854-2.087,4,1.233ZM19.512,6.8l10.872,3.491V3.076Zm5.9,25.1,3,.247-1.025,3.036-.759-1.252a14.065,14.065,0,0,1-5.237,2.049,9.094,9.094,0,0,1-1.727.228H18.07a12.824,12.824,0,0,1-3.785-.74A12.6,12.6,0,0,1,10.8,33.851a.4.4,0,0,1-.152-.3.367.367,0,0,1,.095-.256.318.318,0,0,1,.247-.1,1.068,1.068,0,0,1,.341.142l.579.313q.313.171.389.209a16.81,16.81,0,0,0,3.026,1.167,11.056,11.056,0,0,0,2.988.465,16.192,16.192,0,0,0,3.169-.275,15.638,15.638,0,0,0,2.979-.958q.285-.133.579-.294t.645-.36q.351-.2.541-.313Zm8.5-20.472V31.9L19.228,27.229q-.266.114-7.115,2.419T5.13,31.954a.343.343,0,0,1-.342-.247.146.146,0,0,0-.019-.057V11.2a.847.847,0,0,1,.076-.19.854.854,0,0,1,.38-.209q2.011-.664,2.827-.949V2.564L18.639,6.321q.038,0,3.045-1.044t6-2.059Q30.669,2.2,30.745,2.2q.38,0,.38.4v7.931Z" transform="translate(-13268.756 -20572.09)" fill="#fff"/>
      <path id="Path_2109" data-name="Path 2109" d="M7.506,6.548l.573-.426.4,1.138a2.582,2.582,0,0,1-.3.174,2.85,2.85,0,0,1-.338.14,2.547,2.547,0,0,1-.353.094,1.9,1.9,0,0,1-.353.034.685.685,0,0,1-.577-.286,1.4,1.4,0,0,1-.215-.847V5.1a2.072,2.072,0,0,1-.286.052,2.6,2.6,0,0,1-.282.016,1.247,1.247,0,0,1-.546-.122A1.513,1.513,0,0,1,4.764,4.7a2.453,2.453,0,0,1-.324.717,1.869,1.869,0,0,1-.467.481,1.81,1.81,0,0,1-.577.268,2.534,2.534,0,0,1-.653.083A1.768,1.768,0,0,1,1.568,5.8,3.7,3.7,0,0,1,.64,4.407Q.474,4.4.309,4.381A2.024,2.024,0,0,1,0,4.329L.085,3.2a1.432,1.432,0,0,0,.259.031q.143.005.3.005a1.049,1.049,0,0,0,.4-.075.923.923,0,0,0,.313-.208.926.926,0,0,0,.2-.317,1.1,1.1,0,0,0,.072-.4,1.31,1.31,0,0,0-.069-.437.979.979,0,0,0-.19-.333.843.843,0,0,0-.291-.21.906.906,0,0,0-.371-.075,1.279,1.279,0,0,0-.447.062L.1.088A1.812,1.812,0,0,1,.391.023,2.255,2.255,0,0,1,.72,0a2.219,2.219,0,0,1,.973.2,2.012,2.012,0,0,1,.678.517,2.117,2.117,0,0,1,.4.728,2.72,2.72,0,0,1,.13.829,2.422,2.422,0,0,1-.085.65,2.131,2.131,0,0,1-.242.559,1.864,1.864,0,0,1-.385.444,1.97,1.97,0,0,1-.514.312,2.1,2.1,0,0,0,.452.624.826.826,0,0,0,.564.213.845.845,0,0,0,.447-.12.944.944,0,0,0,.336-.387,2.387,2.387,0,0,0,.21-.7A6.711,6.711,0,0,0,3.753,2.8v-1.1H4.921V2.817a1.844,1.844,0,0,0,.074.522,1.144,1.144,0,0,0,.183.366.721.721,0,0,0,.266.216.781.781,0,0,0,.331.07.809.809,0,0,0,.286-.052,1.121,1.121,0,0,0,.277-.156V.125H7.506Z" transform="matrix(0.999, -0.052, 0.052, 0.999, -13260.846, -20556.107)" fill="#fff"/>
    </g>
  </g>
</svg>
