<svg xmlns="http://www.w3.org/2000/svg" width="29.753" height="45" viewBox="0 0 29.753 45">
    <defs>
        <linearGradient id="pdikmjpr8a" x1=".045" y1=".03" x2="1" y2="1" gradientUnits="objectBoundingBox">
            <stop offset="0" stop-color="#1f68b7"/>
            <stop offset="1" stop-color="#45aef7"/>
        </linearGradient>
    </defs>
    <path data-name="Path 3282" d="M-2.077 3.145a5.037 5.037 0 0 1-1.158-.134 3.168 3.168 0 0 1-.988-.4.534.534 0 0 1-.249-.329.581.581 0 0 1 .031-.37.435.435 0 0 1 .24-.24.411.411 0 0 1 .378.067 3.043 3.043 0 0 0 .828.338 3.843 3.843 0 0 0 .917.107 1.749 1.749 0 0 0 1.024-.236.726.726 0 0 0 .321-.61.589.589 0 0 0-.226-.49 1.97 1.97 0 0 0-.779-.294l-.98-.2q-1.674-.361-1.674-1.723a1.716 1.716 0 0 1 .312-1.024 2.026 2.026 0 0 1 .864-.677 3.164 3.164 0 0 1 1.273-.24 3.776 3.776 0 0 1 1.015.134 2.939 2.939 0 0 1 .864.392.484.484 0 0 1 .214.307.508.508 0 0 1-.05.337.424.424 0 0 1-.254.214.5.5 0 0 1-.4-.074 2.535 2.535 0 0 0-.668-.267 3.164 3.164 0 0 0-.73-.08 1.582 1.582 0 0 0-.962.258.8.8 0 0 0-.347.677.654.654 0 0 0 .214.512 1.6 1.6 0 0 0 .73.3l.971.2A2.747 2.747 0 0 1-.033.189 1.388 1.388 0 0 1 .4 1.257a1.667 1.667 0 0 1-.3.988 1.959 1.959 0 0 1-.859.663 3.349 3.349 0 0 1-1.313.236zm3.9-.018a.5.5 0 0 1-.552-.57v-5.289a.492.492 0 0 1 .136-.419.492.492 0 0 1 .416-.142.5.5 0 0 1 .421.14.5.5 0 0 1 .14.421V.554H2.4L3.872-1a2.817 2.817 0 0 1 .312-.276.606.606 0 0 1 .365-.1.476.476 0 0 1 .352.12.394.394 0 0 1 .12.289.5.5 0 0 1-.16.338L3.524.786l1.487 1.6a.445.445 0 0 1 .147.343.4.4 0 0 1-.147.285.511.511 0 0 1-.338.111.705.705 0 0 1-.4-.1 1.842 1.842 0 0 1-.325-.294L2.4 1.115h-.015v1.443a.5.5 0 0 1-.561.57zM6.6-2.189a.7.7 0 0 1-.485-.156.55.55 0 0 1-.174-.432.548.548 0 0 1 .174-.436.712.712 0 0 1 .485-.151q.659 0 .659.588t-.659.587zm0 5.307a.519.519 0 0 1-.41-.16.647.647 0 0 1-.142-.445V-.755q0-.606.552-.606t.561.606v3.268a.647.647 0 0 1-.142.445.534.534 0 0 1-.419.16zM8.867 4.73a.492.492 0 0 1-.552-.561V-.808a.488.488 0 0 1 .131-.416.488.488 0 0 1 .412-.145.492.492 0 0 1 .416.142.492.492 0 0 1 .136.419v.187a1.387 1.387 0 0 1 .561-.557 1.72 1.72 0 0 1 .855-.209 1.819 1.819 0 0 1 1 .276 1.841 1.841 0 0 1 .672.779 2.777 2.777 0 0 1 .243 1.207 2.814 2.814 0 0 1-.24 1.2 1.842 1.842 0 0 1-.668.788 1.814 1.814 0 0 1-1.006.28 1.719 1.719 0 0 1-.833-.2 1.415 1.415 0 0 1-.565-.539v1.765a.5.5 0 0 1-.561.561zm1.647-2.43a1 1 0 0 0 .8-.361 1.619 1.619 0 0 0 .3-1.064 1.6 1.6 0 0 0-.3-1.069 1.089 1.089 0 0 0-1.6 0A1.6 1.6 0 0 0 9.41.875a1.619 1.619 0 0 0 .3 1.064 1 1 0 0 0 .804.361z" transform="translate(10.722 40.265)" style="fill:url(#pdikmjpr8a)"/>
    <path data-name="Path 2782" d="M183.148 3271.952v20.32a1.29 1.29 0 0 1-2.548 0v-20.32a1.29 1.29 0 0 1 2.548 0z" transform="translate(-153.394 -3268.046)" style="fill:url(#pdikmjpr8a)"/>
    <path data-name="Path 2783" d="M183.148 3271.952v20.32a1.29 1.29 0 0 1-2.548 0v-20.32a1.29 1.29 0 0 1 2.548 0z" transform="translate(-153.394 -3268.046)" style="fill:url(#pdikmjpr8a)"/>
    <path data-name="Path 2784" d="m133.509 3276.616-20.733-12.794a1.275 1.275 0 0 0-1.944 1.085v25.586a1.272 1.272 0 0 0 1.944 1.081l20.733-12.79a1.273 1.273 0 0 0 0-2.169zm-20.124 11.594v-21.019l17.035 10.507z" transform="translate(-110.833 -3263.633)" style="fill:url(#pdikmjpr8a)"/>
    <path data-name="Path 2785" d="m133.509 3276.616-20.733-12.794a1.275 1.275 0 0 0-1.944 1.085v25.586a1.272 1.272 0 0 0 1.944 1.081l20.733-12.79a1.273 1.273 0 0 0 0-2.169zm-20.124 11.594v-21.019l17.035 10.507z" transform="translate(-110.833 -3263.633)" style="fill:url(#pdikmjpr8a)"/>
</svg>
