<svg xmlns="http://www.w3.org/2000/svg" width="36.625" height="45" viewBox="0 0 36.625 45">
    <defs>
        <linearGradient id="6gd5m5uwea" x1=".045" y1=".03" x2="1" y2="1" gradientUnits="objectBoundingBox">
            <stop offset="0" stop-color="#1f68b7"/>
            <stop offset="1" stop-color="#45aef7"/>
        </linearGradient>
    </defs>
    <path data-name="Path 3279" d="M-8.963 3.087a.521.521 0 0 1-.437-.154.525.525 0 0 1-.141-.447v-5.107a.532.532 0 0 1 .15-.452.528.528 0 0 1 .45-.15h3.079q.459 0 .459.442a.408.408 0 0 1-.115.345.405.405 0 0 1-.344.115h-2.55v1.762h2.365q.459 0 .459.442a.408.408 0 0 1-.115.345.405.405 0 0 1-.344.115h-2.369v2.143q-.004.601-.547.601zM-3.792-2.2a.693.693 0 0 1-.481-.155.548.548 0 0 1-.177-.425.545.545 0 0 1 .176-.434.7.7 0 0 1 .481-.15q.653 0 .653.584t-.66.58zm0 5.274a.514.514 0 0 1-.408-.155.645.645 0 0 1-.141-.442V-.771q0-.6.547-.6t.556.6v3.248a.645.645 0 0 1-.141.442.529.529 0 0 1-.419.159zm2.55.009a.494.494 0 0 1-.419-.144.5.5 0 0 1-.139-.418v-3h-.4q-.441 0-.441-.416t.441-.416h.4v-.009a1.85 1.85 0 0 1 .459-1.367 2.084 2.084 0 0 1 1.325-.535l.3-.027a.392.392 0 0 1 .335.1.414.414 0 0 1 .11.279.48.48 0 0 1-.088.292.337.337 0 0 1-.256.146l-.124.009a1.145 1.145 0 0 0-.732.257A.9.9 0 0 0-.7-1.5v.186h.75q.441 0 .441.416T.05-.479H-.7v3a.494.494 0 0 1-.132.42.491.491 0 0 1-.415.146zm4.094.018a1.507 1.507 0 0 1-1.712-1.7v-1.88H.681Q.24-.479.24-.895t.441-.416h.459v-.805a.494.494 0 0 1 .139-.418.491.491 0 0 1 .421-.14.486.486 0 0 1 .413.141.489.489 0 0 1 .134.416v.805h.935q.441 0 .441.416t-.441.416h-.939v1.824a.946.946 0 0 0 .185.637.757.757 0 0 0 .6.212 1.182 1.182 0 0 0 .265-.027 1.64 1.64 0 0 1 .2-.035.206.206 0 0 1 .176.066.466.466 0 0 1 .075.305.808.808 0 0 1-.057.314.333.333 0 0 1-.207.19 2.385 2.385 0 0 1-.3.066 2.009 2.009 0 0 1-.331.031zM5.428 4.68a.425.425 0 0 1-.415-.221.564.564 0 0 1 .009-.5l.5-1.115L4.016-.647a.562.562 0 0 1 0-.513.506.506 0 0 1 .484-.222.528.528 0 0 1 .326.093.776.776 0 0 1 .221.35l1.06 2.655L7.192-.948a.731.731 0 0 1 .229-.341.6.6 0 0 1 .353-.093.409.409 0 0 1 .4.221.564.564 0 0 1-.009.5l-2.15 4.916a.8.8 0 0 1-.247.336.608.608 0 0 1-.344.088zm9.648-6.88q-.626 0-.626-.584t.626-.584q.635 0 .635.584a.563.563 0 0 1-.163.429.66.66 0 0 1-.472.155zm-2.863 5.287a.5.5 0 0 1-.556-.566v-3h-.406q-.441 0-.441-.416t.441-.416h.406v-.009a1.862 1.862 0 0 1 .45-1.354 2.056 2.056 0 0 1 1.306-.549l.265-.027a.453.453 0 0 1 .375.088.4.4 0 0 1 .128.279.492.492 0 0 1-.075.3.314.314 0 0 1-.243.15l-.212.018a1.017 1.017 0 0 0-.679.257.927.927 0 0 0-.212.664v.186h2.3q.547 0 .547.593v3.192a.658.658 0 0 1-.137.442.511.511 0 0 1-.41.159.529.529 0 0 1-.415-.159.631.631 0 0 1-.141-.442V-.479h-1.749v3a.492.492 0 0 1-.543.566zm5.391 0a.5.5 0 0 1-.556-.566v-3h-.406q-.441 0-.441-.416t.441-.416h.406v-.009a1.85 1.85 0 0 1 .459-1.367 2.084 2.084 0 0 1 1.323-.535l.3-.027a.392.392 0 0 1 .335.1.414.414 0 0 1 .11.279.48.48 0 0 1-.088.292.337.337 0 0 1-.256.146l-.124.009a1.145 1.145 0 0 0-.732.257.9.9 0 0 0-.229.673v.186h.75q.441 0 .441.416t-.437.412h-.75v3a.492.492 0 0 1-.547.566zm4.094.018a1.507 1.507 0 0 1-1.712-1.7V-.479h-.459q-.441 0-.441-.416t.441-.416h.459v-.805a.494.494 0 0 1 .139-.418.491.491 0 0 1 .417-.139.486.486 0 0 1 .413.141.489.489 0 0 1 .134.416v.805h.935q.441 0 .441.416t-.441.416h-.935v1.823a.946.946 0 0 0 .185.637.757.757 0 0 0 .6.212 1.182 1.182 0 0 0 .265-.027 1.64 1.64 0 0 1 .2-.035.206.206 0 0 1 .176.066.466.466 0 0 1 .071.305.808.808 0 0 1-.057.314.333.333 0 0 1-.207.19 2.385 2.385 0 0 1-.3.066 2.009 2.009 0 0 1-.331.031zm2.576 1.575a.425.425 0 0 1-.415-.221.564.564 0 0 1 .009-.5l.5-1.115-1.506-3.491a.562.562 0 0 1 0-.513.506.506 0 0 1 .485-.221.528.528 0 0 1 .326.093.776.776 0 0 1 .221.35l1.059 2.655 1.086-2.665a.731.731 0 0 1 .229-.341.6.6 0 0 1 .353-.093.409.409 0 0 1 .4.221.564.564 0 0 1-.009.5l-2.151 4.916a.8.8 0 0 1-.247.336.608.608 0 0 1-.344.088z" transform="translate(9.551 40.318)" style="fill:url(#6gd5m5uwea)"/>
    <path data-name="Path 2764" d="m111.365 3164.055-.48 3.483.341.012c2.177.079 3.789.858 4.541 2.2a5.141 5.141 0 0 1 .524 4.147 4.47 4.47 0 0 1-2.478 2.677 7.577 7.577 0 0 1-3.052.532 16.171 16.171 0 0 1-3.051-.311 1.08 1.08 0 0 1 .225-2.137 1.2 1.2 0 0 1 .228.026 13.93 13.93 0 0 0 2.609.265 5.584 5.584 0 0 0 2.162-.34 2.279 2.279 0 0 0 1.307-1.385 3.015 3.015 0 0 0-.354-2.412c-.509-.908-1.913-1.1-3-1.1a8.185 8.185 0 0 0-1.082.066.971.971 0 0 1-.168.015 1.08 1.08 0 0 1-1.068-1.228l.791-5.729a1.083 1.083 0 0 1 1.068-.931h5.727a1.079 1.079 0 0 1 0 2.158z" transform="translate(-100.719 -3161.904)" style="fill:url(#6gd5m5uwea)"/>
    <path data-name="Path 2766" d="M135.081 3218.3a4.477 4.477 0 0 1-2.478 2.675 7.587 7.587 0 0 1-3.052.531 16.02 16.02 0 0 1-3.052-.312 1.078 1.078 0 0 1 .225-2.133.962.962 0 0 1 .23.025 13.811 13.811 0 0 0 2.605.266 5.572 5.572 0 0 0 2.163-.343 2.269 2.269 0 0 0 1.307-1.384 3.017 3.017 0 0 0-.354-2.412c-.395-.7-1.5-1.1-3.031-1.1a7.059 7.059 0 0 0-1.055.072 1.033 1.033 0 0 1-.165.013 1.063 1.063 0 0 1-.757-.311 1.081 1.081 0 0 1-.311-.917l.26-1.891 2.287-2.3.243-.245-.034.245-.438 3.171.343.013c2.175.077 3.788.858 4.539 2.2a5.135 5.135 0 0 1 .525 4.146z" transform="translate(-113.301 -3193.127)" style="fill:url(#6gd5m5uwea)"/>
    <path data-name="Path 2767" d="M145.263 3202.879a1.081 1.081 0 0 1-1.08 1.081h-4.734l.3-.3 1.847-1.858h2.589a1.079 1.079 0 0 1 1.078 1.077z" transform="translate(-122.542 -3188.625)" style="fill:url(#6gd5m5uwea)"/>
    <path data-name="Path 2769" d="M161.6 3203.261c-2.288 0-4.081 2.379-4.081 5.416s1.793 5.416 4.081 5.416 4.082-2.378 4.082-5.416-1.788-5.416-4.082-5.416zm0 8.672c-1.024 0-1.922-1.523-1.922-3.259s.9-3.258 1.922-3.258 1.924 1.522 1.924 3.258-.895 3.259-1.924 3.259z" transform="translate(-134.646 -3189.604)" style="fill:url(#6gd5m5uwea)"/>
    <path data-name="Path 2770" d="M147 3168.944c-.2-2.792-1.924-4.882-4.063-4.882-2.288 0-4.081 2.378-4.081 5.417a5.6 5.6 0 0 0 2.566 5.044l1.836-1.834a1.077 1.077 0 0 1-.322.049c-1.024 0-1.922-1.521-1.922-3.258s.9-3.257 1.922-3.257 1.924 1.521 1.924 3.257a4.707 4.707 0 0 1-.463 2.067z" transform="translate(-122.147 -3163.352)" style="fill:url(#6gd5m5uwea)"/>
</svg>
