<svg xmlns="http://www.w3.org/2000/svg" width="24.699" height="31.712" viewBox="0 0 24.699 31.712">
  <g id="contestquiz" transform="translate(-14.5 -1428.4)">
    <path id="Path_3257" data-name="Path 3257" d="M282.218,362.536a2.192,2.192,0,1,1,2.192-2.192A2.194,2.194,0,0,1,282.218,362.536Zm0-3.269a1.077,1.077,0,1,0,1.077,1.077A1.079,1.079,0,0,0,282.218,359.267Z" transform="translate(-261.696 1079.142)" fill="#4e5366" stroke="#4e5366" stroke-width="1"/>
    <path id="Path_3258" data-name="Path 3258" d="M274.723,458.309a.558.558,0,0,1-.552-.64l.572-3.814a.557.557,0,0,1,1.1.165l-.572,3.814A.557.557,0,0,1,274.723,458.309Zm4.241-.036a.557.557,0,0,1-.549-.465l-.633-3.778a.557.557,0,0,1,1.1-.184l.633,3.777a.558.558,0,0,1-.55.649Z" transform="translate(-256.27 990.989)" fill="#4e5366" stroke="#4e5366" stroke-width="1"/>
    <path id="Path_3259" data-name="Path 3259" d="M252.479,427.464a.558.558,0,0,1-.549-.655l.819-4.619a2.5,2.5,0,0,1,1.845-2.035l.571-.148a.557.557,0,0,1,.28,1.079l-.571.148a1.389,1.389,0,0,0-1.025,1.133l0,.012L253.027,427A.557.557,0,0,1,252.479,427.464Z" transform="translate(-235.679 1021.899)" fill="#4e5366" stroke="#4e5366" stroke-width="1"/>
    <path id="Path_3260" data-name="Path 3260" d="M318.573,427.363a.557.557,0,0,1-.548-.46l-.8-4.523,0-.012a1.389,1.389,0,0,0-1.025-1.133l-.571-.148a.557.557,0,0,1,.28-1.079l.571.148a2.5,2.5,0,0,1,1.845,2.034l.8,4.518a.558.558,0,0,1-.549.655Z" transform="translate(-294.42 1021.899)" fill="#4e5366" stroke="#4e5366" stroke-width="1"/>
    <path id="Path_3261" data-name="Path 3261" d="M451.913,362.536a2.192,2.192,0,1,1,2.192-2.192A2.194,2.194,0,0,1,451.913,362.536Zm0-3.269a1.077,1.077,0,1,0,1.077,1.077A1.079,1.079,0,0,0,451.913,359.267Z" transform="translate(-419.209 1079.142)" fill="#4e5366" stroke="#4e5366" stroke-width="1"/>
    <path id="Path_3262" data-name="Path 3262" d="M449.417,320.52a.558.558,0,0,1-.552-.64l.572-3.814a.557.557,0,1,1,1.1.165l-.572,3.814A.557.557,0,0,1,449.417,320.52Zm4.988,0a.557.557,0,0,1-.557-.544l-.121-5.086a3.94,3.94,0,0,1,.019-.487l.858-8.5a.233.233,0,0,0-.193-.253.233.233,0,0,0-.27.208v.012l-.284,2.446a.557.557,0,1,1-1.107-.129l.284-2.44a1.347,1.347,0,1,1,2.681.269l-.858,8.5a2.8,2.8,0,0,0-.013.348l.121,5.086a.557.557,0,0,1-.544.57Z" transform="translate(-418.444 1128.778)" fill="#4e5366" stroke="#4e5366" stroke-width="1"/>
    <path id="Path_3263" data-name="Path 3263" d="M427.173,427.464a.558.558,0,0,1-.549-.655l.82-4.619a2.5,2.5,0,0,1,1.845-2.035l.571-.148a.557.557,0,0,1,.28,1.079l-.571.148a1.389,1.389,0,0,0-1.025,1.133l0,.012-.82,4.625A.558.558,0,0,1,427.173,427.464Z" transform="translate(-397.769 1021.899)" fill="#4e5366" stroke="#4e5366" stroke-width="1"/>
    <path id="Path_3268" data-name="Path 3268" d="M245.776,516.947a.557.557,0,0,1-.557-.557V506.7h-8.9v9.693a.557.557,0,0,1-1.115,0V506.14a.557.557,0,0,1,.557-.557h10.013a.557.557,0,0,1,.557.557v10.25A.557.557,0,0,1,245.776,516.947Z" transform="translate(-220.205 942.665)" fill="#4e5366" stroke="#4e5366" stroke-width="1"/>
    <path id="Path_3269" data-name="Path 3269" d="M420.861,516.947a.557.557,0,0,1-.557-.557V506.7h-8.9v9.693a.557.557,0,0,1-1.115,0V506.14a.557.557,0,0,1,.557-.557h10.013a.557.557,0,0,1,.557.557v10.25A.557.557,0,0,1,420.861,516.947Z" transform="translate(-382.719 942.665)" fill="#4e5366" stroke="#4e5366" stroke-width="1"/>
    <path id="Path_3271" data-name="Path 3271" d="M445.8,249.194a.558.558,0,0,1-.536-.4l-.686-2.4a.557.557,0,1,1,1.072-.306l.686,2.4a.558.558,0,0,1-.536.71Z" transform="translate(-414.388 1183.261)" fill="#4e5366" stroke="#4e5366" stroke-width="1"/>
    <path id="Path_3272" data-name="Path 3272" d="M495.334,248.792a.558.558,0,0,1-.552-.637l.358-2.474a.557.557,0,1,1,1.1.16l-.358,2.474A.557.557,0,0,1,495.334,248.792Z" transform="translate(-460.963 1183.698)" fill="#4e5366" stroke="#4e5366" stroke-width="1"/>
    <path id="Path_3273" data-name="Path 3273" d="M404.032,289.528a.555.555,0,0,1-.3-.088l-2.1-1.351a.557.557,0,0,1,.6-.938l2.1,1.351a.557.557,0,0,1-.3,1.026Z" transform="translate(-374.344 1144.949)" fill="#4e5366" stroke="#4e5366" stroke-width="1"/>
    <g id="Group_1606" data-name="Group 1606" transform="translate(18.181 1452.167)">
      <path id="Path_3276" data-name="Path 3276" d="M282.439,563.3a.556.556,0,0,1-.394-.163l-3.865-3.865a.557.557,0,0,1,.788-.788l3.865,3.865a.557.557,0,0,1-.394.951Z" transform="translate(-278.016 -558.325)" fill="#4e5366" stroke="#4e5366" stroke-width="1"/>
      <path id="Path_3277" data-name="Path 3277" d="M278.573,563.3a.557.557,0,0,1-.394-.951l3.865-3.865a.557.557,0,0,1,.788.788l-3.865,3.865A.556.556,0,0,1,278.573,563.3Z" transform="translate(-278.016 -558.325)" fill="#4e5366" stroke="#4e5366" stroke-width="1"/>
    </g>
    <g id="Group_1673" data-name="Group 1673" transform="translate(31.145 1452.167)">
      <path id="Path_3276-2" data-name="Path 3276" d="M280.522,561.408a.556.556,0,0,1-.394-.163l-1.948-1.969a.557.557,0,0,1,.788-.788l.835.844,1.113,1.125a.557.557,0,0,1-.394.951Z" transform="translate(-279.016 -556.377)" fill="#4e5366" stroke="#4e5366" stroke-width="1"/>
      <path id="Path_3277-2" data-name="Path 3277" d="M279.5,563.413a.557.557,0,0,1-.394-.951l2.938-3.974a.557.557,0,0,1,.788.788l-2.938,3.974A.556.556,0,0,1,279.5,563.413Z" transform="translate(-278.016 -558.325)" fill="#4e5366" stroke="#4e5366" stroke-width="1"/>
    </g>
  </g>
</svg>
