<svg xmlns="http://www.w3.org/2000/svg" xmlns:xlink="http://www.w3.org/1999/xlink" width="240" height="240" viewBox="0 0 240 240">
  <defs>
    <linearGradient id="linear-gradient" y1="1" x2="1" gradientUnits="objectBoundingBox">
      <stop offset="0" stop-color="#00b3d5"/>
      <stop offset="1" stop-color="#00e1d3"/>
    </linearGradient>
    <filter id="Rectangle_1" x="0" y="0" width="240" height="240" filterUnits="userSpaceOnUse">
      <feOffset dy="3" input="SourceAlpha"/>
      <feGaussianBlur stdDeviation="3" result="blur"/>
      <feFlood flood-opacity="0.161"/>
      <feComposite operator="in" in2="blur"/>
      <feComposite in="SourceGraphic"/>
    </filter>
    <clipPath id="clip-path">
      <rect id="Rectangle_2" data-name="Rectangle 2" width="222" height="222" rx="29" fill="url(#linear-gradient)"/>
    </clipPath>
    <linearGradient id="linear-gradient-2" y1="1" x2="1" gradientUnits="objectBoundingBox">
      <stop offset="0" stop-color="#1d6dba"/>
      <stop offset="1" stop-color="#53bffe"/>
    </linearGradient>
    <filter id="Path_3294" x="154.954" y="22.554" width="8.37" height="25.291" filterUnits="userSpaceOnUse">
      <feOffset dx="0.5" dy="0.5" input="SourceAlpha"/>
      <feGaussianBlur stdDeviation="0.5" result="blur-2"/>
      <feFlood flood-opacity="0.161"/>
      <feComposite operator="in" in2="blur-2"/>
      <feComposite in="SourceGraphic"/>
    </filter>
    <filter id="Path_3295" x="162.994" y="23.335" width="23.728" height="24.878" filterUnits="userSpaceOnUse">
      <feOffset dx="0.5" dy="0.5" input="SourceAlpha"/>
      <feGaussianBlur stdDeviation="0.5" result="blur-3"/>
      <feFlood flood-opacity="0.161"/>
      <feComposite operator="in" in2="blur-3"/>
      <feComposite in="SourceGraphic"/>
    </filter>
    <filter id="Path_3296" x="186.171" y="23.335" width="17.517" height="24.878" filterUnits="userSpaceOnUse">
      <feOffset dx="0.5" dy="0.5" input="SourceAlpha"/>
      <feGaussianBlur stdDeviation="0.5" result="blur-4"/>
      <feFlood flood-opacity="0.161"/>
      <feComposite operator="in" in2="blur-4"/>
      <feComposite in="SourceGraphic"/>
    </filter>
  </defs>
  <g id="homelogo1" transform="translate(5.858 2.858)">
    <g id="new_logo" data-name="new logo" transform="translate(3.142 3.142)">
      <g transform="matrix(1, 0, 0, 1, -9, -6)" filter="url(#Rectangle_1)">
        <rect id="Rectangle_1-2" data-name="Rectangle 1" width="222" height="222" rx="29" transform="translate(9 6)" fill="#fff"/>
      </g>
      <g id="Group_1" data-name="Group 1" transform="translate(0 0)" clip-path="url(#clip-path)">
        <path id="Path_1" data-name="Path 1" d="M564.972,11.977V61.565a63.14,63.14,0,0,1-19.248,10.717,31,31,0,0,1-8.344,1.172c-5.039.223-9.078,1.963-11.65,6.513C524.577,82,523.363,84.006,522.141,86a15.876,15.876,0,0,1-6.685,6.062A15.29,15.29,0,0,1,504.5,93.29a29.578,29.578,0,0,1-5.323-1.728,13.486,13.486,0,0,1-3.24-2.03,14.22,14.22,0,0,1-4.387-6.883,16.16,16.16,0,0,1-.607-4.019,13,13,0,0,0-3.458-8.991,23.569,23.569,0,0,0-11.949-4.356c-3.572-.328-7.29-1.141-10.259-3.258a12.826,12.826,0,0,1-3.461-3.655c-1.786-2.88-1.86-6.573-1.4-9.824q.141-1,.375-1.994a27.975,27.975,0,0,1,1.949-5.446,42.271,42.271,0,0,0,2.3-5.041,12.805,12.805,0,0,0,.618-3.994,11.05,11.05,0,0,0-1.186-5.017c-1.6-3.106-4.537-5.135-7.56-6.7-1.018-.527-2.056-1.016-3.088-1.523q-2.6-1.275-5.267-2.411c-3.552-1.512-7.185-2.836-10.864-4.005l-1.42-.447Z" transform="translate(-342.123 -12.549)" fill="url(#linear-gradient-2)"/>
        <path id="Path_2" data-name="Path 2" d="M114.888,745.19c-.962,4.3-3.155,7.986-5.559,11.59a36.142,36.142,0,0,0-2.539,4.318,6.028,6.028,0,0,0-.167,5.336H12v-49.5c.3-.435.61-.864.936-1.279a25.064,25.064,0,0,1,20.144-9.9c1.925-.038,3.849.051,5.772.172.951.06,1.9.127,2.856.192a11.1,11.1,0,0,0,4.689-.545,10.908,10.908,0,0,0,4-3.184l.156-.17.185-.2c.581-.607,1.21-1.165,1.817-1.748a17.145,17.145,0,0,1,8.984-4.052,24.766,24.766,0,0,1,10.478.413c5.216,1.34,8.067,5.042,7.969,10.228a8.182,8.182,0,0,1-.165,1.078A25.776,25.776,0,0,0,79.986,713c1,4.436,4.311,6.546,8.417,7.629,1.5.4,3.043.594,4.566.893l.654.132.458.094a33.2,33.2,0,0,1,14.066,5.95C114.209,732.142,116.6,737.55,114.888,745.19Z" transform="translate(-12.573 -543.735)" fill="url(#linear-gradient-2)"/>
      </g>
      <path id="Path_3" data-name="Path 3" d="M554.245,549.419q0,8.415-7.839,8.413-7.6,0-7.606-8.224V538.83h4.223v10.836q0,4.534,3.541,4.534,3.476,0,3.478-4.376V538.83h4.205Z" transform="translate(-421.713 -421.727)" fill="url(#linear-gradient-2)"/>
      <path id="Path_4" data-name="Path 4" d="M630.785,557.53H626.58V538.86h4.205Z" transform="translate(-489.922 -421.751)" fill="url(#linear-gradient-2)"/>
      <path id="Path_5" data-name="Path 5" d="M672.441,557.507H657.4v-2.414l9.571-12.827H658.08V538.83h14.345v2.358L663.063,554.1h9.388Z" transform="translate(-513.826 -421.728)" fill="url(#linear-gradient-2)"/>
      <path id="Path_6" data-name="Path 6" d="M552.028,474.665h-4.1v-7.41q0-3.112-2.223-3.1a2.2,2.2,0,0,0-1.758.822,3.122,3.122,0,0,0-.691,2.083v7.606H539.15V461.329h4.114v2.116h.053A4.708,4.708,0,0,1,547.6,461q4.427,0,4.427,5.494Z" transform="translate(-421.992 -361.294)" fill="#3e3e40"/>
      <path id="Path_7" data-name="Path 7" d="M615.856,453.394H611.74V433.65h4.116Z" transform="translate(-478.396 -340.039)" fill="#3e3e40"/>
      <path id="Path_8" data-name="Path 8" d="M646.911,438.184a2.4,2.4,0,0,1-1.707-.62,2,2,0,0,1-.667-1.516,1.922,1.922,0,0,1,.667-1.511,2.783,2.783,0,0,1,3.418,0,1.925,1.925,0,0,1,.667,1.511,1.976,1.976,0,0,1-.667,1.536A2.444,2.444,0,0,1,646.911,438.184Zm2.031,15.445h-4.116V440.293h4.116Z" transform="translate(-503.868 -340.272)" fill="#3e3e40"/>
      <path id="Path_9" data-name="Path 9" d="M692.869,474.665h-4.1v-7.41q0-3.112-2.223-3.1a2.2,2.2,0,0,0-1.758.822,3.123,3.123,0,0,0-.691,2.083v7.606H680V461.329h4.114v2.116h.053A4.711,4.711,0,0,1,688.451,461q4.427,0,4.43,5.494Z" transform="translate(-531.386 -361.294)" fill="#3e3e40"/>
      <path id="Path_10" data-name="Path 10" d="M761.769,469.163h-8.7q.207,2.9,3.659,2.9a7.137,7.137,0,0,0,3.87-1.042V474a10.13,10.13,0,0,1-4.805.989A6.2,6.2,0,0,1,749,468.2a7.137,7.137,0,0,1,1.927-5.261,6.421,6.421,0,0,1,4.741-1.945,5.826,5.826,0,0,1,4.512,1.731,6.677,6.677,0,0,1,1.589,4.714Zm-3.816-2.525q0-2.867-2.318-2.865a2.223,2.223,0,0,0-1.711.82,3.725,3.725,0,0,0-.889,2.045Z" transform="translate(-584.976 -361.288)" fill="#3e3e40"/>
      <circle id="Ellipse_311" data-name="Ellipse 311" cx="29" cy="29" r="29" transform="translate(50 82)" fill="none" stroke="#3e3e40" stroke-width="10"/>
      <path id="Path_12" data-name="Path 12" d="M227.892,301.52A5.112,5.112,0,1,0,233,306.632,5.112,5.112,0,0,0,227.892,301.52Zm1.856,7.577-1.807-1.616q-.811.907-1.616,1.816c-.4.445-1.111-.171-.7-.622l1.616-1.816-1.816-1.616a.469.469,0,0,1,.622-.7l1.816,1.616,1.616-1.816a.468.468,0,0,1,.7.622l-1.614,1.816,1.816,1.616C230.83,308.8,230.2,309.5,229.748,309.1Z" transform="translate(-176.281 -237.437)" fill-rule="evenodd" fill="url(#linear-gradient-2)"/>
      <path id="Path_13" data-name="Path 13" d="M274.968,215.68a6.608,6.608,0,1,0,6.608,6.608,6.608,6.608,0,0,0-6.608-6.608Zm3.356,5.779-3.681,3.792a.5.5,0,0,1-.7.042l-2.329-2.347c-.445-.445.209-1.2.667-.74l2,2,3.314-3.414C278.029,220.343,278.771,221,278.324,221.459Z" transform="translate(-211.678 -170.764)" fill-rule="evenodd" fill="url(#linear-gradient-2)"/>
      <path id="Path_14" data-name="Path 14" d="M161.539,231.88a8.2,8.2,0,1,0,8.2,8.2A8.2,8.2,0,0,0,161.539,231.88Zm-.013,13.781a.745.745,0,0,1-.769-.718l-.011-.273a.756.756,0,0,1,.72-.769.734.734,0,0,1,.769.718v.273a.727.727,0,0,1-.709.762Zm.6-4.368.033.987a.727.727,0,0,1-.72.769.747.747,0,0,1-.769-.718l-.053-1.578c0-.016.016-.018.013-.031s-.016-.016-.016-.031a.767.767,0,0,1,.718-.769,1.7,1.7,0,1,0-.116-3.4,1.68,1.68,0,0,0-1.429.889.749.749,0,0,1-1.022.309.74.74,0,0,1-.293-1.009,3.192,3.192,0,1,1,3.654,4.588Z" transform="translate(-122.495 -183.342)" fill-rule="evenodd" fill="url(#linear-gradient-2)"/>
      <path id="Path_15" data-name="Path 15" d="M816.542,605.58a5.112,5.112,0,1,0,5.112,5.112A5.112,5.112,0,0,0,816.542,605.58Zm1.645,7-1.64-1.622-1.623,1.64a.445.445,0,0,1-.633-.625l1.625-1.64-1.64-1.622a.445.445,0,0,1,.625-.633l1.64,1.625,1.622-1.64a.444.444,0,0,1,.631.625l-1.623,1.64,1.64,1.622A.444.444,0,0,1,818.187,612.584Z" transform="translate(-633.314 -473.594)" fill-rule="evenodd" fill="url(#linear-gradient-2)"/>
      <path id="Path_16" data-name="Path 16" d="M744.428,669.66a6.608,6.608,0,1,0,6.608,6.608A6.608,6.608,0,0,0,744.428,669.66Zm3.614,5.454-3.541,3.645a.478.478,0,0,1-.667.04l-2.234-2.254c-.431-.433.2-1.149.633-.713q.953.967,1.911,1.931l3.187-3.283C747.755,674.041,748.469,674.672,748.042,675.114Z" transform="translate(-576.291 -523.354)" fill-rule="evenodd" fill="url(#linear-gradient-2)"/>
      <path id="Path_17" data-name="Path 17" d="M838.142,700.28a8.2,8.2,0,1,0,8.2,8.2,8.2,8.2,0,0,0-8.2-8.2Zm-.1,13.692a.747.747,0,0,1-.771-.718v-.273a.756.756,0,0,1,.718-.769.736.736,0,0,1,.771.718v.273a.729.729,0,0,1-.718.769Zm.593-4.368.036.987a.727.727,0,0,1-.72.769.747.747,0,0,1-.769-.718l-.053-1.578c0-.016.013-.018.013-.031s-.016-.016-.016-.031a.765.765,0,0,1,.718-.769,1.7,1.7,0,1,0-.116-3.4,1.68,1.68,0,0,0-1.429.889.751.751,0,0,1-1.025.309.742.742,0,0,1-.291-1.009,3.192,3.192,0,1,1,3.652,4.588Z" transform="translate(-647.71 -547.124)" fill-rule="evenodd" fill="url(#linear-gradient-2)"/>
      <path id="Path_25" data-name="Path 25" d="M240.905,137.919l-1.834-.309L237.46,147.2l2.065-1.076,1.6,1.691,1.611-9.593Z" transform="translate(-187.688 -110.261)" fill="url(#linear-gradient-2)"/>
      <path id="Path_26" data-name="Path 26" d="M257.059,133.361l1.547-1.031,5.39,8.1-2.325-.138-.771,2.2-5.39-8.1Z" transform="translate(-201.704 -106.155)" fill="url(#linear-gradient-2)"/>
      <path id="Path_27" data-name="Path 27" d="M241.047,110.688l-.613,1.265.651,1.247-1.056.931.124,1.4-1.329.458-.42,1.342-1.4-.084-.9,1.076-1.265-.613-1.245.651-.934-1.054-1.4.124-.46-1.331-1.342-.42.087-1.4-1.078-.9.613-1.265-.651-1.247,1.054-.931-.122-1.4,1.329-.458.42-1.342,1.4.084.9-1.078,1.267.616,1.247-.651.931,1.054,1.4-.124.46,1.331,1.342.42-.087,1.4Z" transform="translate(-180.659 -85.444)" fill="url(#linear-gradient-2)"/>
      <path id="Path_28" data-name="Path 28" d="M244.692,116.218a4.845,4.845,0,1,1-5.75-3.725A4.845,4.845,0,0,1,244.692,116.218Z" transform="translate(-185.856 -90.643)" fill="#fff"/>
      <path id="Path_29" data-name="Path 29" d="M246.615,118.989a4.109,4.109,0,0,0-8.039,1.7,3.778,3.778,0,0,0,.971,1.9,4.31,4.31,0,0,0,3.556,1.309c.118-.011.236-.029.353-.051a3.525,3.525,0,0,0,.351-.084,4,4,0,0,0,2.667-2.692A4.29,4.29,0,0,0,246.615,118.989Zm-.565,2.1a.142.142,0,0,1-.013.04c-.027.073-.056.144-.087.222s-.067.144-.1.222v.013q-.056.111-.12.222c-.042.071-.087.142-.136.209s-.093.131-.142.193v.013c-.047.058-.093.113-.142.169s-.122.131-.187.191l-.091.084-.1.08-.1.078a3.307,3.307,0,0,1-.642.391c-.029.016-.058.027-.089.04s-.118.049-.178.071l-.091.031a2.493,2.493,0,0,1-.251.073l-.049.013-.149.031-.147.024h-.049c-.084,0-.169.02-.256.024s-.153,0-.222,0a3.847,3.847,0,0,1-.68-.056l-.2-.04a.069.069,0,0,1-.029,0,4.082,4.082,0,0,1-.8-.278c-.069-.036-.138-.069-.2-.107s-.1-.058-.151-.089-.138-.087-.2-.133-.116-.084-.171-.129l-.164-.138-.016-.013c-.049-.044-.1-.089-.14-.136s-.1-.1-.142-.151h0c-.047-.053-.091-.109-.136-.164s-.08-.107-.116-.16-.071-.1-.1-.158a.082.082,0,0,1-.013-.022c-.024-.038-.044-.076-.067-.113a2.97,2.97,0,0,1-.2-.445c-.02-.049-.038-.1-.053-.151a1.4,1.4,0,0,1-.04-.138l-.027-.1c-.013-.056-.024-.111-.036-.169a3.737,3.737,0,0,1,2.845-4.388,3.63,3.63,0,0,1,4.445,3.556v.222a.82.82,0,0,1-.018.211h0a1.239,1.239,0,0,1-.029.2c-.011.071-.027.142-.042.222a4,4,0,0,1-.171.422Z" transform="translate(-188.495 -93.258)" fill="url(#linear-gradient-2)"/>
      <path id="Path_30" data-name="Path 30" d="M244.8,124.9a3.7,3.7,0,1,1,2.845-4.388A3.737,3.737,0,0,1,244.8,124.9Z" transform="translate(-189.926 -94.694)" fill="#fff"/>
      <path id="Path_31" data-name="Path 31" d="M748.405,819.437l-1.834-.307-1.611,9.591,2.065-1.074,1.6,1.691,1.611-9.593Z" transform="translate(-581.865 -639.302)" fill="url(#linear-gradient-2)"/>
      <path id="Path_32" data-name="Path 32" d="M764.559,814.879l1.547-1.029,5.39,8.1-2.325-.138-.771,2.2-5.39-8.1Z" transform="translate(-595.873 -635.196)" fill="url(#linear-gradient-2)"/>
      <path id="Path_33" data-name="Path 33" d="M748.547,792.2l-.613,1.267.651,1.245-1.056.933.125,1.4-1.329.46-.42,1.343-1.4-.087-.9,1.078-1.265-.616-1.247.651-.931-1.054-1.4.125-.46-1.329-1.343-.42.087-1.4-1.078-.9.616-1.265-.653-1.247,1.054-.931-.122-1.4,1.329-.46.42-1.342,1.4.087.9-1.078,1.267.614,1.245-.651.933,1.054,1.4-.122.46,1.329,1.342.42-.087,1.4Z" transform="translate(-574.818 -614.653)" fill="url(#linear-gradient-2)"/>
      <path id="Path_34" data-name="Path 34" d="M752.191,797.732a4.845,4.845,0,1,1-5.75-3.727A4.846,4.846,0,0,1,752.191,797.732Z" transform="translate(-580.021 -619.858)" fill="#fff"/>
      <path id="Path_35" data-name="Path 35" d="M754.121,800.5a4.108,4.108,0,0,0-8.035,1.714,3.779,3.779,0,0,0,.971,1.9,4.31,4.31,0,0,0,3.556,1.309,1.939,1.939,0,0,0,.353-.051,3.563,3.563,0,0,0,.351-.085,4,4,0,0,0,2.667-2.692A4.289,4.289,0,0,0,754.121,800.5Zm-.444,1.656c-.018.078-.038.155-.058.233s-.042.129-.064.193a.244.244,0,0,1-.029.082.156.156,0,0,1,0,.024c-.022.058-.047.118-.071.173a3.75,3.75,0,0,1-.236.445q-.059.1-.129.2h0c-.038.055-.078.109-.118.16-.018.025-.037.048-.058.071a3.552,3.552,0,0,1-.889.782l-.109.062a2.427,2.427,0,0,1-.222.116l-.124.06c-.049.022-.1.042-.149.06l-.091.031a2.535,2.535,0,0,1-.251.073l-.049.013-.149.031a1.01,1.01,0,0,0-.158.027h-.038a3.8,3.8,0,0,1-1.167-.022,1.252,1.252,0,0,1-.222-.042c-.08-.016-.142-.033-.211-.053h-.018c-.131-.04-.258-.084-.382-.133h-.02a3.791,3.791,0,0,1-.371-.178l-.02-.011c-.051-.027-.1-.058-.151-.089a3.488,3.488,0,0,1-.4-.284l-.136-.116a3.62,3.62,0,0,1-.3-.307c-.047-.053-.091-.109-.136-.164s-.08-.107-.116-.16-.071-.1-.1-.158a.082.082,0,0,1-.013-.022c-.024-.038-.045-.076-.067-.113a2.963,2.963,0,0,1-.2-.445c-.02-.049-.038-.1-.053-.151a1.378,1.378,0,0,1-.04-.138l-.027-.1c-.013-.056-.024-.111-.036-.169a3.737,3.737,0,0,1,2.845-4.387,3.629,3.629,0,0,1,4.445,3.556v.222a.949.949,0,0,1-.018.222h0a1.237,1.237,0,0,1-.029.2v.031a.918.918,0,0,1-.036.187l0-.018Z" transform="translate(-582.675 -622.474)" fill="url(#linear-gradient-2)"/>
      <path id="Path_36" data-name="Path 36" d="M752.3,806.447a3.7,3.7,0,1,1,2.845-4.387A3.737,3.737,0,0,1,752.3,806.447Z" transform="translate(-584.098 -623.942)" fill="#fff"/>
      <path id="Path_37" data-name="Path 37" d="M417.736,590.75a4.759,4.759,0,0,1-2.479-.7l-25.433-15.465a4.779,4.779,0,1,1,4.965-8.166l25.434,15.465a4.779,4.779,0,0,1-2.487,8.862Z" transform="translate(-304.184 -442.597)" fill="url(#linear-gradient-2)"/>
      <g id="iOS" transform="translate(-2874.361 1406.181)">
        <g transform="matrix(1, 0, 0, 1, 2865.36, -1412.18)" filter="url(#Path_3294)">
          <path id="Path_3294-2" data-name="Path 3294" d="M3024-1383.832a2.722,2.722,0,0,1-1.933-.7,2.258,2.258,0,0,1-.752-1.719,2.178,2.178,0,0,1,.752-1.711,2.812,2.812,0,0,1,1.933-.664,2.805,2.805,0,0,1,1.94.664,2.188,2.188,0,0,1,.745,1.711,2.249,2.249,0,0,1-.745,1.741A2.767,2.767,0,0,1,3024-1383.832Zm2.3,17.5h-4.662v-15.107h4.662Z" transform="translate(-2865.36 1412.18)" fill="#fff"/>
        </g>
        <g transform="matrix(1, 0, 0, 1, 2865.36, -1412.18)" filter="url(#Path_3295)">
          <path id="Path_3295-2" data-name="Path 3295" d="M3063.517-1363.644a9.847,9.847,0,0,1-7.406-2.958,10.618,10.618,0,0,1-2.862-7.708,11.378,11.378,0,0,1,2.906-8.114,10.062,10.062,0,0,1,7.7-3.1,9.6,9.6,0,0,1,7.325,2.965,10.933,10.933,0,0,1,2.8,7.819,11.2,11.2,0,0,1-2.9,8.04A9.95,9.95,0,0,1,3063.517-1363.644Zm.207-17.777a4.8,4.8,0,0,0-3.983,1.881,7.843,7.843,0,0,0-1.475,4.979,7.7,7.7,0,0,0,1.475,4.972,4.726,4.726,0,0,0,3.865,1.829,4.774,4.774,0,0,0,3.909-1.778,7.614,7.614,0,0,0,1.446-4.935,8.251,8.251,0,0,0-1.4-5.119A4.57,4.57,0,0,0,3063.724-1381.421Z" transform="translate(-2889.25 1409.86)" fill="#fff"/>
        </g>
        <g transform="matrix(1, 0, 0, 1, 2865.36, -1412.18)" filter="url(#Path_3296)">
          <path id="Path_3296-2" data-name="Path 3296" d="M3145.388-1364.824v-4.721a9.063,9.063,0,0,0,2.789,1.615,8.955,8.955,0,0,0,3.039.539,6.737,6.737,0,0,0,1.571-.162,3.676,3.676,0,0,0,1.121-.45,1.962,1.962,0,0,0,.671-.678,1.692,1.692,0,0,0,.221-.848,1.835,1.835,0,0,0-.354-1.107,3.822,3.822,0,0,0-.966-.9,10.139,10.139,0,0,0-1.453-.8q-.841-.383-1.814-.782a9.256,9.256,0,0,1-3.7-2.523,5.506,5.506,0,0,1-1.217-3.6,5.733,5.733,0,0,1,.664-2.84,5.64,5.64,0,0,1,1.807-1.955,8.105,8.105,0,0,1,2.648-1.128,13.606,13.606,0,0,1,3.187-.362,19.162,19.162,0,0,1,2.928.2,11.494,11.494,0,0,1,2.353.612v4.411a7.154,7.154,0,0,0-1.158-.649,9.227,9.227,0,0,0-1.291-.465,9.931,9.931,0,0,0-1.32-.273,9.374,9.374,0,0,0-1.247-.088,6.5,6.5,0,0,0-1.475.155,3.786,3.786,0,0,0-1.121.435,2.161,2.161,0,0,0-.708.671,1.588,1.588,0,0,0-.251.878,1.677,1.677,0,0,0,.28.952,3.2,3.2,0,0,0,.8.8,8.45,8.45,0,0,0,1.254.738q.738.361,1.667.745a18.585,18.585,0,0,1,2.279,1.128,8.117,8.117,0,0,1,1.733,1.35,5.266,5.266,0,0,1,1.106,1.719,6.075,6.075,0,0,1,.384,2.25,6.028,6.028,0,0,1-.671,2.973,5.448,5.448,0,0,1-1.822,1.947,7.889,7.889,0,0,1-2.677,1.07,15.482,15.482,0,0,1-3.224.325,17.929,17.929,0,0,1-3.312-.3A9.99,9.99,0,0,1,3145.388-1364.824Z" transform="translate(-2958.13 1409.86)" fill="#fff"/>
        </g>
      </g>
    </g>
  </g>
</svg>
