<svg xmlns="http://www.w3.org/2000/svg" width="27.314" height="21.43" viewBox="0 0 27.314 21.43">
  <g id="drawer" transform="translate(-1239.605 -8392.071)">
    <g id="Group_1385" data-name="Group 1385" transform="translate(1240.105 8408.494)">
      <path id="Path_2833" data-name="Path 2833" d="M1264.166,8432.407h-21.807a2.253,2.253,0,1,1,0-4.507h21.807a2.253,2.253,0,1,1,0,4.507Z" transform="translate(-1240.105 -8427.9)" fill="#fff" stroke="rgba(0,0,0,0)" stroke-width="1"/>
    </g>
    <g id="Group_1386" data-name="Group 1386" transform="translate(1240.105 8400.532)">
      <path id="Path_2834" data-name="Path 2834" d="M1264.166,8414.744h-21.807a2.254,2.254,0,0,1,0-4.508h21.807a2.254,2.254,0,0,1,0,4.508Z" transform="translate(-1240.105 -8410.236)" fill="#fff" stroke="rgba(0,0,0,0)" stroke-width="1"/>
    </g>
    <g id="Group_1387" data-name="Group 1387" transform="translate(1240.105 8392.571)">
      <path id="Path_2835" data-name="Path 2835" d="M1264.166,8397.078h-21.807a2.253,2.253,0,1,1,0-4.507h21.807a2.253,2.253,0,1,1,0,4.507Z" transform="translate(-1240.105 -8392.571)" fill="#fff" stroke="rgba(0,0,0,0)" stroke-width="1"/>
    </g>
  </g>
</svg>
