<svg xmlns="http://www.w3.org/2000/svg" xmlns:xlink="http://www.w3.org/1999/xlink" width="30.598" height="18.924" viewBox="0 0 30.598 18.924">
  <defs>
    <linearGradient id="linear-gradient" y1="1" x2="1" gradientUnits="objectBoundingBox">
      <stop offset="0" stop-color="#00b3d5"/>
      <stop offset="1" stop-color="#00e1d3"/>
    </linearGradient>
  </defs>
  <g id="points" transform="translate(-2362.068 -6469.809)">
    <g id="Group_1319" data-name="Group 1319" transform="translate(2369.25 6470.309)">
      <path id="Path_2798" data-name="Path 2798" d="M2410.314,6488.233a.843.843,0,0,1-.437-.122c-7.036-4.268-7.677-12.388-7.706-14.774a.843.843,0,0,1,.977-.843c3.785.606,5.71-.919,6.521-1.883a.843.843,0,0,1,.646-.3h0a.843.843,0,0,1,.646.3c.81.964,2.732,2.492,6.52,1.883a.843.843,0,0,1,.978.843c-.029,2.387-.671,10.507-7.706,14.774A.841.841,0,0,1,2410.314,6488.233Zm-6.416-13.95c.195,2.808,1.242,8.69,6.416,12.108,5.173-3.417,6.221-9.3,6.416-12.108a11.69,11.69,0,0,0-12.832,0Z" transform="translate(-2402.171 -6470.31)" stroke="rgba(0,0,0,0)" stroke-width="1" fill="url(#linear-gradient)"/>
    </g>
    <g id="Group_1320" data-name="Group 1320" transform="translate(2385.825 6477.049)">
      <path id="Path_2799" data-name="Path 2799" d="M2505.9,6511.94h-4.653a.844.844,0,0,1,0-1.687h4.653a.844.844,0,0,1,0,1.688Z" transform="translate(-2500.399 -6510.253)" stroke="rgba(0,0,0,0)" stroke-width="1" fill="url(#linear-gradient)"/>
    </g>
    <g id="Group_1321" data-name="Group 1321" transform="translate(2384.859 6479.488)">
      <path id="Path_2800" data-name="Path 2800" d="M2499.2,6526.395h-3.687a.844.844,0,0,1,0-1.687h3.687a.844.844,0,0,1,0,1.688Z" transform="translate(-2494.673 -6524.707)" stroke="rgba(0,0,0,0)" stroke-width="1" fill="url(#linear-gradient)"/>
    </g>
    <g id="Group_1322" data-name="Group 1322" transform="translate(2383.892 6481.927)">
      <path id="Path_2801" data-name="Path 2801" d="M2492.509,6540.85h-2.72a.844.844,0,0,1,0-1.687h2.72a.844.844,0,0,1,0,1.688Z" transform="translate(-2488.945 -6539.162)" stroke="rgba(0,0,0,0)" stroke-width="1" fill="url(#linear-gradient)"/>
    </g>
    <g id="Group_1323" data-name="Group 1323" transform="translate(2362.568 6477.049)">
      <path id="Path_2802" data-name="Path 2802" d="M2368.065,6511.94h-4.653a.844.844,0,0,1,0-1.687h4.653a.844.844,0,0,1,0,1.688Z" transform="translate(-2362.568 -6510.253)" stroke="rgba(0,0,0,0)" stroke-width="1" fill="url(#linear-gradient)"/>
    </g>
    <g id="Group_1324" data-name="Group 1324" transform="translate(2364.501 6479.488)">
      <path id="Path_2803" data-name="Path 2803" d="M2378.552,6526.395h-3.687a.844.844,0,0,1,0-1.687h3.687a.844.844,0,0,1,0,1.688Z" transform="translate(-2374.022 -6524.707)" stroke="rgba(0,0,0,0)" stroke-width="1" fill="url(#linear-gradient)"/>
    </g>
    <g id="Group_1325" data-name="Group 1325" transform="translate(2366.434 6481.927)">
      <path id="Path_2804" data-name="Path 2804" d="M2389.041,6540.85h-2.72a.844.844,0,0,1,0-1.687h2.72a.844.844,0,0,1,0,1.688Z" transform="translate(-2385.477 -6539.162)" stroke="rgba(0,0,0,0)" stroke-width="1" fill="url(#linear-gradient)"/>
    </g>
    <g id="Group_1327" data-name="Group 1327" transform="translate(2373.74 6474.588)">
      <g id="Group_1326" data-name="Group 1326" transform="translate(0 0)">
        <path id="Path_2805" data-name="Path 2805" d="M2430.7,6503.291a.76.76,0,0,1-.749-.881l.3-1.832-1.259-1.291a.759.759,0,0,1,.429-1.28l1.711-.263.771-1.638a.76.76,0,0,1,.687-.436h0a.758.758,0,0,1,.687.437l.772,1.64,1.708.261a.759.759,0,0,1,.429,1.28l-1.259,1.293.3,1.83a.759.759,0,0,1-1.116.787l-1.52-.84-1.52.84A.759.759,0,0,1,2430.7,6503.291Zm.407-4.007.495.507a.759.759,0,0,1,.206.651l-.108.669.52-.287a.759.759,0,0,1,.735,0l.519.287-.108-.665a.759.759,0,0,1,.205-.651l.5-.51-.649-.1a.759.759,0,0,1-.572-.426l-.258-.547-.256.544a.76.76,0,0,1-.571.427Z" transform="translate(-2428.775 -6495.67)" stroke="rgba(0,0,0,0)" stroke-width="1" fill="url(#linear-gradient)"/>
      </g>
    </g>
  </g>
</svg>
