<svg xmlns="http://www.w3.org/2000/svg" width="91.25" height="91.25" viewBox="0 0 91.25 91.25">
  <g id="random" transform="translate(0 0)" opacity="0.2">
    <g id="_052---Ranking" data-name="052---Ranking" transform="translate(0 0)">
      <path id="Shape" d="M86.687,71.479H68.945A39.542,39.542,0,0,0,30.68,2.938a4.476,4.476,0,0,1-.345-.57,1.521,1.521,0,0,0-2.876.525c-.011.1-.062.7-.082,1.594A39.5,39.5,0,0,0,15.718,65.4H4.562A4.562,4.562,0,0,0,0,69.958v18.25A3.042,3.042,0,0,0,3.042,91.25H88.208a3.042,3.042,0,0,0,3.042-3.042V76.042a4.563,4.563,0,0,0-4.562-4.562ZM38.333,47.365c.7,2.032,2.706,4.343,7.292,4.343s6.6-2.312,7.3-4.343l2.281.376a6.115,6.115,0,0,1,5.086,5.083l.3,1.927H30.69l.335-2.009a6.083,6.083,0,0,1,4.979-5ZM35.876,17.252A6.056,6.056,0,0,1,33.988,16.2a1.481,1.481,0,0,0-.3-.262c-2.354-2.228-3.046-6.194-3.22-9.114,3.515,2.147,8.862,1.921,13.73,1.706,4.251-.186,8.652-.377,10.95,1.025,5.267,3.207,1.968,12.427,1.934,12.519A1.521,1.521,0,0,0,58.5,24.121a2.38,2.38,0,1,1-.446,4.727,1.521,1.521,0,0,0-1.731,1.024,11.71,11.71,0,0,1-6.584,7.321,1.379,1.379,0,0,0-.172.084,10.574,10.574,0,0,1-8.06-.108,11.862,11.862,0,0,1-6.526-7.3,1.521,1.521,0,0,0-1.443-1.048,1.583,1.583,0,0,0-.3.03,2.167,2.167,0,0,1-.414.046,2.388,2.388,0,0,1,0-4.775A1.521,1.521,0,0,0,34.346,22.6V19.923c.179.073.362.141.548.2a1.521,1.521,0,0,0,.973-2.88ZM44.1,5.492h-.043A34.076,34.076,0,0,1,33.835,5,36.146,36.146,0,0,1,44.1,3.081Zm6.038,40.519c-.167.821-.94,2.655-4.517,2.655s-4.347-1.787-4.517-2.657a9.876,9.876,0,0,0,1.492-5.3,13.245,13.245,0,0,0,6.067.012,9.818,9.818,0,0,0,1.475,5.294Zm21.308-7.99a56.444,56.444,0,0,0-2.42-15.3,45.839,45.839,0,0,0,7.282-2.9,36.256,36.256,0,0,1,5.775,18.2Zm3.092-20.712a43.31,43.31,0,0,1-6.5,2.537c-.479-1.279-.993-2.546-1.576-3.77a1.521,1.521,0,0,0-2.747,1.308A44.625,44.625,0,0,1,65.676,22.2a52.8,52.8,0,0,1,2.738,15.817h-9.1a1.521,1.521,0,0,0,0,3.042H68.4a56.012,56.012,0,0,1-.925,8.944,1.521,1.521,0,0,0,2.988.564,59.141,59.141,0,0,0,.978-9.508H82.073a36.427,36.427,0,0,1-5.756,18.209,45.016,45.016,0,0,0-7.423-2.97,1.521,1.521,0,1,0-.888,2.908,42.657,42.657,0,0,1,6.552,2.573,36.488,36.488,0,0,1-10.682,9.35V56.271a1.444,1.444,0,0,0-.046-.228h.027l-.57-3.68a9.149,9.149,0,0,0-7.6-7.618l-3.057-.5a7.358,7.358,0,0,1-.891-4.629,14.711,14.711,0,0,0,7.07-7.679,5.44,5.44,0,0,0,1.63-10.489c.881-3.388,2.058-10.97-3.717-14.487-2.433-1.481-5.838-1.664-9.581-1.573V3.08a36.463,36.463,0,0,1,27.4,14.229ZM9.178,38.021A36.348,36.348,0,0,1,14.9,19.788a43.733,43.733,0,0,0,7.3,2.923,57.832,57.832,0,0,0-2.4,15.31Zm7.5,23.768A42.584,42.584,0,0,1,23.244,59.2a1.521,1.521,0,0,0-.888-2.9,45,45,0,0,0-7.441,2.981,36.044,36.044,0,0,1-5.752-18.22H19.809a59.5,59.5,0,0,0,.926,9.227,1.521,1.521,0,0,0,1.495,1.247,1.428,1.428,0,0,0,.275-.026,1.521,1.521,0,0,0,1.217-1.77,56.223,56.223,0,0,1-.876-8.678h9.092a1.521,1.521,0,1,0,0-3.042H22.843A54.05,54.05,0,0,1,25.559,22.2c.344-1.007.722-2,1.125-2.95a1.521,1.521,0,0,0-2.8-1.185c-.243.576-.456,1.189-.683,1.788a42.167,42.167,0,0,1-6.54-2.553A36.4,36.4,0,0,1,27.5,7.866c.294,3.224,1.217,7.3,3.817,9.995V21.3a5.437,5.437,0,0,0,1.2,10.629,14.852,14.852,0,0,0,7,7.642,7.364,7.364,0,0,1-.9,4.664l-3.109.508a9.125,9.125,0,0,0-7.481,7.5l-.63,3.779h.027a1.454,1.454,0,0,0-.047.252V65.4H19.888a36.89,36.89,0,0,1-3.206-3.607Zm-13.64,8.17a1.521,1.521,0,0,1,1.521-1.521H27.375V88.208H3.042Zm27.375-3.042V57.792H60.833V88.208H30.417ZM88.208,88.208H63.875V74.521H86.687a1.521,1.521,0,0,1,1.521,1.521Z" transform="translate(0 0)" fill="#eeeff3"/>
      <path id="Shape-2" data-name="Shape" d="M27.832,22.887a9.32,9.32,0,0,0,3.845.833,7.986,7.986,0,0,0,3.6-.833,1.521,1.521,0,0,0-1.36-2.722,5.866,5.866,0,0,1-4.731,0,1.521,1.521,0,0,0-1.352,2.724Z" transform="translate(14.071 10.419)" fill="#eeeff3"/>
      <path id="Shape-3" data-name="Shape" d="M37.691,55.21V44.564a4.562,4.562,0,0,0-7.093-3.8L26.035,43.8a4.562,4.562,0,0,0,2.531,8.365V55.21a4.562,4.562,0,1,0,0,9.125h9.125a4.562,4.562,0,1,0,0-9.125Zm0,6.083H28.566a1.521,1.521,0,1,1,0-3.042h1.521a1.521,1.521,0,0,0,1.521-1.521V50.24a1.521,1.521,0,0,0-2.281-1.317,1.521,1.521,0,0,1-1.606-2.582L32.282,43.3a1.521,1.521,0,0,1,2.366,1.265V56.731a1.521,1.521,0,0,0,1.521,1.521h1.521a1.521,1.521,0,1,1,0,3.042Z" transform="translate(12.497 20.832)" fill="#eeeff3"/>
      <path id="Shape-4" data-name="Shape" d="M10.521,48A1.521,1.521,0,0,0,9,49.521v7.6a1.521,1.521,0,1,0,3.042,0v-7.6A1.521,1.521,0,0,0,10.521,48Z" transform="translate(4.688 25)" fill="#eeeff3"/>
      <path id="Shape-5" data-name="Shape" d="M50.521,51A1.521,1.521,0,0,0,49,52.521v4.562a1.521,1.521,0,1,0,3.042,0V52.521A1.521,1.521,0,0,0,50.521,51Z" transform="translate(25.521 26.563)" fill="#eeeff3"/>
    </g>
  </g>
</svg>
