<svg xmlns="http://www.w3.org/2000/svg" width="26.727" height="25.852" viewBox="0 0 26.727 25.852">
  <g id="battlequiz" transform="translate(-1.393 -32.764)">
    <path id="Path_3286" data-name="Path 3286" d="M351.537,221.163a3.308,3.308,0,1,0-4.757,0,4.644,4.644,0,0,0-2.268,3.987v4.475a.832.832,0,0,0,.832.832h7.628a.832.832,0,0,0,.832-.832v-4.475A4.644,4.644,0,0,0,351.537,221.163Zm-2.378-3.942a1.648,1.648,0,1,1-1.648,1.643A1.648,1.648,0,0,1,349.158,217.221Zm2.982,11.572h-5.963v-3.643a2.982,2.982,0,0,1,2.978-2.978h.007a2.982,2.982,0,0,1,2.978,2.978v3.643Z" transform="translate(-326.185 -172.341)" fill="#4e5366" stroke="#4e5366" stroke-width="1"/>
    <path id="Path_3287" data-name="Path 3287" d="M7.025,221.163a3.308,3.308,0,1,0-4.757,0A4.644,4.644,0,0,0,0,225.151v4.475a.832.832,0,0,0,.832.832H8.46a.832.832,0,0,0,.832-.832v-4.475A4.644,4.644,0,0,0,7.025,221.163Zm-2.378-3.942A1.648,1.648,0,1,1,3,218.865,1.648,1.648,0,0,1,4.646,217.221Zm2.982,11.572H1.664v-3.643a2.982,2.982,0,0,1,2.978-2.978H4.65a2.982,2.982,0,0,1,2.978,2.978v3.643Z" transform="translate(1.893 -182.293)" fill="#4e5366" stroke="#4e5366" stroke-width="1"/>
    <path id="Path_3288" data-name="Path 3288" d="M208.237,223.156a.832.832,0,0,0-1.092.438l-5.477,12.819a.832.832,0,1,0,1.531.654l5.477-12.819A.832.832,0,0,0,208.237,223.156Z" transform="translate(-190.416 -184.407)" fill="#4e5366" stroke="#4e5366" stroke-width="1"/>
  </g>
</svg>
