<svg xmlns="http://www.w3.org/2000/svg" xmlns:xlink="http://www.w3.org/1999/xlink" width="31.877" height="35.013" viewBox="0 0 31.877 35.013">
  <defs>
    <linearGradient id="linear-gradient" y1="1" x2="1" gradientUnits="objectBoundingBox">
      <stop offset="0" stop-color="#00b3d5"/>
      <stop offset="1" stop-color="#00e1d3"/>
    </linearGradient>
  </defs>
  <g id="selfchallenge" transform="translate(0 0)">
    <g id="Group_602" data-name="Group 602" transform="translate(15.852 0.722)">
      <line id="Line_9" data-name="Line 9" y2="3.459" transform="translate(0.871 0.871)" fill="#fff"/>
      <path id="Path_1927" data-name="Path 1927" d="M4121.871,4904.345a.871.871,0,0,1-.871-.872v-3.458a.871.871,0,1,1,1.743,0v3.458A.871.871,0,0,1,4121.871,4904.345Z" transform="translate(-4121 -4899.143)" fill="url(#linear-gradient)"/>
    </g>
    <g id="Group_603" data-name="Group 603" transform="translate(11.149)">
      <line id="Line_10" data-name="Line 10" x2="9.449" transform="translate(0.871 0.871)" fill="#fff"/>
      <path id="Path_1928" data-name="Path 1928" d="M4104.319,4896.742h-9.448a.871.871,0,1,1,0-1.741h9.448a.871.871,0,1,1,0,1.741Z" transform="translate(-4094 -4895.001)" fill="url(#linear-gradient)"/>
    </g>
    <g id="Group_607" data-name="Group 607" transform="translate(26.304 6.445)">
      <line id="Line_14" data-name="Line 14" x1="2.09" y2="2.09" transform="translate(0.871 0.871)" fill="#fff"/>
      <path id="Path_1932" data-name="Path 1932" d="M4181.872,4935.833a.871.871,0,0,1-.616-1.486l2.09-2.091a.87.87,0,0,1,1.231,1.231l-2.09,2.09A.869.869,0,0,1,4181.872,4935.833Z" transform="translate(-4181 -4932)" fill="url(#linear-gradient)"/>
    </g>
    <g id="Group_608" data-name="Group 608" transform="translate(3.658 6.445)">
      <line id="Line_15" data-name="Line 15" x1="2.09" y1="2.09" transform="translate(0.871 0.871)" fill="#fff"/>
      <path id="Path_1933" data-name="Path 1933" d="M4053.962,4935.833a.87.87,0,0,1-.616-.256l-2.09-2.09a.871.871,0,0,1,1.232-1.231l2.091,2.091a.871.871,0,0,1-.616,1.486Z" transform="translate(-4051 -4932)" fill="url(#linear-gradient)"/>
    </g>
    <g id="Group_600" data-name="Group 600" transform="translate(1.594 4.703)">
      <g id="Group_599" data-name="Group 599">
        <path id="Path_1925" data-name="Path 1925" d="M4057.543,4922.34a15.175,15.175,0,0,0-18.388,13.881.875.875,0,0,0,.869.934h0a.866.866,0,0,0,.868-.808,13.414,13.414,0,1,1,14.2,14.2.867.867,0,0,0-.808.869h0a.873.873,0,0,0,.933.869,15.174,15.174,0,0,0,13.881-18.388A14.953,14.953,0,0,0,4057.543,4922.34Z" transform="translate(-4039.153 -4922)" fill="url(#linear-gradient)"/>
      </g>
    </g>
    <g id="Group_601" data-name="Group 601" transform="translate(15.852 11.87)">
      <line id="Line_8" data-name="Line 8" y2="7.466" transform="translate(0.871 0.871)" fill="#fff"/>
      <path id="Path_1926" data-name="Path 1926" d="M4121.871,4972.35a.871.871,0,0,1-.871-.871v-7.465a.871.871,0,0,1,1.743,0v7.465A.871.871,0,0,1,4121.871,4972.35Z" transform="translate(-4121 -4963.143)" fill="url(#linear-gradient)"/>
    </g>
    <g id="Group_604" data-name="Group 604" transform="translate(0 22.471)">
      <line id="Line_11" data-name="Line 11" x2="11.149" transform="translate(0.871 0.871)" fill="#fff"/>
      <path id="Path_1929" data-name="Path 1929" d="M4042.02,5025.741h-11.149a.871.871,0,0,1,0-1.741h11.149a.871.871,0,1,1,0,1.741Z" transform="translate(-4030.001 -5024)" fill="url(#linear-gradient)"/>
    </g>
    <g id="Group_605" data-name="Group 605" transform="translate(2.973 28.046)">
      <line id="Line_12" data-name="Line 12" x2="8.176" transform="translate(0.871 0.871)" fill="#fff"/>
      <path id="Path_1930" data-name="Path 1930" d="M4056.112,5057.743h-8.176a.871.871,0,0,1,0-1.743h8.176a.871.871,0,0,1,0,1.743Z" transform="translate(-4047.066 -5056)" fill="url(#linear-gradient)"/>
    </g>
    <g id="Group_606" data-name="Group 606" transform="translate(6.094 33.271)">
      <line id="Line_13" data-name="Line 13" x2="4.459" transform="translate(0.871 0.871)" fill="#fff"/>
      <path id="Path_1931" data-name="Path 1931" d="M4070.317,5087.742h-4.46a.871.871,0,1,1,0-1.742h4.46a.871.871,0,0,1,0,1.742Z" transform="translate(-4064.987 -5086)" fill="url(#linear-gradient)"/>
    </g>
  </g>
</svg>
