<svg xmlns="http://www.w3.org/2000/svg" xmlns:xlink="http://www.w3.org/1999/xlink" width="17.186" height="20" viewBox="0 0 17.186 20">
  <defs>
    <linearGradient id="linear-gradient" y1="1" x2="1" gradientUnits="objectBoundingBox">
      <stop offset="0" stop-color="#00b3d5"/>
      <stop offset="1" stop-color="#00e1d3"/>
    </linearGradient>
  </defs>
  <g id="coins" transform="translate(-1805.54 -7615.54)">
    <g id="Group_1331" data-name="Group 1331" transform="translate(1806.04 7616.04)">
      <g id="Group_1330" data-name="Group 1330">
        <path id="Path_2806" data-name="Path 2806" d="M1819.774,7623.938l-1.665-1.7a2.025,2.025,0,0,0,.741-1.565v-.064a2.029,2.029,0,0,0-1.436-1.938l.34-.812a1.312,1.312,0,0,0-1.21-1.818h-5.792a1.312,1.312,0,0,0-1.225,1.781l.338.886a2.031,2.031,0,0,0-1.325,1.9v.064a2.023,2.023,0,0,0,.561,1.4l-1.712,1.928a5.332,5.332,0,0,0-1.349,3.548v.856a4.691,4.691,0,0,0,4.685,4.686h2.82a4.936,4.936,0,0,1-.494-1.458h-2.326a3.23,3.23,0,0,1-3.227-3.227v-.856a3.883,3.883,0,0,1,.98-2.579l2.018-2.271h6.022l2.215,2.262a3.933,3.933,0,0,1,.742,1.065,5.011,5.011,0,0,1,1.788,1.014A5.311,5.311,0,0,0,1819.774,7623.938Zm-3.45-6.44-.455,1.085h-4.491l-.414-1.085Zm1.067,3.175a.568.568,0,0,1-.567.567h-6.26a.567.567,0,0,1-.567-.567v-.064a.567.567,0,0,1,.567-.567h6.274a.568.568,0,0,1,.553.567Z" transform="translate(-1806.04 -7616.04)" stroke="rgba(0,0,0,0)" stroke-width="1" fill="url(#linear-gradient)"/>
      </g>
    </g>
    <path id="Path_2807" data-name="Path 2807" d="M1862.881,7696.438a4.26,4.26,0,1,1,4.26-4.259A4.264,4.264,0,0,1,1862.881,7696.438Zm0-7.274a3.014,3.014,0,1,0,3.014,3.015A3.018,3.018,0,0,0,1862.881,7689.164Z" transform="translate(-44.914 -61.398)" stroke="rgba(0,0,0,0)" stroke-width="1" fill="url(#linear-gradient)"/>
    <g id="Group_1332" data-name="Group 1332" transform="translate(1816.654 7628.337)">
      <path id="Path_2808" data-name="Path 2808" d="M1880.673,7702.069v-.02a.229.229,0,0,0-.227-.227h-.514a.229.229,0,0,0-.225.227v.107a.226.226,0,0,0,.225.225h.514a1.087,1.087,0,0,1,.179.015,1.1,1.1,0,0,1,.919,1.083v.315a1.1,1.1,0,0,1-.919,1.083v.031a.436.436,0,1,1-.872,0v-.031a1.1,1.1,0,0,1-.919-1.083v-.062a.436.436,0,1,1,.871,0v.063a.229.229,0,0,0,.225.226h.514a.223.223,0,0,0,.179-.089.22.22,0,0,0,.047-.137v-.315a.224.224,0,0,0-.047-.138.228.228,0,0,0-.179-.088h-.514a.968.968,0,0,1-.178-.015,1.1,1.1,0,0,1-.919-1.082v-.107a1.1,1.1,0,0,1,.919-1.083v-.155a.436.436,0,1,1,.872,0v.155a1.1,1.1,0,0,1,.919,1.083v.02a.436.436,0,0,1-.872,0Z" transform="translate(-1878.835 -7700.374)" stroke="rgba(0,0,0,0)" stroke-width="1" fill="url(#linear-gradient)"/>
    </g>
  </g>
</svg>
