<svg xmlns="http://www.w3.org/2000/svg" width="21" height="21" viewBox="0 0 21 21">
    <defs>
        <clipPath id="yuajj274xa">
            <path d="M0 0h21v21H0z"/>
        </clipPath>
    </defs>
    <g data-name="refer" style="clip-path:url(#yuajj274xa)">
        <g data-name="Layer 2">
            <g data-name="Layer 1">
                <path data-name="Path 4847" d="M7.757 7.453a3.794 3.794 0 1 1 5.355 0l.218.381 2.623 4.484a.227.227 0 0 0 .309.136 3.84 3.84 0 1 1-2.775 4.848.263.263 0 0 0-.309-.218H7.73a.309.309 0 0 0-.354.254 3.785 3.785 0 1 1-2.723-4.883c.091 0 .172.073.245-.054zm6.644 6v-.073q-1.443-2.433-2.877-4.865a.218.218 0 0 0-.209-.073 3.5 3.5 0 0 1-1.734 0 .191.191 0 0 0-.263.109c-.4.7-.808 1.389-1.207 2.079l-1.652 2.814a3.858 3.858 0 0 1 .908 1.552.236.236 0 0 0 .272.209h5.582c.064 0 .172 0 .182-.091a4.012 4.012 0 0 1 .998-1.661zm-3.985-6.8a1.906 1.906 0 1 0-1.888-1.905 1.906 1.906 0 0 0 1.889 1.906zM5.678 16.14a1.9 1.9 0 1 0-3.785 0 1.9 1.9 0 1 0 3.785 0zm13.3 0a1.906 1.906 0 1 0-.562 1.351 1.9 1.9 0 0 0 .562-1.351z"/>
            </g>
        </g>
    </g>
</svg>
