<svg id="rank_b" data-name="rank b" xmlns="http://www.w3.org/2000/svg" xmlns:xlink="http://www.w3.org/1999/xlink" width="20" height="24.986" viewBox="0 0 20 24.986">
  <defs>
    <linearGradient id="linear-gradient" x2="1" y2="1" gradientUnits="objectBoundingBox">
      <stop offset="0" stop-color="#00b3d5"/>
      <stop offset="1" stop-color="#00e1d3"/>
    </linearGradient>
  </defs>
  <path id="Path_2525" data-name="Path 2525" d="M319.866,73.758l-.558-.15-.15-.558a.176.176,0,0,0-.34,0l-.15.558-.558.15a.176.176,0,0,0,0,.34l.558.15.15.558a.176.176,0,0,0,.34,0l.15-.558.558-.15a.176.176,0,0,0,0-.34Z" transform="translate(-315.938 -72.92)" fill="#212121"/>
  <path id="Path_2526" data-name="Path 2526" d="M482.753,194.226l-.318-.086-.086-.318a.176.176,0,0,0-.34,0l-.086.318-.318.086a.176.176,0,0,0,0,.34l.318.086.086.318a.176.176,0,0,0,.34,0l.086-.318.318-.086a.176.176,0,0,0,0-.34Z" transform="translate(-462.883 -181.461)" fill="#212121"/>
  <g id="Group_1050" data-name="Group 1050" transform="translate(8.79 13.268)">
    <path id="Path_2527" data-name="Path 2527" d="M392.291,214.355l-1.913-.725a.586.586,0,0,0-.662.177l-1.295,1.585a.586.586,0,0,1-1.021-.219L385,206.2a.587.587,0,0,1,.415-.718l4.532-1.214a.586.586,0,0,1,.718.415l2.406,8.978A.586.586,0,0,1,392.291,214.355Z" transform="translate(-384.975 -204.243)" fill="url(#linear-gradient)"/>
  </g>
  <g id="Group_1051" data-name="Group 1051" transform="translate(2.162 13.268)">
    <path id="Path_2528" data-name="Path 2528" d="M319.955,214.355l1.913-.725a.586.586,0,0,1,.662.177l1.294,1.585a.587.587,0,0,0,1.021-.219l2.405-8.978a.586.586,0,0,0-.415-.718l-4.532-1.214a.586.586,0,0,0-.718.415l-2.405,8.978A.586.586,0,0,0,319.955,214.355Z" transform="translate(-319.16 -204.243)" fill="url(#linear-gradient)"/>
  </g>
  <g id="Group_1053" data-name="Group 1053" transform="translate(2.162 13.268)">
    <g id="Group_1052" data-name="Group 1052">
      <path id="Path_2529" data-name="Path 2529" d="M320.822,213.655l2.405-8.978a.581.581,0,0,1,.066-.149l-.99-.265a.586.586,0,0,0-.718.415l-2.405,8.978a.586.586,0,0,0,.774.7l.888-.336A.576.576,0,0,1,320.822,213.655Z" transform="translate(-319.16 -204.243)" fill="#fff"/>
    </g>
  </g>
  <g id="Group_1055" data-name="Group 1055" transform="translate(8.81 13.269)">
    <g id="Group_1054" data-name="Group 1054">
      <path id="Path_2530" data-name="Path 2530" d="M386.755,206.2a.587.587,0,0,1,.415-.718l3.442-.922a.586.586,0,0,0-.669-.292l-4.532,1.214a.587.587,0,0,0-.415.718l2.406,8.978a.586.586,0,0,0,1.021.219l.6-.735Z" transform="translate(-384.975 -204.244)" fill="#fff"/>
    </g>
  </g>
  <g id="Group_1056" data-name="Group 1056" transform="translate(3.63 13.289)" style="mix-blend-mode: multiply;isolation: isolate">
    <path id="Path_2531" data-name="Path 2531" d="M344.769,204.677a.586.586,0,0,0-.718-.415L339.8,205.4l-4.254-1.14a.586.586,0,0,0-.718.415l-.929,3.469a3.782,3.782,0,0,1,1.065.469c.739.538,1.143,1.789,2.031,2.077.722.234,1.588-.271,2.41-.436l.4-1.475.389,1.453c.859.134,1.775.7,2.533.459.887-.288,1.292-1.539,2.031-2.077a3.457,3.457,0,0,1,.958-.434Z" transform="translate(-333.895 -204.243)" fill="#bdbdbd"/>
  </g>
  <g id="Group_1057" data-name="Group 1057" transform="translate(8.438 12.917)">
    <path id="Path_2532" data-name="Path 2532" d="M384.855,212.849a.94.94,0,0,1-.908-.7l-2.406-8.978a.938.938,0,0,1,.664-1.149l4.532-1.214a.94.94,0,0,1,1.149.664l2.406,8.978a.938.938,0,0,1-1.239,1.12l-1.913-.725a.234.234,0,0,0-.265.071L385.58,212.5A.934.934,0,0,1,384.855,212.849Zm2.124-11.365a.233.233,0,0,0-.061.008l-4.532,1.214a.234.234,0,0,0-.166.287l2.405,8.978a.235.235,0,0,0,.408.088l1.294-1.585a.936.936,0,0,1,1.059-.284l1.913.725a.234.234,0,0,0,.31-.28l-2.406-8.978A.235.235,0,0,0,386.979,201.484Z" transform="translate(-381.509 -200.78)" fill="#212121"/>
  </g>
  <g id="Group_1058" data-name="Group 1058" transform="translate(1.81 12.917)">
    <path id="Path_2533" data-name="Path 2533" d="M321.168,212.848a.934.934,0,0,1-.725-.345l-1.294-1.585a.234.234,0,0,0-.265-.071l-1.914.725a.938.938,0,0,1-1.239-1.12l2.406-8.978a.94.94,0,0,1,1.149-.664l4.532,1.215a.938.938,0,0,1,.664,1.149l-2.406,8.978a.94.94,0,0,1-.908.7Zm-2.2-2.72a.937.937,0,0,1,.726.345l1.295,1.585a.235.235,0,0,0,.408-.088l2.406-8.978a.234.234,0,0,0-.166-.287l-4.532-1.215a.235.235,0,0,0-.287.166l-2.405,8.978a.234.234,0,0,0,.31.28l1.913-.725A.937.937,0,0,1,318.967,210.129Z" transform="translate(-315.699 -200.779)" fill="#212121"/>
  </g>
  <g id="Group_1061" data-name="Group 1061" transform="translate(0 0.338)">
    <g id="Group_1059" data-name="Group 1059" transform="translate(0.352 0.352)">
      <path id="Path_2534" data-name="Path 2534" d="M319.824,88.559c0,.945-1.062,1.711-1.34,2.564-.287.884.112,2.125-.424,2.861s-1.85.745-2.594,1.286-1.14,1.781-2.024,2.068c-.854.277-1.909-.485-2.855-.485s-2,.762-2.855.485c-.885-.287-1.288-1.533-2.025-2.068s-2.053-.543-2.594-1.286-.137-1.977-.424-2.861c-.277-.853-1.34-1.619-1.34-2.564s1.062-1.711,1.34-2.564c.287-.884-.112-2.125.424-2.861s1.85-.745,2.594-1.286,1.14-1.781,2.025-2.068c.854-.277,1.909.485,2.855.485s2-.762,2.855-.485c.885.287,1.288,1.533,2.025,2.068s2.053.543,2.594,1.286.137,1.977.424,2.861C318.762,86.848,319.824,87.614,319.824,88.559Z" transform="translate(-301.349 -79.719)" fill="#fff"/>
    </g>
    <g id="Group_1060" data-name="Group 1060">
      <path id="Path_2535" data-name="Path 2535" d="M309.923,94.635a4.324,4.324,0,0,1-1.309-.287,2.631,2.631,0,0,0-2.279,0,2.963,2.963,0,0,1-1.825.209,3,3,0,0,1-1.392-1.274,3.739,3.739,0,0,0-.731-.845A3.783,3.783,0,0,0,301.345,92a2.25,2.25,0,0,1-2-2.741,3.834,3.834,0,0,0-.1-1.14,3.667,3.667,0,0,0-.568-.937,2.3,2.3,0,0,1,0-3.47,3.671,3.671,0,0,0,.568-.937,3.835,3.835,0,0,0,.1-1.14,2.25,2.25,0,0,1,2-2.74,3.786,3.786,0,0,0,1.043-.442,3.737,3.737,0,0,0,.731-.845,3,3,0,0,1,1.392-1.274,2.961,2.961,0,0,1,1.824.208,2.631,2.631,0,0,0,2.279,0,2.963,2.963,0,0,1,1.825-.208A3,3,0,0,1,311.83,77.6a3.736,3.736,0,0,0,.731.845,3.782,3.782,0,0,0,1.043.442,2.25,2.25,0,0,1,2,2.74,3.832,3.832,0,0,0,.1,1.14,3.669,3.669,0,0,0,.568.937,2.3,2.3,0,0,1,0,3.47,3.667,3.667,0,0,0-.568.938,3.832,3.832,0,0,0-.1,1.14,2.25,2.25,0,0,1-2,2.74,3.785,3.785,0,0,0-1.043.442,3.739,3.739,0,0,0-.731.845,3,3,0,0,1-1.392,1.274A1.66,1.66,0,0,1,309.923,94.635Zm-2.449-1.247a4.451,4.451,0,0,1,1.358.295,1.6,1.6,0,0,0,2.427-.807,4.279,4.279,0,0,1,.889-1,4.334,4.334,0,0,1,1.242-.543,1.61,1.61,0,0,0,1.513-2.07,4.377,4.377,0,0,1,.136-1.359,4.2,4.2,0,0,1,.671-1.137,1.661,1.661,0,0,0,0-2.638,4.2,4.2,0,0,1-.671-1.137,4.377,4.377,0,0,1-.136-1.359,1.61,1.61,0,0,0-1.513-2.07,4.336,4.336,0,0,1-1.242-.543,4.279,4.279,0,0,1-.889-1A2.491,2.491,0,0,0,310.222,77a2.465,2.465,0,0,0-1.389.208,3.28,3.28,0,0,1-2.717,0,1.6,1.6,0,0,0-2.427.807,4.277,4.277,0,0,1-.889,1,4.331,4.331,0,0,1-1.242.543,1.61,1.61,0,0,0-1.513,2.07,4.388,4.388,0,0,1-.136,1.359,4.2,4.2,0,0,1-.671,1.137,1.661,1.661,0,0,0,0,2.638,4.2,4.2,0,0,1,.671,1.137,4.387,4.387,0,0,1,.136,1.359,1.61,1.61,0,0,0,1.513,2.071,4.332,4.332,0,0,1,1.242.543,4.28,4.28,0,0,1,.889,1,1.6,1.6,0,0,0,2.427.807A4.45,4.45,0,0,1,307.474,93.388Z" transform="translate(-297.885 -76.251)" fill="#212121"/>
    </g>
  </g>
  <g id="Group_1062" data-name="Group 1062" transform="translate(1.773 2.052)">
    <path id="Path_2536" data-name="Path 2536" d="M330.97,100.632c0,.8-.9,1.455-1.134,2.18-.243.751.094,1.807-.359,2.432s-1.566.633-2.195,1.093-.965,1.514-1.713,1.758c-.722.235-1.616-.412-2.416-.412s-1.694.648-2.416.412c-.749-.244-1.09-1.3-1.713-1.758s-1.737-.461-2.195-1.093-.116-1.681-.359-2.432c-.235-.725-1.133-1.376-1.133-2.18s.9-1.455,1.133-2.18c.243-.751-.094-1.807.359-2.432s1.565-.633,2.195-1.093.965-1.514,1.713-1.758c.722-.235,1.616.412,2.416.412s1.694-.648,2.416-.412c.749.244,1.09,1.3,1.713,1.758s1.737.461,2.2,1.093.116,1.681.359,2.432C330.07,99.177,330.97,99.828,330.97,100.632Z" transform="translate(-315.336 -93.117)" stroke="rgba(0,0,0,0)" stroke-width="1" fill="url(#linear-gradient)"/>
  </g>
  <g id="Group_1066" data-name="Group 1066" transform="translate(3.725 3.35)">
    <g id="Group_1063" data-name="Group 1063" transform="translate(0 0.352)">
      <circle id="Ellipse_273" data-name="Ellipse 273" cx="5.865" cy="5.865" r="5.865" fill="#fff"/>
    </g>
    <g id="Group_1064" data-name="Group 1064" transform="translate(1.077 8.293)">
      <path id="Path_2537" data-name="Path 2537" d="M350.22,191.673q-.269,0-.54-.024a6.182,6.182,0,0,1-4.161-2.131.352.352,0,1,1,.533-.46,5.51,5.51,0,0,0,9.189-1.32.352.352,0,0,1,.64.292A6.234,6.234,0,0,1,350.22,191.673Z" transform="translate(-345.434 -187.532)" fill="#212121" stroke="rgba(0,0,0,0)" stroke-miterlimit="10" stroke-width="1"/>
    </g>
    <g id="Group_1065" data-name="Group 1065" transform="translate(0.955)">
      <path id="Path_2538" data-name="Path 2538" d="M344.589,108.778a.352.352,0,0,1-.273-.574,6.21,6.21,0,0,1,9.361-.343.352.352,0,0,1-.513.482,5.506,5.506,0,0,0-8.3.305A.351.351,0,0,1,344.589,108.778Z" transform="translate(-344.237 -105.897)" fill="#212121" stroke="rgba(0,0,0,0)" stroke-miterlimit="10" stroke-width="1"/>
    </g>
  </g>
  <g id="Group_1069" data-name="Group 1069" transform="translate(6.982 5.493)">
    <g id="Group_1068" data-name="Group 1068">
      <g id="Group_1067" data-name="Group 1067">
        <path id="Path_2539" data-name="Path 2539" d="M370.779,133.081a1.62,1.62,0,0,1,.874.188.711.711,0,0,1,0,1.141,1.619,1.619,0,0,1-.874.188h-2.9a1.2,1.2,0,0,1-.741-.188.68.68,0,0,1-.242-.573q0-.346.993-1.428.2-.217.311-.341a17.423,17.423,0,0,0,1.457-1.751,1.781,1.781,0,0,0,.366-.9.706.706,0,0,0-.175-.494.572.572,0,0,0-.442-.193.634.634,0,0,0-.447.19,1.434,1.434,0,0,0-.333.551,1.842,1.842,0,0,1-.348.664.614.614,0,0,1-.447.166.778.778,0,0,1-.585-.232.836.836,0,0,1-.225-.608,1.932,1.932,0,0,1,.138-.674,2.407,2.407,0,0,1,.366-.655,2.516,2.516,0,0,1,.859-.689,2.423,2.423,0,0,1,1.072-.24,2.34,2.34,0,0,1,1.665.6,2.007,2.007,0,0,1,.642,1.534,2.773,2.773,0,0,1-.487,1.472,15.252,15.252,0,0,1-2,2.272Z" transform="translate(-366.891 -127.202)"/>
      </g>
    </g>
  </g>
  <g id="Group_1070" data-name="Group 1070" transform="translate(3.976 6.616)">
    <circle id="Ellipse_274" data-name="Ellipse 274" cx="0.352" cy="0.352" r="0.352" fill="#212121" stroke="rgba(0,0,0,0)" stroke-miterlimit="10" stroke-width="1"/>
  </g>
</svg>
