<svg xmlns="http://www.w3.org/2000/svg" xmlns:xlink="http://www.w3.org/1999/xlink" width="258.591" height="250.948" viewBox="0 0 258.591 250.948">
  <defs>
    <linearGradient id="linear-gradient" x2="1" y2="1" gradientUnits="objectBoundingBox">
      <stop offset="0" stop-color="#00b3d5"/>
      <stop offset="1" stop-color="#00e1d3"/>
    </linearGradient>
  </defs>
  <g id="otp" transform="translate(0 -7.194)">
    <g id="Group_1614" data-name="Group 1614" transform="translate(0 7.194)">
      <path id="Path_3307" data-name="Path 3307" d="M47.874,361.311a3.709,3.709,0,0,0-5.046-1.328l-9.243,5.365V354.671a3.665,3.665,0,0,0-7.331,0v10.677l-9.243-5.365a3.69,3.69,0,1,0-3.718,6.375l9.3,5.418-9.3,5.418a3.69,3.69,0,0,0,3.718,6.374l9.243-5.365v10.677a3.665,3.665,0,0,0,7.331,0V378.2l9.243,5.365a3.69,3.69,0,0,0,3.718-6.374l-9.3-5.418,9.3-5.418A3.675,3.675,0,0,0,47.874,361.311Z" transform="translate(-5.377 -168.371)" fill="url(#linear-gradient)"/>
      <path id="Path_3308" data-name="Path 3308" d="M143.464,382.141a3.709,3.709,0,0,0,5.046,1.328l9.243-5.365v10.677a3.665,3.665,0,0,0,7.331,0V378.1l9.243,5.365a3.69,3.69,0,1,0,3.718-6.374l-9.3-5.418,9.3-5.418a3.69,3.69,0,0,0-3.718-6.375l-9.243,5.365V354.571a3.665,3.665,0,0,0-7.331,0v10.677l-9.243-5.312a3.69,3.69,0,1,0-3.718,6.374l9.3,5.418-9.3,5.365A3.709,3.709,0,0,0,143.464,382.141Z" transform="translate(-67.024 -168.324)" fill="url(#linear-gradient)"/>
      <path id="Path_3309" data-name="Path 3309" d="M131.5,459.621V466.1a2.834,2.834,0,0,0,2.815,2.815h43.506a2.834,2.834,0,0,0,2.815-2.815v-6.481a2.834,2.834,0,0,0-2.815-2.815H134.315A2.8,2.8,0,0,0,131.5,459.621Z" transform="translate(-61.646 -217.969)" fill="url(#linear-gradient)"/>
      <path id="Path_3310" data-name="Path 3310" d="M240.154,67.7h-.319V53.256c0-25.126-20.558-46.481-45.631-46.056a44.989,44.989,0,0,0-44.143,44.887v1.381a3.786,3.786,0,0,0,3.772,3.772h12.058a3.786,3.786,0,0,0,3.772-3.772v-.425c0-13.493,10.146-25.339,23.639-26.188a25.281,25.281,0,0,1,26.879,25.179V67.652H183V67.7H148.627A11.851,11.851,0,0,0,137.1,79.5v65.338a11.857,11.857,0,0,0,11.846,11.846H240.1a11.857,11.857,0,0,0,11.846-11.846V79.551A11.778,11.778,0,0,0,240.154,67.7Zm-38.566,47.437a2.552,2.552,0,0,0-1.169,2.39c.053,4.781.053,9.562,0,14.4h0a5.039,5.039,0,0,1-2.709,4.834,5.613,5.613,0,0,1-8.393-4.834V117.479a2.506,2.506,0,0,0-1.062-2.284,10.916,10.916,0,0,1-3.612-13.493A11.167,11.167,0,0,1,206,106.111,10.115,10.115,0,0,1,201.589,115.142Z" transform="translate(-64.272 -7.194)" fill="url(#linear-gradient)"/>
      <path id="Path_3311" data-name="Path 3311" d="M262.9,459.621V466.1a2.834,2.834,0,0,0,2.815,2.815h43.506a2.834,2.834,0,0,0,2.815-2.815v-6.481a2.834,2.834,0,0,0-2.815-2.815H265.715A2.834,2.834,0,0,0,262.9,459.621Z" transform="translate(-123.246 -217.969)" fill="url(#linear-gradient)"/>
      <path id="Path_3312" data-name="Path 3312" d="M274.864,382.141a3.709,3.709,0,0,0,5.046,1.328l9.243-5.365v10.677a3.665,3.665,0,0,0,7.331,0V378.1l9.243,5.365a3.69,3.69,0,0,0,3.718-6.374l-9.3-5.418,9.3-5.418a3.69,3.69,0,0,0-3.718-6.375l-9.243,5.365V354.571a3.665,3.665,0,0,0-7.331,0v10.677l-9.243-5.365a3.69,3.69,0,0,0-3.718,6.375l9.3,5.418-9.3,5.418A3.709,3.709,0,0,0,274.864,382.141Z" transform="translate(-128.623 -168.324)" fill="url(#linear-gradient)"/>
      <path id="Path_3313" data-name="Path 3313" d="M440.621,456.806H397.115a2.834,2.834,0,0,0-2.815,2.815V466.1a2.834,2.834,0,0,0,2.815,2.815h43.506a2.834,2.834,0,0,0,2.815-2.815v-6.481A2.834,2.834,0,0,0,440.621,456.806Z" transform="translate(-184.845 -217.969)" fill="url(#linear-gradient)"/>
      <path id="Path_3314" data-name="Path 3314" d="M2.815,468.918H46.321a2.834,2.834,0,0,0,2.815-2.815v-6.481a2.834,2.834,0,0,0-2.815-2.815H2.815A2.834,2.834,0,0,0,0,459.621V466.1A2.834,2.834,0,0,0,2.815,468.918Z" transform="translate(0 -217.969)" fill="url(#linear-gradient)"/>
      <path id="Path_3315" data-name="Path 3315" d="M406.343,382.141a3.709,3.709,0,0,0,5.046,1.328l9.243-5.365v10.677a3.665,3.665,0,0,0,7.331,0V378.1l9.243,5.365a3.69,3.69,0,1,0,3.718-6.374l-9.3-5.418,9.3-5.418a3.69,3.69,0,0,0-3.718-6.375l-9.243,5.365V354.571a3.665,3.665,0,0,0-7.331,0v10.677l-9.243-5.365a3.69,3.69,0,1,0-3.718,6.375l9.3,5.418-9.3,5.418A3.663,3.663,0,0,0,406.343,382.141Z" transform="translate(-190.248 -168.324)" fill="url(#linear-gradient)"/>
    </g>
  </g>
</svg>
